<svg xmlns="http://www.w3.org/2000/svg" xmlns:xlink="http://www.w3.org/1999/xlink" width="1080" zoomAndPan="magnify" viewBox="0 0 810 1012.49997" height="1350" preserveAspectRatio="xMidYMid meet" version="1.0"><defs><filter x="0%" y="0%" width="100%" height="100%" id="91af851805"><feColorMatrix values="0 0 0 0 1 0 0 0 0 1 0 0 0 0 1 0 0 0 1 0" color-interpolation-filters="sRGB"/></filter><clipPath id="8b48efa128"><path d="M 0.199219 0 L 809.800781 0 L 809.800781 1012 L 0.199219 1012 Z M 0.199219 0 " clip-rule="nonzero"/></clipPath><clipPath id="d277348d2b"><path d="M 41.089844 57 L 595 57 L 595 219 L 41.089844 219 Z M 41.089844 57 " clip-rule="nonzero"/></clipPath><mask id="9fab86c201"><g filter="url(#91af851805)"><rect x="-81" width="972" fill="#000000" y="-101.249997" height="1214.999964" fill-opacity="0.57"/></g></mask><clipPath id="389defdf43"><path d="M 0.0273438 2 L 333 2 L 333 215.234375 L 0.0273438 215.234375 Z M 0.0273438 2 " clip-rule="nonzero"/></clipPath><clipPath id="c81572a0b4"><rect x="0" width="335" y="0" height="216"/></clipPath><mask id="8255487841"><g filter="url(#91af851805)"><rect x="-81" width="972" fill="#000000" y="-101.249997" height="1214.999964" fill-opacity="0.41"/></g></mask><clipPath id="f05079f2f2"><path d="M 2 0.554688 L 112 0.554688 L 112 64 L 2 64 Z M 2 0.554688 " clip-rule="nonzero"/></clipPath><clipPath id="a2fd76644d"><rect x="0" width="114" y="0" height="65"/></clipPath><mask id="c20bd87e7e"><g filter="url(#91af851805)"><rect x="-81" width="972" fill="#000000" y="-101.249997" height="1214.999964" fill-opacity="0.41"/></g></mask><clipPath id="62de54613e"><rect x="0" width="98" y="0" height="48"/></clipPath><mask id="805f1ce32e"><g filter="url(#91af851805)"><rect x="-81" width="972" fill="#000000" y="-101.249997" height="1214.999964" fill-opacity="0.5"/></g></mask><clipPath id="8228162244"><path d="M 1 1 L 107.425781 1 L 107.425781 46 L 1 46 Z M 1 1 " clip-rule="nonzero"/></clipPath><clipPath id="b6e49ad737"><rect x="0" width="108" y="0" height="48"/></clipPath><clipPath id="1b51661a88"><path d="M 233 266 L 382 266 L 382 362 L 233 362 Z M 233 266 " clip-rule="nonzero"/></clipPath><clipPath id="549c7dca2a"><path d="M 251.753906 243.261719 L 382.839844 338.3125 L 353.355469 378.972656 L 222.269531 283.921875 Z M 251.753906 243.261719 " clip-rule="nonzero"/></clipPath><clipPath id="d9bf18047a"><path d="M 251.753906 243.261719 L 382.839844 338.3125 L 353.355469 378.972656 L 222.269531 283.921875 Z M 251.753906 243.261719 " clip-rule="nonzero"/></clipPath><clipPath id="e5eee2d870"><path d="M 251.753906 243.261719 L 382.839844 338.3125 L 353.355469 378.972656 L 222.269531 283.921875 Z M 251.753906 243.261719 " clip-rule="nonzero"/></clipPath><clipPath id="5ff7c211c5"><path d="M 50.144531 541.023438 L 618.351562 541.023438 L 618.351562 1012 L 50.144531 1012 Z M 50.144531 541.023438 " clip-rule="nonzero"/></clipPath><clipPath id="0ec376f8bf"><path d="M 247 488 L 398 488 L 398 563 L 247 563 Z M 247 488 " clip-rule="nonzero"/></clipPath><clipPath id="2d6ad7608d"><path d="M 405 525.570312 L 247.652344 563.777344 L 235.800781 514.96875 L 393.148438 476.761719 Z M 405 525.570312 " clip-rule="nonzero"/></clipPath><clipPath id="d85b413180"><path d="M 405 525.570312 L 247.652344 563.777344 L 235.800781 514.96875 L 393.148438 476.761719 Z M 405 525.570312 " clip-rule="nonzero"/></clipPath><clipPath id="9d6e3554eb"><path d="M 405 525.570312 L 247.652344 563.777344 L 235.800781 514.96875 L 393.148438 476.761719 Z M 405 525.570312 " clip-rule="nonzero"/></clipPath></defs><g clip-path="url(#8b48efa128)"><path fill="#ffffff" d="M 0.199219 0 L 809.800781 0 L 809.800781 1012 L 0.199219 1012 Z M 0.199219 0 " fill-opacity="1" fill-rule="nonzero"/><path fill="#f5f6f8" d="M 0.199219 0 L 809.800781 0 L 809.800781 1012 L 0.199219 1012 Z M 0.199219 0 " fill-opacity="1" fill-rule="nonzero"/></g><g clip-path="url(#d277348d2b)"><path fill="#498fa5" d="M 292.859375 211.210938 C 343.84375 199.699219 365.632812 202.847656 405.273438 209.757812 C 444.910156 216.664062 594.960938 200.976562 594.960938 200.976562 C 594.960938 200.976562 558.691406 195.480469 542.328125 148.320312 C 525.96875 101.160156 520.84375 85.1875 508.941406 74.75 C 497.035156 64.3125 453.316406 57.382812 453.316406 57.382812 C 453.316406 57.382812 342.742188 84.152344 219.886719 64.546875 C 219.886719 64.546875 139.394531 151.457031 94.445312 165.273438 C 49.496094 179.09375 41.101562 197.78125 41.101562 197.78125 C 41.101562 197.78125 129.660156 184.4375 177.960938 202.398438 C 226.269531 220.363281 241.871094 222.71875 292.859375 211.210938 Z M 292.859375 211.210938 " fill-opacity="1" fill-rule="nonzero"/><path fill="#336b89" d="M 248.730469 146.824219 C 262.089844 136.75 278.410156 125.511719 288.859375 112.222656 C 290.824219 109.726562 283.390625 115.476562 280.535156 116.867188 C 267.742188 123.082031 256.085938 130.535156 242.460938 134.769531 C 209.203125 145.105469 212.824219 162.710938 194.59375 169.203125 C 179.707031 174.5 109.34375 180.800781 59.394531 180.652344 C 44.695312 189.929688 41.097656 197.777344 41.097656 197.777344 C 41.097656 197.777344 129.660156 184.433594 177.964844 202.398438 C 226.269531 220.359375 241.871094 222.71875 292.855469 211.210938 C 343.84375 199.699219 365.636719 202.847656 405.273438 209.753906 C 444.910156 216.664062 594.960938 200.980469 594.960938 200.980469 C 594.960938 200.980469 558.691406 195.480469 542.332031 148.320312 C 525.96875 101.160156 520.84375 85.1875 508.941406 74.75 C 497.035156 64.3125 453.316406 57.382812 453.316406 57.382812 C 453.316406 57.382812 421.460938 65.019531 373.164062 69.140625 C 384.621094 78.503906 394.085938 87.613281 412.234375 86.152344 C 479.074219 80.765625 409.855469 109.824219 400.164062 135.574219 C 397.75 141.980469 413.117188 130.832031 418.917969 127.191406 C 435.71875 116.640625 459.691406 91.125 480.992188 92.582031 C 500.964844 93.945312 522.539062 179.34375 522.195312 179.851562 C 510.042969 197.871094 432.257812 201.050781 413.078125 196.382812 C 400.800781 193.390625 392.71875 180.675781 380.539062 177.738281 C 359.183594 172.59375 333.449219 175.898438 311.347656 172.578125 C 286.148438 168.792969 258.714844 215.433594 229.058594 197.722656 C 224.988281 195.292969 238.953125 187.242188 239.679688 183.730469 C 243.570312 164.960938 227.039062 163.175781 248.730469 146.824219 Z M 248.730469 146.824219 " fill-opacity="1" fill-rule="nonzero"/></g><path fill="#c8faff" d="M 345.152344 115.5625 C 354.523438 111.808594 370.304688 99.359375 372.273438 93.597656 C 374.242188 87.835938 368.496094 63.824219 365.4375 59.15625 C 362.375 54.488281 339.988281 45.828125 329.121094 50.515625 C 329.121094 50.515625 301.507812 61.875 301.566406 70.105469 C 301.621094 78.339844 305.089844 100.863281 309.640625 105.898438 C 314.1875 110.929688 335.78125 119.316406 345.152344 115.5625 Z M 345.152344 115.5625 " fill-opacity="1" fill-rule="nonzero"/><path fill="#e7fdff" d="M 359.835938 59.957031 C 357.507812 58.222656 336.457031 74.871094 331.050781 77.28125 C 325.640625 79.691406 306.890625 69.195312 306.890625 69.195312 C 303.636719 68.976562 304.296875 71.082031 306.449219 73.039062 C 308.605469 74.996094 324.171875 79.929688 328.738281 82.011719 C 333.300781 84.09375 336.515625 112.589844 339.273438 113.160156 C 342.03125 113.734375 332.730469 83.777344 334.289062 80.742188 C 335.847656 77.707031 362.164062 61.691406 359.835938 59.957031 Z M 359.835938 59.957031 " fill-opacity="1" fill-rule="nonzero"/><path fill="#a9f7ff" d="M 345.320312 102.699219 C 344.902344 104.285156 343.421875 108.65625 344.308594 110.347656 C 344.871094 111.410156 356.691406 102.164062 358.605469 101.179688 C 361.171875 99.863281 365.09375 98.820312 366.691406 96.1875 C 371.617188 88.050781 365.867188 72.890625 357.703125 68.46875 C 343.007812 67.527344 359.652344 83.6875 360.484375 88.570312 C 362.007812 97.503906 349.761719 85.855469 345.320312 102.699219 Z M 345.320312 102.699219 " fill-opacity="1" fill-rule="nonzero"/><path fill="#a9f7ff" d="M 310.726562 99.085938 C 309.921875 103.214844 326.566406 109.957031 329.355469 109 C 334.992188 107.070312 328.59375 87.417969 323.929688 84.878906 C 311.269531 79.878906 323.910156 94.855469 325.082031 98.015625 C 328.378906 106.878906 312.632812 89.320312 310.726562 99.085938 Z M 310.726562 99.085938 " fill-opacity="1" fill-rule="nonzero"/><path fill="#a9f7ff" d="M 321.226562 59.160156 C 319.351562 59.886719 317.398438 60.691406 315.617188 61.660156 C 295.140625 72.804688 322.242188 63.960938 325.550781 64.4375 C 327.96875 64.789062 326.242188 69.355469 329.535156 68.820312 C 334.308594 68.050781 330.042969 62.835938 331.582031 62.054688 C 335.75 59.9375 346.441406 59.625 332.582031 56.355469 C 328.667969 56.179688 324.839844 57.765625 321.226562 59.160156 Z M 321.226562 59.160156 " fill-opacity="1" fill-rule="nonzero"/><path fill="#c8faff" d="M 234.238281 112.789062 C 234.296875 121.023438 237.765625 143.546875 242.316406 148.582031 C 246.867188 153.613281 268.460938 162.003906 277.828125 158.246094 C 287.199219 154.492188 302.980469 142.042969 304.949219 136.28125 C 306.917969 130.519531 301.171875 106.507812 298.113281 101.839844 C 295.050781 97.171875 272.664062 88.511719 261.796875 93.199219 C 261.796875 93.199219 234.183594 104.558594 234.238281 112.789062 Z M 234.238281 112.789062 " fill-opacity="1" fill-rule="nonzero"/><path fill="#e7fdff" d="M 292.511719 102.640625 C 290.183594 100.90625 269.132812 117.554688 263.726562 119.964844 C 258.316406 122.375 239.570312 111.878906 239.570312 111.878906 C 236.3125 111.660156 236.972656 113.765625 239.125 115.722656 C 241.28125 117.679688 256.847656 122.613281 261.414062 124.695312 C 265.980469 126.777344 269.191406 155.273438 271.949219 155.84375 C 274.707031 156.417969 265.410156 126.460938 266.964844 123.425781 C 268.523438 120.394531 294.839844 104.375 292.511719 102.640625 Z M 292.511719 102.640625 " fill-opacity="1" fill-rule="nonzero"/><path fill="#a9f7ff" d="M 277.996094 145.386719 C 277.578125 146.96875 276.097656 151.339844 276.984375 153.03125 C 277.546875 154.09375 289.371094 144.847656 291.28125 143.863281 C 293.847656 142.546875 297.769531 141.503906 299.367188 138.871094 C 304.292969 130.734375 298.546875 115.574219 290.378906 111.152344 C 275.6875 110.210938 292.332031 126.371094 293.164062 131.253906 C 294.683594 140.1875 282.4375 128.539062 277.996094 145.386719 Z M 277.996094 145.386719 " fill-opacity="1" fill-rule="nonzero"/><path fill="#a9f7ff" d="M 243.402344 141.765625 C 242.597656 145.898438 259.242188 152.640625 262.03125 151.683594 C 267.667969 149.753906 261.269531 130.101562 256.605469 127.5625 C 243.945312 122.566406 256.585938 137.539062 257.757812 140.699219 C 261.054688 149.566406 245.308594 132.003906 243.402344 141.765625 Z M 243.402344 141.765625 " fill-opacity="1" fill-rule="nonzero"/><path fill="#a9f7ff" d="M 265.257812 99.039062 C 261.34375 98.867188 257.515625 100.449219 253.902344 101.84375 C 252.027344 102.570312 250.074219 103.375 248.296875 104.34375 C 227.816406 115.488281 254.917969 106.644531 258.230469 107.125 C 260.644531 107.472656 258.921875 112.039062 262.210938 111.507812 C 266.984375 110.734375 262.71875 105.519531 264.257812 104.742188 C 268.425781 102.625 279.117188 102.308594 265.257812 99.039062 Z M 265.257812 99.039062 " fill-opacity="1" fill-rule="nonzero"/><path fill="#c8faff" d="M 340.929688 185.398438 C 350.296875 181.640625 366.078125 169.191406 368.046875 163.433594 C 370.015625 157.671875 364.269531 133.660156 361.210938 128.992188 C 358.152344 124.320312 335.761719 115.664062 324.894531 120.351562 C 324.894531 120.351562 297.28125 131.707031 297.339844 139.941406 C 297.398438 148.171875 300.863281 170.695312 305.414062 175.730469 C 309.964844 180.765625 331.558594 189.152344 340.929688 185.398438 Z M 340.929688 185.398438 " fill-opacity="1" fill-rule="nonzero"/><path fill="#e7fdff" d="M 355.613281 129.789062 C 353.28125 128.054688 332.234375 144.703125 326.824219 147.113281 C 321.414062 149.523438 302.667969 139.027344 302.667969 139.027344 C 299.410156 138.808594 300.070312 140.917969 302.226562 142.875 C 304.378906 144.832031 319.949219 149.765625 324.511719 151.847656 C 329.078125 153.925781 332.292969 182.421875 335.046875 182.996094 C 337.804688 183.570312 328.507812 153.609375 330.066406 150.578125 C 331.621094 147.542969 357.941406 131.523438 355.613281 129.789062 Z M 355.613281 129.789062 " fill-opacity="1" fill-rule="nonzero"/><path fill="#a9f7ff" d="M 341.09375 172.535156 C 340.675781 174.117188 339.195312 178.492188 340.085938 180.179688 C 340.644531 181.246094 352.46875 171.996094 354.382812 171.011719 C 356.945312 169.695312 360.871094 168.652344 362.464844 166.019531 C 367.390625 157.882812 361.644531 142.726562 353.480469 138.300781 C 338.785156 137.359375 355.429688 153.523438 356.261719 158.40625 C 357.78125 167.335938 345.539062 155.6875 341.09375 172.535156 Z M 341.09375 172.535156 " fill-opacity="1" fill-rule="nonzero"/><path fill="#a9f7ff" d="M 306.503906 168.917969 C 305.699219 173.046875 322.339844 179.789062 325.128906 178.832031 C 330.769531 176.902344 324.371094 157.25 319.707031 154.714844 C 307.046875 149.714844 319.683594 164.691406 320.859375 167.851562 C 324.15625 176.714844 308.410156 159.15625 306.503906 168.917969 Z M 306.503906 168.917969 " fill-opacity="1" fill-rule="nonzero"/><path fill="#a9f7ff" d="M 328.359375 126.1875 C 324.445312 126.015625 320.613281 127.597656 317.003906 128.996094 C 315.125 129.71875 313.175781 130.523438 311.394531 131.492188 C 290.917969 142.636719 318.015625 133.796875 321.328125 134.273438 C 323.742188 134.621094 322.019531 139.191406 325.308594 138.65625 C 330.082031 137.882812 325.820312 132.671875 327.359375 131.890625 C 331.527344 129.773438 342.214844 129.460938 328.359375 126.1875 Z M 328.359375 126.1875 " fill-opacity="1" fill-rule="nonzero"/><path fill="#c8faff" d="M 393.65625 149.929688 C 403.648438 151.363281 423.539062 148.472656 428.125 144.46875 C 432.710938 140.464844 439.738281 116.796875 439.425781 111.222656 C 439.109375 105.652344 424.050781 86.957031 412.296875 85.582031 C 412.296875 85.582031 382.703125 81.613281 378.636719 88.773438 C 374.570312 95.929688 366.308594 117.167969 367.734375 123.804688 C 369.15625 130.4375 383.664062 148.5 393.65625 149.929688 Z M 393.65625 149.929688 " fill-opacity="1" fill-rule="nonzero"/><path fill="#e7fdff" d="M 389.765625 144.910156 C 391.867188 146.785156 398.792969 116.191406 401.660156 114.34375 C 404.523438 112.496094 435.324219 111.78125 434.175781 109.117188 C 433.027344 106.449219 406.472656 110.34375 400.582031 109.726562 C 394.691406 109.109375 383.707031 90.644531 383.707031 90.644531 C 380.996094 88.828125 380.515625 90.980469 381.398438 93.753906 C 382.285156 96.523438 393.300781 108.582031 396.214844 112.667969 C 399.128906 116.753906 387.664062 143.035156 389.765625 144.910156 Z M 389.765625 144.910156 " fill-opacity="1" fill-rule="nonzero"/><path fill="#a9f7ff" d="M 400.230469 138.875 C 399.078125 140.039062 395.609375 143.085938 395.535156 144.992188 C 395.488281 146.195312 410.351562 144.097656 412.5 144.203125 C 415.378906 144.34375 419.296875 145.402344 421.996094 143.921875 C 430.332031 139.335938 432.933594 123.335938 428.074219 115.421875 C 415.820312 107.261719 422.152344 129.578125 420.433594 134.222656 C 417.285156 142.71875 412.503906 126.507812 400.230469 138.875 Z M 400.230469 138.875 " fill-opacity="1" fill-rule="nonzero"/><path fill="#a9f7ff" d="M 372.082031 118.445312 C 369.320312 121.621094 380.363281 135.78125 383.257812 136.347656 C 389.105469 137.496094 393.390625 117.277344 390.621094 112.746094 C 382.15625 102.089844 385.613281 121.378906 385.050781 124.699219 C 383.472656 134.027344 378.613281 110.945312 372.082031 118.445312 Z M 372.082031 118.445312 " fill-opacity="1" fill-rule="nonzero"/><path fill="#a9f7ff" d="M 403.5 101.644531 C 408.023438 103.359375 406.9375 96.714844 408.660156 96.804688 C 413.328125 97.058594 422.742188 102.132812 412.375 92.371094 C 409.074219 90.265625 404.964844 89.71875 401.136719 89.121094 C 399.152344 88.8125 397.058594 88.535156 395.03125 88.484375 C 371.726562 87.894531 399.617188 93.785156 402.246094 95.855469 C 404.160156 97.367188 400.386719 100.460938 403.5 101.644531 Z M 403.5 101.644531 " fill-opacity="1" fill-rule="nonzero"/><path fill="#498fa5" d="M 509.621094 384.40625 C 509.621094 384.40625 507.601562 404.609375 499.523438 411.679688 C 491.441406 418.75 443.96875 448.042969 433.867188 476.324219 C 423.765625 504.609375 442.957031 541.980469 477.300781 564.203125 C 511.644531 586.425781 569.21875 567.234375 603.5625 569.253906 C 637.90625 571.273438 679.320312 575.316406 704.574219 563.195312 C 729.824219 551.074219 760.128906 517.738281 763.160156 479.355469 C 766.191406 440.972656 740.9375 394.507812 707.605469 384.40625 C 674.269531 374.308594 619.726562 382.386719 604.574219 378.347656 C 589.421875 374.308594 588.414062 362.183594 588.414062 362.183594 C 588.414062 362.183594 544.980469 364.203125 509.628906 384.40625 Z M 509.621094 384.40625 " fill-opacity="1" fill-rule="nonzero"/><g mask="url(#9fab86c201)"><g transform="matrix(1, 0, 0, 1, 431, 360)"><g clip-path="url(#c81572a0b4)"><g clip-path="url(#389defdf43)"><path fill="#336b89" d="M 157.410156 2.183594 C 157.410156 2.183594 113.976562 4.207031 78.621094 24.410156 C 78.621094 24.410156 78.144531 28.902344 76.839844 34.351562 C 94.886719 45.761719 112.546875 48.453125 133.507812 41.464844 C 138.210938 39.898438 143.550781 39.671875 147.679688 36.578125 C 155.789062 30.492188 164.328125 25.257812 170.671875 17.402344 C 158.304688 12.699219 157.414062 2.183594 157.414062 2.183594 Z M 275.617188 24.148438 C 285.488281 33.820312 300.078125 44.621094 271.308594 42.929688 C 260.121094 42.273438 249.199219 39.542969 238.082031 38.53125 C 237.605469 38.488281 234.636719 38.652344 232.488281 38.554688 C 234.828125 38.839844 237.988281 38.632812 240.035156 39.996094 C 243.523438 42.320312 250.285156 46.246094 254.207031 47.816406 C 261.949219 50.914062 268.105469 56.042969 274.734375 61.011719 C 280.046875 64.996094 317.660156 78.414062 301.121094 90.816406 C 288.402344 100.359375 259.859375 80.648438 247.855469 76.648438 C 241.8125 74.632812 233.277344 74.691406 227.332031 74.691406 C 226.964844 74.691406 227.960938 75.0625 228.308594 75.179688 C 230.859375 76.03125 234.410156 78.839844 236.125 80.554688 C 242.28125 86.710938 249.125 91.949219 254.695312 98.632812 C 258.84375 103.609375 265.40625 106.332031 270.332031 110.363281 C 280.089844 118.34375 294.820312 136.070312 290.855469 149.945312 C 287.0625 163.226562 263.527344 131.898438 260.5625 128.933594 C 253.726562 122.097656 244.59375 113.621094 236.125 109.386719 C 222.550781 102.597656 208.128906 98.414062 196.542969 87.882812 C 195.945312 87.335938 192.203125 84.679688 189.519531 82.449219 C 191.601562 84.707031 194.007812 87.398438 194.59375 88.375 C 198.960938 95.65625 206.109375 101.761719 211.207031 108.898438 C 226.980469 130.984375 248.78125 154.304688 236.617188 182.683594 C 234.464844 187.707031 226.761719 195.046875 221.46875 196.371094 C 211.246094 198.925781 206.519531 187.660156 204.363281 179.757812 C 198.167969 157.046875 189.003906 147.335938 174.066406 129.914062 C 170.109375 125.292969 167.464844 120.132812 164.78125 114.761719 C 159.6875 104.578125 150.226562 94.453125 144.257812 82.511719 C 143.929688 81.859375 144.964844 83.792969 145.234375 84.46875 C 146.324219 87.199219 147.769531 90.117188 148.65625 92.773438 C 151.378906 100.941406 152.777344 109.046875 155.496094 117.207031 C 161.925781 136.496094 179.042969 160.058594 176.019531 181.222656 C 175.699219 183.453125 175.785156 193.25 173.085938 193.925781 C 170.714844 194.519531 166.460938 192.769531 164.292969 192.460938 C 145.046875 189.710938 138.625 176.792969 130.574219 160.695312 C 128.082031 155.703125 124.597656 151.359375 121.777344 146.523438 C 121.367188 145.816406 120.539062 144.699219 119.945312 143.710938 C 119.875 147.203125 119.488281 154.578125 120.3125 161.183594 C 121.347656 169.449219 121.777344 177.679688 121.777344 186.105469 C 121.777344 199.617188 118.792969 203.871094 103.699219 197.832031 C 83.449219 189.734375 73.074219 177.777344 69.492188 156.300781 C 69.214844 154.628906 67.835938 139.519531 67.863281 134.824219 C 67.222656 135.753906 66.277344 136.910156 66.070312 137.730469 C 64.867188 142.550781 63.355469 147.457031 62.652344 152.386719 C 60.910156 164.578125 65.675781 199.050781 46.035156 182.683594 C 37.386719 175.476562 25.136719 149.9375 26 138.703125 C 26.449219 132.886719 27.28125 127.359375 27.957031 121.601562 C 28.554688 116.53125 28.992188 111.339844 28.933594 111.339844 C 27.886719 111.339844 26.367188 117.816406 26 118.667969 C 22.90625 125.886719 20.210938 133.441406 18.671875 141.148438 C 17.605469 146.484375 19.195312 153.789062 16.714844 158.742188 C 14.9375 162.296875 11.652344 152.523438 9.875 148.96875 C 3.359375 135.933594 6.925781 121.957031 6.9375 107.984375 C 5.296875 110.761719 3.859375 113.546875 2.867188 116.324219 C -7.234375 144.605469 11.957031 181.980469 46.300781 204.203125 C 80.644531 226.425781 138.21875 207.230469 172.5625 209.25 C 206.90625 211.269531 248.320312 215.3125 273.574219 203.191406 C 298.828125 191.070312 329.128906 157.734375 332.160156 119.351562 C 335.191406 80.96875 309.941406 34.503906 276.605469 24.40625 C 276.289062 24.308594 275.941406 24.238281 275.621094 24.148438 Z M 67.863281 134.828125 C 68.445312 133.992188 68.789062 133.332031 68.027344 133.332031 C 67.910156 133.332031 67.867188 133.960938 67.863281 134.828125 Z M 119.945312 143.714844 C 119.96875 142.453125 119.953125 141.640625 119.828125 141.640625 C 118.890625 141.640625 119.265625 142.589844 119.945312 143.714844 Z M 189.515625 82.453125 C 188.203125 81.035156 186.773438 79.492188 186.773438 79.578125 C 186.773438 80.070312 188.023438 81.214844 189.515625 82.453125 Z M 232.488281 38.554688 C 232.40625 38.546875 232.296875 38.546875 232.21875 38.535156 C 231.554688 38.4375 230.265625 37.375 230.265625 38.046875 C 230.265625 38.386719 231.277344 38.503906 232.488281 38.558594 Z M 232.488281 38.554688 " fill-opacity="1" fill-rule="nonzero"/></g></g></g></g><path fill="#8bcfe5" d="M 542.21875 351.3125 C 541.960938 351.390625 541.699219 351.476562 541.441406 351.558594 L 490.480469 365.886719 L 495.785156 384.742188 C 499.769531 398.914062 526.167969 403.890625 554.746094 395.855469 C 583.328125 387.820312 603.261719 369.8125 599.277344 355.640625 L 593.976562 336.785156 L 544.484375 350.703125 C 543.730469 350.898438 542.972656 351.101562 542.21875 351.3125 Z M 542.21875 351.3125 " fill-opacity="1" fill-rule="nonzero"/><g mask="url(#8255487841)"><g transform="matrix(1, 0, 0, 1, 488, 336)"><g clip-path="url(#a2fd76644d)"><g clip-path="url(#f05079f2f2)"><path fill="#bde9f7" d="M 54.21875 15.3125 C 53.960938 15.390625 53.699219 15.476562 53.441406 15.558594 L 2.480469 29.886719 L 7.785156 48.742188 C 11.769531 62.914062 38.167969 67.890625 66.746094 59.855469 C 95.328125 51.820312 115.261719 33.8125 111.277344 19.640625 L 105.976562 0.785156 L 56.484375 14.703125 C 55.730469 14.898438 54.972656 15.101562 54.21875 15.3125 Z M 54.21875 15.3125 " fill-opacity="1" fill-rule="nonzero"/></g></g></g></g><path fill="#bde9f7" d="M 593.972656 336.789062 C 594.210938 337.628906 594.363281 338.488281 594.429688 339.375 C 594.5 340.257812 594.484375 341.15625 594.386719 342.074219 C 594.289062 342.992188 594.105469 343.921875 593.839844 344.863281 C 593.574219 345.804688 593.226562 346.757812 592.796875 347.714844 C 592.367188 348.675781 591.855469 349.636719 591.265625 350.601562 C 590.675781 351.570312 590.007812 352.535156 589.261719 353.496094 C 588.515625 354.460938 587.699219 355.417969 586.804688 356.371094 C 585.914062 357.324219 584.949219 358.265625 583.917969 359.195312 C 582.886719 360.128906 581.792969 361.042969 580.632812 361.945312 C 579.472656 362.847656 578.253906 363.730469 576.976562 364.59375 C 575.699219 365.457031 574.367188 366.296875 572.984375 367.113281 C 571.601562 367.929688 570.171875 368.71875 568.695312 369.480469 C 567.222656 370.242188 565.707031 370.972656 564.152344 371.671875 C 562.601562 372.375 561.015625 373.039062 559.398438 373.671875 C 557.78125 374.300781 556.144531 374.894531 554.480469 375.453125 C 552.816406 376.007812 551.136719 376.527344 549.441406 377.003906 C 547.746094 377.480469 546.046875 377.914062 544.335938 378.304688 C 542.625 378.695312 540.917969 379.042969 539.207031 379.347656 C 537.5 379.652344 535.800781 379.910156 534.109375 380.121094 C 532.421875 380.332031 530.746094 380.5 529.089844 380.617188 C 527.433594 380.734375 525.804688 380.808594 524.195312 380.832031 C 522.589844 380.855469 521.019531 380.832031 519.476562 380.761719 C 517.9375 380.691406 516.4375 380.574219 514.976562 380.410156 C 513.515625 380.242188 512.105469 380.03125 510.738281 379.773438 C 509.371094 379.519531 508.0625 379.214844 506.804688 378.867188 C 505.546875 378.519531 504.347656 378.128906 503.210938 377.695312 C 502.070312 377.261719 501 376.785156 499.992188 376.269531 C 498.984375 375.753906 498.046875 375.199219 497.179688 374.605469 C 496.3125 374.007812 495.519531 373.378906 494.800781 372.714844 C 494.082031 372.046875 493.445312 371.347656 492.882812 370.617188 C 492.320312 369.886719 491.835938 369.125 491.433594 368.335938 C 491.035156 367.546875 490.714844 366.730469 490.480469 365.890625 C 490.242188 365.050781 490.089844 364.1875 490.019531 363.304688 C 489.953125 362.421875 489.964844 361.519531 490.066406 360.605469 C 490.164062 359.6875 490.347656 358.757812 490.613281 357.8125 C 490.878906 356.871094 491.226562 355.921875 491.65625 354.960938 C 492.085938 354.003906 492.597656 353.039062 493.1875 352.074219 C 493.777344 351.109375 494.445312 350.144531 495.191406 349.179688 C 495.933594 348.214844 496.753906 347.257812 497.648438 346.304688 C 498.539062 345.355469 499.5 344.414062 500.53125 343.480469 C 501.5625 342.550781 502.660156 341.632812 503.820312 340.730469 C 504.980469 339.832031 506.199219 338.949219 507.476562 338.085938 C 508.753906 337.222656 510.085938 336.382812 511.46875 335.566406 C 512.851562 334.75 514.28125 333.960938 515.757812 333.199219 C 517.230469 332.433594 518.746094 331.703125 520.296875 331.003906 C 521.851562 330.304688 523.4375 329.636719 525.050781 329.007812 C 526.667969 328.375 528.308594 327.78125 529.972656 327.226562 C 531.636719 326.667969 533.316406 326.152344 535.007812 325.675781 C 536.703125 325.199219 538.40625 324.765625 540.117188 324.371094 C 541.824219 323.980469 543.535156 323.632812 545.242188 323.328125 C 546.953125 323.027344 548.652344 322.769531 550.339844 322.554688 C 552.03125 322.34375 553.707031 322.179688 555.363281 322.058594 C 557.019531 321.941406 558.648438 321.871094 560.253906 321.847656 C 561.859375 321.820312 563.433594 321.84375 564.976562 321.917969 C 566.515625 321.988281 568.015625 322.105469 569.476562 322.269531 C 570.9375 322.433594 572.347656 322.644531 573.714844 322.902344 C 575.078125 323.160156 576.390625 323.460938 577.648438 323.808594 C 578.90625 324.15625 580.105469 324.546875 581.242188 324.980469 C 582.382812 325.417969 583.453125 325.890625 584.460938 326.40625 C 585.46875 326.925781 586.40625 327.480469 587.273438 328.074219 C 588.140625 328.667969 588.933594 329.296875 589.648438 329.964844 C 590.367188 330.628906 591.007812 331.328125 591.570312 332.058594 C 592.132812 332.792969 592.617188 333.550781 593.015625 334.34375 C 593.417969 335.132812 593.738281 335.945312 593.972656 336.789062 Z M 593.972656 336.789062 " fill-opacity="1" fill-rule="nonzero"/><path fill="#8bcfe5" d="M 589.074219 338.164062 C 589.277344 338.886719 589.40625 339.625 589.457031 340.382812 C 589.507812 341.144531 589.484375 341.917969 589.382812 342.710938 C 589.28125 343.5 589.105469 344.304688 588.855469 345.117188 C 588.601562 345.933594 588.277344 346.753906 587.875 347.585938 C 587.476562 348.417969 587.003906 349.253906 586.460938 350.089844 C 585.914062 350.929688 585.300781 351.769531 584.617188 352.605469 C 583.933594 353.445312 583.183594 354.28125 582.367188 355.113281 C 581.550781 355.941406 580.667969 356.765625 579.726562 357.578125 C 578.785156 358.394531 577.785156 359.195312 576.730469 359.988281 C 575.671875 360.777344 574.5625 361.550781 573.398438 362.3125 C 572.234375 363.070312 571.023438 363.808594 569.765625 364.53125 C 568.507812 365.25 567.210938 365.949219 565.871094 366.621094 C 564.53125 367.296875 563.15625 367.945312 561.746094 368.566406 C 560.335938 369.1875 558.898438 369.78125 557.433594 370.34375 C 555.96875 370.910156 554.480469 371.441406 552.976562 371.941406 C 551.46875 372.441406 549.945312 372.90625 548.414062 373.339844 C 546.878906 373.769531 545.335938 374.164062 543.789062 374.523438 C 542.242188 374.882812 540.699219 375.203125 539.152344 375.484375 C 537.609375 375.769531 536.074219 376.011719 534.546875 376.214844 C 533.019531 376.417969 531.507812 376.582031 530.011719 376.707031 C 528.519531 376.828125 527.046875 376.910156 525.597656 376.949219 C 524.148438 376.992188 522.730469 376.992188 521.339844 376.949219 C 519.953125 376.910156 518.601562 376.824219 517.285156 376.703125 C 515.972656 376.578125 514.699219 376.414062 513.472656 376.210938 C 512.246094 376.007812 511.066406 375.761719 509.933594 375.480469 C 508.804688 375.195312 507.730469 374.875 506.707031 374.515625 C 505.6875 374.15625 504.726562 373.761719 503.824219 373.328125 C 502.921875 372.894531 502.085938 372.429688 501.308594 371.929688 C 500.535156 371.429688 499.828125 370.894531 499.1875 370.332031 C 498.550781 369.769531 497.980469 369.175781 497.484375 368.550781 C 496.984375 367.929688 496.558594 367.28125 496.207031 366.605469 C 495.855469 365.929688 495.578125 365.234375 495.375 364.511719 C 495.171875 363.792969 495.046875 363.050781 494.996094 362.292969 C 494.945312 361.535156 494.96875 360.757812 495.070312 359.96875 C 495.171875 359.175781 495.347656 358.375 495.597656 357.558594 C 495.847656 356.746094 496.175781 355.921875 496.574219 355.089844 C 496.976562 354.261719 497.449219 353.425781 497.992188 352.585938 C 498.535156 351.746094 499.152344 350.910156 499.835938 350.070312 C 500.519531 349.230469 501.269531 348.398438 502.085938 347.566406 C 502.902344 346.734375 503.78125 345.914062 504.722656 345.097656 C 505.664062 344.285156 506.664062 343.480469 507.722656 342.691406 C 508.78125 341.898438 509.890625 341.125 511.054688 340.367188 C 512.21875 339.605469 513.425781 338.867188 514.683594 338.148438 C 515.941406 337.425781 517.242188 336.730469 518.582031 336.054688 C 519.921875 335.382812 521.296875 334.734375 522.707031 334.109375 C 524.117188 333.488281 525.554688 332.894531 527.019531 332.332031 C 528.484375 331.769531 529.96875 331.238281 531.476562 330.738281 C 532.984375 330.238281 534.503906 329.769531 536.039062 329.339844 C 537.574219 328.90625 539.113281 328.511719 540.660156 328.152344 C 542.207031 327.796875 543.753906 327.472656 545.296875 327.191406 C 546.84375 326.910156 548.378906 326.664062 549.90625 326.460938 C 551.433594 326.257812 552.945312 326.09375 554.4375 325.972656 C 555.933594 325.847656 557.40625 325.765625 558.855469 325.726562 C 560.304688 325.6875 561.722656 325.6875 563.109375 325.726562 C 564.5 325.769531 565.851562 325.851562 567.164062 325.976562 C 568.480469 326.097656 569.75 326.261719 570.980469 326.46875 C 572.207031 326.671875 573.386719 326.914062 574.515625 327.199219 C 575.648438 327.480469 576.722656 327.804688 577.742188 328.164062 C 578.765625 328.523438 579.726562 328.917969 580.628906 329.351562 C 581.53125 329.78125 582.367188 330.25 583.140625 330.75 C 583.917969 331.25 584.625 331.78125 585.261719 332.347656 C 585.902344 332.910156 586.46875 333.503906 586.96875 334.125 C 587.464844 334.75 587.890625 335.398438 588.242188 336.070312 C 588.597656 336.746094 588.875 337.445312 589.074219 338.164062 Z M 589.074219 338.164062 " fill-opacity="1" fill-rule="nonzero"/><g mask="url(#c20bd87e7e)"><g transform="matrix(1, 0, 0, 1, 494, 330)"><g clip-path="url(#62de54613e)"><path fill="#bde9f7" d="M 43.757812 5.449219 C 20.410156 12.023438 2.902344 25.664062 2.714844 37.433594 C 9.011719 47.378906 31.058594 49.898438 54.414062 43.339844 C 77.78125 36.761719 95.296875 23.105469 95.457031 11.328125 C 89.140625 1.394531 67.097656 -1.113281 43.757812 5.449219 Z M 43.757812 5.449219 " fill-opacity="1" fill-rule="nonzero"/></g></g></g><g mask="url(#805f1ce32e)"><g transform="matrix(1, 0, 0, 1, 492, 347)"><g clip-path="url(#b6e49ad737)"><g clip-path="url(#8228162244)"><path fill="#8bcfe5" d="M 105.222656 1.332031 C 105.542969 7.234375 101.855469 13.910156 94.84375 20.242188 C 86.738281 27.5625 74.375 34.226562 59.785156 38.328125 C 45.199219 42.429688 31.171875 43.1875 20.441406 41.164062 C 11.15625 39.414062 4.535156 35.640625 1.734375 30.441406 L 3.726562 37.539062 C 7.742188 40.773438 13.332031 43.019531 19.859375 44.25 C 31.214844 46.386719 45.640625 45.5625 60.632812 41.347656 C 75.625 37.132812 88.367188 30.316406 96.945312 22.574219 C 101.875 18.117188 105.476562 13.289062 107.21875 8.4375 Z M 105.222656 1.332031 " fill-opacity="1" fill-rule="nonzero"/></g></g></g></g><path fill="#336b89" d="M 521.503906 403.90625 C 521.855469 403.871094 523.539062 410.460938 517.511719 418.195312 C 514.121094 422.578125 509.875 426.132812 503.832031 430.535156 C 498.777344 434.230469 492.96875 438.035156 487.0625 442.511719 C 482.214844 446.199219 476.980469 450.515625 473.085938 455.796875 C 467.875 462.835938 463.1875 470.964844 459.859375 479.890625 C 456.992188 487.582031 455.347656 495.3125 454.949219 502.902344 C 453.828125 523.554688 463.425781 540.171875 472.515625 549.65625 C 475.488281 552.804688 479.972656 554.949219 482.890625 556.375 C 489.578125 559.617188 493.335938 561.976562 493.164062 562.234375 C 492.992188 562.496094 489.253906 560.824219 482.1875 557.957031 C 479.132812 556.738281 474.417969 554.785156 470.808594 551.359375 C 460.941406 541.882812 450.40625 524.691406 451.363281 502.726562 C 451.730469 494.738281 453.417969 486.625 456.394531 478.601562 C 459.851562 469.28125 464.761719 460.875 470.242188 453.660156 C 474.574219 447.972656 480.089844 443.535156 485.121094 439.890625 C 491.25 435.4375 497.148438 431.789062 502.257812 428.304688 C 508.425781 424.085938 512.539062 420.996094 516.019531 416.976562 C 521.957031 410.089844 521.15625 403.945312 521.507812 403.90625 Z M 521.503906 403.90625 " fill-opacity="1" fill-rule="nonzero"/><path fill="#336b89" d="M 534.210938 402.929688 C 534.652344 402.960938 535.5 417.46875 523.714844 436.929688 C 520.515625 442.226562 518.089844 447.789062 515.214844 454.582031 C 511.914062 462.414062 508.707031 470.871094 505.699219 479.992188 C 504.628906 483.234375 503.578125 486.554688 502.601562 489.921875 C 501.023438 495.339844 499.703125 500.613281 498.699219 505.855469 C 497.429688 512.761719 496.300781 518.910156 497.746094 524.683594 C 500.898438 537.75 504.875 548.273438 508.898438 556.808594 C 509.648438 558.460938 511.046875 559.917969 512.304688 561.160156 C 514.109375 562.914062 515.867188 564.242188 517.5625 565.246094 C 519.511719 566.335938 520.753906 566.972656 522.15625 566.847656 C 522.722656 566.808594 523.214844 566.574219 523.496094 566.253906 C 524.414062 565.296875 524.292969 564.1875 524.4375 564.1875 C 524.582031 564.1875 525.144531 565.148438 524.175781 566.75 C 523.8125 567.304688 523.167969 567.796875 522.308594 567.953125 C 520.597656 568.253906 518.816406 567.742188 516.789062 566.691406 C 514.894531 565.761719 512.902344 564.464844 510.886719 562.710938 C 509.480469 561.511719 507.855469 559.949219 506.746094 557.886719 C 502.269531 549.421875 497.863281 538.738281 494.441406 525.507812 C 492.777344 518.839844 493.789062 512.097656 495.121094 505.179688 C 496.117188 499.792969 497.445312 494.390625 499.046875 488.886719 C 500.042969 485.460938 501.109375 482.101562 502.207031 478.828125 C 505.285156 469.625 508.632812 461.09375 512.109375 453.238281 C 515.089844 446.488281 517.769531 440.777344 521.25 435.386719 C 532.847656 417.421875 533.621094 402.886719 534.210938 402.925781 Z M 534.210938 402.929688 " fill-opacity="1" fill-rule="nonzero"/><path fill="#336b89" d="M 547.894531 402.929688 C 548.265625 402.90625 548.828125 407.84375 549.082031 416.253906 C 549.261719 422.238281 549.328125 428.507812 549.40625 437.160156 C 549.523438 449.867188 549.621094 467.773438 550.226562 484.777344 C 550.289062 486.5625 550.359375 488.332031 550.433594 490.085938 C 550.832031 499.519531 551.363281 508.050781 552.164062 516.332031 C 552.996094 524.867188 553.957031 531.886719 555.402344 538.585938 C 556.902344 545.414062 558.277344 549.902344 560.644531 553.960938 C 561.800781 555.929688 562.90625 557.265625 564.132812 558.242188 C 566.46875 560.109375 568.417969 560.058594 568.417969 560.28125 C 568.417969 560.503906 566.34375 561.097656 563.40625 559.285156 C 561.917969 558.363281 560.472656 556.964844 559.09375 554.949219 C 556.304688 550.886719 554.453125 546.050781 552.710938 539.226562 C 550.972656 532.476562 549.765625 525.257812 548.773438 516.695312 C 547.804688 508.378906 547.167969 499.699219 546.742188 490.25 C 546.664062 488.484375 546.59375 486.707031 546.527344 484.914062 C 545.902344 467.410156 546.09375 450.257812 546.398438 437.140625 C 546.578125 429.441406 546.863281 421.257812 547.058594 416.246094 C 547.386719 407.808594 547.519531 402.953125 547.894531 402.933594 Z M 547.894531 402.929688 " fill-opacity="1" fill-rule="nonzero"/><path fill="#336b89" d="M 564.507812 400.976562 C 564.9375 400.992188 564.722656 407.988281 567.941406 419.011719 C 569.671875 424.929688 572.035156 431.125 575.484375 438.742188 C 581.910156 452.921875 587.859375 463.25 596.9375 480.460938 C 596.933594 480.453125 597.480469 481.488281 597.476562 481.480469 C 606.042969 497.757812 612.347656 510.722656 616.613281 524.722656 C 618.957031 532.417969 620.140625 539.019531 620.414062 545.019531 C 620.953125 556.722656 617.691406 563.347656 617.285156 563.210938 C 616.878906 563.074219 619.257812 556.402344 618.144531 545.183594 C 617.570312 539.386719 616.183594 533.136719 613.679688 525.660156 C 609.074219 511.917969 602.828125 499.609375 594.199219 483.199219 C 594.191406 483.1875 593.671875 482.199219 593.664062 482.1875 C 584.917969 465.617188 578.488281 453.898438 572.632812 439.988281 C 569.359375 432.21875 567.164062 425.691406 565.730469 419.59375 C 562.988281 407.972656 564.109375 400.960938 564.507812 400.976562 Z M 564.507812 400.976562 " fill-opacity="1" fill-rule="nonzero"/><path fill="#336b89" d="M 580.144531 395.113281 C 580.5 395 582.496094 401.414062 589.273438 410.347656 C 592.859375 415.074219 597.222656 419.894531 603.144531 425.511719 C 613.699219 435.53125 624.519531 443.871094 639.710938 455.332031 C 645.390625 459.613281 652.011719 464.53125 658.046875 469.1875 C 664.515625 474.175781 670.578125 479.054688 676.351562 484.152344 C 681.5 488.691406 686.15625 493.195312 690.269531 498.101562 C 693.914062 502.429688 696.945312 506.886719 698.871094 511.8125 C 701.300781 518.113281 701.757812 524.625 701.535156 530.121094 C 701.277344 536.675781 700.050781 542.5625 698.820312 547.078125 C 697.421875 552.226562 696 555.816406 694.800781 558.292969 C 694.535156 558.835938 694.304688 559.285156 694.066406 559.6875 C 693.800781 559.898438 693.5625 560.128906 693.332031 560.316406 C 693.3125 560.332031 693.292969 560.347656 693.265625 560.359375 C 693.253906 560.367188 693.238281 560.371094 693.226562 560.363281 C 693.210938 560.355469 693.207031 560.332031 693.203125 560.320312 C 693.199219 560.28125 693.199219 560.25 693.199219 560.214844 C 693.203125 559.515625 693.4375 559.273438 693.515625 559.300781 C 693.59375 559.328125 693.5 559.664062 693.328125 560.183594 C 693.320312 560.207031 693.308594 560.234375 693.308594 560.257812 C 693.308594 560.269531 693.308594 560.285156 693.316406 560.285156 C 693.316406 560.285156 693.339844 560.277344 693.34375 560.269531 C 693.363281 560.246094 693.371094 560.21875 693.386719 560.1875 C 693.441406 559.976562 693.433594 559.738281 693.425781 559.378906 C 693.589844 558.945312 693.734375 558.515625 693.929688 557.933594 C 694.8125 555.292969 695.875 551.835938 696.980469 546.628906 C 697.929688 542.148438 698.871094 536.34375 698.90625 530.054688 C 698.925781 524.785156 698.335938 518.640625 695.976562 512.964844 C 694.152344 508.519531 691.238281 504.445312 687.679688 500.300781 C 683.652344 495.628906 679.074219 491.3125 673.96875 486.867188 C 668.234375 481.875 662.226562 477.078125 655.785156 472.113281 C 649.566406 467.316406 643.410156 462.71875 637.523438 458.210938 C 622.554688 446.757812 611.4375 437.847656 601.171875 427.53125 C 595.347656 421.6875 591.027344 416.523438 587.621094 411.53125 C 581.144531 402.050781 579.785156 395.21875 580.144531 395.109375 Z M 580.144531 395.113281 " fill-opacity="1" fill-rule="nonzero"/><path fill="#336b89" d="M 592.851562 384.363281 C 593.183594 384.132812 597.359375 390.238281 606.324219 398.671875 C 616.113281 407.875 628.582031 416.84375 647.636719 427.136719 C 657.640625 432.523438 667.097656 437.054688 678.511719 442.679688 C 690.410156 448.550781 700.902344 453.929688 711.019531 460.085938 C 719.457031 465.164062 726.972656 467.0625 732.792969 474.328125 C 738.535156 481.765625 740.828125 491.476562 742.199219 497.375 C 743.199219 501.625 743.941406 505.746094 744.390625 508.445312 C 745.136719 512.910156 745.535156 515.253906 745.3125 515.328125 C 745.089844 515.402344 744.214844 513.011719 743.09375 508.722656 C 742.476562 506.363281 741.3125 501.761719 740.1875 497.902344 C 738.5 492.15625 735.875 482.691406 730.46875 476.1875 C 725.363281 469.792969 718.257812 468.457031 709.238281 463.0625 C 699.132812 457.085938 688.800781 451.882812 676.871094 446.003906 C 665.613281 440.453125 655.871094 435.699219 645.960938 430.207031 C 626.949219 419.699219 614.1875 409.9375 604.816406 400.207031 C 596.117188 391.183594 592.519531 384.597656 592.851562 384.367188 Z M 592.851562 384.363281 " fill-opacity="1" fill-rule="nonzero"/><path fill="#336b89" d="M 604.578125 383.386719 C 604.921875 382.921875 614.507812 391.300781 632.085938 392.707031 C 645.234375 393.761719 664.734375 395.546875 683.042969 399.992188 C 699.191406 403.910156 712.441406 409.34375 723.632812 416.257812 C 729.472656 419.898438 735.027344 425.710938 738.40625 428.941406 C 746.609375 436.667969 752.292969 439.65625 752.152344 440.070312 C 752.011719 440.484375 745.285156 437.917969 736.851562 430.664062 C 733.292969 427.648438 727.394531 422.007812 722.035156 418.925781 C 710.9375 412.464844 698.070312 407.414062 682.171875 403.585938 C 664.503906 399.332031 644.589844 397.097656 631.800781 395.5625 C 613.269531 393.359375 604.234375 383.851562 604.578125 383.386719 Z M 604.578125 383.386719 " fill-opacity="1" fill-rule="nonzero"/><path fill="#498fa5" d="M 499.207031 443.90625 C 491.496094 449.878906 482.628906 454.265625 475.710938 461.183594 C 470.992188 465.902344 460.53125 491.589844 473.636719 491.589844 C 484.71875 491.589844 504.191406 453.875 499.207031 443.90625 Z M 499.207031 443.90625 " fill-opacity="1" fill-rule="nonzero"/><path fill="#498fa5" d="M 526.851562 450.125 C 524.773438 454.96875 521.472656 459.179688 519.25 463.945312 C 516.640625 469.535156 515.707031 476.578125 515.105469 482.605469 C 512.769531 505.929688 542.558594 495.988281 536.527344 459.800781 C 535.5 453.640625 532.78125 450.863281 526.851562 450.125 Z M 526.851562 450.125 " fill-opacity="1" fill-rule="nonzero"/><path fill="#498fa5" d="M 555.875 451.507812 C 556.109375 456.191406 556.542969 467.894531 557.257812 473.621094 C 561.273438 505.742188 588.828125 483.621094 570.386719 452.890625 C 566.296875 446.070312 562.253906 446.722656 555.875 451.507812 Z M 555.875 451.507812 " fill-opacity="1" fill-rule="nonzero"/><path fill="#498fa5" d="M 602.871094 441.140625 C 603.882812 438.949219 588.511719 435.527344 586.976562 443.214844 C 586.238281 446.902344 588.910156 449.578125 589.738281 452.890625 C 597.5 483.925781 646.097656 479.535156 616.691406 450.125 C 612.226562 445.660156 608.894531 442.644531 602.871094 441.140625 Z M 602.871094 441.140625 " fill-opacity="1" fill-rule="nonzero"/><path fill="#498fa5" d="M 618.070312 428.703125 C 622.257812 432.070312 625.691406 436.320312 629.820312 439.761719 C 631.539062 441.191406 662.292969 461.847656 656.773438 445.289062 C 654.972656 439.894531 629.957031 421.027344 623.601562 424.554688 C 621.585938 425.675781 619.914062 427.320312 618.070312 428.703125 Z M 618.070312 428.703125 " fill-opacity="1" fill-rule="nonzero"/><path fill="#498fa5" d="M 634.65625 411.425781 C 641.449219 414.582031 648.5 416.960938 655.390625 419.71875 C 664.988281 423.558594 674.703125 428.121094 678.886719 415.574219 C 679.324219 414.257812 680.074219 411.230469 678.886719 410.042969 C 669.601562 400.757812 634.65625 390.035156 634.65625 411.425781 Z M 634.65625 411.425781 " fill-opacity="1" fill-rule="nonzero"/><path fill="#498fa5" d="M 646.40625 389.3125 C 651.679688 390.121094 656.976562 390.792969 662.300781 391.386719 C 666.230469 391.820312 670.15625 392.335938 674.046875 392.765625 C 679.488281 393.371094 683.617188 387.847656 678.195312 383.78125 C 674.414062 380.945312 648.582031 381.046875 647.097656 385.511719 C 646.738281 386.578125 646.554688 388.277344 646.402344 389.3125 Z M 646.40625 389.3125 " fill-opacity="1" fill-rule="nonzero"/><g clip-path="url(#1b51661a88)"><g clip-path="url(#549c7dca2a)"><g clip-path="url(#d9bf18047a)"><g clip-path="url(#e5eee2d870)"><path fill="#000000" d="M 380.398438 341.179688 L 355.386719 361.054688 C 354.382812 361.859375 352.960938 361.84375 351.976562 361.128906 C 351.769531 360.976562 351.578125 360.804688 351.421875 360.585938 C 350.457031 359.363281 350.65625 357.589844 351.855469 356.613281 L 368.035156 343.757812 C 361.210938 344.914062 354.113281 345.484375 347.085938 345.480469 C 328.167969 345.46875 310.085938 341.355469 293.339844 333.1875 C 286.660156 329.949219 280.636719 326.242188 275.222656 322.316406 C 250.4375 304.34375 238.4375 281.277344 233.964844 270.847656 C 233.351562 269.425781 234.011719 267.742188 235.453125 267.152344 C 236.875 266.542969 238.5625 267.207031 239.160156 268.652344 C 244.332031 280.773438 260.226562 310.816406 295.800781 328.101562 C 324.609375 342.121094 351.984375 340.800781 367.90625 338.046875 L 348.019531 330.777344 C 346.554688 330.242188 345.808594 328.617188 346.320312 327.140625 C 346.855469 325.679688 348.476562 324.9375 349.957031 325.453125 L 379.617188 336.324219 C 380.585938 336.675781 381.269531 337.519531 381.449219 338.523438 C 381.59375 339.535156 381.207031 340.546875 380.398438 341.179688 Z M 380.398438 341.179688 " fill-opacity="1" fill-rule="nonzero"/></g></g></g></g><g clip-path="url(#5ff7c211c5)"><path fill="#ffb593" d="M 68.773438 750.992188 C 77.328125 764.472656 83.941406 777.539062 93.117188 790.457031 C 103.304688 804.773438 112.851562 816.761719 123.328125 830.882812 C 145.015625 860.109375 165.351562 886.242188 192.125 911.253906 C 213.933594 931.632812 239.296875 948.410156 264.84375 963.5625 C 277.988281 971.363281 293.335938 977.90625 305.84375 986.074219 C 330.996094 1002.472656 388.257812 1075.949219 438.597656 1137.710938 L 618.351562 1137.710938 L 618.351562 1065.390625 C 596.285156 1048.496094 578.363281 1035.238281 573.644531 1032.460938 C 560.691406 1024.828125 465.203125 954.246094 452.550781 942.871094 C 423.316406 916.5625 429.703125 902.148438 429.609375 865.417969 C 429.507812 824.542969 415.085938 779.640625 393.46875 744.753906 C 378.164062 720.0625 357.222656 699.671875 340.65625 675.757812 C 333.308594 665.148438 318.726562 632.769531 314.550781 633.640625 C 280.414062 640.722656 328.105469 717.027344 315.6875 743.726562 C 289.898438 707.082031 258.941406 668.480469 230.363281 634 C 212.734375 612.722656 197.832031 596.976562 180.703125 575.183594 C 169.234375 560.59375 160.074219 548.777344 141.074219 544.605469 C 134.984375 565.453125 157.171875 599.839844 165.0625 613.75 C 178.855469 638.09375 196.148438 668.742188 214.105469 689.894531 C 198.40625 681.390625 184.050781 654.984375 171.675781 641.871094 C 156.714844 626.015625 145.96875 611.617188 132.097656 594.730469 C 113.53125 572.136719 94.90625 548.035156 65.308594 541.195312 C 63.457031 560.757812 77.308594 575.546875 87.171875 591.25 C 99.300781 610.546875 112.320312 628.71875 123.359375 648.605469 C 138.054688 675.070312 156.621094 700.121094 172.832031 726 C 159.164062 709.152344 144.683594 694.410156 132.277344 678.011719 C 120.085938 661.878906 106.664062 647.429688 92.890625 632.609375 C 81.105469 619.929688 68.527344 604.074219 51.617188 599.707031 C 41.53125 635.246094 85.832031 678.4375 102.503906 707.613281 C 119.828125 737.921875 131.480469 752.851562 149.160156 782.925781 C 136.183594 786.847656 87.695312 716.808594 58.34375 714.859375 C 58.34375 714.859375 53.28125 726.597656 68.773438 750.992188 " fill-opacity="1" fill-rule="nonzero"/></g><path fill="#cd856b" d="M 317.496094 743.402344 C 318.195312 743.722656 318.503906 744.550781 318.183594 745.25 C 312.816406 756.933594 310.074219 772.707031 311.011719 786.425781 C 311.707031 796.609375 315.6875 821.210938 322.976562 828.015625 C 323.535156 828.542969 323.5625 829.421875 323.042969 829.984375 C 322.765625 830.277344 322.398438 830.421875 322.023438 830.421875 C 321.683594 830.421875 321.34375 830.300781 321.074219 830.050781 C 312.328125 821.875 308.722656 793.710938 308.234375 786.613281 C 307.253906 772.253906 310.027344 756.351562 315.65625 744.089844 C 315.972656 743.390625 316.796875 743.082031 317.496094 743.402344 " fill-opacity="1" fill-rule="nonzero"/><path fill="#cd856b" d="M 189.210938 807.816406 C 193.660156 790.488281 199.566406 774.621094 207.273438 759.308594 C 208.625 756.628906 210.164062 753.917969 211.789062 751.046875 C 216.109375 743.4375 220.574219 735.570312 221.6875 727.792969 C 221.796875 727.035156 222.503906 726.511719 223.261719 726.613281 C 224.023438 726.722656 224.550781 727.425781 224.441406 728.1875 C 223.257812 736.484375 218.65625 744.585938 214.207031 752.421875 C 212.597656 755.257812 211.078125 757.9375 209.757812 760.558594 C 202.140625 775.691406 196.304688 791.371094 191.910156 808.507812 C 189.539062 817.738281 185.0625 838.292969 185.0625 850.050781 C 185.0625 850.824219 184.441406 851.441406 183.671875 851.441406 C 182.90625 851.441406 182.28125 850.824219 182.28125 850.050781 C 182.28125 838.011719 186.816406 817.164062 189.210938 807.816406 " fill-opacity="1" fill-rule="nonzero"/><path fill="#cd856b" d="M 230.6875 771.453125 C 231.433594 771.632812 231.894531 772.378906 231.71875 773.132812 C 228.652344 786.101562 223.097656 861.363281 224.167969 865.707031 C 224.347656 866.453125 223.898438 867.203125 223.148438 867.386719 C 223.035156 867.414062 222.925781 867.429688 222.816406 867.429688 C 222.191406 867.429688 221.621094 867 221.46875 866.367188 C 220.265625 861.496094 225.835938 785.929688 229.011719 772.492188 C 229.1875 771.746094 229.933594 771.28125 230.6875 771.453125 " fill-opacity="1" fill-rule="nonzero"/><path fill="#f0dcf6" d="M 138.964844 571.84375 C 139.214844 572.644531 139.46875 573.449219 139.734375 574.261719 C 139.964844 574.972656 141.28125 578.40625 143.742188 583.972656 C 144.097656 584.769531 144.472656 585.609375 144.871094 586.496094 C 146.199219 589.429688 147.789062 592.824219 149.644531 596.609375 C 150.003906 597.347656 150.375 598.101562 150.753906 598.867188 C 153.910156 605.222656 157.757812 612.582031 162.34375 620.675781 C 162.773438 621.433594 163.210938 622.199219 163.652344 622.96875 C 166.855469 628.578125 170.40625 634.511719 174.296875 640.6875 C 175.03125 641.859375 175.78125 643.035156 176.542969 644.21875 C 182.101562 652.875 188.3125 661.96875 195.222656 671.277344 C 195.769531 672.011719 196.320312 672.761719 196.878906 673.503906 C 198.496094 675.652344 200.144531 677.8125 201.832031 679.984375 C 202.457031 680.78125 203.082031 681.585938 203.722656 682.386719 C 208.402344 688.328125 213.359375 694.316406 218.597656 700.304688 C 218.597656 700.304688 237.902344 683.875 259.074219 678.90625 C 261.324219 678.382812 263.632812 677.941406 265.976562 677.597656 C 265.914062 677.34375 265.855469 677.09375 265.792969 676.835938 C 263.703125 668.488281 259.875 658.683594 254.863281 648.328125 C 254.457031 647.492188 254.046875 646.65625 253.628906 645.816406 C 253.160156 644.878906 252.683594 643.925781 252.195312 642.972656 C 251.710938 642.03125 251.222656 641.09375 250.730469 640.148438 C 245.644531 630.507812 239.730469 620.613281 233.398438 611.109375 C 232.894531 610.355469 232.386719 609.609375 231.882812 608.855469 C 226.433594 600.816406 220.707031 593.097656 214.964844 586.085938 C 214.394531 585.390625 213.832031 584.703125 213.257812 584.027344 C 211.933594 582.441406 210.605469 580.886719 209.273438 579.378906 C 208.59375 578.601562 207.90625 577.832031 207.226562 577.082031 C 201.609375 570.886719 196.078125 565.527344 190.855469 561.367188 C 189.851562 560.570312 188.78125 559.734375 187.660156 558.878906 C 186.804688 558.222656 185.917969 557.554688 185.007812 556.878906 C 183.152344 555.511719 181.191406 554.117188 179.160156 552.730469 C 178.429688 552.234375 177.679688 551.730469 176.929688 551.238281 C 163.035156 542.097656 146.75 534.457031 138.460938 541.164062 C 133.152344 545.457031 134.417969 557.191406 138.964844 571.84375 " fill-opacity="1" fill-rule="nonzero"/><path fill="#ffffff" d="M 139.734375 574.261719 C 146.546875 571.050781 153.511719 568.339844 160.40625 566.058594 C 154.738281 571.625 149.179688 577.597656 143.742188 583.972656 C 144.097656 584.769531 144.472656 585.609375 144.871094 586.496094 C 151.964844 578.148438 158.992188 570.800781 165.882812 564.324219 C 173.386719 562.058594 180.746094 560.28125 187.660156 558.878906 C 186.804688 558.222656 185.917969 557.554688 185.007812 556.878906 C 179.847656 557.972656 174.847656 559.1875 170.019531 560.523438 C 173.101562 557.753906 176.148438 555.164062 179.160156 552.730469 C 178.429688 552.234375 177.679688 551.730469 176.929688 551.238281 C 176.347656 551.714844 175.753906 552.199219 175.167969 552.6875 C 171.570312 555.675781 168.007812 558.820312 164.496094 562.125 C 155.339844 564.914062 146.8125 568.160156 138.964844 571.84375 C 139.214844 572.644531 139.46875 573.449219 139.734375 574.261719 Z M 149.644531 596.609375 C 150.003906 597.347656 150.375 598.101562 150.753906 598.867188 C 164.566406 591.3125 184.636719 582.804688 209.273438 579.378906 C 208.59375 578.601562 207.90625 577.832031 207.226562 577.082031 C 199.835938 578.179688 192.519531 579.773438 185.324219 581.851562 C 173.042969 585.394531 161.054688 590.359375 149.644531 596.609375 Z M 162.34375 620.675781 C 162.773438 621.433594 163.210938 622.199219 163.652344 622.96875 C 180.199219 607.707031 194.757812 597.65625 205.523438 591.296875 C 208.914062 589.292969 212.070312 587.566406 214.964844 586.085938 C 214.394531 585.390625 213.832031 584.703125 213.257812 584.027344 C 210.453125 585.476562 207.40625 587.15625 204.144531 589.089844 C 193.378906 595.46875 178.851562 605.488281 162.34375 620.675781 Z M 174.296875 640.6875 C 175.03125 641.859375 175.78125 643.035156 176.542969 644.21875 C 177.179688 643.746094 177.8125 643.273438 178.457031 642.796875 C 196.335938 640.699219 221.433594 639.574219 252.195312 642.972656 C 251.710938 642.03125 251.222656 641.09375 250.730469 640.148438 C 223.054688 637.242188 200.007812 637.960938 182.738281 639.703125 L 182.8125 639.652344 C 199.902344 627.542969 217.585938 617.609375 233.398438 611.109375 C 232.894531 610.355469 232.386719 609.609375 231.882812 608.855469 C 216.007812 615.441406 198.332031 625.398438 181.277344 637.5 C 179.964844 638.429688 178.667969 639.363281 177.398438 640.292969 C 176.34375 640.425781 175.304688 640.558594 174.296875 640.6875 Z M 195.222656 671.277344 C 195.769531 672.011719 196.320312 672.761719 196.878906 673.503906 C 208.742188 665.867188 220.011719 660.421875 229.453125 656.609375 C 239.242188 652.65625 247.996094 650.035156 254.863281 648.328125 C 254.457031 647.492188 254.046875 646.65625 253.628906 645.816406 C 246.71875 647.558594 237.996094 650.195312 228.300781 654.121094 C 216.695312 658.820312 205.601562 664.582031 195.222656 671.277344 Z M 201.832031 679.984375 C 202.457031 680.78125 203.082031 681.585938 203.722656 682.386719 C 227.667969 678.289062 245.8125 677.867188 259.074219 678.90625 C 261.324219 678.382812 263.632812 677.941406 265.976562 677.597656 C 265.914062 677.34375 265.855469 677.09375 265.792969 676.835938 C 264.691406 676.695312 263.550781 676.5625 262.367188 676.445312 C 249.523438 675.144531 229.707031 675.085938 201.832031 679.984375 " fill-opacity="1" fill-rule="nonzero"/><g clip-path="url(#0ec376f8bf)"><g clip-path="url(#2d6ad7608d)"><g clip-path="url(#d85b413180)"><g clip-path="url(#9d6e3554eb)"><path fill="#000000" d="M 247.050781 560.058594 L 248.128906 528.128906 C 248.164062 526.84375 249.101562 525.773438 250.285156 525.484375 C 250.53125 525.425781 250.785156 525.394531 251.054688 525.414062 C 252.613281 525.472656 253.832031 526.773438 253.800781 528.320312 L 253.101562 548.972656 C 256.640625 543.03125 260.808594 537.253906 265.367188 531.90625 C 277.640625 517.507812 292.492188 506.40625 309.566406 498.945312 C 316.363281 495.960938 323.089844 493.773438 329.585938 492.195312 C 359.339844 484.972656 384.679688 490.789062 395.523438 494.140625 C 397.003906 494.59375 397.855469 496.1875 397.371094 497.671875 C 396.914062 499.148438 395.3125 500 393.824219 499.519531 C 381.246094 495.601562 348.0625 488.234375 311.84375 504.117188 C 282.492188 516.96875 265.753906 538.667969 257.53125 552.574219 L 275.957031 542.144531 C 277.316406 541.378906 279.035156 541.863281 279.828125 543.210938 C 280.59375 544.5625 280.109375 546.28125 278.757812 547.074219 L 251.253906 562.613281 C 250.359375 563.121094 249.273438 563.09375 248.390625 562.582031 C 247.527344 562.035156 247.007812 561.085938 247.050781 560.058594 Z M 247.050781 560.058594 " fill-opacity="1" fill-rule="nonzero"/></g></g></g></g></svg>