<svg xmlns="http://www.w3.org/2000/svg" xmlns:xlink="http://www.w3.org/1999/xlink" width="500" zoomAndPan="magnify" viewBox="0 0 375 374.999991" height="500" preserveAspectRatio="xMidYMid meet" version="1.0"><defs><filter x="0%" y="0%" width="100%" height="100%" id="0d3e6f7a58"><feColorMatrix values="0 0 0 0 1 0 0 0 0 1 0 0 0 0 1 0 0 0 1 0" color-interpolation-filters="sRGB"/></filter><clipPath id="f5483c6549"><path d="M 22.226562 22.226562 L 352.976562 22.226562 L 352.976562 352.976562 L 22.226562 352.976562 Z M 22.226562 22.226562 " clip-rule="nonzero"/></clipPath><mask id="4a71d96aa0"><g filter="url(#0d3e6f7a58)"><rect x="-37.5" width="450" fill="#000000" y="-37.499999" height="449.999989" fill-opacity="0.3"/></g></mask><clipPath id="96052574d2"><path d="M 2 0.199219 L 94.960938 0.199219 L 94.960938 93 L 2 93 Z M 2 0.199219 " clip-rule="nonzero"/></clipPath><clipPath id="710a380079"><rect x="0" width="95" y="0" height="95"/></clipPath><mask id="535ef820d0"><g filter="url(#0d3e6f7a58)"><rect x="-37.5" width="450" fill="#000000" y="-37.499999" height="449.999989" fill-opacity="0.3"/></g></mask><clipPath id="587df205e6"><rect x="0" width="68" y="0" height="68"/></clipPath><mask id="113e55474a"><g filter="url(#0d3e6f7a58)"><rect x="-37.5" width="450" fill="#000000" y="-37.499999" height="449.999989" fill-opacity="0.3"/></g></mask><clipPath id="4b3b6682b0"><path d="M 2 0.28125 L 38.878906 0.28125 L 38.878906 37 L 2 37 Z M 2 0.28125 " clip-rule="nonzero"/></clipPath><clipPath id="4d03d2d9c2"><rect x="0" width="39" y="0" height="39"/></clipPath></defs><g clip-path="url(#f5483c6549)"><path fill="#f2e4e6" d="M 352.691406 187.460938 C 352.691406 190.164062 352.625 192.867188 352.492188 195.566406 C 352.359375 198.265625 352.160156 200.964844 351.894531 203.65625 C 351.628906 206.347656 351.300781 209.027344 350.902344 211.703125 C 350.503906 214.378906 350.042969 217.042969 349.515625 219.695312 C 348.988281 222.347656 348.394531 224.984375 347.738281 227.605469 C 347.082031 230.230469 346.359375 232.835938 345.574219 235.421875 C 344.789062 238.011719 343.941406 240.578125 343.03125 243.125 C 342.121094 245.671875 341.148438 248.191406 340.113281 250.691406 C 339.078125 253.1875 337.984375 255.660156 336.828125 258.105469 C 335.671875 260.550781 334.453125 262.964844 333.179688 265.347656 C 331.90625 267.734375 330.574219 270.085938 329.183594 272.40625 C 327.792969 274.722656 326.347656 277.007812 324.84375 279.257812 C 323.339844 281.503906 321.785156 283.714844 320.175781 285.886719 C 318.5625 288.058594 316.898438 290.191406 315.183594 292.28125 C 313.46875 294.371094 311.703125 296.417969 309.886719 298.421875 C 308.070312 300.425781 306.207031 302.382812 304.296875 304.296875 C 302.382812 306.207031 300.425781 308.070312 298.421875 309.886719 C 296.417969 311.703125 294.371094 313.46875 292.28125 315.183594 C 290.191406 316.898438 288.058594 318.5625 285.886719 320.175781 C 283.714844 321.785156 281.503906 323.339844 279.257812 324.84375 C 277.007812 326.347656 274.722656 327.792969 272.40625 329.183594 C 270.085938 330.574219 267.734375 331.90625 265.347656 333.179688 C 262.964844 334.453125 260.550781 335.671875 258.105469 336.828125 C 255.660156 337.984375 253.1875 339.078125 250.691406 340.113281 C 248.191406 341.148438 245.671875 342.121094 243.125 343.03125 C 240.578125 343.941406 238.011719 344.789062 235.421875 345.574219 C 232.835938 346.359375 230.230469 347.082031 227.605469 347.738281 C 224.984375 348.394531 222.347656 348.988281 219.695312 349.515625 C 217.042969 350.042969 214.378906 350.503906 211.703125 350.902344 C 209.027344 351.300781 206.347656 351.628906 203.65625 351.894531 C 200.964844 352.160156 198.265625 352.359375 195.566406 352.492188 C 192.867188 352.625 190.164062 352.691406 187.460938 352.691406 C 184.753906 352.691406 182.050781 352.625 179.351562 352.492188 C 176.652344 352.359375 173.953125 352.160156 171.261719 351.894531 C 168.574219 351.628906 165.890625 351.300781 163.214844 350.902344 C 160.539062 350.503906 157.875 350.042969 155.222656 349.515625 C 152.570312 348.988281 149.933594 348.394531 147.3125 347.738281 C 144.6875 347.082031 142.082031 346.359375 139.496094 345.574219 C 136.90625 344.789062 134.339844 343.941406 131.792969 343.03125 C 129.25 342.121094 126.726562 341.148438 124.226562 340.113281 C 121.730469 339.078125 119.257812 337.984375 116.8125 336.828125 C 114.371094 335.671875 111.953125 334.453125 109.570312 333.179688 C 107.183594 331.90625 104.832031 330.574219 102.511719 329.183594 C 100.195312 327.792969 97.910156 326.347656 95.660156 324.84375 C 93.414062 323.339844 91.203125 321.785156 89.03125 320.175781 C 86.859375 318.5625 84.726562 316.898438 82.636719 315.183594 C 80.546875 313.46875 78.5 311.703125 76.496094 309.886719 C 74.492188 308.070312 72.535156 306.207031 70.621094 304.296875 C 68.710938 302.382812 66.847656 300.425781 65.03125 298.421875 C 63.214844 296.417969 61.449219 294.371094 59.734375 292.28125 C 58.019531 290.191406 56.355469 288.058594 54.742188 285.886719 C 53.132812 283.714844 51.578125 281.503906 50.074219 279.257812 C 48.570312 277.007812 47.125 274.722656 45.734375 272.40625 C 44.34375 270.085938 43.011719 267.734375 41.738281 265.347656 C 40.464844 262.964844 39.246094 260.550781 38.09375 258.105469 C 36.9375 255.660156 35.839844 253.1875 34.804688 250.691406 C 33.769531 248.191406 32.796875 245.671875 31.886719 243.125 C 30.976562 240.578125 30.128906 238.011719 29.34375 235.421875 C 28.558594 232.835938 27.835938 230.230469 27.179688 227.605469 C 26.523438 224.984375 25.929688 222.347656 25.402344 219.695312 C 24.875 217.042969 24.414062 214.378906 24.015625 211.703125 C 23.621094 209.027344 23.289062 206.347656 23.023438 203.65625 C 22.757812 200.964844 22.558594 198.265625 22.425781 195.566406 C 22.292969 192.867188 22.226562 190.164062 22.226562 187.460938 C 22.226562 184.753906 22.292969 182.050781 22.425781 179.351562 C 22.558594 176.652344 22.757812 173.953125 23.023438 171.261719 C 23.289062 168.574219 23.621094 165.890625 24.015625 163.214844 C 24.414062 160.539062 24.875 157.875 25.402344 155.222656 C 25.929688 152.570312 26.523438 149.933594 27.179688 147.3125 C 27.835938 144.6875 28.558594 142.082031 29.34375 139.496094 C 30.128906 136.90625 30.976562 134.339844 31.886719 131.792969 C 32.796875 129.25 33.769531 126.726562 34.804688 124.226562 C 35.839844 121.730469 36.9375 119.257812 38.09375 116.8125 C 39.246094 114.371094 40.464844 111.953125 41.738281 109.570312 C 43.011719 107.183594 44.34375 104.832031 45.734375 102.511719 C 47.125 100.195312 48.570312 97.910156 50.074219 95.660156 C 51.578125 93.414062 53.132812 91.203125 54.742188 89.03125 C 56.355469 86.859375 58.019531 84.726562 59.734375 82.636719 C 61.449219 80.546875 63.214844 78.5 65.03125 76.496094 C 66.847656 74.492188 68.710938 72.535156 70.621094 70.621094 C 72.535156 68.710938 74.492188 66.847656 76.496094 65.03125 C 78.5 63.214844 80.546875 61.449219 82.636719 59.734375 C 84.726562 58.019531 86.859375 56.355469 89.03125 54.742188 C 91.203125 53.132812 93.414062 51.578125 95.660156 50.074219 C 97.910156 48.570312 100.195312 47.125 102.511719 45.734375 C 104.832031 44.34375 107.183594 43.011719 109.570312 41.738281 C 111.953125 40.464844 114.367188 39.246094 116.8125 38.089844 C 119.257812 36.9375 121.730469 35.839844 124.226562 34.804688 C 126.726562 33.769531 129.25 32.796875 131.792969 31.886719 C 134.339844 30.976562 136.90625 30.128906 139.496094 29.34375 C 142.082031 28.558594 144.6875 27.835938 147.3125 27.179688 C 149.933594 26.523438 152.570312 25.929688 155.222656 25.402344 C 157.875 24.875 160.539062 24.414062 163.214844 24.015625 C 165.890625 23.621094 168.574219 23.289062 171.261719 23.023438 C 173.953125 22.757812 176.652344 22.558594 179.351562 22.425781 C 182.050781 22.292969 184.753906 22.226562 187.460938 22.226562 C 190.164062 22.226562 192.867188 22.292969 195.566406 22.425781 C 198.265625 22.558594 200.964844 22.757812 203.65625 23.023438 C 206.347656 23.289062 209.027344 23.621094 211.703125 24.015625 C 214.378906 24.414062 217.042969 24.875 219.695312 25.402344 C 222.347656 25.929688 224.984375 26.523438 227.605469 27.179688 C 230.230469 27.835938 232.835938 28.558594 235.421875 29.34375 C 238.011719 30.128906 240.578125 30.976562 243.125 31.886719 C 245.671875 32.796875 248.191406 33.769531 250.691406 34.804688 C 253.1875 35.839844 255.660156 36.9375 258.105469 38.089844 C 260.550781 39.246094 262.964844 40.464844 265.347656 41.738281 C 267.734375 43.011719 270.085938 44.34375 272.40625 45.734375 C 274.722656 47.125 277.007812 48.570312 279.257812 50.074219 C 281.503906 51.578125 283.714844 53.132812 285.886719 54.742188 C 288.058594 56.355469 290.191406 58.019531 292.28125 59.734375 C 294.371094 61.449219 296.417969 63.214844 298.421875 65.03125 C 300.425781 66.847656 302.382812 68.710938 304.296875 70.621094 C 306.207031 72.535156 308.070312 74.492188 309.886719 76.496094 C 311.703125 78.5 313.46875 80.546875 315.183594 82.636719 C 316.898438 84.726562 318.5625 86.859375 320.175781 89.03125 C 321.785156 91.203125 323.339844 93.414062 324.84375 95.660156 C 326.347656 97.910156 327.792969 100.195312 329.183594 102.511719 C 330.574219 104.832031 331.90625 107.183594 333.179688 109.570312 C 334.453125 111.953125 335.671875 114.367188 336.828125 116.8125 C 337.984375 119.257812 339.078125 121.730469 340.113281 124.226562 C 341.148438 126.726562 342.121094 129.25 343.03125 131.792969 C 343.941406 134.339844 344.789062 136.90625 345.574219 139.496094 C 346.359375 142.082031 347.082031 144.6875 347.738281 147.3125 C 348.394531 149.933594 348.988281 152.570312 349.515625 155.222656 C 350.042969 157.875 350.503906 160.539062 350.902344 163.214844 C 351.300781 165.890625 351.628906 168.574219 351.894531 171.261719 C 352.160156 173.953125 352.359375 176.652344 352.492188 179.351562 C 352.625 182.050781 352.691406 184.753906 352.691406 187.460938 Z M 352.691406 187.460938 " fill-opacity="1" fill-rule="nonzero"/></g><path fill="#f2e4e6" d="M 342.792969 187.460938 C 342.792969 190 342.730469 192.542969 342.605469 195.082031 C 342.480469 197.621094 342.292969 200.15625 342.042969 202.683594 C 341.796875 205.214844 341.484375 207.738281 341.109375 210.25 C 340.738281 212.765625 340.304688 215.269531 339.808594 217.761719 C 339.3125 220.257812 338.753906 222.734375 338.136719 225.203125 C 337.519531 227.667969 336.839844 230.117188 336.101562 232.550781 C 335.367188 234.984375 334.566406 237.394531 333.710938 239.789062 C 332.855469 242.183594 331.941406 244.554688 330.96875 246.902344 C 329.996094 249.25 328.964844 251.574219 327.878906 253.871094 C 326.792969 256.171875 325.648438 258.441406 324.449219 260.683594 C 323.253906 262.925781 322 265.136719 320.691406 267.316406 C 319.386719 269.496094 318.027344 271.644531 316.613281 273.757812 C 315.203125 275.871094 313.738281 277.949219 312.222656 279.992188 C 310.710938 282.03125 309.144531 284.035156 307.53125 286 C 305.921875 287.964844 304.261719 289.890625 302.554688 291.773438 C 300.847656 293.65625 299.09375 295.5 297.296875 297.296875 C 295.5 299.09375 293.65625 300.847656 291.773438 302.554688 C 289.890625 304.261719 287.964844 305.921875 286 307.53125 C 284.035156 309.144531 282.03125 310.710938 279.992188 312.222656 C 277.949219 313.738281 275.871094 315.203125 273.757812 316.613281 C 271.644531 318.027344 269.496094 319.386719 267.316406 320.691406 C 265.136719 322 262.925781 323.253906 260.683594 324.449219 C 258.441406 325.648438 256.171875 326.792969 253.871094 327.878906 C 251.574219 328.964844 249.25 329.996094 246.902344 330.96875 C 244.554688 331.941406 242.183594 332.855469 239.789062 333.710938 C 237.394531 334.566406 234.984375 335.367188 232.550781 336.105469 C 230.117188 336.839844 227.667969 337.519531 225.203125 338.136719 C 222.734375 338.753906 220.257812 339.3125 217.761719 339.808594 C 215.269531 340.304688 212.765625 340.738281 210.25 341.109375 C 207.738281 341.484375 205.214844 341.796875 202.683594 342.042969 C 200.15625 342.292969 197.621094 342.480469 195.082031 342.605469 C 192.542969 342.730469 190 342.792969 187.460938 342.792969 C 184.917969 342.792969 182.375 342.730469 179.835938 342.605469 C 177.296875 342.480469 174.765625 342.292969 172.234375 342.042969 C 169.703125 341.796875 167.183594 341.484375 164.667969 341.109375 C 162.152344 340.738281 159.648438 340.304688 157.15625 339.808594 C 154.660156 339.3125 152.183594 338.753906 149.714844 338.136719 C 147.25 337.519531 144.800781 336.839844 142.367188 336.101562 C 139.9375 335.367188 137.523438 334.566406 135.128906 333.710938 C 132.734375 332.855469 130.363281 331.941406 128.015625 330.96875 C 125.667969 329.996094 123.34375 328.964844 121.046875 327.878906 C 118.746094 326.792969 116.476562 325.648438 114.234375 324.449219 C 111.992188 323.253906 109.78125 322 107.601562 320.691406 C 105.421875 319.386719 103.273438 318.027344 101.160156 316.613281 C 99.046875 315.203125 96.96875 313.738281 94.925781 312.222656 C 92.886719 310.710938 90.882812 309.144531 88.917969 307.53125 C 86.953125 305.921875 85.027344 304.261719 83.144531 302.554688 C 81.261719 300.847656 79.417969 299.09375 77.621094 297.296875 C 75.824219 295.5 74.070312 293.65625 72.363281 291.773438 C 70.65625 289.890625 68.996094 287.964844 67.386719 286 C 65.773438 284.035156 64.207031 282.03125 62.695312 279.992188 C 61.179688 277.949219 59.71875 275.871094 58.304688 273.757812 C 56.890625 271.644531 55.53125 269.496094 54.226562 267.316406 C 52.917969 265.136719 51.667969 262.925781 50.46875 260.683594 C 49.269531 258.441406 48.125 256.171875 47.039062 253.871094 C 45.953125 251.574219 44.921875 249.25 43.949219 246.902344 C 42.976562 244.554688 42.0625 242.183594 41.207031 239.789062 C 40.351562 237.394531 39.550781 234.984375 38.816406 232.550781 C 38.078125 230.117188 37.398438 227.667969 36.78125 225.203125 C 36.164062 222.734375 35.605469 220.257812 35.109375 217.761719 C 34.613281 215.269531 34.179688 212.765625 33.808594 210.25 C 33.433594 207.738281 33.125 205.214844 32.875 202.683594 C 32.625 200.15625 32.4375 197.621094 32.3125 195.082031 C 32.1875 192.542969 32.125 190 32.125 187.460938 C 32.125 184.917969 32.1875 182.375 32.3125 179.835938 C 32.4375 177.296875 32.625 174.765625 32.875 172.234375 C 33.125 169.703125 33.433594 167.183594 33.808594 164.667969 C 34.179688 162.152344 34.613281 159.648438 35.109375 157.15625 C 35.605469 154.660156 36.164062 152.183594 36.78125 149.714844 C 37.398438 147.25 38.078125 144.800781 38.816406 142.367188 C 39.550781 139.9375 40.351562 137.523438 41.207031 135.128906 C 42.0625 132.734375 42.976562 130.363281 43.949219 128.015625 C 44.921875 125.667969 45.953125 123.34375 47.039062 121.046875 C 48.125 118.746094 49.269531 116.476562 50.46875 114.234375 C 51.667969 111.992188 52.917969 109.78125 54.226562 107.601562 C 55.53125 105.421875 56.890625 103.273438 58.304688 101.160156 C 59.71875 99.046875 61.179688 96.96875 62.695312 94.925781 C 64.207031 92.886719 65.773438 90.882812 67.386719 88.917969 C 68.996094 86.953125 70.65625 85.027344 72.363281 83.144531 C 74.070312 81.261719 75.824219 79.417969 77.621094 77.621094 C 79.417969 75.824219 81.261719 74.070312 83.144531 72.363281 C 85.027344 70.65625 86.953125 68.996094 88.917969 67.386719 C 90.882812 65.773438 92.886719 64.207031 94.925781 62.695312 C 96.96875 61.179688 99.046875 59.71875 101.160156 58.304688 C 103.273438 56.890625 105.421875 55.53125 107.601562 54.226562 C 109.78125 52.917969 111.992188 51.667969 114.234375 50.46875 C 116.476562 49.269531 118.746094 48.125 121.046875 47.039062 C 123.34375 45.953125 125.667969 44.921875 128.015625 43.949219 C 130.363281 42.976562 132.734375 42.0625 135.128906 41.207031 C 137.523438 40.351562 139.9375 39.550781 142.367188 38.816406 C 144.800781 38.078125 147.25 37.398438 149.714844 36.78125 C 152.183594 36.164062 154.660156 35.605469 157.15625 35.109375 C 159.648438 34.613281 162.152344 34.179688 164.667969 33.808594 C 167.183594 33.433594 169.703125 33.125 172.234375 32.875 C 174.765625 32.625 177.296875 32.4375 179.835938 32.3125 C 182.375 32.1875 184.917969 32.125 187.460938 32.125 C 190 32.125 192.542969 32.1875 195.082031 32.3125 C 197.621094 32.4375 200.15625 32.625 202.683594 32.875 C 205.214844 33.125 207.738281 33.433594 210.25 33.808594 C 212.765625 34.179688 215.269531 34.613281 217.761719 35.109375 C 220.257812 35.605469 222.734375 36.164062 225.203125 36.78125 C 227.667969 37.398438 230.117188 38.078125 232.550781 38.816406 C 234.984375 39.550781 237.394531 40.351562 239.789062 41.207031 C 242.183594 42.0625 244.554688 42.976562 246.902344 43.949219 C 249.25 44.921875 251.574219 45.953125 253.871094 47.039062 C 256.171875 48.125 258.441406 49.269531 260.683594 50.46875 C 262.925781 51.667969 265.136719 52.917969 267.316406 54.226562 C 269.496094 55.53125 271.644531 56.890625 273.757812 58.304688 C 275.871094 59.71875 277.949219 61.179688 279.992188 62.695312 C 282.03125 64.207031 284.035156 65.773438 286 67.386719 C 287.964844 68.996094 289.890625 70.65625 291.773438 72.363281 C 293.65625 74.070312 295.5 75.824219 297.296875 77.621094 C 299.09375 79.417969 300.847656 81.261719 302.554688 83.144531 C 304.261719 85.027344 305.921875 86.953125 307.53125 88.917969 C 309.144531 90.882812 310.710938 92.886719 312.222656 94.925781 C 313.738281 96.96875 315.203125 99.046875 316.613281 101.160156 C 318.027344 103.273438 319.386719 105.421875 320.691406 107.601562 C 322 109.78125 323.253906 111.992188 324.449219 114.234375 C 325.648438 116.476562 326.792969 118.746094 327.878906 121.046875 C 328.964844 123.34375 329.996094 125.667969 330.96875 128.015625 C 331.941406 130.363281 332.855469 132.734375 333.710938 135.128906 C 334.566406 137.523438 335.367188 139.9375 336.105469 142.367188 C 336.839844 144.800781 337.519531 147.25 338.136719 149.714844 C 338.753906 152.183594 339.3125 154.660156 339.808594 157.15625 C 340.304688 159.648438 340.738281 162.152344 341.109375 164.667969 C 341.484375 167.183594 341.796875 169.703125 342.042969 172.234375 C 342.292969 174.765625 342.480469 177.296875 342.605469 179.835938 C 342.730469 182.375 342.792969 184.917969 342.792969 187.460938 Z M 342.792969 187.460938 " fill-opacity="1" fill-rule="nonzero"/><path fill="#fcc697" d="M 308.730469 192.644531 C 309.785156 190.117188 310.574219 187.527344 311.144531 184.890625 C 315.054688 166.847656 308.625 146.636719 304.796875 129.363281 C 300.273438 108.945312 295.148438 88.585938 287.910156 68.941406 C 268.144531 52.214844 244.542969 40.757812 219.453125 35.457031 C 218.144531 40.351562 217.742188 45.515625 217.789062 50.605469 C 218.054688 78.222656 230.21875 103.628906 242.546875 127.703125 C 248.945312 140.191406 255.796875 152.570312 261.328125 165.472656 C 261.820312 166.617188 262.289062 167.722656 262.515625 168.933594 C 262.519531 169.457031 249.78125 166.542969 249.203125 166.378906 C 241.742188 164.273438 234.023438 162.726562 226.238281 163.011719 C 211.347656 163.558594 197.515625 170.699219 185.011719 178.804688 C 182.769531 180.257812 180.546875 181.753906 178.148438 182.921875 C 174.386719 184.761719 170.039062 185.425781 165.957031 186.324219 C 161.179688 187.378906 156.375 188.273438 151.570312 189.171875 C 141.628906 191.023438 131.097656 192.9375 121.109375 190.324219 C 110.867188 187.644531 100.433594 183.375 89.832031 182.253906 C 86.898438 181.945312 82.910156 182.84375 82.839844 185.796875 C 82.820312 186.71875 83.242188 187.589844 83.699219 188.394531 C 86.851562 193.964844 92.144531 198.285156 98.230469 200.261719 C 84.484375 202.398438 71.050781 206.519531 58.46875 212.457031 C 54.082031 214.523438 49.675781 216.917969 46.652344 220.710938 C 46.132812 221.363281 45.640625 222.105469 45.613281 222.941406 C 45.519531 225.527344 49.222656 226.074219 51.777344 225.675781 C 60.164062 224.355469 68.523438 222.84375 76.839844 221.132812 C 69.40625 222.941406 62.167969 225.566406 55.300781 228.941406 C 52.765625 230.191406 49.929688 232.089844 49.953125 234.917969 C 49.96875 237.292969 52.199219 239.1875 54.53125 239.65625 C 56.867188 240.125 59.265625 239.519531 61.566406 238.914062 C 67.304688 237.410156 73.042969 235.902344 78.777344 234.398438 C 73.460938 235.730469 68.265625 237.546875 63.273438 239.816406 C 60.933594 240.882812 58.359375 242.414062 57.972656 244.960938 C 57.59375 247.449219 59.675781 249.789062 62.078125 250.550781 C 64.480469 251.3125 67.078125 250.875 69.539062 250.332031 C 76.539062 248.792969 83.367188 246.476562 89.855469 243.433594 C 85.847656 245.480469 81.84375 247.527344 77.832031 249.578125 C 74.277344 251.398438 70.085938 254.660156 71.429688 258.421875 C 72.207031 260.609375 74.730469 261.769531 77.050781 261.707031 C 79.371094 261.644531 81.546875 260.625 83.640625 259.625 C 94.210938 254.578125 104.78125 249.53125 115.351562 244.484375 C 122.195312 241.214844 129.042969 237.945312 135.648438 234.230469 C 142.839844 230.1875 149.960938 225.535156 158.078125 224.066406 C 161.101562 223.519531 164.21875 223.425781 167.167969 222.558594 C 167.292969 222.523438 167.417969 222.472656 167.542969 222.4375 C 167.71875 222.414062 167.894531 222.386719 168.070312 222.363281 C 177.792969 221.054688 187.511719 219.722656 197.226562 218.324219 C 203.292969 217.453125 209.359375 216.546875 215.417969 215.605469 C 223.34375 214.375 231.214844 212.664062 239.105469 211.089844 C 246.394531 211.125 253.6875 211.273438 260.945312 212.003906 C 267.363281 212.648438 274.472656 214.109375 280.886719 213.429688 C 292.96875 212.136719 304.058594 203.859375 308.730469 192.644531 Z M 308.730469 192.644531 " fill-opacity="1" fill-rule="nonzero"/><g mask="url(#4a71d96aa0)"><g transform="matrix(1, 0, 0, 1, 182, 139)"><g clip-path="url(#710a380079)"><g clip-path="url(#96052574d2)"><path fill="#ed1c24" d="M 94.507812 46.421875 C 94.507812 47.925781 94.433594 49.425781 94.285156 50.917969 C 94.136719 52.414062 93.917969 53.898438 93.625 55.375 C 93.332031 56.847656 92.964844 58.304688 92.53125 59.742188 C 92.09375 61.179688 91.589844 62.59375 91.011719 63.980469 C 90.4375 65.371094 89.796875 66.726562 89.085938 68.050781 C 88.378906 69.378906 87.609375 70.664062 86.773438 71.914062 C 85.9375 73.164062 85.042969 74.371094 84.089844 75.53125 C 83.136719 76.691406 82.128906 77.804688 81.066406 78.867188 C 80.003906 79.929688 78.890625 80.9375 77.730469 81.890625 C 76.566406 82.84375 75.363281 83.738281 74.113281 84.574219 C 72.863281 85.410156 71.574219 86.179688 70.25 86.890625 C 68.925781 87.597656 67.566406 88.238281 66.179688 88.816406 C 64.792969 89.390625 63.378906 89.894531 61.941406 90.332031 C 60.503906 90.769531 59.046875 91.132812 57.570312 91.425781 C 56.097656 91.71875 54.613281 91.941406 53.117188 92.085938 C 51.621094 92.234375 50.121094 92.308594 48.621094 92.308594 C 47.117188 92.308594 45.617188 92.234375 44.121094 92.085938 C 42.628906 91.941406 41.140625 91.71875 39.667969 91.425781 C 38.195312 91.132812 36.738281 90.769531 35.300781 90.332031 C 33.863281 89.894531 32.449219 89.390625 31.058594 88.816406 C 29.671875 88.238281 28.316406 87.597656 26.988281 86.890625 C 25.664062 86.179688 24.375 85.410156 23.128906 84.574219 C 21.878906 83.738281 20.671875 82.84375 19.511719 81.890625 C 18.347656 80.9375 17.238281 79.929688 16.175781 78.867188 C 15.113281 77.804688 14.101562 76.691406 13.148438 75.53125 C 12.195312 74.371094 11.300781 73.164062 10.46875 71.914062 C 9.632812 70.664062 8.859375 69.378906 8.152344 68.050781 C 7.445312 66.726562 6.800781 65.371094 6.226562 63.980469 C 5.652344 62.59375 5.144531 61.179688 4.710938 59.742188 C 4.273438 58.304688 3.910156 56.847656 3.617188 55.375 C 3.324219 53.898438 3.101562 52.414062 2.957031 50.917969 C 2.808594 49.425781 2.734375 47.925781 2.734375 46.421875 C 2.734375 44.917969 2.808594 43.417969 2.957031 41.925781 C 3.101562 40.429688 3.324219 38.945312 3.617188 37.46875 C 3.910156 35.996094 4.273438 34.539062 4.710938 33.101562 C 5.144531 31.664062 5.652344 30.25 6.226562 28.863281 C 6.800781 27.472656 7.445312 26.117188 8.152344 24.792969 C 8.859375 23.464844 9.632812 22.179688 10.46875 20.929688 C 11.300781 19.679688 12.195312 18.472656 13.148438 17.3125 C 14.101562 16.152344 15.113281 15.039062 16.175781 13.976562 C 17.238281 12.914062 18.347656 11.90625 19.511719 10.953125 C 20.671875 10 21.878906 9.105469 23.128906 8.269531 C 24.375 7.433594 25.664062 6.664062 26.988281 5.953125 C 28.316406 5.246094 29.671875 4.605469 31.058594 4.027344 C 32.449219 3.453125 33.863281 2.949219 35.300781 2.511719 C 36.738281 2.074219 38.195312 1.710938 39.667969 1.417969 C 41.140625 1.125 42.628906 0.90625 44.121094 0.757812 C 45.617188 0.609375 47.117188 0.535156 48.621094 0.535156 C 50.121094 0.535156 51.621094 0.609375 53.117188 0.757812 C 54.613281 0.90625 56.097656 1.125 57.570312 1.417969 C 59.046875 1.710938 60.503906 2.074219 61.941406 2.511719 C 63.378906 2.949219 64.792969 3.453125 66.179688 4.027344 C 67.570312 4.605469 68.925781 5.246094 70.25 5.953125 C 71.574219 6.664062 72.863281 7.433594 74.113281 8.269531 C 75.363281 9.105469 76.566406 10 77.730469 10.953125 C 78.890625 11.90625 80.003906 12.914062 81.066406 13.976562 C 82.128906 15.039062 83.136719 16.152344 84.089844 17.3125 C 85.042969 18.472656 85.9375 19.679688 86.773438 20.929688 C 87.609375 22.179688 88.378906 23.464844 89.085938 24.792969 C 89.796875 26.117188 90.4375 27.472656 91.011719 28.863281 C 91.589844 30.25 92.09375 31.664062 92.53125 33.101562 C 92.964844 34.539062 93.332031 35.996094 93.625 37.46875 C 93.917969 38.945312 94.136719 40.429688 94.285156 41.925781 C 94.433594 43.417969 94.507812 44.917969 94.507812 46.421875 Z M 94.507812 46.421875 " fill-opacity="1" fill-rule="nonzero"/></g></g></g></g><g mask="url(#535ef820d0)"><g transform="matrix(1, 0, 0, 1, 197, 151)"><g clip-path="url(#587df205e6)"><path fill="#ed1c24" d="M 64.800781 34.421875 C 64.800781 35.441406 64.75 36.460938 64.648438 37.476562 C 64.550781 38.496094 64.398438 39.503906 64.199219 40.503906 C 64 41.507812 63.753906 42.496094 63.457031 43.472656 C 63.160156 44.449219 62.816406 45.410156 62.425781 46.355469 C 62.035156 47.296875 61.597656 48.21875 61.117188 49.121094 C 60.636719 50.019531 60.113281 50.894531 59.546875 51.746094 C 58.976562 52.59375 58.371094 53.414062 57.722656 54.203125 C 57.074219 54.992188 56.390625 55.746094 55.667969 56.46875 C 54.945312 57.191406 54.191406 57.875 53.398438 58.523438 C 52.609375 59.171875 51.792969 59.78125 50.941406 60.347656 C 50.09375 60.914062 49.21875 61.4375 48.316406 61.921875 C 47.417969 62.402344 46.496094 62.835938 45.550781 63.226562 C 44.609375 63.617188 43.648438 63.960938 42.671875 64.257812 C 41.695312 64.554688 40.703125 64.804688 39.703125 65.003906 C 38.703125 65.203125 37.691406 65.351562 36.675781 65.453125 C 35.660156 65.550781 34.640625 65.601562 33.621094 65.601562 C 32.597656 65.601562 31.582031 65.550781 30.5625 65.453125 C 29.546875 65.351562 28.539062 65.203125 27.539062 65.003906 C 26.535156 64.804688 25.546875 64.554688 24.570312 64.257812 C 23.59375 63.960938 22.632812 63.617188 21.6875 63.226562 C 20.746094 62.835938 19.824219 62.402344 18.921875 61.917969 C 18.023438 61.4375 17.148438 60.914062 16.296875 60.347656 C 15.449219 59.78125 14.628906 59.171875 13.839844 58.523438 C 13.050781 57.875 12.292969 57.191406 11.574219 56.46875 C 10.851562 55.746094 10.164062 54.992188 9.519531 54.203125 C 8.871094 53.414062 8.261719 52.59375 7.695312 51.746094 C 7.128906 50.894531 6.605469 50.019531 6.121094 49.121094 C 5.640625 48.21875 5.203125 47.296875 4.8125 46.355469 C 4.421875 45.410156 4.078125 44.449219 3.78125 43.472656 C 3.488281 42.496094 3.238281 41.507812 3.039062 40.503906 C 2.839844 39.503906 2.691406 38.496094 2.589844 37.476562 C 2.492188 36.460938 2.441406 35.441406 2.441406 34.421875 C 2.441406 33.402344 2.492188 32.382812 2.589844 31.367188 C 2.691406 30.347656 2.839844 29.339844 3.039062 28.339844 C 3.238281 27.335938 3.488281 26.347656 3.78125 25.371094 C 4.078125 24.394531 4.421875 23.433594 4.8125 22.488281 C 5.203125 21.546875 5.640625 20.625 6.121094 19.722656 C 6.605469 18.824219 7.128906 17.949219 7.695312 17.097656 C 8.261719 16.25 8.871094 15.429688 9.519531 14.640625 C 10.164062 13.851562 10.851562 13.097656 11.574219 12.375 C 12.292969 11.652344 13.050781 10.96875 13.839844 10.320312 C 14.628906 9.671875 15.449219 9.0625 16.296875 8.496094 C 17.148438 7.929688 18.023438 7.40625 18.921875 6.925781 C 19.824219 6.441406 20.746094 6.007812 21.6875 5.617188 C 22.632812 5.226562 23.59375 4.882812 24.570312 4.585938 C 25.546875 4.289062 26.535156 4.039062 27.539062 3.839844 C 28.539062 3.640625 29.546875 3.492188 30.5625 3.390625 C 31.582031 3.292969 32.597656 3.242188 33.621094 3.242188 C 34.640625 3.242188 35.660156 3.292969 36.675781 3.390625 C 37.691406 3.492188 38.703125 3.640625 39.703125 3.839844 C 40.703125 4.039062 41.695312 4.289062 42.671875 4.585938 C 43.648438 4.882812 44.609375 5.226562 45.550781 5.617188 C 46.496094 6.007812 47.417969 6.441406 48.316406 6.925781 C 49.21875 7.40625 50.09375 7.929688 50.941406 8.496094 C 51.792969 9.0625 52.609375 9.671875 53.398438 10.320312 C 54.191406 10.96875 54.945312 11.652344 55.667969 12.375 C 56.390625 13.097656 57.074219 13.851562 57.722656 14.640625 C 58.371094 15.429688 58.976562 16.25 59.546875 17.097656 C 60.113281 17.949219 60.636719 18.824219 61.117188 19.722656 C 61.597656 20.625 62.035156 21.546875 62.425781 22.488281 C 62.816406 23.433594 63.160156 24.394531 63.457031 25.371094 C 63.753906 26.347656 64 27.335938 64.199219 28.339844 C 64.398438 29.339844 64.550781 30.347656 64.648438 31.367188 C 64.75 32.382812 64.800781 33.402344 64.800781 34.421875 Z M 64.800781 34.421875 " fill-opacity="1" fill-rule="nonzero"/></g></g></g><g mask="url(#113e55474a)"><g transform="matrix(1, 0, 0, 1, 210, 167)"><g clip-path="url(#4d03d2d9c2)"><g clip-path="url(#4b3b6682b0)"><path fill="#ed1c24" d="M 38.394531 18.421875 C 38.394531 19.003906 38.367188 19.585938 38.308594 20.164062 C 38.253906 20.742188 38.167969 21.320312 38.054688 21.890625 C 37.941406 22.460938 37.796875 23.023438 37.628906 23.582031 C 37.460938 24.140625 37.265625 24.6875 37.042969 25.222656 C 36.820312 25.761719 36.570312 26.289062 36.296875 26.800781 C 36.023438 27.3125 35.722656 27.8125 35.398438 28.296875 C 35.074219 28.78125 34.730469 29.25 34.359375 29.699219 C 33.992188 30.148438 33.601562 30.578125 33.1875 30.992188 C 32.777344 31.402344 32.347656 31.792969 31.894531 32.160156 C 31.445312 32.53125 30.980469 32.878906 30.496094 33.199219 C 30.011719 33.523438 29.511719 33.824219 29 34.097656 C 28.484375 34.371094 27.960938 34.621094 27.421875 34.84375 C 26.882812 35.066406 26.335938 35.261719 25.78125 35.429688 C 25.222656 35.601562 24.660156 35.742188 24.085938 35.855469 C 23.515625 35.96875 22.941406 36.054688 22.363281 36.109375 C 21.78125 36.167969 21.203125 36.195312 20.621094 36.195312 C 20.039062 36.195312 19.457031 36.167969 18.878906 36.109375 C 18.296875 36.054688 17.722656 35.96875 17.152344 35.855469 C 16.582031 35.742188 16.015625 35.601562 15.460938 35.429688 C 14.902344 35.261719 14.355469 35.066406 13.816406 34.84375 C 13.28125 34.621094 12.753906 34.371094 12.242188 34.097656 C 11.726562 33.824219 11.230469 33.523438 10.746094 33.199219 C 10.261719 32.878906 9.792969 32.53125 9.34375 32.160156 C 8.894531 31.792969 8.464844 31.402344 8.050781 30.992188 C 7.640625 30.578125 7.25 30.148438 6.878906 29.699219 C 6.511719 29.25 6.164062 28.78125 5.839844 28.296875 C 5.519531 27.8125 5.21875 27.3125 4.945312 26.800781 C 4.667969 26.289062 4.421875 25.761719 4.199219 25.222656 C 3.976562 24.6875 3.78125 24.140625 3.609375 23.582031 C 3.441406 23.023438 3.300781 22.460938 3.1875 21.890625 C 3.074219 21.320312 2.988281 20.742188 2.929688 20.164062 C 2.875 19.585938 2.84375 19.003906 2.84375 18.421875 C 2.84375 17.839844 2.875 17.257812 2.929688 16.679688 C 2.988281 16.101562 3.074219 15.523438 3.1875 14.953125 C 3.300781 14.382812 3.441406 13.820312 3.609375 13.261719 C 3.78125 12.707031 3.976562 12.15625 4.199219 11.621094 C 4.421875 11.082031 4.667969 10.554688 4.945312 10.042969 C 5.21875 9.53125 5.519531 9.03125 5.839844 8.546875 C 6.164062 8.0625 6.511719 7.597656 6.878906 7.144531 C 7.25 6.695312 7.640625 6.265625 8.050781 5.851562 C 8.464844 5.441406 8.894531 5.050781 9.34375 4.683594 C 9.792969 4.3125 10.261719 3.964844 10.746094 3.644531 C 11.230469 3.320312 11.726562 3.019531 12.242188 2.746094 C 12.753906 2.472656 13.28125 2.222656 13.816406 2 C 14.355469 1.777344 14.902344 1.582031 15.460938 1.414062 C 16.015625 1.242188 16.582031 1.101562 17.152344 0.988281 C 17.722656 0.875 18.296875 0.789062 18.878906 0.734375 C 19.457031 0.675781 20.039062 0.648438 20.621094 0.648438 C 21.203125 0.648438 21.78125 0.675781 22.363281 0.734375 C 22.941406 0.789062 23.515625 0.875 24.085938 0.988281 C 24.660156 1.101562 25.222656 1.242188 25.78125 1.414062 C 26.335938 1.582031 26.882812 1.777344 27.421875 2 C 27.960938 2.222656 28.484375 2.472656 29 2.746094 C 29.511719 3.019531 30.011719 3.320312 30.496094 3.644531 C 30.980469 3.964844 31.445312 4.3125 31.894531 4.683594 C 32.347656 5.050781 32.777344 5.441406 33.1875 5.851562 C 33.601562 6.265625 33.992188 6.695312 34.359375 7.144531 C 34.730469 7.597656 35.074219 8.0625 35.398438 8.546875 C 35.722656 9.03125 36.023438 9.53125 36.296875 10.042969 C 36.570312 10.554688 36.820312 11.082031 37.042969 11.621094 C 37.265625 12.15625 37.460938 12.707031 37.628906 13.261719 C 37.796875 13.820312 37.941406 14.382812 38.054688 14.953125 C 38.167969 15.523438 38.253906 16.101562 38.308594 16.679688 C 38.367188 17.257812 38.394531 17.839844 38.394531 18.421875 Z M 38.394531 18.421875 " fill-opacity="1" fill-rule="nonzero"/></g></g></g></g><path fill="#f2e4e6" d="M 232.335938 196.949219 L 233.257812 194.175781 C 228.53125 195.519531 228.542969 195.382812 223.773438 196.582031 C 213.753906 199.09375 203.648438 201.269531 193.550781 203.445312 C 179.90625 206.382812 166.257812 209.320312 152.613281 212.257812 C 154.109375 206.480469 160.054688 203.109375 165.667969 201.074219 C 175.6875 197.4375 186.328125 195.960938 196.769531 193.828125 C 207.789062 191.578125 218.644531 188.585938 229.492188 185.597656 C 232.027344 184.898438 234.566406 184.199219 237.101562 183.5 L 235.761719 180.507812 C 235.761719 180.507812 232.257812 179.84375 231.507812 179.675781 C 231.195312 179.605469 231.417969 178.871094 231.78125 178.039062 C 211.519531 183.144531 191.128906 187.753906 170.742188 192.355469 C 165.804688 193.464844 159.695312 196.003906 154.683594 196.074219 C 150.359375 196.136719 146.644531 192.761719 142.136719 193.730469 C 139.222656 194.355469 136.828125 196.925781 136.410156 199.875 C 136.355469 200.25 136.335938 200.648438 136.5 200.992188 C 136.675781 201.367188 137.042969 201.609375 137.390625 201.828125 C 140.097656 203.558594 142.804688 205.285156 145.511719 207.015625 C 149.832031 209.773438 148.242188 211.167969 146.230469 215 C 145.167969 217.023438 144.640625 219.8125 146.332031 221.347656 C 147.859375 222.730469 150.269531 222.246094 152.203125 221.527344 C 154.488281 220.675781 156.085938 218.699219 158.488281 218.289062 C 189.132812 213.109375 214.332031 206.09375 244.429688 198.273438 L 244.851562 196.945312 L 232.335938 196.945312 Z M 232.335938 196.949219 " fill-opacity="1" fill-rule="nonzero"/><path fill="#f2e4e6" d="M 290.816406 205.355469 C 290.933594 204.660156 290.816406 203.941406 290.699219 203.242188 C 290.523438 202.1875 290.347656 201.132812 290.171875 200.074219 C 290.003906 199.085938 289.753906 198.109375 289.726562 197.101562 C 289.722656 196.917969 289.722656 196.734375 289.753906 196.558594 C 289.769531 196.472656 289.796875 196.382812 289.828125 196.300781 C 290.164062 195.386719 290.398438 194.472656 290.855469 193.585938 C 291.332031 192.660156 291.882812 191.769531 292.324219 190.824219 C 293.785156 187.683594 293.335938 184.636719 293.886719 181.371094 C 294.222656 179.375 295.9375 176.898438 294.554688 174.957031 C 292.945312 172.707031 289.492188 173.78125 286.847656 174.597656 C 280.734375 176.480469 274.152344 175.597656 267.828125 174.621094 C 254.179688 172.507812 240.597656 170.019531 227.050781 167.320312 C 226.367188 167.917969 225.851562 168.484375 226.101562 168.679688 C 226.707031 169.152344 229.589844 171.257812 229.589844 171.257812 L 229.515625 174.535156 C 237.339844 175.914062 245.164062 177.292969 252.988281 178.671875 C 259.285156 179.78125 266.085938 180.261719 272.234375 181.890625 C 276.113281 182.921875 282.757812 183.480469 285.601562 186.527344 C 286.046875 187 286.246094 187.757812 285.902344 188.308594 C 285.707031 188.621094 285.371094 188.8125 285.039062 188.976562 C 281.925781 190.511719 278.269531 190.277344 274.8125 190.003906 C 264.96875 189.238281 267.300781 189.21875 257.414062 187.980469 C 251.113281 187.1875 244.835938 186.253906 238.574219 185.199219 L 236.550781 187.308594 L 247.859375 192.679688 L 246.90625 193.699219 C 257.082031 195.644531 255.042969 195.753906 265.15625 197.980469 C 269.484375 198.929688 273.753906 200.058594 277.457031 202.582031 C 280.3125 204.523438 283.4375 208.667969 287.179688 208.382812 C 288.875 208.25 290.53125 207.027344 290.816406 205.355469 Z M 290.816406 205.355469 " fill-opacity="1" fill-rule="nonzero"/><path fill="#ed1c24" d="M 195.851562 123.167969 C 195.140625 124.015625 194.90625 125.238281 195.058594 126.359375 C 195.234375 127.6875 195.867188 128.90625 196.492188 130.09375 C 198.050781 133.070312 199.269531 135.992188 200.445312 139.144531 C 201.59375 142.230469 202.648438 145.371094 203.898438 148.417969 C 204.292969 149.46875 204.792969 150.640625 205.839844 151.042969 C 208.15625 151.941406 210.675781 148.367188 212.828125 149.601562 C 215.214844 155.109375 217.265625 160.765625 218.960938 166.523438 C 219.152344 167.160156 219.582031 167.664062 219.984375 168.191406 C 220.644531 167.992188 220.769531 167.125 220.753906 166.433594 C 220.628906 158.261719 219.496094 150.136719 217.402344 142.242188 C 217.253906 141.675781 217.09375 141.101562 216.785156 140.601562 C 216.472656 140.101562 215.984375 139.683594 215.40625 139.597656 C 215.023438 139.542969 214.640625 139.628906 214.265625 139.71875 C 213.085938 139.992188 211.214844 140.882812 210.074219 140.199219 C 209.058594 139.59375 208.695312 138.140625 208.515625 137.058594 C 208.011719 134.070312 207.261719 131.128906 206.277344 128.261719 C 205.796875 126.859375 205.257812 125.476562 204.667969 124.117188 C 204.277344 123.226562 203.804688 121.640625 202.808594 121.253906 C 202.261719 121.039062 201.652344 121.089844 201.066406 121.171875 C 199.878906 121.347656 198.707031 121.648438 197.582031 122.074219 C 197.132812 122.246094 196.683594 122.4375 196.304688 122.730469 C 196.136719 122.855469 195.984375 123.003906 195.851562 123.167969 Z M 195.851562 123.167969 " fill-opacity="1" fill-rule="nonzero"/><path fill="#ed1c24" d="M 239.269531 117.199219 C 239.015625 117.292969 238.773438 117.402344 238.539062 117.542969 C 236.410156 118.808594 237.074219 122.988281 236.933594 125.125 C 236.832031 126.679688 236.730469 128.238281 236.632812 129.796875 C 236.597656 130.339844 236.722656 133.9375 236.351562 134.152344 C 236.277344 135.273438 236.253906 136.542969 237.046875 137.34375 C 238.789062 139.109375 242.554688 136.878906 244.011719 138.886719 C 243.9375 144.890625 243.496094 150.886719 242.691406 156.835938 C 242.601562 157.496094 242.792969 158.128906 242.941406 158.773438 C 243.625 158.867188 244.09375 158.125 244.367188 157.488281 C 247.59375 149.980469 249.878906 142.101562 251.203125 134.039062 C 251.296875 133.460938 251.386719 132.871094 251.308594 132.289062 C 251.230469 131.707031 250.953125 131.125 250.460938 130.808594 C 250.136719 130.601562 249.75 130.527344 249.371094 130.453125 C 248.671875 130.316406 247.902344 130.179688 247.191406 130.136719 C 246.621094 130.101562 246.109375 130.242188 245.75 129.625 C 245.496094 129.183594 245.503906 128.648438 245.539062 128.140625 C 245.679688 126.015625 246.1875 123.925781 246.359375 121.800781 C 246.453125 120.660156 246.449219 119.515625 246.390625 118.375 C 246.230469 115.273438 242.578125 116.457031 240.574219 116.859375 C 240.132812 116.945312 239.691406 117.046875 239.269531 117.199219 Z M 239.269531 117.199219 " fill-opacity="1" fill-rule="nonzero"/><path fill="#ed1c24" d="M 165.164062 171.796875 C 165.179688 172.066406 165.214844 172.332031 165.277344 172.59375 C 165.878906 175 170.070312 175.574219 172.074219 176.324219 C 173.535156 176.875 174.992188 177.417969 176.457031 177.964844 C 176.964844 178.15625 180.445312 179.078125 180.546875 179.496094 C 181.597656 179.890625 182.804688 180.277344 183.800781 179.753906 C 185.996094 178.59375 184.945312 174.347656 187.292969 173.53125 C 193.015625 175.335938 198.628906 177.496094 204.09375 179.988281 C 204.695312 180.261719 205.359375 180.265625 206.019531 180.304688 C 206.304688 179.679688 205.730469 179.015625 205.199219 178.570312 C 198.945312 173.3125 192.066406 168.839844 184.730469 165.246094 C 184.203125 164.984375 183.667969 164.730469 183.085938 164.636719 C 182.507812 164.546875 181.871094 164.640625 181.425781 165.023438 C 181.132812 165.269531 180.949219 165.621094 180.769531 165.957031 C 180.4375 166.585938 180.085938 167.289062 179.835938 167.957031 C 179.632812 168.492188 179.625 169.023438 178.929688 169.183594 C 178.433594 169.300781 177.917969 169.140625 177.445312 168.960938 C 175.453125 168.210938 173.597656 167.121094 171.617188 166.339844 C 170.554688 165.921875 169.457031 165.59375 168.34375 165.320312 C 165.332031 164.574219 165.40625 168.414062 165.210938 170.449219 C 165.167969 170.898438 165.140625 171.351562 165.164062 171.796875 Z M 165.164062 171.796875 " fill-opacity="1" fill-rule="nonzero"/><path fill="#ed1c24" d="M 260.882812 268.664062 C 261.730469 267.953125 262.175781 266.785156 262.226562 265.664062 C 262.285156 264.324219 261.875 263.011719 261.472656 261.734375 C 260.457031 258.527344 259.773438 255.4375 259.171875 252.128906 C 258.582031 248.890625 258.09375 245.613281 257.398438 242.394531 C 257.195312 241.289062 256.90625 240.050781 255.949219 239.46875 C 253.828125 238.175781 250.71875 241.253906 248.816406 239.65625 C 247.433594 233.816406 246.40625 227.886719 245.75 221.921875 C 245.675781 221.261719 245.339844 220.691406 245.035156 220.101562 C 244.351562 220.179688 244.078125 221.015625 243.964844 221.695312 C 242.65625 229.761719 242.34375 237.960938 243.015625 246.101562 C 243.066406 246.6875 243.117188 247.28125 243.335938 247.824219 C 243.554688 248.371094 243.964844 248.867188 244.519531 249.054688 C 244.882812 249.175781 245.277344 249.15625 245.660156 249.136719 C 246.871094 249.074219 248.867188 248.523438 249.871094 249.394531 C 250.761719 250.171875 250.867188 251.664062 250.855469 252.761719 C 250.824219 255.789062 251.046875 258.824219 251.511719 261.816406 C 251.738281 263.28125 252.027344 264.738281 252.371094 266.179688 C 252.597656 267.125 252.785156 268.769531 253.695312 269.324219 C 254.199219 269.632812 254.808594 269.6875 255.398438 269.710938 C 256.601562 269.746094 257.804688 269.65625 258.988281 269.433594 C 259.460938 269.34375 259.933594 269.234375 260.359375 269.015625 C 260.542969 268.917969 260.71875 268.796875 260.882812 268.664062 Z M 260.882812 268.664062 " fill-opacity="1" fill-rule="nonzero"/><path fill="#ed1c24" d="M 217.089844 266.90625 C 217.355469 266.863281 217.613281 266.796875 217.867188 266.703125 C 220.1875 265.824219 220.269531 261.597656 220.78125 259.519531 C 221.152344 258.003906 221.523438 256.492188 221.898438 254.976562 C 222.027344 254.449219 222.539062 250.882812 222.941406 250.734375 C 223.207031 249.644531 223.453125 248.398438 222.816406 247.472656 C 221.410156 245.429688 217.3125 246.964844 216.226562 244.730469 C 217.351562 238.832031 218.84375 233.007812 220.679688 227.289062 C 220.886719 226.65625 220.808594 226 220.773438 225.339844 C 220.117188 225.128906 219.523438 225.777344 219.144531 226.355469 C 214.652344 233.183594 211.015625 240.535156 208.296875 248.238281 C 208.101562 248.789062 207.90625 249.355469 207.886719 249.941406 C 207.859375 250.527344 208.03125 251.152344 208.460938 251.550781 C 208.742188 251.808594 209.109375 251.953125 209.464844 252.09375 C 210.128906 252.351562 210.867188 252.617188 211.558594 252.789062 C 212.113281 252.925781 212.640625 252.871094 212.886719 253.542969 C 213.058594 254.019531 212.960938 254.550781 212.835938 255.042969 C 212.324219 257.113281 211.460938 259.082031 210.914062 261.140625 C 210.621094 262.246094 210.425781 263.375 210.285156 264.507812 C 209.898438 267.589844 213.699219 267.066406 215.742188 267.023438 C 216.195312 267.007812 216.648438 266.984375 217.089844 266.90625 Z M 217.089844 266.90625 " fill-opacity="1" fill-rule="nonzero"/><path fill="#ed1c24" d="M 299.632812 226.175781 C 299.667969 225.910156 299.675781 225.640625 299.660156 225.371094 C 299.492188 222.898438 295.46875 221.597656 293.625 220.503906 C 292.28125 219.710938 290.941406 218.917969 289.597656 218.121094 C 289.128906 217.84375 285.863281 216.328125 285.839844 215.894531 C 284.871094 215.324219 283.75 214.730469 282.679688 215.070312 C 280.3125 215.824219 280.601562 220.191406 278.148438 220.585938 C 272.828125 217.800781 267.683594 214.6875 262.742188 211.277344 C 262.195312 210.898438 261.546875 210.78125 260.902344 210.625 C 260.507812 211.191406 260.960938 211.945312 261.402344 212.476562 C 266.636719 218.753906 272.625 224.363281 279.214844 229.1875 C 279.6875 229.535156 280.171875 229.882812 280.726562 230.078125 C 281.28125 230.269531 281.925781 230.289062 282.429688 229.992188 C 282.761719 229.796875 283.003906 229.488281 283.238281 229.183594 C 283.675781 228.621094 284.148438 227.996094 284.511719 227.382812 C 284.800781 226.890625 284.90625 226.367188 285.617188 226.332031 C 286.125 226.304688 286.601562 226.554688 287.039062 226.8125 C 288.871094 227.902344 290.5 229.300781 292.316406 230.417969 C 293.289062 231.015625 294.3125 231.53125 295.359375 231.996094 C 298.195312 233.257812 298.796875 229.464844 299.347656 227.496094 C 299.46875 227.0625 299.582031 226.621094 299.632812 226.175781 Z M 299.632812 226.175781 " fill-opacity="1" fill-rule="nonzero"/></svg>