<svg xmlns="http://www.w3.org/2000/svg" xmlns:xlink="http://www.w3.org/1999/xlink" width="1080" zoomAndPan="magnify" viewBox="0 0 810 1012.49997" height="1350" preserveAspectRatio="xMidYMid meet" version="1.0"><defs><clipPath id="613826bc4b"><path d="M 0.199219 0 L 809.800781 0 L 809.800781 1012 L 0.199219 1012 Z M 0.199219 0 " clip-rule="nonzero"/></clipPath></defs><g clip-path="url(#613826bc4b)"><path fill="#ffffff" d="M 0.199219 0 L 809.800781 0 L 809.800781 1012 L 0.199219 1012 Z M 0.199219 0 " fill-opacity="1" fill-rule="nonzero"/><path fill="#f5f6f8" d="M 0.199219 0 L 809.800781 0 L 809.800781 1012 L 0.199219 1012 Z M 0.199219 0 " fill-opacity="1" fill-rule="nonzero"/></g><path fill="#ffc89a" d="M 308.945312 276.101562 C 312.972656 286.695312 326.539062 295.265625 335.042969 302.214844 C 343.164062 308.847656 352.9375 318.289062 361.925781 323.519531 C 375.226562 331.253906 395.273438 334.429688 410.109375 337.703125 C 422.875 340.527344 436.375 343.285156 449.257812 344.6875 C 458.949219 345.738281 469.925781 346.007812 478.863281 350.148438 C 485.460938 353.207031 485.78125 355.695312 482.605469 364.367188 C 480.199219 370.917969 476.976562 372.421875 470.175781 372.753906 C 460.601562 373.222656 450.929688 370.398438 441.238281 370.417969 C 433.183594 370.433594 424.996094 370.835938 416.945312 370.433594 C 401.890625 369.679688 386.703125 367.695312 372.085938 364.269531 C 364.765625 362.546875 356.394531 361.5625 349.410156 358.636719 C 342.980469 355.949219 338.867188 350.902344 332.9375 347.042969 C 326.070312 342.566406 312.355469 338.773438 307.476562 332.054688 C 303.917969 327.175781 305.488281 316.71875 305.238281 311.355469 C 304.886719 303.753906 302.027344 291.089844 308.945312 276.101562 Z M 308.945312 276.101562 " fill-opacity="1" fill-rule="nonzero"/><path fill="#fdf2d5" d="M 505.34375 877.765625 C 505.3125 869.226562 506.214844 847.324219 513.164062 843.429688 C 517.574219 840.957031 538.84375 841.824219 542.585938 847.457031 C 544.472656 850.296875 543.554688 855.691406 543.539062 858.882812 C 543.488281 864.964844 545.261719 878.265625 542.6875 883.5625 C 538.359375 892.535156 514.667969 894.085938 505.34375 877.765625 Z M 411.046875 849.710938 C 408.789062 855.441406 404.496094 869.027344 408.488281 874.089844 C 414.070312 881.15625 430.945312 878.53125 437.578125 876.210938 C 446.050781 873.253906 449.207031 871.917969 450.007812 863.363281 C 451.113281 851.449219 447.667969 840.875 445.195312 829.546875 C 437.277344 831.398438 415.140625 839.820312 411.046875 849.710938 Z M 411.046875 849.710938 " fill-opacity="1" fill-rule="nonzero"/><path fill="#a6543b" d="M 593.679688 890.09375 C 593.644531 890.578125 593.277344 890.863281 592.84375 890.980469 C 592.828125 891.28125 592.84375 891.566406 592.828125 891.867188 C 592.777344 892.867188 591.773438 893.101562 591.121094 892.71875 C 590.738281 893.269531 590.203125 893.738281 589.484375 894.070312 C 589.484375 894.070312 589.46875 894.085938 589.46875 894.085938 C 585.792969 897.046875 577.320312 894.386719 575.46875 891.847656 C 572.710938 888.089844 573.3125 877.261719 572.410156 872.683594 C 566.894531 844.617188 562.433594 817.132812 559.226562 788.746094 C 557.390625 772.421875 554.785156 756.632812 552.160156 740.425781 C 549.9375 726.691406 545.976562 711.890625 543.988281 697.488281 C 515.703125 699.359375 484.261719 696.234375 455.890625 697.753906 C 439.867188 698.625 422.910156 697.21875 407.171875 693.058594 C 404.414062 700.613281 406.386719 712.339844 406.386719 720.292969 C 406.386719 751.085938 406.871094 781.894531 405.617188 812.671875 C 405.414062 817.382812 405.164062 822.09375 404.898438 826.789062 C 405.300781 827.054688 405.601562 827.492188 405.601562 828.140625 C 405.667969 844.046875 404.882812 859.9375 404.664062 875.84375 C 404.746094 882.109375 404.796875 888.375 404.765625 894.640625 C 404.746094 897.796875 399.886719 898.179688 399.835938 894.988281 C 399.835938 894.054688 399.800781 893.117188 399.785156 892.167969 C 398.53125 897.011719 395.390625 898.765625 385.449219 897.914062 C 384.28125 892.25 383.894531 886.453125 383.914062 880.570312 C 383.828125 877.53125 383.929688 874.507812 383.945312 871.699219 C 383.945312 870.445312 383.980469 869.191406 384.011719 867.941406 C 383.710938 861.757812 383.527344 855.59375 383.0625 849.578125 C 383.027344 849.042969 383.144531 848.59375 383.34375 848.242188 C 382.507812 838.5 382.945312 828.644531 383.246094 818.902344 C 383.679688 805.117188 383.746094 791.335938 383.5625 777.550781 C 383.195312 748.8125 382.792969 720.144531 383.394531 691.40625 C 383.445312 689.367188 386.402344 689.066406 386.601562 691.171875 C 386.667969 691.972656 386.71875 692.777344 386.785156 693.578125 C 387.121094 691.339844 387.570312 689.101562 388.457031 687.210938 C 389.828125 684.320312 391.75 681.867188 394.390625 679.929688 C 404.179688 672.742188 416.375 671.574219 428.136719 669.953125 C 453.902344 666.429688 479.546875 663.519531 505.578125 662.753906 C 519.230469 662.351562 540.429688 659.960938 552.945312 666.996094 C 557.90625 669.785156 557.824219 669.601562 557.441406 673.042969 C 562.269531 671.976562 567.113281 672.394531 570.339844 674.648438 C 574.816406 677.789062 576.320312 684.957031 577.640625 690.050781 C 584.238281 715.515625 588.382812 744.320312 588.765625 770.566406 C 589.132812 796.078125 591.574219 821.644531 591.925781 847.273438 C 592.007812 853.636719 592.609375 861.054688 592.761719 868.40625 C 593.429688 875.609375 594.179688 882.828125 593.679688 890.09375 Z M 554.332031 767.996094 C 542.671875 764.351562 526.296875 766.925781 513.984375 766.324219 C 483.457031 764.804688 442.523438 764.71875 416.492188 765.554688 C 413.269531 775.597656 409.644531 779.304688 407.21875 781.378906 C 412.484375 780.523438 417.128906 782.378906 422.289062 783.132812 C 432.347656 784.601562 442.742188 784.269531 452.898438 784.269531 C 472.980469 784.269531 493.082031 784.269531 513.164062 784.269531 C 526.714844 784.269531 541.101562 786.523438 554.433594 785.738281 C 552.679688 779.921875 554.097656 773.808594 554.332031 767.996094 Z M 554.332031 767.996094 " fill-opacity="1" fill-rule="nonzero"/><path fill="#090807" d="M 525.144531 363.398438 C 547.347656 367.324219 568.75 375.597656 589.585938 383.28125 C 592.925781 384.519531 596.769531 384.753906 598.859375 387.507812 C 603.71875 393.90625 606.09375 410.832031 608.25 418.9375 C 612.457031 434.875 608.25 454.421875 619.59375 467.804688 C 609.703125 482.191406 578.375 478.699219 576.269531 497.09375 C 572.960938 526 585.007812 555.6875 583.953125 584.609375 C 566.0625 584.644531 548.402344 598.960938 531.761719 605.011719 C 508.136719 613.582031 473.417969 605.261719 448.988281 601.5 C 438.933594 599.964844 414.105469 595.605469 416.074219 581.96875 C 416.558594 578.660156 419.300781 574.402344 420 570.691406 C 421.222656 564.160156 421.289062 557.394531 421.957031 550.710938 C 423.695312 533.148438 422.976562 511.496094 429.660156 495.324219 C 416.726562 483.359375 396.378906 477.046875 386.167969 462.511719 C 386.621094 462.425781 387.085938 462.324219 387.539062 462.242188 C 387.085938 452.167969 389.328125 440.957031 390.394531 430.847656 C 392.199219 413.605469 394.890625 400.992188 407.320312 389.144531 C 418.398438 378.585938 433.617188 373.289062 448.570312 368.996094 C 454.234375 367.375 460.316406 366.707031 465.832031 364.769531 C 470.042969 363.28125 473.953125 359.640625 478.09375 359.488281 C 493.96875 364.183594 512.996094 361.246094 525.144531 363.398438 Z M 192.828125 441.324219 C 181.949219 466.753906 194.429688 491.449219 201.632812 515.023438 C 207.277344 533.519531 210.820312 555.105469 214.078125 574.6875 C 218.671875 602.253906 225.675781 633.164062 218.957031 660.765625 C 215.433594 675.265625 210.820312 690.101562 209.148438 704.988281 C 207.53125 719.457031 208.28125 734.496094 208.414062 749.113281 C 208.664062 777.367188 220.679688 803.984375 224.1875 831.800781 C 225.875 845.082031 224.335938 858.71875 222.433594 871.699219 C 221.128906 880.570312 213.078125 896.09375 220.679688 903.679688 C 228.515625 911.496094 250.535156 908.941406 260.828125 908.941406 C 271.234375 908.941406 281.429688 906.917969 291.753906 907.335938 C 298.988281 907.636719 306.554688 908.089844 313.171875 904.261719 C 317.765625 901.605469 323.214844 894.523438 320.507812 888.675781 C 317.332031 881.824219 306.171875 882.691406 300.640625 880.839844 C 307.257812 881.65625 317.851562 874.421875 323.011719 870.546875 C 328.527344 866.402344 330.265625 862.125 326.421875 856.246094 C 318.988281 844.851562 308.34375 850.914062 294.976562 846.035156 C 285.921875 842.726562 273.242188 829.496094 268.613281 821.308594 C 263.351562 812.003906 262.964844 802.664062 262.964844 792.238281 C 262.964844 771.285156 263.96875 750.703125 266.441406 729.882812 C 271.488281 687.429688 288.496094 647.246094 291.234375 604.425781 C 294.09375 559.597656 301.609375 514.402344 299.472656 469.410156 C 291.519531 469.710938 282.597656 467.722656 274.828125 466.320312 C 255.0625 462.726562 230.652344 465.316406 212.292969 456.878906 C 206.226562 454.089844 196.453125 451.683594 191.339844 447.789062 C 191.523438 448.757812 191.773438 449.726562 192.828125 441.324219 Z M 450.8125 862.074219 C 447.320312 865.015625 448.457031 871.566406 443.460938 873.90625 C 437.246094 876.8125 438.429688 869.527344 433.820312 865.867188 C 429.710938 862.609375 420.820312 861.492188 415.691406 862.140625 C 412.953125 862.492188 411.046875 863.296875 409.507812 864.480469 C 409.058594 865.316406 408.589844 866.136719 408.089844 866.9375 C 407.335938 869.175781 406.21875 871.449219 404.097656 874.054688 C 400.085938 878.984375 395.492188 883.378906 391.765625 888.691406 C 386.652344 895.941406 378.96875 911.847656 386.320312 919.667969 C 393.285156 927.085938 415.125 923.109375 423.542969 920.636719 C 437.261719 916.609375 440.320312 908.589844 446.71875 897.261719 C 449.824219 891.75 456.140625 886.25 457.007812 881.707031 C 458.210938 875.15625 454.988281 866.703125 450.8125 862.074219 Z M 506.128906 866.855469 C 501.285156 872.785156 499.714844 884.230469 502.304688 891.398438 C 504.277344 896.878906 509.589844 899.851562 511.527344 905.433594 C 513.816406 912.03125 511.144531 916.558594 517.222656 922.023438 C 522.539062 926.800781 530.539062 928.253906 537.257812 929.175781 C 549.738281 930.878906 572.257812 925.648438 566.363281 908.171875 C 563.921875 900.953125 556.253906 893.519531 552.109375 887.070312 C 548.71875 881.789062 546.898438 872.867188 543.386719 868.339844 C 538.726562 862.308594 528.667969 862.761719 522.652344 865.933594 C 516.019531 869.425781 515.605469 874.390625 514.585938 881.558594 C 508.453125 881.976562 502.9375 872.9375 506.128906 866.855469 Z M 506.128906 866.855469 " fill-opacity="1" fill-rule="nonzero"/><path fill="#fdf2d5" d="M 485.078125 420.289062 C 491.445312 402.5625 510.191406 393.105469 520.550781 378.203125 C 530.121094 372.804688 525.445312 359.207031 532.628906 365.890625 C 539.613281 372.371094 541.398438 389.53125 543.320312 398.285156 C 547.617188 417.867188 558.175781 431.835938 566.144531 449.914062 C 570.871094 460.636719 577.289062 472.050781 578.589844 483.761719 C 579.425781 491.28125 579.84375 492.816406 571.105469 491.046875 C 558.058594 488.390625 545.511719 479.082031 535.335938 470.949219 C 526.445312 463.828125 519.011719 454.90625 510.15625 447.65625 C 504.910156 443.363281 497.777344 440.789062 492.898438 436.277344 C 489.640625 433.289062 486.898438 430.566406 485.679688 425.902344 C 484.261719 420.507812 486.230469 419.304688 485.078125 420.289062 Z M 485.078125 420.289062 " fill-opacity="1" fill-rule="nonzero"/><path fill="#ffc89a" d="M 288.144531 133 C 302.277344 119.882812 319.105469 123.359375 336.746094 123.359375 C 345.835938 123.359375 359.019531 121.238281 363.929688 131.144531 C 366.605469 136.558594 365.703125 150.257812 363.695312 156.140625 C 361.15625 163.625 353.355469 166.964844 351.398438 175.152344 C 349.59375 182.6875 353.019531 191.726562 350.128906 198.8125 C 347.507812 200.964844 343.53125 197.660156 340.253906 198.292969 C 339.453125 200.75 339.90625 201.535156 339.722656 203.121094 C 339.371094 204.089844 338 205.5625 336.796875 205.128906 C 337.398438 209.003906 331.933594 208.117188 331.082031 209.136719 C 329.34375 211.257812 328.777344 215.019531 327.105469 216.921875 C 322.226562 222.46875 318.769531 220.480469 313.257812 216.890625 C 307.390625 213.0625 306.722656 210.1875 301.359375 216.289062 C 297.050781 221.183594 294.460938 230.671875 294.777344 237.070312 C 288.929688 232.226562 285.304688 225.074219 278.953125 220.398438 C 270.46875 214.148438 259.957031 209.019531 250.015625 206.011719 C 258.289062 197.925781 268.011719 182.972656 266.875 170.910156 C 263.902344 159.78125 275.53125 144.695312 288.144531 133 Z M 288.144531 133 " fill-opacity="1" fill-rule="nonzero"/><path fill="#a6543b" d="M 494.066406 266.914062 C 500.832031 266.078125 509.804688 266.128906 516.289062 268.265625 C 536.222656 274.832031 533.164062 294.496094 534.332031 311.871094 C 543.757812 299.59375 543.339844 319.125 542.070312 325.089844 C 540.28125 333.492188 538.976562 339.625 530.324219 342.113281 C 529.820312 350.449219 530.574219 367.558594 526.78125 374.308594 C 522.839844 381.292969 510.757812 385.101562 503.609375 385.820312 C 490.875 387.109375 474.769531 383.734375 472.613281 369.632812 C 471.511719 362.429688 472.296875 355.695312 470.644531 348.5625 C 469.191406 342.332031 469.304688 345.789062 466.484375 339.792969 C 457.59375 332.859375 452.949219 313.742188 460.9375 303 C 464.746094 297.871094 466.699219 293.980469 467.21875 287.027344 C 467.785156 279.191406 467.804688 272.359375 476.523438 269.101562 C 482.457031 271.742188 488.070312 267.664062 494.066406 266.914062 Z M 427.402344 458.484375 C 415.007812 459.402344 400.238281 454.039062 389.042969 461.40625 C 379.953125 467.371094 383.445312 480.988281 383.011719 491.382812 C 382.410156 505.316406 380.503906 543.359375 402.359375 542.789062 C 397.261719 551.796875 406.769531 550.507812 412.785156 549.039062 C 420.652344 547.132812 428.691406 544.914062 437.078125 543.792969 C 457.644531 541.035156 478.113281 544.746094 498.175781 547.335938 C 509.386719 548.789062 520.75 548.707031 532.109375 549.675781 C 543.523438 550.644531 554.398438 553.566406 566.042969 553.566406 C 577.738281 553.566406 615.867188 558.914062 621.632812 549.691406 C 628.265625 539.066406 621.195312 516.257812 619.894531 504.511719 C 618.371094 490.878906 614.445312 477.113281 611.957031 464.0625 C 600.695312 459.320312 588.484375 465.835938 578.707031 468.742188 C 577.121094 474.003906 578.308594 477.882812 571.609375 479.433594 C 569.554688 477.597656 567.546875 475.742188 565.578125 473.835938 C 570.40625 471.199219 582.015625 465.734375 574.867188 459.050781 C 569.886719 458.117188 566.246094 461.457031 559.5625 462.808594 C 557.757812 463.179688 553.28125 465.484375 551.441406 465.484375 C 532.613281 465.550781 512.8125 462.808594 494.082031 460.789062 C 481.554688 459.453125 470.207031 455.761719 457.679688 456.929688 C 447.902344 457.882812 433.636719 456.328125 427.402344 458.484375 Z M 266.859375 172.445312 C 283.433594 172.378906 281.242188 165.113281 289.464844 154.203125 C 297.5 143.507812 310.332031 145.398438 309.847656 159.867188 C 322.042969 160.367188 327.390625 146.199219 336.230469 140.867188 C 345.433594 135.320312 359.101562 136.792969 365.902344 144.945312 C 375.726562 108.972656 318.9375 84.914062 291.804688 97.445312 C 285.070312 100.554688 279.691406 105.582031 272.320312 104.480469 C 262.246094 102.960938 252.324219 95.289062 241.746094 98.984375 C 211.855469 109.441406 217.421875 154.367188 216.199219 178.828125 C 215.28125 197.339844 204.773438 212.679688 203.71875 231.058594 C 203.050781 242.886719 207.195312 251.859375 213.078125 261.800781 C 217.988281 249.21875 221.246094 239.476562 230.25 228.585938 C 237 220.429688 246.425781 212.5625 248.582031 201.617188 C 249.949219 194.683594 249.433594 185.664062 248.046875 178.8125 C 246.15625 169.4375 246.125 162.386719 246.625 152.730469 C 247.078125 143.976562 245.105469 134.90625 251.269531 127.570312 C 254.796875 123.375 261.027344 119.882812 264.585938 125.699219 C 256.332031 135.691406 251.070312 173.785156 266.859375 172.445312 Z M 266.859375 172.445312 " fill-opacity="1" fill-rule="nonzero"/><path fill="#fdf2d5" d="M 597.972656 514.503906 C 575.785156 504.0625 553.128906 524.328125 529.9375 525.5 C 520.082031 526 507.167969 527.234375 497.726562 524.546875 C 487.652344 521.671875 484.042969 510.210938 473.097656 506.402344 C 462.421875 502.675781 448.539062 502.375 439.082031 496.226562 C 429.222656 505.917969 445.246094 509.828125 452.113281 515.1875 C 438.582031 518.832031 424.832031 521.773438 412.582031 529.007812 C 405.230469 533.367188 406.316406 537.746094 401.554688 543.273438 C 389.894531 543.976562 388.257812 541.238281 383.980469 530.191406 C 383.945312 530.125 383.929688 530.058594 383.894531 529.992188 C 383.027344 528.554688 382.34375 527 381.976562 526.285156 C 378.632812 519.816406 375.777344 513.085938 375.910156 505.683594 C 375.925781 504.863281 376.644531 504.496094 377.246094 504.628906 C 387.40625 486.851562 403.445312 472.71875 412.148438 453.738281 C 417.996094 441.007812 424.328125 428.125 428.972656 414.808594 C 432.332031 405.167969 436.023438 394.675781 438.964844 385.1875 C 440.25 381.007812 442.074219 376.199219 441.253906 372.738281 C 440.269531 368.546875 435.773438 363.566406 434.019531 359.472656 C 431.480469 353.507812 428.890625 349.382812 430.445312 343.433594 C 432.183594 336.75 436.140625 331.703125 436.925781 324.488281 C 446.734375 333.359375 441.003906 351.535156 444.746094 362.597656 C 448.671875 374.210938 462.039062 383.617188 470.207031 392.335938 C 488.386719 411.734375 509.355469 427.558594 528.503906 445.769531 C 537.691406 454.507812 548.082031 461.441406 557.507812 469.929688 C 563.972656 475.757812 569.351562 481.859375 576.285156 486.753906 C 587.765625 494.855469 595.683594 501.15625 597.972656 514.503906 Z M 597.972656 514.503906 " fill-opacity="1" fill-rule="nonzero"/><path fill="#0f3635" d="M 468.671875 580.015625 C 494.617188 583.675781 521.785156 580.351562 548.066406 580.800781 C 568.71875 581.152344 574.296875 580.183594 576.90625 600.53125 C 578.359375 611.945312 578.359375 620.949219 581.699219 632.226562 C 586.328125 647.867188 595.082031 663.46875 597.339844 679.710938 C 598.625 689 594.078125 698.273438 592.074219 707.613281 C 587.546875 728.648438 580.746094 748.996094 576.304688 770.117188 C 571.207031 794.277344 567.28125 817.734375 565.976562 842.378906 C 565.644531 848.675781 566.09375 857.515625 561.183594 861.808594 C 556.386719 865.984375 540.230469 867.523438 534.117188 866.46875 C 522.921875 864.53125 513.816406 854.890625 503.140625 851.933594 C 502.1875 834.125 503.441406 814.910156 506.113281 797.332031 C 508.855469 779.339844 508.835938 761.226562 510.589844 743.101562 C 511.242188 736.316406 513.664062 728.816406 513.179688 721.964844 C 512.5625 713.175781 511.878906 708.398438 512.8125 699.042969 C 513.53125 691.839844 511.277344 686.292969 505.511719 680.796875 C 492.429688 668.316406 475.707031 675.082031 461.820312 682.886719 C 452.347656 688.214844 447.21875 689.851562 446.882812 700.777344 C 446.515625 712.824219 447.46875 726.308594 449.375 738.203125 C 455.019531 773.507812 456.574219 809.078125 454.535156 844.917969 C 440.6875 850.746094 432.28125 857.882812 415.839844 856.746094 C 408.90625 856.261719 409.308594 857.0625 406.9375 849.5625 C 402.273438 834.890625 399.535156 819.421875 395.125 804.632812 C 385.835938 773.589844 373.636719 740.277344 373.621094 707.710938 C 373.621094 687.445312 370.246094 661.867188 380.65625 643.488281 C 387.320312 631.726562 397.714844 622.753906 403.960938 610.839844 C 409.359375 600.550781 416.675781 590.273438 424.363281 580.785156 C 423.863281 582.503906 460 578.796875 468.671875 580.015625 Z M 250 203.671875 C 233.359375 210.421875 220.34375 236.253906 213.226562 251.859375 C 206.695312 266.226562 204.941406 287.996094 207.027344 303.21875 C 209.601562 321.878906 213.878906 339.375 213.84375 358.355469 C 213.8125 379.054688 202.117188 394.460938 195.265625 412.871094 C 191.089844 424.097656 186.8125 444.53125 190.570312 456.011719 C 222.316406 462.828125 265.871094 484.496094 298.203125 472.402344 C 312.839844 466.921875 306.90625 447.789062 305.554688 433.941406 C 303.617188 413.992188 301.945312 397.601562 305.988281 378.136719 C 307.976562 368.578125 309.546875 358.703125 314.375 350.148438 C 318.035156 343.652344 323.097656 337.738281 325.769531 330.667969 C 330.398438 318.421875 327.15625 306.527344 323.347656 294.496094 C 319.269531 281.597656 307.640625 273.429688 303.148438 260.996094 C 300.089844 252.542969 299.203125 243.738281 294.109375 235.953125 C 287.894531 226.460938 278.167969 216.605469 268.246094 211.441406 C 263.917969 209.1875 254.09375 203.671875 250 203.671875 Z M 250 203.671875 " fill-opacity="1" fill-rule="nonzero"/><path fill="#ffc89a" d="M 258.289062 230.121094 C 246.175781 225.09375 232.691406 245.527344 229.816406 255.148438 C 225.421875 269.851562 231.503906 282.734375 239.574219 294.628906 C 257.9375 321.746094 274.210938 376.246094 290.535156 404.585938 C 334.058594 404.097656 338.402344 402.410156 367.039062 396.53125 C 381.054688 393.65625 389.910156 390.347656 403.84375 392.1875 C 415.558594 393.722656 421.355469 398.570312 432.046875 390.667969 C 436.410156 387.441406 438.582031 381.792969 443.324219 378.953125 C 448.824219 375.664062 457.359375 379.488281 456.292969 370.015625 C 454.804688 356.933594 430.425781 364.019531 431.195312 353.375 C 427.402344 352.875 419.71875 352.371094 416.511719 353.242188 C 411.332031 354.660156 407.253906 359.441406 401.722656 361.195312 C 385.902344 366.222656 363.996094 362.414062 347.105469 362.414062 C 340.507812 362.414062 328.074219 360.792969 320.023438 360.425781 C 315.777344 353.292969 311.167969 338.238281 308.628906 329.734375 C 304.335938 315.296875 297.316406 299.375 295.8125 284.320312 C 294.945312 275.699219 297.382812 267.414062 295.34375 258.660156 C 292.320312 245.644531 284.519531 236.386719 272.40625 231.359375 C 262.097656 227.082031 255.714844 229.9375 245.054688 229.335938 " fill-opacity="1" fill-rule="nonzero"/><path fill="#090807" d="M 454.820312 297.753906 C 452.800781 290.152344 449.472656 261.800781 468.554688 253.429688 C 469.875 248.769531 474 250.238281 477.292969 248.234375 C 481.503906 245.660156 483.875 241.5 488.605469 239.460938 C 495.253906 236.585938 504.925781 239.679688 511.257812 242.601562 C 517.222656 245.34375 522.269531 249.6875 527.984375 252.59375 C 533.949219 255.632812 538.210938 261.800781 539.128906 266.410156 C 549.070312 272.691406 541.75 286.445312 541.800781 295.75 C 541.835938 301.261719 538.726562 318.589844 532.027344 318.875 C 528.066406 312.757812 525.511719 288.78125 524.859375 282.617188 C 523.457031 283.167969 521.585938 283.253906 520.214844 283.753906 C 520.25 283.453125 521.066406 282.683594 520.851562 282.433594 C 517.441406 285.207031 513.015625 285.523438 509.253906 287.378906 C 503.890625 290.035156 500.515625 294.378906 493.851562 293.109375 C 496.875 291.855469 499.613281 289.835938 501.152344 286.910156 C 497.410156 290.070312 486.480469 291.222656 487.101562 284.605469 C 481.417969 286.894531 475.355469 280.847656 472.464844 286.226562 C 472.730469 291.371094 469.742188 295.816406 469.457031 300.679688 C 469.273438 303.621094 472.5625 318.789062 468.238281 320.328125 C 464.109375 321.8125 455.707031 301.128906 454.820312 297.753906 Z M 484.910156 317.136719 C 485.347656 319.125 483.773438 321.328125 481.402344 320.710938 C 481.136719 320.644531 480.96875 320.476562 480.886719 320.277344 C 479.480469 319.726562 478.863281 318.355469 479.164062 316.902344 C 477.492188 317.503906 476.039062 318.65625 474.652344 320.125 C 474.019531 320.8125 473.015625 319.757812 473.652344 319.074219 C 475.753906 316.800781 478.113281 315.148438 481 314.945312 C 481.335938 314.8125 481.703125 314.796875 482.054688 314.929688 C 482.503906 314.964844 482.957031 315.015625 483.425781 315.097656 C 486.265625 315.683594 490.992188 317.636719 490.910156 321.09375 C 490.894531 321.679688 490.109375 321.832031 489.824219 321.347656 C 488.671875 319.292969 487.035156 317.9375 484.910156 317.136719 Z M 483.808594 316.75 C 483.773438 316.734375 483.742188 316.71875 483.707031 316.71875 C 483.726562 316.75 483.742188 316.785156 483.773438 316.816406 C 483.792969 316.800781 483.792969 316.769531 483.808594 316.75 Z M 525.863281 618.710938 C 515.804688 621.933594 506.011719 627.082031 498.394531 634.515625 C 497.925781 634.96875 498.628906 635.703125 499.113281 635.234375 C 513.75 621.148438 536.105469 614.351562 555.984375 617.839844 C 556.402344 617.910156 556.636719 617.257812 556.21875 617.105469 C 546.746094 613.546875 535.167969 615.71875 525.863281 618.710938 Z M 471.628906 352.855469 C 468.9375 345.707031 465.296875 337.085938 466.265625 329.28125 C 466.332031 328.730469 467.101562 328.628906 467.25 329.199219 C 467.753906 331.136719 467.9375 333.074219 468.1875 335.078125 C 468.203125 335.230469 468.085938 335.332031 467.953125 335.363281 C 469.003906 341.226562 471.042969 346.875 472.949219 352.539062 C 472.964844 352.605469 472.964844 352.65625 472.964844 352.707031 C 478.847656 357.851562 485.679688 361.496094 492.398438 365.386719 C 492.582031 365.105469 492.964844 364.9375 493.316406 365.1875 C 494.050781 365.707031 494.785156 366.105469 495.503906 366.390625 C 496.488281 366.507812 497.476562 366.675781 498.496094 366.839844 C 498.660156 366.875 498.777344 366.957031 498.84375 367.074219 C 501.535156 367.09375 504.140625 365.957031 506.730469 364.601562 C 507.652344 363.902344 508.621094 363.28125 509.40625 362.78125 C 512.042969 361.09375 515.152344 359.289062 518.328125 358.488281 C 519.328125 357.9375 520.316406 357.367188 521.300781 356.785156 C 521.585938 356.433594 521.867188 356.082031 522.152344 355.730469 C 522.421875 355.398438 522.953125 355.378906 523.273438 355.628906 C 524.609375 354.828125 525.945312 353.992188 527.265625 353.125 C 527.816406 350.917969 528.617188 348.746094 529.121094 346.523438 C 529.355469 345.523438 529.519531 344.503906 529.703125 343.484375 C 530.273438 338.003906 530.890625 332.558594 530.992188 327.011719 C 531.007812 326.242188 532.195312 326.15625 532.195312 326.941406 C 532.195312 331.019531 532.078125 335.164062 531.726562 339.289062 C 533.246094 338.105469 534.734375 336.902344 536.039062 335.449219 C 536.371094 335.078125 537.054688 335.515625 536.855469 335.964844 C 535.804688 338.269531 533.613281 339.675781 531.675781 341.179688 C 531.644531 341.246094 531.578125 341.296875 531.507812 341.34375 C 531.476562 341.628906 531.425781 341.929688 531.390625 342.214844 C 531.089844 345.988281 530.273438 350.25 528.550781 353.476562 C 528.570312 353.640625 528.519531 353.824219 528.351562 353.960938 C 528.316406 353.992188 528.269531 354.007812 528.234375 354.042969 C 528.152344 354.175781 528.085938 354.328125 528 354.460938 C 527.851562 354.710938 527.566406 354.777344 527.332031 354.695312 C 526.078125 355.628906 524.777344 356.484375 523.441406 357.316406 C 522.753906 362.332031 516.621094 368.695312 511.878906 369.648438 C 509.421875 371.988281 506.816406 374.144531 503.925781 376.015625 C 503.457031 376.316406 502.988281 375.945312 503.007812 375.460938 C 499.78125 376.566406 495.722656 374.929688 492.53125 372.871094 C 486.449219 370.066406 480.535156 364.46875 478.480469 359.039062 C 476.140625 357.367188 473.882812 355.582031 471.796875 353.660156 C 471.546875 353.410156 471.511719 353.109375 471.628906 352.855469 Z M 502.722656 373.207031 C 501.519531 373.558594 500.265625 373.726562 498.996094 373.742188 C 499.03125 373.824219 499.0625 373.890625 499.097656 373.957031 C 499.128906 374.058594 499.113281 374.160156 499.0625 374.257812 C 500.046875 374.425781 501.035156 374.511719 502.054688 374.476562 C 502.085938 374.460938 502.105469 374.425781 502.152344 374.425781 C 502.1875 374.425781 502.238281 374.410156 502.269531 374.410156 C 502.136719 374.191406 502.121094 373.941406 502.304688 373.691406 C 502.4375 373.507812 502.589844 373.375 502.722656 373.207031 Z M 514.835938 366.675781 C 517.492188 364.871094 520.164062 361.863281 521.367188 359.140625 C 519.246094 361.710938 517.105469 364.25 514.835938 366.675781 Z M 509.722656 368.078125 C 509.972656 368.246094 510.125 368.546875 510.054688 368.847656 C 510.792969 368.144531 511.476562 367.410156 512.128906 366.707031 C 512.394531 366.40625 512.761719 366.40625 513.046875 366.539062 C 514.667969 364.804688 516.203125 363 517.726562 361.160156 C 517.523438 361.292969 517.324219 361.410156 517.140625 361.527344 C 515.285156 364.453125 512.695312 366.574219 509.722656 368.078125 Z M 512.714844 363.183594 C 512.628906 363.214844 512.546875 363.265625 512.460938 363.300781 C 512.296875 363.433594 512.414062 363.367188 512.714844 363.183594 Z M 511.125 365.40625 C 510.65625 365.855469 510.207031 366.304688 509.757812 366.792969 C 511.644531 365.738281 513.332031 364.46875 514.816406 362.882812 C 514.632812 362.980469 514.433594 363.082031 514.234375 363.183594 C 514.21875 363.25 514.199219 363.316406 514.132812 363.367188 C 513.199219 364.203125 512.179688 364.851562 511.125 365.40625 Z M 508.601562 365.238281 C 509.421875 364.96875 510.222656 364.667969 510.992188 364.300781 C 510.941406 364.234375 510.925781 364.152344 510.925781 364.085938 C 510.15625 364.453125 509.371094 364.835938 508.601562 365.238281 Z M 505.246094 367.609375 C 505.292969 367.609375 505.34375 367.609375 505.394531 367.609375 C 505.878906 367.644531 506.046875 368.246094 505.796875 368.5625 C 505.828125 368.578125 505.878906 368.5625 505.914062 368.578125 C 505.964844 368.59375 505.996094 368.628906 506.03125 368.664062 C 506.464844 368.429688 506.933594 368.160156 507.332031 367.996094 C 507.835938 367.777344 508.300781 367.558594 508.769531 367.324219 C 508.953125 367.125 509.136719 366.925781 509.320312 366.742188 C 509.570312 366.472656 509.824219 366.207031 510.074219 365.921875 C 508.585938 366.574219 507.015625 367.042969 505.410156 367.394531 C 505.363281 367.476562 505.292969 367.542969 505.246094 367.609375 Z M 501.753906 371.621094 C 501.9375 371.6875 502.136719 371.738281 502.320312 371.804688 C 502.453125 371.753906 502.570312 371.71875 502.605469 371.703125 C 503.589844 371.367188 504.527344 370.933594 505.429688 370.433594 C 505.929688 370.03125 506.429688 369.648438 506.964844 369.28125 C 506.980469 369.265625 507 369.230469 507.03125 369.214844 C 506.78125 369.296875 506.546875 369.398438 506.296875 369.480469 C 506.246094 369.613281 506.164062 369.730469 506.03125 369.796875 C 504.578125 370.515625 503.207031 371.203125 501.753906 371.621094 Z M 493.484375 368.496094 C 495.1875 369.28125 496.90625 369.964844 498.679688 370.601562 C 499.230469 369.75 500.046875 369.148438 501 368.730469 C 500.097656 368.746094 499.214844 368.746094 498.328125 368.746094 C 498.175781 368.78125 498.011719 368.796875 497.859375 368.828125 C 497.660156 368.863281 497.492188 368.828125 497.359375 368.730469 C 496.070312 368.710938 494.769531 368.644531 493.484375 368.496094 Z M 487.550781 367.058594 C 487.015625 366.957031 486.480469 366.859375 485.929688 366.757812 C 488.738281 369.113281 491.945312 371.035156 494.835938 372.304688 C 495.570312 372.621094 497.175781 373.523438 497.476562 373.355469 C 497.410156 373.242188 497.390625 373.105469 497.390625 372.972656 C 497.324219 372.871094 497.292969 372.789062 497.175781 372.65625 C 496.589844 371.9375 495.773438 371.351562 494.96875 370.835938 C 492.363281 369.847656 489.875 368.578125 487.550781 367.058594 Z M 484.292969 362.816406 C 485.796875 364.066406 487.382812 365.1875 489.039062 366.191406 C 489.390625 366.238281 489.738281 366.289062 490.089844 366.324219 C 490.292969 366.289062 490.492188 366.289062 490.691406 366.273438 C 488.519531 365.203125 486.382812 364.050781 484.292969 362.816406 Z M 481.902344 362.53125 C 482.738281 363.632812 483.660156 364.6875 484.710938 365.671875 C 484.777344 365.636719 484.828125 365.605469 484.910156 365.605469 C 485.09375 365.605469 485.296875 365.636719 485.496094 365.65625 C 484.226562 364.703125 483.039062 363.632812 481.902344 362.53125 Z M 430.746094 597.339844 C 430.160156 597.375 430.226562 598.292969 430.8125 598.261719 C 448.371094 597.40625 459.632812 614.667969 468.355469 627.433594 C 468.90625 628.234375 470.109375 627.398438 469.605469 626.578125 C 461.203125 613.265625 448.355469 596.207031 430.746094 597.339844 Z M 525.34375 307.480469 C 523.773438 306.226562 522.402344 305.339844 520.882812 304.890625 C 520.648438 304.9375 520.414062 305.007812 520.179688 305.039062 C 520.316406 305.308594 520.25 305.65625 519.832031 305.808594 C 518.5625 306.292969 517.125 306.292969 515.804688 306.558594 C 512.996094 307.144531 510.355469 308.449219 507.484375 308.679688 C 507.066406 308.847656 506.796875 308.363281 506.898438 308.011719 C 506.597656 307.679688 506.53125 307.0625 507.015625 306.84375 C 512.296875 303.988281 522.136719 299.542969 526.128906 306.777344 C 526.429688 307.3125 525.828125 307.863281 525.34375 307.480469 Z M 515.417969 305.375 C 515.386719 305.273438 515.386719 305.15625 515.402344 305.054688 C 514 305.421875 512.628906 305.957031 511.292969 306.542969 C 512.679688 306.125 514.03125 305.707031 515.417969 305.375 Z M 534.601562 330.585938 C 534.632812 331.304688 535.753906 331.519531 535.902344 330.753906 C 536.304688 328.664062 536.589844 326.457031 536.472656 324.320312 C 537.074219 321.878906 538.226562 319.640625 540.363281 318.136719 C 540.75 317.871094 540.449219 317.1875 539.996094 317.285156 C 538.023438 317.71875 536.738281 319.222656 535.921875 321.144531 C 535.886719 321.0625 535.871094 320.980469 535.851562 320.894531 C 535.601562 320.160156 534.464844 320.527344 534.699219 321.277344 C 534.933594 321.996094 535.085938 322.75 535.167969 323.5 C 534.566406 325.992188 534.5 328.714844 534.601562 330.585938 Z M 491.445312 307.664062 C 489.121094 306.308594 486.0625 305.890625 483.207031 305.792969 C 482.90625 305.773438 482.589844 305.792969 482.289062 305.773438 C 481.585938 305.574219 480.886719 305.421875 480.199219 305.324219 C 477.175781 304.921875 475.085938 306.792969 472.78125 308.496094 C 472.261719 308.882812 472.75 309.769531 473.316406 309.382812 C 473.5 309.25 473.683594 309.132812 473.867188 309.015625 C 474.101562 309.417969 474.570312 309.632812 475.019531 309.25 C 478.160156 306.507812 481.269531 307.578125 484.59375 308.363281 C 485.578125 308.796875 486.546875 309.25 487.566406 309.617188 C 488.070312 309.800781 488.488281 309.332031 488.503906 308.882812 C 488.621094 308.882812 488.722656 308.882812 488.835938 308.882812 C 489.207031 308.867188 489.421875 308.613281 489.488281 308.332031 C 489.539062 308.347656 489.589844 308.363281 489.640625 308.382812 C 489.539062 308.582031 489.488281 308.796875 489.605469 309.03125 C 490.242188 310.417969 491.644531 311.339844 492.261719 312.941406 C 493.113281 315.113281 493.332031 317.417969 494.367188 319.542969 C 494.417969 319.640625 494.484375 319.726562 494.570312 319.792969 C 494.550781 319.941406 494.570312 320.09375 494.601562 320.277344 C 494.570312 321.078125 494.519531 321.863281 494.453125 322.664062 C 494.351562 324.019531 494.199219 325.355469 494.050781 326.691406 C 493.699219 329.632812 493.214844 332.539062 492.664062 335.449219 C 492.613281 335.714844 492.664062 336.050781 492.929688 336.183594 C 493.183594 336.316406 493.433594 336.449219 493.683594 336.582031 C 493.75 336.648438 493.832031 336.71875 493.949219 336.75 C 494.015625 336.765625 494.082031 336.800781 494.132812 336.816406 C 496.039062 337.835938 497.945312 338.804688 500 339.457031 C 500.332031 339.574219 500.601562 339.40625 500.765625 339.140625 C 501.085938 339.375 501.535156 339.441406 501.902344 339.140625 C 503.039062 338.1875 504.09375 337.21875 505.128906 336.183594 C 505.578125 335.949219 506.03125 335.699219 506.464844 335.429688 C 507.03125 335.078125 506.933594 334.363281 506.496094 334.078125 C 506.363281 333.660156 505.996094 333.34375 505.480469 333.507812 C 504.84375 333.726562 504.226562 333.960938 503.605469 334.210938 C 503.492188 334.195312 503.355469 334.195312 503.222656 334.226562 C 500.382812 335.03125 497.910156 335.75 495.003906 335.546875 C 494.601562 335.164062 494.300781 334.730469 494.199219 334.195312 C 493.882812 332.441406 494.96875 329.5 495.152344 327.679688 C 495.4375 325.054688 495.585938 322.398438 495.554688 319.757812 C 495.753906 319.609375 495.886719 319.359375 495.804688 319.039062 C 495.703125 319.023438 495.621094 319.058594 495.539062 319.058594 C 495.539062 318.992188 495.539062 318.921875 495.539062 318.875 C 495.605469 318.875 495.6875 318.875 495.753906 318.875 C 495.671875 318.65625 495.605469 318.4375 495.519531 318.222656 C 495.519531 318.089844 495.519531 317.9375 495.503906 317.804688 C 495.503906 317.652344 495.386719 317.554688 495.253906 317.503906 C 494.550781 315.382812 494.167969 313.140625 493.25 311.105469 C 492.78125 310.101562 492.011719 309.667969 491.394531 309.050781 C 491.425781 308.949219 491.410156 308.832031 491.394531 308.730469 C 491.746094 308.496094 491.878906 307.914062 491.445312 307.664062 Z M 518.828125 316 C 518.960938 316.667969 518.878906 317.351562 518.378906 317.972656 C 517.84375 318.621094 517.058594 318.972656 516.238281 319.125 C 515.636719 319.625 514.703125 319.375 513.882812 318.921875 C 513.699219 318.839844 513.53125 318.757812 513.382812 318.621094 C 512.996094 318.371094 512.679688 318.121094 512.445312 317.921875 C 512.230469 317.71875 511.945312 317.453125 511.726562 317.152344 C 510.84375 317.90625 510.074219 318.773438 509.40625 319.660156 C 508.785156 320.460938 507.484375 319.59375 508.085938 318.789062 C 510.023438 316.234375 512.714844 313.777344 516.105469 313.710938 C 519.363281 313.644531 522.085938 316.050781 523.304688 318.941406 C 523.574219 319.574219 522.703125 320.277344 522.253906 319.660156 C 521.25 318.289062 520.214844 316.851562 518.828125 316 Z M 516.621094 315.296875 C 516.390625 315.28125 516.171875 315.265625 515.921875 315.28125 C 516.121094 315.347656 516.304688 315.480469 516.355469 315.664062 C 516.421875 315.882812 516.457031 316.101562 516.488281 316.332031 C 516.539062 316.417969 516.554688 316.515625 516.605469 316.601562 C 516.789062 316.285156 516.824219 315.867188 516.621094 315.296875 Z M 512.128906 346.472656 C 506.898438 341.613281 495.21875 345.90625 489.472656 347.695312 C 488.738281 347.929688 488.972656 349.097656 489.738281 349.015625 C 490.058594 348.980469 490.375 348.949219 490.710938 348.898438 C 490.910156 348.878906 491.058594 348.761719 491.144531 348.628906 C 497.894531 346.757812 504.660156 344.972656 511.511719 347.359375 C 512.011719 347.542969 512.5625 346.875 512.128906 346.472656 Z M 503.074219 352.773438 C 501.851562 353.175781 500.648438 353.339844 499.398438 353.425781 C 498.863281 353.441406 498.328125 353.441406 497.808594 353.441406 C 496.839844 353.441406 496.625 354.960938 497.625 354.960938 C 498.09375 354.960938 498.5625 354.960938 499.03125 354.980469 C 499.246094 354.980469 499.464844 354.996094 499.699219 354.980469 C 500.449219 354.980469 501.203125 354.980469 501.953125 354.960938 C 501.96875 354.960938 501.96875 354.960938 501.988281 354.960938 C 501.988281 354.960938 502.003906 354.960938 502.003906 354.960938 C 502.105469 354.960938 502.1875 354.960938 502.289062 354.960938 C 502.707031 354.945312 502.890625 354.660156 502.921875 354.34375 C 503.140625 354.261719 503.355469 354.195312 503.574219 354.09375 C 504.292969 353.777344 503.859375 352.507812 503.074219 352.773438 Z M 318.886719 138.53125 C 311.402344 137.078125 304.183594 134.886719 297.101562 132.046875 C 296.296875 131.730469 295.714844 132.933594 296.515625 133.265625 C 303.648438 136.257812 310.96875 138.78125 318.636719 140 C 319.589844 140.183594 319.839844 138.714844 318.886719 138.53125 Z M 407.054688 549.492188 C 406.988281 546.699219 408.640625 544.09375 411.464844 543.441406 C 414.238281 542.808594 413.953125 545.546875 415.007812 547.203125 C 415.140625 547.402344 415.125 547.585938 415.054688 547.753906 C 415.105469 547.917969 415.074219 548.121094 414.921875 548.304688 C 413.621094 549.941406 410.644531 549.890625 408.789062 550.425781 C 408.472656 550.507812 408.238281 550.375 408.121094 550.160156 C 407.703125 550.34375 407.070312 550.09375 407.054688 549.492188 Z M 408.507812 549.140625 C 409.359375 548.890625 410.246094 548.738281 411.113281 548.519531 C 411.816406 548.355469 413.019531 548.152344 413.621094 547.617188 C 413.335938 547.234375 413.167969 546.785156 413.035156 546.332031 C 412.882812 545.882812 412.835938 545.097656 412.351562 544.914062 C 411.378906 544.527344 409.828125 545.980469 409.34375 546.648438 C 408.789062 547.402344 408.574219 548.238281 408.507812 549.140625 Z M 404.613281 540.21875 C 404.230469 539.597656 405.25 539.132812 405.632812 539.734375 C 406.417969 540.984375 408.003906 540.96875 409.84375 540.402344 C 409.660156 538.847656 409.007812 536.757812 410.109375 535.4375 C 410.894531 534.488281 412.484375 534.035156 413.585938 533.585938 C 414.640625 533.148438 416.058594 532.734375 416.996094 533.632812 C 417.628906 534.253906 417.863281 535.457031 417.945312 536.492188 C 418.714844 536.109375 419.382812 535.789062 419.886719 535.65625 C 424.746094 534.351562 429.808594 533.433594 434.722656 532.382812 C 440.269531 531.195312 445.847656 530.175781 451.414062 529.105469 C 456.207031 528.1875 461.1875 527.167969 466.082031 527.738281 C 466.867188 527.835938 466.75 529.023438 466.015625 529.089844 C 452.949219 530.210938 439.96875 532.566406 427.136719 535.320312 C 424.648438 535.855469 422.007812 536.222656 419.566406 536.960938 C 419.015625 537.125 418.480469 537.328125 417.945312 537.5625 C 417.847656 538.027344 417.34375 538.261719 416.960938 537.996094 C 414.339844 539.25 411.949219 540.953125 409.226562 542.039062 C 406.753906 543.023438 406.050781 542.539062 404.613281 540.21875 Z M 410.679688 540.117188 C 412.582031 539.398438 414.6875 538.230469 416.492188 537.242188 C 416.34375 536.726562 416.324219 536.175781 416.226562 535.621094 C 415.941406 533.953125 414.4375 534.789062 413.402344 535.238281 C 412.199219 535.773438 410.964844 536.039062 410.679688 537.578125 C 410.546875 538.414062 410.644531 539.28125 410.679688 540.117188 Z M 448.503906 849.8125 C 448.238281 849.042969 447.085938 849.59375 447.351562 850.363281 C 448.671875 854.074219 448.003906 858.066406 449.007812 861.839844 C 449.207031 862.609375 450.328125 862.175781 450.160156 861.425781 C 449.308594 857.566406 449.859375 853.589844 448.503906 849.8125 Z M 317.433594 125.464844 C 310.785156 124.261719 304.035156 123.359375 297.535156 121.472656 C 293.457031 120.285156 289.78125 117.679688 285.519531 117.3125 C 284.886719 117.261719 284.820312 118.230469 285.453125 118.296875 C 288.929688 118.632812 291.71875 120.636719 294.910156 121.804688 C 297.351562 122.707031 299.921875 123.292969 302.460938 123.859375 C 308.027344 125.097656 313.707031 125.964844 319.320312 126.96875 C 329.597656 128.804688 339.570312 130.160156 349.078125 134.71875 C 349.511719 134.921875 349.847656 134.234375 349.460938 133.984375 C 340.121094 128.15625 327.992188 127.367188 317.433594 125.464844 Z M 216.199219 237.789062 C 216.984375 233.847656 216.886719 229.871094 217.269531 225.878906 C 217.722656 221.332031 218.722656 216.824219 220.058594 212.476562 C 221.964844 206.3125 226.375 200.414062 226.542969 193.847656 C 226.558594 193.113281 225.421875 193.046875 225.40625 193.78125 C 225.191406 200.53125 220.292969 207.148438 218.390625 213.613281 C 216.050781 221.566406 215.53125 229.503906 215.449219 237.742188 C 215.449219 238.160156 216.117188 238.207031 216.199219 237.789062 Z M 450.144531 842.160156 C 449.84375 842.292969 449.558594 842.410156 449.257812 842.542969 C 449.171875 841.207031 449.007812 839.886719 448.921875 838.785156 C 448.503906 833.957031 447.738281 829.195312 447.621094 824.332031 C 447.417969 816.628906 447.835938 808.929688 447.285156 801.226562 C 446.699219 793.039062 445.898438 784.851562 445.28125 776.664062 C 444.078125 760.492188 442.707031 744.351562 441.152344 728.195312 C 440.535156 721.714844 440.066406 715.382812 438.5625 709.050781 C 437.746094 705.609375 437.8125 702.984375 438.5625 699.542969 C 438.632812 699.273438 438.632812 699.042969 438.664062 698.789062 C 440.46875 697.320312 442.390625 696.015625 444.527344 695.015625 C 445.28125 694.664062 444.730469 693.527344 443.976562 693.863281 C 442.074219 694.679688 440.335938 695.765625 438.714844 697.003906 C 438.613281 695.851562 438.246094 694.765625 437.59375 693.542969 C 437.546875 693.445312 437.476562 693.378906 437.410156 693.328125 C 439.082031 693.746094 440.753906 694.097656 442.472656 694.3125 C 443.023438 694.378906 443.257812 693.613281 442.691406 693.445312 C 435.925781 691.507812 428.855469 689.335938 421.789062 689.015625 C 421.304688 689 421.339844 689.734375 421.804688 689.75 C 427.035156 690.085938 431.898438 691.890625 436.875 693.175781 C 436.425781 693.242188 436.042969 693.695312 436.324219 694.195312 C 437.160156 695.714844 437.261719 697.035156 437.109375 698.304688 C 430.5625 704.003906 425.832031 712.390625 419.75 718.207031 C 419.285156 718.65625 419.984375 719.375 420.46875 718.921875 C 426.285156 713.445312 430.8125 706.042969 436.726562 700.476562 C 436.492188 701.480469 436.273438 702.535156 436.242188 703.703125 C 436.207031 705.625 436.726562 707.511719 437.160156 709.367188 C 438.765625 716.148438 439.199219 722.96875 439.867188 729.882812 C 441.320312 744.921875 442.722656 759.941406 443.828125 775.011719 C 444.894531 789.582031 446.25 804 446.234375 818.617188 C 446.234375 823.832031 446.484375 828.894531 447.085938 834.058594 C 447.335938 836.277344 448.136719 839.835938 448.1875 842.980469 C 435.421875 848.507812 422.425781 853.703125 408.472656 848.859375 C 407.753906 848.609375 407.472656 849.746094 408.191406 850.011719 C 421.988281 854.90625 435.457031 850.28125 448.121094 844.5 C 448.019531 845.820312 447.738281 847.003906 447.136719 847.875 C 446.652344 848.59375 447.667969 849.476562 448.171875 848.757812 C 449.054688 847.457031 449.324219 845.71875 449.339844 843.929688 C 449.808594 843.714844 450.292969 843.496094 450.761719 843.28125 C 451.480469 842.960938 450.894531 841.824219 450.144531 842.160156 Z M 300.375 464.363281 C 279.324219 465.03125 258.605469 462.859375 238.019531 458.433594 C 229.433594 456.578125 221.214844 453.820312 212.808594 451.382812 C 205.859375 449.359375 198.089844 447.488281 191.023438 449.929688 C 190.253906 450.195312 190.503906 451.464844 191.289062 451.199219 C 199.394531 448.410156 208.398438 451.300781 216.234375 453.804688 C 224.855469 456.546875 233.460938 458.917969 242.332031 460.6875 C 261.527344 464.515625 280.675781 466.203125 300.257812 465.785156 C 301.160156 465.75 301.277344 464.332031 300.375 464.363281 Z M 595.617188 479.402344 C 596.46875 480.820312 596.300781 481.671875 597.824219 482.625 C 598.257812 482.894531 598.824219 482.292969 598.507812 481.890625 C 596.285156 479.066406 596.46875 475.640625 592.058594 475.691406 C 589.769531 475.726562 587.496094 476.5625 585.257812 476.960938 C 580.914062 477.765625 576.453125 478.382812 572.042969 478.398438 C 570.941406 478.398438 570.839844 480.136719 571.957031 480.121094 C 577.171875 480.101562 582.453125 479.335938 587.546875 478.25 C 590.421875 477.648438 593.746094 476.308594 595.617188 479.402344 Z M 605.726562 489.058594 C 605.691406 489.257812 605.574219 489.359375 605.425781 489.425781 C 605.472656 489.625 605.441406 489.84375 605.257812 490.042969 C 604.039062 491.265625 602.566406 492.300781 600.964844 492.984375 C 601.398438 494.671875 602.285156 496.628906 601.683594 498.363281 C 601.128906 499.917969 599.324219 500.871094 597.9375 501.621094 C 597.957031 501.65625 597.972656 501.671875 597.972656 501.691406 C 598.625 503.761719 598.992188 507.101562 596.667969 508.289062 C 596.320312 508.472656 595.800781 508.070312 596.066406 507.6875 C 597.304688 505.964844 597.4375 504.179688 596.921875 502.191406 C 596.585938 502.507812 596.25 502.84375 595.917969 503.160156 C 595.367188 503.695312 594.464844 502.859375 595.03125 502.359375 C 595.398438 502.023438 595.785156 501.757812 596.167969 501.503906 C 595.449219 501.691406 594.714844 501.640625 594.28125 500.921875 C 593.378906 499.402344 594.914062 496.945312 596.066406 495.992188 C 596.71875 495.457031 597.65625 495.207031 598.324219 495.859375 C 599.074219 496.59375 599.242188 498.179688 598.957031 499.25 C 599.277344 499.050781 599.578125 498.816406 599.8125 498.515625 C 600.746094 497.3125 600.144531 495.324219 599.792969 493.769531 C 598.308594 494.621094 596.738281 495.242188 595.148438 495.910156 C 593.613281 496.558594 592.007812 497.945312 590.371094 498.082031 C 590.003906 498.113281 589.769531 497.746094 589.902344 497.429688 C 590.453125 496.074219 592.207031 495.589844 593.476562 495.089844 C 595.265625 494.386719 597.085938 493.804688 598.792969 492.953125 C 598.757812 492.699219 598.875 492.433594 599.109375 492.265625 C 598.15625 492.265625 597.203125 492.03125 596.402344 491.648438 C 592.242188 489.625 598.441406 485.882812 600.546875 485.230469 C 601.082031 485.066406 601.382812 485.96875 600.863281 486.152344 C 599.542969 486.621094 598.257812 487.421875 597.253906 488.375 C 596.921875 488.691406 596.203125 489.34375 596.285156 489.878906 C 596.417969 490.695312 598.105469 490.878906 598.691406 490.945312 C 602.835938 491.429688 602.433594 487.238281 601.296875 484.5625 C 601.246094 484.429688 601.296875 484.3125 601.363281 484.214844 C 600.179688 483.8125 598.859375 483.960938 597.671875 484.414062 C 597.636719 484.429688 597.621094 484.414062 597.589844 484.429688 C 597.589844 484.714844 597.488281 485 597.171875 485.183594 C 595.199219 486.386719 592.992188 487.085938 590.753906 487.65625 C 588.5 488.222656 585.894531 489.074219 583.554688 489.074219 C 582.769531 489.074219 582.484375 487.921875 583.203125 487.570312 C 584.972656 486.71875 587.164062 486.570312 589.132812 486.167969 C 588.132812 486.203125 587.097656 485.933594 586.277344 485.398438 C 584.824219 484.480469 584.507812 482.757812 585.457031 481.339844 C 586.59375 479.652344 588.765625 478.984375 590.722656 479.199219 C 591.625 479.300781 591.507812 480.671875 590.605469 480.605469 C 589.269531 480.503906 587.746094 480.886719 586.914062 482.042969 C 586.261719 482.945312 586.511719 483.777344 587.511719 484.230469 C 588.949219 484.882812 590.636719 484.746094 591.574219 483.359375 C 592.410156 482.109375 592.089844 480.6875 591.789062 479.351562 C 591.691406 478.898438 592.359375 478.566406 592.644531 478.949219 C 593.8125 480.570312 593.378906 483.261719 592.191406 484.765625 C 591.859375 485.199219 591.441406 485.515625 590.972656 485.75 C 592.84375 485.25 594.679688 484.648438 596.367188 483.644531 C 596.503906 483.5625 596.636719 483.527344 596.769531 483.527344 C 596.820312 483.359375 596.9375 483.210938 597.171875 483.128906 C 599.074219 482.410156 601.214844 482.324219 602.984375 483.429688 C 604.789062 484.546875 606.007812 486.9375 605.726562 489.058594 Z M 598.039062 499.835938 C 598.007812 499.800781 597.972656 499.769531 597.9375 499.71875 C 597.605469 498.949219 597.753906 498.148438 597.539062 497.363281 C 597.488281 497.210938 597.40625 497.078125 597.355469 496.929688 C 597.269531 496.976562 597.003906 497.179688 597.070312 497.113281 C 596.785156 497.363281 596.550781 497.695312 596.335938 498.015625 C 595.984375 498.566406 595.601562 499.367188 595.582031 499.96875 C 595.582031 499.984375 595.582031 500.050781 595.582031 500.085938 C 596.101562 500.003906 596.601562 499.785156 597.105469 499.5 C 597.523438 499.265625 597.855469 499.484375 597.988281 499.816406 C 598.023438 499.851562 598.039062 499.851562 598.039062 499.835938 Z M 604.539062 488.992188 C 604.070312 487.304688 603.902344 485.648438 602.285156 484.613281 C 602.214844 484.5625 602.132812 484.5625 602.066406 484.515625 C 603.085938 486.203125 603.554688 488.523438 602.652344 490.328125 C 602.632812 490.34375 602.632812 490.363281 602.617188 490.378906 C 603.21875 490.011719 603.820312 489.59375 604.386719 489.074219 C 604.4375 489.042969 604.488281 489.023438 604.539062 488.992188 Z M 526.113281 608.035156 C 525.59375 608.320312 525.914062 609.1875 526.445312 608.902344 C 533.179688 605.410156 540.296875 602.035156 548.082031 603.371094 C 548.769531 603.488281 548.953125 602.539062 548.300781 602.335938 C 540.832031 600.082031 532.496094 604.59375 526.113281 608.035156 Z M 500.148438 681.214844 C 488.953125 681.097656 477.257812 679.558594 466.367188 682.886719 C 465.597656 683.117188 466.117188 684.273438 466.882812 684.039062 C 477.609375 680.761719 489.171875 682.402344 500.199219 682.402344 C 500.96875 682.417969 500.917969 681.230469 500.148438 681.214844 Z M 572.996094 463.078125 C 573.3125 462.226562 573.277344 461.289062 572.792969 460.523438 C 572.59375 460.1875 572.292969 459.921875 571.992188 459.667969 C 571.992188 459.46875 571.792969 459.25 571.558594 459.335938 C 571.542969 459.351562 571.507812 459.351562 571.492188 459.367188 C 570.988281 459.183594 570.371094 459.21875 570.289062 459.804688 C 569.152344 460.222656 568.015625 460.65625 566.929688 461.191406 C 566.410156 461.441406 566.914062 462.210938 567.429688 461.941406 C 568.449219 461.425781 569.484375 460.988281 570.523438 460.523438 C 570.921875 460.972656 571.691406 461.191406 571.691406 461.976562 C 571.691406 462.761719 571.039062 463.527344 570.488281 464.011719 C 569.855469 464.566406 568.867188 465.167969 568 465.03125 C 566.929688 464.867188 566.863281 463.480469 566.894531 462.625 C 566.929688 461.757812 565.59375 461.523438 565.542969 462.410156 C 565.410156 464.515625 566.226562 466.820312 568.734375 466.46875 C 570.523438 466.253906 572.375 464.796875 572.996094 463.078125 Z M 565.242188 850.03125 C 554.917969 856.246094 542.585938 854.339844 531.160156 853.371094 C 523.523438 852.734375 515.585938 851.867188 508.519531 848.910156 C 508.855469 844.332031 509.722656 839.804688 510.339844 835.226562 C 511.292969 828.140625 511.558594 820.972656 511.894531 813.839844 C 512.578125 799.269531 513.964844 784.835938 515.90625 770.382812 C 517.808594 756.113281 520.28125 741.695312 520.78125 727.277344 C 520.917969 723.484375 520.367188 719.125 520.066406 714.730469 C 525.410156 728.847656 530.507812 743 534.75 757.519531 C 534.949219 758.1875 535.921875 757.820312 535.753906 757.152344 C 531.976562 741.328125 525.8125 726.140625 519.878906 711.003906 C 519.765625 705.65625 520.382812 700.496094 523.472656 696.5 C 523.625 696.316406 523.640625 696.117188 523.605469 695.949219 C 523.722656 696.050781 523.839844 696.132812 523.957031 696.234375 C 524.058594 696.535156 524.324219 696.703125 524.59375 696.71875 C 529.65625 700.613281 535.402344 703.851562 539.898438 708.28125 C 540.429688 708.800781 541.234375 708.03125 540.730469 707.480469 C 536.320312 702.652344 530.390625 699.375 525.175781 695.382812 C 524.84375 692.390625 523.671875 689.683594 522.46875 686.929688 C 520.734375 682.917969 519.730469 678.957031 518.5625 674.78125 C 516.722656 668.25 513.984375 661.566406 510.171875 655.902344 C 506.382812 650.238281 501.351562 645.542969 496.339844 640.980469 C 492.3125 637.324219 488.402344 634.734375 483.625 635.269531 C 482.804688 620.867188 482.457031 606.464844 485.949219 592.328125 C 486.164062 591.425781 484.777344 591.027344 484.542969 591.945312 C 480.984375 606.246094 481.152344 620.882812 482.1875 635.519531 C 481.285156 635.734375 480.332031 636.054688 479.363281 636.503906 C 479.082031 636.636719 478.980469 636.871094 479.011719 637.105469 C 476.425781 638.761719 474.234375 640.75 472.265625 642.9375 C 472.363281 642.785156 472.378906 642.570312 472.214844 642.367188 C 462.140625 630.65625 451.195312 619.5625 434.671875 619.898438 C 434.253906 619.898438 434.335938 620.546875 434.738281 620.53125 C 451.429688 620.382812 460.703125 631.925781 471.34375 643.003906 C 471.613281 643.289062 471.996094 643.203125 472.214844 642.988281 C 466.265625 649.671875 462.539062 658.273438 457.058594 665.457031 C 453.050781 670.707031 447.636719 673.945312 442.890625 678.355469 C 439.148438 681.832031 437.175781 685.941406 436.390625 690.953125 C 436.273438 691.671875 437.410156 691.742188 437.527344 691.023438 C 439.550781 678.773438 452.046875 674.496094 458.796875 665.226562 C 465.679688 655.769531 469.925781 643.824219 480.46875 637.640625 C 480.601562 637.558594 480.667969 637.457031 480.71875 637.355469 C 481.253906 637.15625 481.769531 637.023438 482.289062 636.921875 C 482.941406 645.8125 483.875 654.699219 484.460938 663.488281 C 484.476562 663.789062 484.929688 663.769531 484.929688 663.46875 C 484.910156 654.582031 484.242188 645.660156 483.707031 636.722656 C 490.15625 636.253906 495.1875 641.96875 499.796875 646.445312 C 504.410156 650.921875 508.570312 655.769531 511.527344 661.515625 C 514.617188 667.546875 516.65625 673.78125 518.410156 680.296875 C 519.695312 685.058594 522.386719 689.285156 523.539062 694.0625 C 521.351562 692.257812 519.347656 690.269531 517.707031 687.914062 C 517.84375 687.730469 517.859375 687.464844 517.640625 687.246094 C 517.308594 686.910156 516.957031 686.578125 516.621094 686.242188 C 516.136719 685.757812 515.402344 686.410156 515.703125 686.976562 C 517.558594 690.351562 520.113281 693.027344 522.988281 695.414062 C 522.753906 695.382812 522.503906 695.433594 522.320312 695.667969 C 519.628906 698.890625 518.660156 702.984375 518.425781 707.261719 C 518.410156 707.195312 518.378906 707.144531 518.359375 707.078125 C 518.09375 706.410156 517.089844 706.859375 517.339844 707.527344 C 517.691406 708.429688 518.027344 709.332031 518.378906 710.234375 C 518.425781 714.5625 519.011719 718.957031 519.179688 722.765625 C 519.796875 736.785156 516.941406 751.253906 515.070312 765.105469 C 513.03125 780.175781 511.242188 795.210938 510.558594 810.414062 C 510.222656 817.667969 510.007812 824.933594 509.253906 832.152344 C 508.703125 837.566406 507.601562 842.894531 507.199219 848.292969 C 504.945312 847.238281 502.789062 845.96875 500.785156 844.382812 C 500.132812 843.863281 499.464844 844.984375 500.117188 845.5 C 502.304688 847.222656 504.660156 848.609375 507.132812 849.710938 C 507.066406 851.117188 507.03125 852.535156 507.082031 853.957031 C 507.097656 854.289062 507.316406 854.492188 507.566406 854.539062 C 505.011719 860.1875 505.496094 866.4375 505.679688 872.535156 C 505.695312 873.253906 506.816406 873.351562 506.816406 872.601562 C 506.882812 866.351562 506.03125 859.902344 508.9375 854.105469 C 509.136719 853.6875 508.785156 853.371094 508.4375 853.371094 C 508.417969 852.335938 508.4375 851.300781 508.484375 850.261719 C 515.921875 853.289062 524.242188 854.089844 532.226562 854.757812 C 543.640625 855.710938 555.703125 857.3125 565.996094 851.117188 C 566.695312 850.714844 565.976562 849.59375 565.242188 850.03125 Z M 235.414062 146.367188 L 235.648438 144.476562 C 235.683594 144.195312 235.246094 144.195312 235.214844 144.476562 L 234.980469 146.367188 C 234.945312 146.648438 235.382812 146.632812 235.414062 146.367188 Z M 270.703125 129.910156 C 271.335938 138.046875 277.785156 145.261719 284.203125 149.773438 C 284.804688 150.191406 285.539062 149.222656 284.988281 148.738281 C 279.253906 143.59375 272.722656 137.945312 271.921875 129.773438 C 271.835938 128.972656 270.632812 129.125 270.703125 129.910156 Z M 218.441406 328.582031 C 227.664062 337.300781 240.125 341.09375 250.085938 348.8125 C 250.703125 349.296875 251.472656 348.378906 250.851562 347.878906 C 241.195312 339.839844 228.632812 336.382812 219.390625 327.726562 C 218.789062 327.144531 217.839844 327.996094 218.441406 328.582031 Z M 326.003906 117.878906 C 333.207031 118.046875 341.074219 121.539062 346.101562 126.683594 C 346.65625 127.253906 347.640625 126.5 347.089844 125.914062 C 341.910156 120.519531 333.605469 116.894531 326.121094 116.777344 C 325.417969 116.757812 325.300781 117.863281 326.003906 117.878906 Z M 228.429688 178.511719 C 230.066406 167.433594 229.515625 156.273438 229.449219 145.128906 C 229.449219 144.613281 228.664062 144.726562 228.664062 145.230469 C 228.566406 156.324219 228.898438 167.402344 227.3125 178.410156 C 227.210938 179.128906 228.332031 179.230469 228.429688 178.511719 Z M 437.945312 500.820312 C 437.980469 499.933594 438.464844 499.066406 438.964844 498.246094 C 438.863281 497.878906 439.015625 497.480469 439.433594 497.445312 C 439.5 497.328125 439.582031 497.195312 439.648438 497.078125 C 440.019531 496.394531 441.105469 496.910156 440.734375 497.613281 C 440.734375 497.613281 440.734375 497.628906 440.71875 497.628906 C 443.125 498.214844 445.613281 499.917969 446.953125 501.804688 C 447.101562 502.023438 447.035156 502.339844 446.882812 502.523438 C 446.015625 503.527344 445.332031 505.898438 443.558594 505.683594 C 442.839844 505.597656 442.324219 504.929688 441.789062 504.53125 C 441.222656 504.113281 440.601562 503.761719 440.035156 503.378906 C 439.148438 502.792969 437.914062 502.023438 437.945312 500.820312 Z M 440.953125 502.523438 C 441.40625 502.824219 441.871094 503.09375 442.308594 503.394531 C 442.640625 503.628906 443.074219 504.195312 443.441406 504.296875 C 444.429688 504.578125 445.148438 503.058594 445.714844 502.140625 C 444.292969 500.320312 442.121094 499.667969 440 498.949219 C 439.785156 499.332031 439.566406 499.734375 439.398438 500.152344 C 438.914062 501.390625 440.035156 501.921875 440.953125 502.523438 Z M 458.496094 317.9375 C 458.496094 318.488281 458.394531 319.023438 458.210938 319.542969 C 458.078125 319.992188 458.714844 320.210938 458.996094 319.925781 C 460.117188 323.683594 462.207031 327.34375 463.84375 330.820312 C 464.042969 331.238281 464.660156 331.054688 464.613281 330.601562 C 464.195312 326.023438 460.867188 322.046875 459.550781 317.6875 C 459.367188 317.050781 458.464844 317.335938 458.496094 317.9375 Z M 239.910156 197.125 C 241.996094 191.894531 242.164062 185.964844 241.078125 180.484375 C 240.910156 179.597656 239.523438 179.796875 239.691406 180.683594 C 240.695312 186.164062 239.910156 191.34375 238.941406 196.738281 C 238.839844 197.308594 239.675781 197.707031 239.910156 197.125 Z M 265.941406 135.707031 C 264.820312 145.515625 266.859375 156.054688 273.476562 163.640625 C 273.910156 164.144531 274.792969 163.589844 274.359375 163.058594 C 268.078125 155.371094 265.789062 145.53125 266.792969 135.757812 C 266.824219 135.238281 265.988281 135.171875 265.941406 135.707031 Z M 230.417969 119.097656 C 234.511719 111.765625 242.316406 107.621094 250.433594 106.300781 C 254.980469 105.566406 259.824219 105.699219 264.351562 106.367188 C 266.308594 106.667969 268.8125 107.019531 271.019531 107.789062 C 271.503906 106.917969 272.019531 106.082031 272.605469 105.265625 C 272.722656 105.113281 272.855469 105.03125 273.007812 104.996094 C 273.140625 104.78125 273.257812 104.5625 273.390625 104.363281 C 273.777344 103.777344 274.511719 103.828125 274.910156 104.363281 C 276.015625 105.882812 275.5625 107.871094 274.609375 109.859375 C 274.929688 110.308594 274.542969 110.945312 274.078125 110.878906 C 272.941406 112.933594 271.4375 114.921875 270.75 116.359375 C 269.898438 118.144531 266.675781 127.070312 263.617188 125.949219 C 263.167969 125.78125 262.796875 125.246094 263.117188 124.761719 C 263.984375 123.441406 264.703125 122.023438 265.371094 120.585938 C 262.816406 117.828125 256.601562 118.664062 253.308594 119.015625 C 248.765625 119.5 244.371094 120.667969 240.042969 122.121094 C 239.324219 122.375 239.074219 121.253906 239.757812 120.988281 C 244.9375 118.980469 250.5 117.644531 256.066406 117.429688 C 259.121094 117.3125 263.5 117.042969 265.957031 119.300781 C 267.445312 115.859375 268.664062 112.265625 270.382812 108.921875 C 267.761719 108.039062 264.601562 107.621094 262.546875 107.402344 C 258.269531 106.9375 253.777344 106.902344 249.550781 107.769531 C 242.214844 109.273438 235.246094 113.132812 231.472656 119.785156 C 231.070312 120.519531 230.019531 119.800781 230.417969 119.097656 Z M 268.34375 117.644531 C 268.914062 116.410156 269.332031 115.421875 269.464844 115.121094 C 270.015625 113.917969 271.488281 111.882812 272.539062 109.894531 C 272.503906 109.875 272.488281 109.859375 272.457031 109.84375 C 272.390625 109.941406 272.355469 110.042969 272.289062 110.144531 C 272.089844 110.445312 271.703125 110.425781 271.453125 110.242188 C 270.265625 112.648438 269.316406 115.15625 268.34375 117.644531 Z M 283.398438 228.5 C 286.324219 230.855469 288.175781 234.199219 291.300781 236.320312 C 291.703125 236.585938 292.039062 235.96875 291.667969 235.703125 C 288.363281 233.128906 286.273438 229.402344 282.863281 226.949219 C 279.355469 224.425781 275.496094 222.253906 271.738281 220.148438 C 267.277344 217.640625 262.78125 214.917969 258.121094 212.8125 C 254.09375 211.007812 249.714844 210.941406 245.539062 209.636719 C 244.90625 209.4375 244.652344 210.457031 245.289062 210.65625 C 249.984375 212.128906 254.546875 212.246094 259.054688 214.464844 C 263.382812 216.605469 267.628906 219.011719 271.835938 221.351562 C 275.765625 223.503906 279.90625 225.695312 283.398438 228.5 Z M 225.089844 374.226562 C 230.253906 375.945312 235.332031 374.441406 240.410156 373.242188 C 247.542969 371.554688 254.980469 371.636719 262.082031 369.796875 C 262.847656 369.597656 262.515625 368.34375 261.746094 368.460938 C 256.148438 369.398438 250.484375 369.867188 244.886719 370.75 C 238.421875 371.769531 231.921875 374.945312 225.375 372.90625 C 224.539062 372.65625 224.269531 373.957031 225.089844 374.226562 Z M 225.089844 374.226562 " fill-opacity="1" fill-rule="nonzero"/><path fill="#a6543b" d="M 293.222656 156.238281 C 294.910156 155.070312 297.515625 152.414062 299.789062 153.734375 C 300.941406 154.402344 301.394531 156.140625 301.878906 157.257812 C 302.730469 159.265625 303.316406 161.703125 304.5 163.507812 C 304.5 163.507812 304.5 163.507812 304.484375 163.507812 C 304.519531 163.558594 304.535156 163.574219 304.566406 163.625 C 304.820312 164.09375 304.101562 164.609375 303.734375 164.242188 C 303.664062 164.175781 303.617188 164.074219 303.550781 164.007812 C 301.578125 163.289062 300.207031 163.589844 299.457031 164.945312 C 297.667969 166.867188 297.015625 168.953125 297.484375 171.242188 C 297.71875 172.078125 296.53125 172.613281 296.199219 171.761719 C 294.976562 168.738281 298.921875 161.703125 302.179688 161.785156 C 301.828125 160.933594 301.542969 160.050781 301.210938 159.214844 C 300.390625 157.191406 299.957031 154.535156 296.449219 155.386719 C 295.546875 155.605469 294.660156 156.589844 293.890625 157.09375 C 293.308594 157.492188 292.640625 156.640625 293.222656 156.238281 Z M 286.390625 872.703125 C 279.421875 869.125 273.558594 863.578125 269.597656 856.863281 C 277.015625 860.304688 290.066406 854.757812 294.777344 849.160156 C 294.859375 849.058594 294.878906 848.960938 294.878906 848.84375 C 295.695312 848.191406 296.03125 847.355469 296.28125 846.355469 C 296.480469 845.535156 295.226562 845.21875 294.996094 846.035156 C 294.894531 846.085938 294.792969 846.152344 294.726562 846.253906 C 294.292969 846.839844 294.027344 847.457031 293.742188 848.125 C 293.65625 848.308594 293.691406 848.476562 293.742188 848.625 C 290.652344 851.882812 285.789062 853.738281 281.578125 855.007812 C 277.785156 856.144531 272.839844 857.363281 269.214844 855.140625 C 268.980469 855.007812 268.78125 855.023438 268.613281 855.140625 C 267.929688 853.855469 267.308594 852.535156 266.773438 851.183594 C 262.78125 841.007812 261.109375 829.8125 260.359375 818.953125 C 260.007812 813.941406 259.957031 808.894531 260.140625 803.867188 C 260.359375 798.269531 260.125 791.652344 261.980469 786.304688 C 262.128906 785.871094 261.496094 785.671875 261.3125 786.089844 C 259.589844 790.183594 259.691406 794.691406 259.339844 799.054688 C 258.957031 804.132812 258.773438 809.210938 258.890625 814.292969 C 259.140625 824.800781 260.558594 835.542969 263.566406 845.617188 C 265.941406 853.539062 269.867188 860.707031 275.898438 866.4375 C 267.726562 874.488281 257.019531 877.113281 245.839844 877.496094 C 238.054688 877.765625 229.96875 877.980469 223.769531 872.734375 C 223.300781 872.351562 222.582031 872.886719 222.816406 873.4375 C 225.90625 880.6875 239.589844 879.570312 245.839844 879.402344 C 257.550781 879.101562 268.730469 876.109375 277.050781 867.472656 C 279.40625 869.5625 281.960938 871.414062 284.703125 872.953125 C 290.183594 876.027344 296.296875 877.398438 301.675781 880.773438 C 302.078125 881.023438 302.394531 880.472656 302.0625 880.1875 C 297.667969 876.359375 291.484375 875.339844 286.390625 872.703125 Z M 234.78125 488.222656 C 248.597656 484.496094 261.828125 492.433594 275.613281 491.082031 C 276.113281 491.03125 276.046875 490.328125 275.5625 490.3125 C 262.03125 489.894531 247.945312 483.59375 234.511719 487.238281 C 233.859375 487.40625 234.128906 488.390625 234.78125 488.222656 Z M 316.429688 180.015625 C 316.582031 180.683594 317.582031 180.316406 317.433594 179.648438 C 316.664062 176.304688 315.679688 173.03125 314.777344 169.738281 C 314.609375 169.136719 313.65625 169.304688 313.824219 169.90625 C 314.710938 173.28125 315.679688 176.625 316.429688 180.015625 Z M 234.195312 648.667969 C 233.578125 648.46875 233.277344 649.417969 233.894531 649.621094 C 242.347656 652.375 250.199219 656.371094 258.1875 660.246094 C 258.738281 660.511719 259.105469 659.679688 258.570312 659.394531 C 250.769531 655.132812 242.664062 651.375 234.195312 648.667969 Z M 462.757812 303.636719 C 464.660156 302.433594 465.699219 300.410156 467.015625 298.671875 C 467.300781 298.304688 466.699219 297.957031 466.414062 298.289062 C 465.078125 299.894531 464.109375 301.847656 462.304688 303 C 461.886719 303.269531 462.339844 303.902344 462.757812 303.636719 Z M 258.253906 619.5625 C 253.777344 620.582031 249.230469 621.03125 244.636719 621.351562 C 244.019531 621.402344 244.1875 622.351562 244.804688 622.304688 C 249.414062 621.984375 253.976562 621.535156 258.488281 620.53125 C 259.140625 620.414062 258.890625 619.429688 258.253906 619.5625 Z M 225.789062 635.820312 C 239.40625 634.632812 253.042969 634.347656 266.65625 633.464844 C 267.109375 633.429688 267.144531 632.777344 266.675781 632.746094 C 253.058594 631.976562 239.191406 633.765625 225.65625 635.132812 C 225.222656 635.199219 225.355469 635.871094 225.789062 635.820312 Z M 508.570312 397.097656 C 508.085938 397.515625 508.570312 398.269531 509.15625 398.035156 C 513.480469 396.28125 515.703125 390.449219 517.59375 386.574219 C 520.75 380.074219 524.292969 373.773438 527.699219 367.394531 C 528.6875 371.417969 527.683594 375.878906 526.832031 379.839844 C 525.726562 384.9375 524.273438 389.949219 523.238281 395.0625 C 521.753906 402.410156 520.398438 411.953125 527.734375 416.613281 C 527.984375 416.78125 528.453125 416.679688 528.617188 416.445312 C 534.933594 407.808594 530.257812 395.613281 531.792969 385.738281 C 531.878906 385.238281 531.109375 384.953125 530.90625 385.46875 C 527.816406 393.089844 531.507812 401.761719 529.988281 409.664062 C 529.605469 411.632812 528.871094 415.292969 526.53125 413.808594 C 525.378906 413.070312 524.660156 411.015625 524.292969 409.796875 C 523.371094 406.804688 523.539062 403.515625 523.90625 400.441406 C 524.691406 393.859375 526.679688 387.457031 528.117188 381.007812 C 529.203125 376.148438 530.523438 370.5 528.734375 365.65625 C 528.71875 365.605469 528.6875 365.589844 528.667969 365.539062 C 529.019531 364.734375 527.832031 364.035156 527.398438 364.851562 C 524.023438 371.21875 520.414062 377.484375 517.222656 383.933594 C 514.851562 388.777344 512.761719 393.488281 508.570312 397.097656 Z M 537.007812 293.644531 C 535.636719 292.609375 534.015625 292.058594 532.863281 290.703125 C 532.445312 290.203125 531.710938 290.921875 532.144531 291.421875 C 533.28125 292.757812 534.933594 293.578125 536.488281 294.363281 C 536.90625 294.5625 537.425781 293.960938 537.007812 293.644531 Z M 529.988281 266.5625 C 529.972656 267.328125 531.140625 267.296875 531.175781 266.542969 C 531.292969 263.621094 530.957031 260.898438 529.152344 258.507812 C 528.703125 257.90625 527.683594 258.507812 528.132812 259.109375 C 529.820312 261.367188 530.054688 263.839844 529.988281 266.5625 Z M 524.292969 271.140625 C 524.324219 271.675781 525.195312 271.65625 525.242188 271.121094 C 525.710938 265.691406 523.65625 261.5 519.597656 258.023438 C 519.046875 257.554688 518.425781 258.476562 518.960938 258.960938 C 522.839844 262.402344 523.90625 266.144531 524.292969 271.140625 Z M 538.542969 409.347656 C 538.441406 413.722656 539.195312 418.035156 540.582031 422.175781 C 540.867188 423.03125 542.136719 422.511719 541.867188 421.660156 C 540.632812 417.683594 539.878906 413.605469 539.964844 409.429688 C 539.996094 408.527344 538.578125 408.425781 538.542969 409.347656 Z M 513.933594 260.3125 C 518.960938 262.25 520.949219 267.679688 521 272.726562 C 521 273.328125 522.003906 273.394531 522.054688 272.792969 C 522.585938 267.246094 519.679688 261.265625 514.300781 259.261719 C 513.632812 259.007812 513.265625 260.046875 513.933594 260.3125 Z M 539.945312 287.714844 C 540.546875 287.714844 540.613281 286.777344 540.03125 286.660156 C 536.9375 286.058594 533.078125 284.722656 532.429688 281.199219 C 532.292969 280.445312 531.160156 280.796875 531.292969 281.546875 C 531.960938 285.339844 536.355469 287.746094 539.945312 287.714844 Z M 532.914062 300.863281 C 534.214844 301.648438 535.519531 302.382812 537.074219 302.398438 C 537.539062 302.398438 537.492188 301.730469 537.105469 301.632812 C 535.785156 301.261719 534.582031 300.660156 533.414062 299.945312 C 532.828125 299.609375 532.328125 300.527344 532.914062 300.863281 Z M 470.207031 261.082031 C 472.046875 258.589844 475.589844 258.039062 478.429688 257.503906 C 479.214844 257.355469 479.0625 256.136719 478.261719 256.269531 C 474.902344 256.804688 471.210938 257.539062 469.074219 260.429688 C 468.554688 261.097656 469.707031 261.75 470.207031 261.082031 Z M 486.964844 259.628906 C 486.347656 259.746094 486.515625 260.648438 487.132812 260.578125 C 491.109375 260.164062 501.035156 261.082031 499.699219 267.027344 C 499.632812 267.347656 499.863281 267.679688 500.183594 267.730469 C 504.09375 268.414062 511.277344 269.25 511.375 274.5625 C 511.394531 275.199219 512.378906 275.265625 512.378906 274.613281 C 512.363281 271.574219 510.542969 269.835938 507.902344 268.601562 C 506.128906 267.765625 503.574219 267.796875 501.953125 266.84375 C 500.734375 266.128906 501.351562 265.507812 500.785156 264.140625 C 498.914062 259.679688 491.027344 258.84375 486.964844 259.628906 Z M 458.996094 279.644531 C 460.101562 279.761719 461.152344 279.675781 462.222656 279.425781 C 463.375 279.140625 465.261719 277.957031 466.382812 278.191406 C 467 278.324219 467.535156 278.941406 468.171875 279.160156 C 469.140625 279.492188 470.175781 279.476562 471.175781 279.511719 C 471.679688 279.527344 471.8125 278.808594 471.292969 278.726562 C 469.875 278.492188 468.019531 278.492188 467.101562 277.105469 C 466.984375 276.921875 466.75 276.804688 466.53125 276.871094 C 464.058594 277.671875 461.671875 278.890625 458.996094 278.609375 C 458.328125 278.539062 458.347656 279.578125 458.996094 279.644531 Z M 472.265625 269.050781 C 472.246094 268.148438 470.875 268.332031 470.894531 269.21875 C 470.910156 274.296875 477.042969 277.136719 481.46875 276.21875 C 482.222656 276.066406 481.953125 274.765625 481.203125 274.898438 C 477.527344 275.535156 472.3125 273.261719 472.265625 269.050781 Z M 465.445312 288.015625 C 465.628906 287.648438 465.113281 287.246094 464.84375 287.578125 C 463.492188 289.183594 461.921875 290.371094 460.050781 291.320312 C 459.53125 291.589844 460.015625 292.339844 460.519531 292.074219 C 462.421875 291.136719 464.445312 289.96875 465.445312 288.015625 Z M 486.332031 246.363281 C 489.992188 244.722656 493.832031 243.253906 497.808594 244.707031 C 498.34375 244.90625 498.777344 244.15625 498.226562 243.90625 C 494.015625 241.949219 489.773438 243.6875 485.847656 245.476562 C 485.230469 245.742188 485.730469 246.628906 486.332031 246.363281 Z M 499.113281 283.585938 C 493.851562 285.441406 493.015625 279.292969 492.929688 275.515625 C 492.914062 275.066406 492.164062 275.066406 492.128906 275.535156 C 491.863281 280.160156 493.648438 286.445312 499.480469 284.339844 C 499.980469 284.15625 499.613281 283.417969 499.113281 283.585938 Z M 487 251.390625 C 489.207031 249.335938 491.863281 248.28125 494.851562 248 C 495.472656 247.949219 495.320312 246.996094 494.71875 247.046875 C 491.59375 247.296875 488.703125 248.582031 486.449219 250.757812 C 486.046875 251.140625 486.597656 251.773438 487 251.390625 Z M 461.886719 301.5625 C 463.191406 299.875 464.261719 298.003906 465.699219 296.417969 C 465.980469 296.101562 465.496094 295.734375 465.195312 296.015625 C 463.625 297.519531 462.574219 299.476562 461.269531 301.195312 C 460.96875 301.5625 461.605469 301.933594 461.886719 301.5625 Z M 454.371094 364.902344 C 454.117188 364.652344 453.867188 364.417969 453.617188 364.167969 C 453.652344 363.902344 453.550781 363.617188 453.316406 363.449219 C 452.917969 363.164062 452.5 362.914062 452.082031 362.679688 C 452.03125 362.632812 451.996094 362.597656 451.945312 362.546875 C 451.78125 362.378906 451.578125 362.3125 451.414062 362.332031 C 446.03125 359.605469 439.316406 359.574219 433.367188 358.121094 C 432.617188 357.570312 432.148438 356.433594 431.8125 355.648438 C 431.496094 354.894531 431.113281 354.007812 431.078125 353.191406 C 431.0625 352.957031 430.960938 352.757812 430.828125 352.621094 C 430.980469 352.222656 430.863281 351.753906 430.359375 351.570312 C 429.691406 351.335938 429.007812 351.167969 428.324219 350.984375 C 428.171875 350.835938 427.953125 350.71875 427.6875 350.703125 C 422.492188 350.449219 417.445312 351.988281 412.484375 353.375 C 407.539062 354.761719 404.363281 359.089844 399.484375 360.492188 C 396.542969 361.328125 393.335938 361.261719 390.3125 361.695312 C 387.503906 362.097656 384.714844 362.632812 381.890625 363 C 379.402344 363.316406 375.527344 362.679688 373.371094 364.132812 C 372.652344 364.617188 373.121094 365.972656 374.003906 365.605469 C 375.742188 364.902344 377.882812 365.136719 379.71875 365.003906 C 382.007812 364.835938 384.296875 364.453125 386.570312 364.085938 C 390.5625 363.433594 394.738281 363.25 398.683594 362.347656 C 402.828125 361.394531 405.183594 358.402344 408.789062 356.53125 C 413.921875 353.875 421.839844 352.253906 427.636719 352.488281 C 428.273438 352.671875 428.90625 352.875 429.523438 353.089844 C 429.542969 354.328125 429.992188 355.5625 430.496094 356.699219 C 430.59375 356.917969 430.695312 357.152344 430.796875 357.367188 C 430.445312 357.25 430.078125 357.152344 429.726562 357.015625 C 428.90625 356.683594 428.554688 357.886719 429.15625 358.335938 C 430.09375 359.039062 431.261719 359.390625 432.484375 359.640625 C 432.714844 359.789062 432.949219 359.824219 433.152344 359.757812 C 434.121094 359.925781 435.089844 360.058594 435.941406 360.257812 C 441.203125 361.496094 446.515625 362.515625 451.597656 364.351562 C 452.128906 364.953125 452.648438 365.539062 453.183594 366.121094 C 453.785156 366.773438 454.335938 367.542969 455.070312 368.0625 C 455.773438 368.5625 456.507812 367.644531 456.175781 366.976562 C 455.789062 366.191406 455.003906 365.519531 454.371094 364.902344 Z M 538.257812 880.136719 C 529.203125 879.085938 522.539062 883.210938 515.203125 887.804688 C 514.683594 888.125 515.234375 888.875 515.753906 888.558594 C 518.945312 886.636719 522.019531 884.464844 525.511719 883.09375 C 529.65625 881.457031 533.882812 881.171875 538.277344 881.074219 C 538.828125 881.089844 538.777344 880.203125 538.257812 880.136719 Z M 417.980469 875.558594 C 414.554688 875.273438 411.164062 875.976562 407.789062 876.460938 C 407.238281 876.542969 407.238281 877.414062 407.804688 877.347656 C 411.164062 876.960938 414.421875 876.476562 417.828125 876.644531 C 418.53125 876.679688 418.683594 875.609375 417.980469 875.558594 Z M 455.503906 878.25 C 450.628906 882.875 448.105469 890.394531 444.042969 895.792969 C 439.832031 901.390625 434.304688 906.820312 428.355469 910.527344 C 421.941406 914.539062 414.152344 916.527344 406.667969 917.292969 C 402.527344 917.710938 398.28125 918.128906 394.121094 917.964844 C 390.898438 917.828125 387.941406 916.375 384.816406 916.257812 C 384.164062 916.242188 384.128906 917.261719 384.796875 917.277344 C 387.855469 917.328125 390.847656 918.796875 394.003906 918.914062 C 398.265625 919.066406 402.59375 918.632812 406.820312 918.113281 C 413.921875 917.226562 421.105469 915.238281 427.421875 911.796875 C 433.25 908.605469 438.679688 903.59375 443.074219 898.617188 C 445.332031 896.058594 447.183594 893.167969 448.972656 890.261719 C 451.195312 886.652344 453.015625 881.972656 456.089844 879 C 456.507812 878.582031 455.941406 877.832031 455.503906 878.25 Z M 399.535156 888.308594 C 398.800781 888.839844 399.667969 889.925781 400.402344 889.410156 C 403.078125 887.503906 406.269531 886.269531 409.507812 885.734375 C 411.648438 885.382812 413.871094 885.734375 415.808594 884.648438 C 416.277344 884.378906 416.007812 883.679688 415.523438 883.679688 C 409.828125 883.761719 404.179688 884.898438 399.535156 888.308594 Z M 445.714844 383.664062 C 445.648438 400.808594 443.625 418 444.710938 435.109375 C 447.050781 471.363281 447.035156 472.132812 447.050781 471.363281 C 447.300781 454.222656 446.835938 400.824219 446.882812 383.683594 C 446.867188 382.929688 445.714844 382.914062 445.714844 383.664062 Z M 532.894531 890.445312 C 538.109375 887.90625 543.40625 887.386719 549.085938 886.953125 C 549.351562 886.9375 549.371094 886.550781 549.101562 886.535156 C 543.472656 886.183594 537.65625 887.472656 532.59375 889.945312 C 532.261719 890.109375 532.5625 890.613281 532.894531 890.445312 Z M 457.59375 391.9375 C 459.734375 395.5625 480.835938 422.613281 473.464844 424.433594 C 468.371094 425.6875 464.429688 412.402344 463.308594 409.246094 C 461.335938 403.714844 460.117188 397.785156 457.746094 392.402344 C 457.445312 391.703125 456.292969 392.054688 456.609375 392.753906 C 458.878906 397.933594 465.113281 429.945312 474.550781 425.417969 C 483.542969 421.109375 461.488281 395.914062 458.746094 391.25 C 458.296875 390.515625 457.160156 391.203125 457.59375 391.9375 Z M 522.585938 440.640625 C 527.214844 445.316406 532.328125 449.695312 537.609375 453.621094 C 543.304688 457.847656 547.867188 463.210938 553.679688 467.371094 C 554.367188 467.855469 555.015625 466.785156 554.367188 466.285156 C 551.441406 464.011719 548.402344 461.910156 545.792969 459.25 C 543.738281 457.148438 541.96875 455.191406 539.628906 453.335938 C 534.117188 449.011719 528.585938 444.632812 523.640625 439.652344 C 518.996094 434.992188 514.148438 430.597656 509.40625 426.035156 C 503.941406 420.773438 499.097656 415.359375 492.363281 411.652344 C 491.8125 411.351562 491.277344 412.101562 491.8125 412.46875 C 497.644531 416.511719 502.488281 421.058594 507.46875 426.070312 C 512.429688 431.03125 517.675781 435.660156 522.585938 440.640625 Z M 561.816406 918.296875 C 559.546875 918.882812 557.859375 920.167969 555.785156 921.203125 C 552.261719 922.976562 547.75 923.160156 543.839844 923.140625 C 536.339844 923.09375 529.453125 921.722656 523.339844 917.179688 C 517.390625 912.765625 516.539062 904.496094 513.0625 898.332031 C 511.8125 896.125 510.390625 894.289062 508.503906 892.582031 C 505.796875 890.144531 504.207031 888.089844 502.371094 884.964844 C 502.136719 884.582031 501.570312 884.863281 501.753906 885.28125 C 503.324219 889.042969 504.910156 890.78125 507.851562 893.453125 C 510.792969 896.144531 512.546875 899.46875 514.117188 903.078125 C 515.769531 906.871094 516.757812 911.347656 519.195312 914.738281 C 520.800781 916.945312 523.238281 918.597656 525.542969 920.019531 C 530.390625 922.976562 536.039062 923.742188 541.617188 923.976562 C 545.425781 924.128906 549.503906 924.011719 553.195312 922.976562 C 556.386719 922.089844 558.894531 919.882812 561.96875 918.679688 C 562.183594 918.597656 562.050781 918.246094 561.816406 918.296875 Z M 454.988281 375.378906 C 451.714844 375.863281 448.386719 376.148438 445.082031 376.480469 C 442.007812 376.78125 437.796875 377.816406 434.855469 376.917969 C 434.003906 376.648438 433.484375 377.953125 434.355469 378.21875 C 436.757812 378.988281 438.796875 378.621094 441.171875 378.335938 C 439.300781 379.992188 437.996094 382.347656 436.59375 384.351562 C 436.175781 384.953125 437.078125 385.671875 437.59375 385.152344 C 439.632812 383.164062 441.136719 379.890625 443.808594 378.652344 C 444.109375 378.519531 444.261719 378.269531 444.328125 378.003906 C 447.9375 377.632812 451.597656 377.300781 455.207031 377.234375 C 456.558594 377.21875 456.375 375.160156 454.988281 375.378906 Z M 343.0625 195.285156 C 342.144531 194.886719 341.226562 194.515625 340.324219 194.101562 C 339.554688 193.730469 338.9375 194.851562 339.6875 195.269531 C 340.605469 195.789062 341.558594 196.273438 342.511719 196.738281 C 343.195312 197.074219 343.882812 197.507812 344.667969 197.492188 C 345.101562 197.492188 345.417969 196.941406 345.152344 196.574219 C 344.648438 195.886719 343.816406 195.621094 343.0625 195.285156 Z M 342.011719 181.066406 C 340.539062 181.335938 339.054688 181.484375 337.566406 181.703125 C 336.832031 181.804688 337.066406 182.921875 337.78125 182.820312 C 339.253906 182.621094 340.742188 182.488281 342.195312 182.1875 C 342.914062 182.035156 342.726562 180.949219 342.011719 181.066406 Z M 335.746094 202.003906 C 334.675781 201.667969 333.488281 201.785156 332.386719 202.035156 C 331.917969 201.9375 331.5 201.851562 331.199219 201.820312 C 330.28125 201.734375 327.992188 201.96875 327.273438 201.132812 C 326.839844 200.617188 326.003906 201.351562 326.371094 201.902344 C 327.242188 203.1875 329.761719 203.140625 331.300781 203.207031 C 331.417969 203.421875 331.632812 203.554688 331.953125 203.472656 C 332.285156 203.390625 332.636719 203.324219 332.988281 203.273438 C 333.589844 203.289062 334.207031 203.324219 334.808594 203.40625 C 336.046875 203.554688 335.960938 204.273438 336.765625 205.128906 C 336.914062 205.277344 337.199219 205.34375 337.347656 205.175781 C 337.398438 205.109375 337.464844 205.058594 337.515625 204.992188 C 337.582031 204.910156 337.617188 204.808594 337.617188 204.710938 C 337.699219 204.609375 337.765625 204.476562 337.78125 204.292969 C 337.867188 203.171875 336.714844 202.304688 335.746094 202.003906 Z M 333.207031 206.929688 C 332.488281 207.113281 331.835938 207.484375 331.132812 207.714844 C 330.28125 207.984375 330.5 209.320312 331.417969 209.121094 C 332.304688 208.917969 333.15625 208.652344 333.855469 208.050781 C 334.339844 207.582031 333.804688 206.78125 333.207031 206.929688 Z M 319.1875 359.972656 C 316.0625 363.398438 312.957031 366.605469 309.097656 369.230469 C 308.527344 369.613281 309.113281 370.484375 309.679688 370.117188 C 313.457031 367.675781 317.949219 364.550781 320.007812 360.441406 C 320.273438 359.90625 319.519531 359.589844 319.1875 359.972656 Z M 343.480469 169.605469 C 341.175781 169.273438 338.96875 170.625 337.03125 171.644531 C 336.394531 171.980469 336.847656 172.949219 337.515625 172.664062 C 339.46875 171.8125 341.640625 170.691406 343.816406 171.410156 C 344.515625 171.644531 345.132812 172.027344 345.734375 172.464844 C 345.335938 172.730469 344.984375 173.148438 344.785156 173.515625 C 344.433594 174.152344 344.046875 174.953125 343.863281 175.722656 C 343.730469 176.105469 343.664062 176.507812 343.78125 176.925781 C 343.898438 177.375 344.414062 177.675781 344.867188 177.542969 C 345.753906 177.257812 346.371094 176.1875 346.804688 175.4375 C 347.054688 174.984375 347.40625 174.351562 347.488281 173.75 C 348.074219 174.066406 348.84375 173.347656 348.460938 172.765625 C 347.40625 171.175781 345.351562 169.875 343.480469 169.605469 Z M 310.785156 215.769531 C 309.613281 214.765625 307.375 213.480469 305.386719 213.113281 C 305.203125 213.28125 304.984375 213.414062 304.734375 213.5625 C 303.949219 214.050781 303.179688 214.550781 302.480469 215.152344 C 301.59375 215.902344 300.660156 216.773438 300.074219 217.792969 C 299.65625 218.511719 299.386719 219.296875 298.988281 220.011719 C 298.9375 220.097656 298.886719 220.148438 298.835938 220.179688 C 298.71875 220.429688 298.601562 220.683594 298.46875 220.914062 C 298.117188 221.535156 297.183594 221.25 297.050781 220.648438 C 296.816406 219.644531 296.632812 218.625 296.480469 217.589844 C 295.628906 215.402344 295.429688 212.980469 295.027344 210.691406 C 294.609375 208.367188 294.308594 206.113281 294.828125 203.789062 C 294.925781 203.339844 295.480469 203.089844 295.847656 203.253906 C 295.613281 201.035156 295.363281 198.792969 295.144531 196.574219 C 295.011719 195.117188 294.859375 193.683594 295.027344 192.261719 C 293.773438 187.351562 294.675781 182.355469 296.800781 177.375 C 292.554688 177.390625 288.730469 177.425781 286.558594 173.097656 C 284.453125 168.921875 284.652344 163.140625 286.003906 158.761719 C 286.289062 157.828125 287.675781 158.460938 287.390625 159.382812 C 286.273438 163.023438 286.222656 167.367188 287.410156 171.011719 C 289.0625 176.054688 292.871094 175.789062 297.300781 175.769531 C 297.71875 175.769531 297.953125 176.023438 298.035156 176.324219 C 298.488281 176.441406 298.871094 176.859375 298.621094 177.410156 C 295.277344 184.960938 295.144531 191.929688 300.105469 198.777344 C 304.285156 204.542969 309.628906 209.269531 313.105469 215.570312 C 313.371094 216.054688 312.636719 216.605469 312.304688 216.152344 C 312.203125 216.019531 312.085938 215.886719 311.984375 215.753906 C 311.652344 215.988281 311.167969 216.085938 310.785156 215.769531 Z M 296.730469 196.640625 C 296.363281 195.972656 296.046875 195.304688 295.78125 194.632812 C 295.898438 195.570312 296.03125 196.621094 296.164062 197.707031 C 296.179688 197.574219 296.179688 197.441406 296.199219 197.324219 C 296.230469 197.074219 296.480469 196.90625 296.714844 196.941406 C 296.714844 196.855469 296.714844 196.738281 296.730469 196.640625 Z M 305.585938 208.183594 C 305.585938 208.203125 305.605469 208.21875 305.605469 208.25 C 305.605469 208.234375 305.621094 208.25 305.621094 208.234375 C 305.621094 208.21875 305.605469 208.203125 305.585938 208.183594 Z M 302.480469 204.640625 C 302.578125 204.960938 302.679688 205.277344 302.78125 205.578125 C 303.046875 206.347656 303.347656 207.113281 303.632812 207.867188 C 303.433594 207.03125 303.230469 206.179688 303.082031 205.328125 C 302.878906 205.109375 302.679688 204.875 302.480469 204.640625 Z M 298.738281 216.570312 C 298.371094 215.203125 298 213.78125 297.652344 212.3125 C 297.75 214.050781 297.886719 215.804688 297.933594 217.523438 C 297.96875 217.742188 297.984375 217.941406 298.035156 218.160156 C 298.253906 217.65625 298.488281 217.125 298.738281 216.570312 Z M 300.289062 213.5625 C 299.421875 211.527344 298.855469 209.371094 298.285156 207.214844 C 298.503906 209.238281 298.738281 211.257812 298.972656 213.28125 C 299.105469 213.933594 299.253906 214.601562 299.371094 215.25 C 299.65625 214.667969 299.957031 214.097656 300.289062 213.5625 Z M 301.460938 212.027344 C 300.824219 209.773438 299.824219 207.582031 299.1875 205.359375 C 298.585938 203.238281 298.351562 200.398438 297.601562 198.09375 C 297.566406 198.042969 297.550781 198.007812 297.515625 197.960938 C 297.515625 198.144531 297.5 198.328125 297.5 198.511719 C 298.234375 200.648438 298.585938 203.023438 298.988281 205.3125 C 299.773438 207.699219 300.476562 210.121094 301.007812 212.5625 C 301.144531 212.363281 301.292969 212.195312 301.460938 212.027344 Z M 303.800781 210.773438 C 302.578125 208.152344 301.726562 205.425781 300.875 202.6875 C 300.84375 202.652344 300.808594 202.621094 300.792969 202.570312 C 300.875 203.992188 301.058594 205.410156 301.191406 206.796875 C 301.210938 206.964844 300.925781 207 300.910156 206.832031 C 300.707031 205.242188 300.574219 203.625 300.375 202.035156 C 300.039062 201.617188 299.738281 201.183594 299.421875 200.75 C 299.855469 202.671875 300.191406 204.660156 300.707031 206.347656 C 301.175781 207.832031 302.113281 209.488281 302.578125 211.125 C 302.796875 210.992188 303.03125 210.890625 303.265625 210.824219 C 303.414062 210.789062 303.597656 210.773438 303.800781 210.773438 Z M 305.738281 211.308594 C 304.984375 209.671875 304.484375 207.949219 303.882812 206.261719 C 303.816406 206.195312 303.765625 206.128906 303.699219 206.0625 C 303.882812 207.699219 304.285156 209.371094 304.667969 210.925781 C 305.019531 211.007812 305.386719 211.140625 305.738281 211.308594 Z M 307.640625 212.175781 C 307.058594 211.308594 306.691406 210.304688 306.171875 209.402344 C 306.121094 209.453125 306.054688 209.472656 305.972656 209.472656 C 306.15625 210.140625 306.339844 210.824219 306.523438 211.492188 C 306.539062 211.558594 306.523438 211.609375 306.507812 211.660156 C 306.839844 211.828125 307.15625 211.976562 307.441406 212.09375 C 307.507812 212.109375 307.574219 212.144531 307.640625 212.175781 Z M 310.03125 213.296875 C 309.230469 212.3125 308.394531 211.359375 307.542969 210.390625 C 307.792969 210.90625 308.027344 211.425781 308.3125 211.910156 C 308.425781 212.09375 308.292969 212.292969 308.125 212.378906 C 308.777344 212.644531 309.414062 212.945312 310.03125 213.296875 Z M 360.070312 328.027344 C 358.402344 332.957031 356.394531 337.753906 355.210938 342.847656 C 354.976562 343.800781 356.480469 344 356.714844 343.066406 C 358.015625 338.070312 359.902344 333.257812 361.523438 328.363281 C 361.824219 327.445312 360.386719 327.128906 360.070312 328.027344 Z M 398.199219 484.847656 C 392.703125 493.101562 386.636719 501.003906 382.375 509.992188 C 381.992188 510.796875 383.246094 511.347656 383.628906 510.542969 C 387.90625 501.605469 393.972656 493.785156 399.453125 485.582031 C 399.953125 484.816406 398.714844 484.0625 398.199219 484.847656 Z M 346.921875 158.210938 C 341.542969 156.859375 335.929688 160.316406 331.316406 162.605469 C 330.933594 162.804688 331.101562 163.324219 331.449219 163.359375 C 331.585938 163.574219 331.835938 163.707031 332.136719 163.589844 C 335.359375 162.339844 338.734375 160.816406 342.226562 160.449219 C 348.160156 159.832031 351.800781 163.757812 353.003906 169.324219 C 353.1875 170.140625 354.589844 169.875 354.457031 169.039062 C 354.355469 168.371094 354.191406 167.71875 353.988281 167.050781 C 354.308594 163.222656 350.53125 159.128906 346.921875 158.210938 Z M 595.25 388.128906 C 595.765625 387.894531 595.5 387.023438 594.964844 387.273438 C 587.179688 390.714844 582.636719 398.636719 578.457031 405.671875 C 575.953125 409.898438 573.296875 414.039062 571.15625 418.46875 C 568.367188 424.25 567.515625 430.464844 565.761719 436.597656 C 565.710938 436.761719 565.960938 436.828125 566.011719 436.679688 C 567.582031 432.136719 568.25 427.324219 569.953125 422.84375 C 571.84375 417.882812 574.898438 413.507812 577.691406 409.011719 C 582.351562 401.476562 586.796875 392.054688 595.25 388.128906 Z M 565.558594 440.003906 C 565.675781 440.003906 565.675781 439.820312 565.558594 439.820312 C 565.441406 439.820312 565.441406 440.003906 565.558594 440.003906 Z M 613.058594 456.292969 C 609.601562 453.839844 604.039062 454.957031 600.09375 455.527344 C 592.992188 456.527344 586.429688 458.699219 580.164062 462.210938 C 579.710938 462.460938 580.011719 463.195312 580.480469 462.960938 C 585.542969 460.253906 590.820312 458.234375 596.46875 457.128906 C 600.945312 456.261719 608.664062 454.339844 612.609375 457.046875 C 613.078125 457.347656 613.511719 456.613281 613.058594 456.292969 Z M 390.796875 454.839844 C 398.113281 451.5 405.734375 450.027344 413.769531 450.964844 C 414.453125 451.046875 414.640625 450.011719 413.9375 449.894531 C 406.585938 448.640625 399.101562 450.128906 392.300781 453.019531 C 392.234375 452.703125 391.917969 452.433594 391.566406 452.652344 C 390.679688 453.1875 390.898438 453.003906 390.246094 453.738281 C 390.128906 453.871094 390.128906 454.003906 390.160156 454.140625 C 389.960938 454.507812 390.363281 455.042969 390.796875 454.839844 Z M 506.75 389.027344 C 497.710938 388.960938 487.234375 391.570312 478.796875 387.226562 C 471.277344 383.347656 467.667969 373.792969 469.859375 365.839844 C 470.042969 365.1875 469.023438 364.953125 468.839844 365.589844 C 466.800781 373.007812 469.421875 381.378906 475.488281 386.1875 C 483.875 392.855469 497.058594 389.964844 506.816406 389.679688 C 507.234375 389.648438 507.148438 389.027344 506.75 389.027344 Z M 506.75 389.027344 " fill-opacity="1" fill-rule="nonzero"/></svg>