<svg xmlns="http://www.w3.org/2000/svg" xmlns:xlink="http://www.w3.org/1999/xlink" width="1080" zoomAndPan="magnify" viewBox="0 0 810 1012.49997" height="1350" preserveAspectRatio="xMidYMid meet" version="1.0"><defs><clipPath id="e30f972565"><path d="M 0.199219 0 L 809.800781 0 L 809.800781 1012 L 0.199219 1012 Z M 0.199219 0 " clip-rule="nonzero"/></clipPath></defs><g clip-path="url(#e30f972565)"><path fill="#ffffff" d="M 0.199219 0 L 809.800781 0 L 809.800781 1012 L 0.199219 1012 Z M 0.199219 0 " fill-opacity="1" fill-rule="nonzero"/><path fill="#f5f6f8" d="M 0.199219 0 L 809.800781 0 L 809.800781 1012 L 0.199219 1012 Z M 0.199219 0 " fill-opacity="1" fill-rule="nonzero"/></g><path fill="#fcc390" d="M 344.152344 526.824219 C 372.574219 512.125 412.761719 472.914062 443.148438 467.035156 C 473.53125 461.152344 525.480469 457.230469 564.6875 430.769531 C 603.894531 404.300781 619.578125 401.363281 619.578125 424.886719 C 619.578125 448.414062 596.050781 478.800781 567.628906 493.5 C 539.203125 508.199219 491.171875 518.003906 495.097656 529.765625 C 499.015625 541.527344 581.351562 556.230469 608.796875 560.152344 C 636.238281 564.070312 689.167969 572.894531 715.632812 582.695312 C 742.101562 592.496094 766.601562 606.21875 755.824219 622.882812 C 745.046875 639.546875 713.679688 629.742188 690.152344 628.761719 C 666.625 627.785156 598.019531 616.019531 591.15625 617.003906 C 584.296875 617.980469 589.191406 624.84375 598.011719 627.785156 C 606.832031 630.726562 755.820312 642.484375 760.71875 667.972656 C 765.621094 693.457031 730.335938 699.335938 699.949219 694.441406 C 669.566406 689.539062 585.269531 669.933594 583.3125 676.800781 C 581.351562 683.65625 666.625 701.304688 696.03125 710.125 C 725.4375 718.945312 752.882812 720.90625 745.042969 740.507812 C 737.199219 760.113281 701.914062 753.253906 678.390625 748.351562 C 654.863281 743.449219 568.613281 725.808594 568.613281 725.808594 C 568.613281 725.808594 641.632812 753.742188 663.195312 766.488281 C 684.761719 779.230469 692.109375 795.398438 678.390625 805.203125 C 664.667969 815.007812 609.777344 791.480469 585.273438 783.636719 C 560.769531 775.796875 421.589844 750.3125 405.902344 751.292969 C 390.21875 752.269531 176.546875 789.519531 111.851562 781.675781 C 65.785156 689.542969 99.109375 586.621094 99.109375 586.621094 C 99.109375 586.621094 290.238281 594.464844 344.152344 526.832031 Z M 344.152344 526.824219 " fill-opacity="1" fill-rule="nonzero"/><path fill="#000000" d="M 668.242188 808.699219 C 652.152344 808.699219 625.496094 799.109375 603.097656 791.054688 C 596.3125 788.613281 589.910156 786.3125 584.921875 784.714844 C 559.433594 776.554688 420.671875 751.535156 405.972656 752.421875 C 402.585938 752.632812 389.277344 754.644531 370.855469 757.425781 C 303.1875 767.652344 162.382812 788.941406 111.710938 782.796875 C 111.332031 782.75 110.992188 782.515625 110.828125 782.171875 C 65.082031 690.675781 97.6875 587.289062 98.019531 586.257812 C 98.175781 585.769531 98.546875 585.476562 99.15625 585.46875 C 101.074219 585.550781 290.328125 592.507812 343.253906 526.105469 C 343.359375 525.984375 343.480469 525.878906 343.625 525.804688 C 354.296875 520.285156 366.59375 511.316406 379.609375 501.828125 C 401.328125 485.992188 423.785156 469.613281 442.925781 465.910156 C 448.445312 464.84375 454.726562 463.828125 461.375 462.757812 C 491.242188 457.941406 532.148438 451.347656 564.042969 429.816406 C 592.082031 410.890625 606.6875 404.867188 614.5 409.011719 C 618.683594 411.234375 620.710938 416.425781 620.710938 424.882812 C 620.710938 448.679688 597.621094 479.261719 568.144531 494.511719 C 557.671875 499.925781 544.835938 504.585938 532.417969 509.082031 C 513.550781 515.921875 494.039062 522.996094 496.175781 529.394531 C 499.511719 539.414062 571.269531 553.625 608.945312 559.003906 C 621.460938 560.796875 685.441406 570.289062 716.019531 581.609375 C 741.523438 591.054688 755.527344 600.464844 758.824219 610.371094 C 760.273438 614.734375 759.585938 619.144531 756.769531 623.492188 C 748.253906 636.636719 728.007812 634.117188 708.441406 631.691406 C 702.253906 630.925781 695.855469 630.132812 690.09375 629.890625 C 677.75 629.375 653.152344 625.921875 631.453125 622.871094 C 612.40625 620.199219 594.457031 617.652344 591.304688 618.117188 C 590.5 618.230469 589.136719 618.546875 589.058594 619.394531 C 588.90625 621.09375 592.371094 624.683594 598.363281 626.675781 C 600.148438 627.269531 609.035156 628.378906 620.285156 629.777344 C 668.347656 635.757812 757.820312 646.886719 761.828125 667.734375 C 763.238281 675.054688 761.5625 681.226562 756.855469 686.082031 C 745.28125 698 718.859375 698.625 699.753906 695.542969 C 691.128906 694.152344 677.960938 691.535156 664.019531 688.769531 C 635.34375 683.074219 587.371094 673.5625 584.363281 677.152344 C 585.648438 681.195312 628.097656 691.671875 656.1875 698.597656 C 672.042969 702.511719 687.023438 706.207031 696.34375 709.003906 C 701.960938 710.691406 707.453125 712.113281 712.765625 713.480469 C 729.261719 717.746094 742.300781 721.113281 746.300781 729.03125 C 748.003906 732.398438 747.929688 736.285156 746.082031 740.910156 C 737.703125 761.855469 700.417969 754.085938 678.136719 749.449219 C 660.457031 745.765625 606.703125 734.753906 581.574219 729.613281 C 603.476562 738.226562 647.820312 756.0625 663.757812 765.476562 C 677.796875 773.777344 686.070312 783.632812 686.457031 792.519531 C 686.679688 797.78125 684.113281 802.480469 679.03125 806.113281 C 676.507812 807.914062 672.792969 808.691406 668.21875 808.691406 Z M 406.914062 750.109375 C 427.613281 750.109375 563.578125 775.484375 585.621094 782.535156 C 590.648438 784.144531 597.070312 786.453125 603.871094 788.898438 C 629.132812 797.984375 667.308594 811.691406 677.726562 804.261719 C 682.210938 801.054688 684.386719 797.140625 684.191406 792.628906 C 683.84375 784.527344 675.976562 775.355469 662.613281 767.460938 C 641.382812 754.914062 568.933594 727.144531 568.207031 726.863281 C 567.648438 726.652344 567.347656 726.046875 567.511719 725.476562 C 567.675781 724.902344 568.261719 724.554688 568.839844 724.675781 C 569.703125 724.851562 655.363281 742.371094 678.625 747.21875 C 700.207031 751.714844 736.320312 759.238281 743.980469 740.074219 C 745.570312 736.089844 745.671875 732.816406 744.285156 730.074219 C 740.742188 723.082031 727.519531 719.667969 712.214844 715.707031 C 706.882812 714.328125 701.367188 712.902344 695.703125 711.207031 C 686.441406 708.429688 671.492188 704.738281 655.660156 700.835938 C 613.328125 690.390625 585.367188 683.167969 582.480469 678.183594 C 582.070312 677.46875 582.117188 676.863281 582.226562 676.472656 C 583.675781 671.371094 607.660156 675.257812 664.492188 686.539062 C 678.410156 689.304688 691.554688 691.917969 700.148438 693.300781 C 718.714844 696.292969 744.292969 695.78125 755.242188 684.507812 C 759.398438 680.21875 760.871094 674.726562 759.613281 668.183594 C 755.917969 648.96875 660.691406 637.121094 620.03125 632.0625 C 607.769531 630.539062 599.667969 629.527344 597.667969 628.863281 C 591.277344 626.734375 586.507812 622.492188 586.808594 619.203125 C 586.902344 618.167969 587.570312 616.355469 591.007812 615.863281 C 594.265625 615.390625 608.640625 617.367188 631.796875 620.617188 C 653.445312 623.65625 677.984375 627.109375 690.214844 627.617188 C 696.074219 627.863281 702.519531 628.664062 708.753906 629.4375 C 727.625 631.78125 747.148438 634.199219 754.875 622.261719 C 757.328125 618.480469 757.914062 614.832031 756.675781 611.113281 C 753.660156 602.03125 739.722656 592.832031 715.253906 583.769531 C 684.894531 572.527344 621.121094 563.066406 608.648438 561.285156 C 607.558594 561.128906 498.980469 544.980469 494.03125 530.128906 C 491.195312 521.617188 509.058594 515.144531 531.667969 506.941406 C 544.011719 502.464844 556.78125 497.835938 567.125 492.484375 C 595.421875 477.847656 618.449219 447.523438 618.449219 424.894531 C 618.449219 417.363281 616.8125 412.832031 613.449219 411.039062 C 606.6875 407.464844 591.863281 413.820312 565.34375 431.722656 C 533.023438 453.535156 491.835938 460.175781 461.761719 465.019531 C 455.132812 466.09375 448.863281 467.097656 443.382812 468.164062 C 424.742188 471.769531 402.496094 487.996094 380.976562 503.683594 C 367.980469 513.164062 355.691406 522.125 344.910156 527.734375 C 292.957031 592.488281 114.179688 588.242188 99.96875 587.796875 C 97 597.691406 69.835938 694.414062 112.617188 780.609375 C 163.46875 786.492188 303.238281 765.347656 370.535156 755.179688 C 389.699219 752.28125 402.355469 750.371094 405.847656 750.152344 C 406.164062 750.132812 406.523438 750.121094 406.929688 750.121094 Z M 406.914062 750.109375 " fill-opacity="1" fill-rule="nonzero"/><path fill="#fcc390" d="M 193.316406 190.117188 L 193.292969 190.179688 L 237.8125 259.625 C 262.769531 258.703125 261.960938 269.410156 287.929688 262.445312 C 313.894531 255.488281 316.472656 247.460938 311.949219 234.511719 C 307.433594 221.570312 303.484375 220.535156 289.363281 214.878906 C 275.246094 209.226562 271.386719 198.726562 256.027344 200.21875 C 240.78125 201.703125 214.238281 201.550781 193.316406 190.117188 Z M 193.316406 190.117188 " fill-opacity="1" fill-rule="nonzero"/><path fill="#000000" d="M 272.734375 265.964844 C 267.457031 265.964844 263.65625 264.851562 259.535156 263.648438 C 254.308594 262.117188 248.433594 260.375 237.847656 260.769531 L 237.804688 260.769531 C 237.414062 260.769531 237.050781 260.574219 236.835938 260.246094 L 192.324219 190.800781 C 192.121094 190.488281 192.085938 190.101562 192.21875 189.757812 C 192.339844 189.453125 192.601562 189.1875 192.90625 189.078125 C 193.222656 188.96875 193.566406 188.964844 193.859375 189.121094 C 216.296875 201.378906 244.726562 200.183594 255.910156 199.089844 C 265.941406 198.121094 271.433594 202.144531 277.269531 206.40625 C 280.867188 209.035156 284.59375 211.746094 289.78125 213.828125 L 291.675781 214.585938 C 304.292969 219.613281 308.539062 221.308594 313.027344 234.148438 C 315.414062 240.992188 315.519531 245.636719 313.375 249.6875 C 310.332031 255.4375 302.578125 259.714844 288.214844 263.566406 C 281.652344 265.324219 276.761719 265.972656 272.722656 265.972656 Z M 240.792969 258.421875 C 249.832031 258.421875 255.300781 260.019531 260.175781 261.445312 C 267.117188 263.476562 273.113281 265.230469 287.632812 261.335938 C 301.136719 257.722656 308.675781 253.671875 311.359375 248.605469 C 313.175781 245.175781 313.027344 241.074219 310.867188 234.886719 C 306.734375 223.039062 303.367188 221.695312 290.832031 216.699219 L 288.933594 215.941406 C 283.480469 213.753906 279.46875 210.828125 275.929688 208.242188 C 269.976562 203.902344 265.316406 200.464844 256.132812 201.351562 C 245.339844 202.40625 218.753906 203.550781 196.449219 192.992188 L 238.410156 258.453125 C 239.230469 258.429688 240.027344 258.417969 240.789062 258.417969 Z M 240.792969 258.421875 " fill-opacity="1" fill-rule="nonzero"/><path fill="#ffffff" d="M 389.242188 493.5 C 389.242188 493.5 444.132812 617.003906 429.429688 626.800781 C 414.730469 636.605469 359.839844 682.667969 360.816406 669.929688 C 361.796875 657.191406 317.6875 536.628906 321.613281 533.6875 C 325.53125 530.75 365.71875 496.441406 389.246094 493.5 Z M 389.242188 493.5 " fill-opacity="1" fill-rule="nonzero"/><path fill="#000000" d="M 362.625 673.253906 C 362 673.253906 361.472656 673.140625 361.046875 672.910156 C 360.339844 672.527344 359.53125 671.6875 359.671875 669.847656 C 360.152344 663.628906 348.726562 628.414062 338.644531 597.34375 C 321.742188 545.253906 318.765625 534.390625 320.921875 532.773438 C 321.328125 532.464844 322.128906 531.820312 323.261719 530.90625 C 352.761719 507.109375 374.910156 494.140625 389.089844 492.367188 C 389.605469 492.308594 390.074219 492.578125 390.28125 493.039062 C 395.9375 505.769531 445.125 617.710938 430.058594 627.757812 C 426.3125 630.25 419.90625 635.148438 412.480469 640.820312 C 387.832031 659.648438 369.445312 673.253906 362.625 673.253906 Z M 322.503906 534.4375 C 321.894531 538.285156 331.941406 569.257812 340.824219 596.628906 C 351.46875 629.429688 362.46875 663.34375 361.957031 670.019531 C 361.941406 670.242188 361.925781 670.777344 362.144531 670.898438 C 366.335938 673.15625 395.449219 650.953125 411.097656 639 C 418.554688 633.304688 424.992188 628.382812 428.789062 625.847656 C 438.933594 619.089844 410.40625 544.054688 388.542969 494.75 C 374.753906 496.867188 353.28125 509.621094 324.703125 532.679688 C 323.710938 533.480469 322.960938 534.085938 322.503906 534.4375 Z M 322.503906 534.4375 " fill-opacity="1" fill-rule="nonzero"/><path fill="#ffffff" d="M 503.671875 541.035156 L 368.65625 656.207031 L 382.378906 750.304688 C 382.378906 750.304688 450.988281 760.105469 451.96875 756.183594 C 452.945312 752.265625 503.671875 541.035156 503.671875 541.035156 Z M 503.671875 541.035156 " fill-opacity="1" fill-rule="nonzero"/><path fill="#000000" d="M 446.273438 758.238281 C 441.242188 758.238281 432.382812 757.628906 416.675781 755.851562 C 399.585938 753.910156 382.386719 751.457031 382.214844 751.4375 C 381.710938 751.363281 381.320312 750.96875 381.242188 750.46875 L 367.519531 656.375 C 367.464844 655.984375 367.613281 655.59375 367.910156 655.339844 L 502.921875 540.171875 C 503.304688 539.851562 503.839844 539.8125 504.265625 540.0625 C 504.6875 540.324219 504.894531 540.824219 504.78125 541.308594 C 504.273438 543.421875 454.042969 752.585938 453.070312 756.464844 C 452.875 757.269531 452.625 758.242188 446.265625 758.242188 Z M 383.386719 749.292969 C 413.757812 753.613281 447.15625 757.238281 450.933594 755.617188 C 453.085938 746.789062 495.28125 571.074219 501.742188 544.191406 L 369.882812 656.664062 L 383.386719 749.289062 Z M 383.386719 749.292969 " fill-opacity="1" fill-rule="nonzero"/><path fill="#f7f4ef" d="M 508.871094 756.707031 C 497.6875 754.789062 485.886719 752.585938 477.359375 745.105469 C 468.136719 737.011719 464.535156 724.128906 464.125 711.863281 C 463.25 685.628906 474.675781 660.785156 484.933594 636.625 C 495.191406 612.464844 504.6875 586.292969 499.761719 560.515625 C 478.554688 597.671875 457.347656 634.820312 436.144531 671.976562 C 432.921875 677.617188 429.597656 683.386719 424.605469 687.554688 C 412.378906 697.761719 400.847656 690.105469 399.871094 675.644531 C 399.410156 668.710938 400.089844 661.203125 396.292969 655.378906 C 394.601562 652.789062 391.683594 650.628906 388.621094 651.101562 C 384.640625 651.722656 382.644531 656.140625 381.335938 659.949219 C 377.175781 672.09375 372.957031 684.546875 373.207031 697.378906 C 373.480469 711.191406 380.160156 719.632812 387.863281 730.191406 C 396.027344 741.382812 407.757812 744.605469 420.925781 747.332031 C 455.773438 754.542969 490.621094 761.761719 525.464844 768.972656 C 529.082031 769.722656 562.886719 775.824219 552.980469 764.414062 C 550.417969 761.464844 535.328125 761.242188 531.402344 760.570312 C 523.890625 759.28125 516.375 757.996094 508.863281 756.703125 Z M 508.871094 756.707031 " fill-opacity="1" fill-rule="nonzero"/><path fill="#ffffff" d="M 231.773438 225.878906 C 231.773438 225.878906 129.195312 217.5625 111.175781 242.515625 C 93.15625 267.46875 105.632812 299.347656 111.175781 329.847656 C 116.722656 360.339844 100.085938 451.828125 119.492188 505.890625 C 138.898438 559.953125 120.542969 778.785156 134.402344 794.03125 C 148.261719 809.277344 201.75 799.167969 242.285156 793.59375 C 278.332031 788.640625 344.457031 773.121094 373.566406 773.121094 C 402.675781 773.121094 404.0625 745.394531 398.519531 702.429688 C 392.976562 659.453125 359.296875 544.699219 353.757812 496.183594 C 348.214844 447.671875 346.824219 321.53125 334.351562 292.421875 C 321.878906 263.308594 287.222656 232.816406 231.773438 225.882812 Z M 231.773438 225.878906 " fill-opacity="1" fill-rule="nonzero"/><path fill="#000000" d="M 165.785156 803.195312 C 151.03125 803.195312 139.222656 801.023438 133.558594 794.796875 C 127.25 787.859375 127.246094 747 127.765625 680.910156 C 128.296875 612.734375 128.898438 535.464844 118.417969 506.269531 C 105.9375 471.484375 108.25 421.828125 110.109375 381.929688 C 111.140625 359.917969 112.023438 340.910156 110.050781 330.042969 C 109.023438 324.386719 107.730469 318.578125 106.480469 312.964844 C 100.972656 288.183594 95.277344 262.5625 110.25 241.839844 C 128.441406 216.652344 227.65625 224.390625 231.863281 224.734375 C 231.878906 224.734375 231.898438 224.734375 231.914062 224.734375 C 290.09375 232.003906 323.515625 264.226562 335.402344 291.957031 C 343.730469 311.371094 347.105469 372.667969 350.09375 426.742188 C 351.59375 453.929688 353.011719 479.617188 354.890625 496.039062 C 357.820312 521.683594 368.597656 565.730469 379.015625 608.324219 C 388.285156 646.214844 397.042969 682.007812 399.652344 702.265625 C 403.550781 732.464844 404.09375 754.910156 394.058594 766.320312 C 389.367188 771.652344 382.667969 774.25 373.566406 774.25 C 355.183594 774.25 322.394531 780.390625 290.6875 786.335938 C 272.648438 789.710938 255.617188 792.902344 242.441406 794.710938 C 237.613281 795.375 232.601562 796.105469 227.503906 796.847656 C 206.484375 799.902344 183.914062 803.179688 165.785156 803.179688 Z M 194.574219 225.71875 C 163.503906 225.71875 122.613281 228.632812 112.097656 243.183594 C 97.734375 263.070312 103.070312 287.066406 108.714844 312.46875 C 109.96875 318.105469 111.265625 323.933594 112.292969 329.632812 C 114.320312 340.753906 113.429688 359.882812 112.394531 382.035156 C 110.542969 421.730469 108.234375 471.132812 120.570312 505.496094 C 131.183594 535.066406 130.582031 612.558594 130.046875 680.925781 C 129.617188 735.285156 129.222656 786.625 135.25 793.25 C 147.050781 806.234375 189.601562 800.046875 227.167969 794.585938 C 232.277344 793.84375 237.296875 793.113281 242.125 792.449219 C 255.242188 790.644531 272.253906 787.457031 290.261719 784.085938 C 322.070312 778.128906 354.964844 771.964844 373.5625 771.964844 C 381.960938 771.964844 388.101562 769.625 392.332031 764.8125 C 402.355469 753.410156 400.679688 728.15625 397.378906 702.5625 C 394.785156 682.429688 386.042969 646.695312 376.789062 608.863281 C 366.351562 566.203125 355.5625 522.089844 352.613281 496.300781 C 350.726562 479.808594 349.308594 454.09375 347.804688 426.867188 C 344.832031 372.980469 341.460938 311.898438 333.296875 292.851562 C 321.664062 265.707031 288.855469 234.164062 231.65625 227.003906 C 230.859375 226.941406 214.792969 225.703125 194.574219 225.703125 Z M 194.574219 225.71875 " fill-opacity="1" fill-rule="nonzero"/><path fill="#f7f4ef" d="M 165.617188 797.492188 C 151.09375 797.492188 141.726562 795.289062 137.78125 790.957031 C 133.308594 785.46875 133.234375 738.148438 133.25 720.445312 C 133.84375 719.605469 134.4375 718.773438 135.03125 717.945312 C 135.828125 722.5625 137.210938 727.222656 139.792969 731.414062 C 143.921875 738.195312 151.59375 742.769531 158.867188 742.769531 C 161.535156 742.769531 164.058594 742.179688 166.371094 741.023438 C 172.535156 738.03125 175.832031 731.792969 178.242188 726.085938 C 199.261719 676.605469 196.167969 621.71875 193.183594 568.636719 C 190.960938 529.171875 188.675781 488.582031 196.382812 450.351562 C 205.34375 522.695312 211.085938 596.003906 213.46875 668.628906 C 213.894531 681.664062 214.332031 695.058594 219.703125 707.371094 C 224.929688 719.398438 237.015625 731.53125 252.230469 731.53125 C 264.546875 731.433594 276.511719 723.269531 282.921875 710.738281 C 288.875 698.941406 289.394531 685.75 289.1875 675.570312 C 288.484375 640.789062 278.011719 607.105469 267.882812 574.527344 C 264.589844 563.933594 261.179688 552.984375 258.183594 542.203125 C 242.972656 487.328125 243.722656 444.9375 260.488281 412.617188 C 261.179688 411.289062 261.910156 409.964844 262.636719 408.632812 C 266.144531 402.210938 269.777344 395.570312 270.5 387.785156 C 271.082031 381.523438 268.972656 374.78125 264.988281 370.191406 C 261.816406 366.53125 257.777344 364.480469 253.3125 364.265625 C 253.042969 364.25 252.75 364.242188 252.464844 364.242188 C 243.535156 364.242188 237 371.496094 232.675781 376.292969 C 219.859375 390.578125 199.941406 410.074219 175.011719 414.523438 C 172.246094 415.015625 169.375 415.269531 166.464844 415.269531 C 148.195312 415.269531 126.617188 404.734375 122.597656 385.210938 C 120.453125 374.738281 123.613281 362.359375 131.261719 351.253906 C 138.53125 340.707031 148.585938 332.246094 158.308594 324.0625 C 178.332031 307.164062 199.027344 289.691406 223.988281 281.292969 C 232.996094 278.246094 243.191406 276.5625 252.703125 276.5625 C 261.929688 276.5625 275.027344 278.144531 285.019531 285.6875 C 296.710938 294.46875 294.539062 306.074219 289.566406 324.136719 C 289.121094 325.769531 288.671875 327.394531 288.246094 329.007812 C 274.550781 381.457031 263.746094 437.535156 277.339844 492.289062 C 280.179688 503.789062 284.121094 515.113281 287.929688 526.058594 C 293.175781 541.152344 298.601562 556.757812 301 572.582031 C 303.113281 586.566406 302.929688 601.175781 302.757812 615.300781 C 302.609375 627.726562 302.453125 640.574219 303.8125 653.234375 C 307.394531 687.191406 323.464844 713.203125 346.789062 722.820312 C 352.902344 725.335938 359.417969 726.71875 365.714844 728.054688 C 375.726562 730.191406 385.183594 732.199219 391.925781 738.386719 C 393.570312 739.910156 394.992188 741.667969 396.152344 743.621094 C 394.566406 761.308594 387.949219 768.550781 373.558594 768.550781 C 354.667969 768.550781 321.664062 774.730469 289.75 780.703125 C 271.746094 784.070312 254.734375 787.253906 241.667969 789.050781 C 236.828125 789.714844 231.804688 790.445312 226.683594 791.1875 C 205.371094 794.289062 183.332031 797.496094 165.617188 797.496094 Z M 165.617188 797.492188 " fill-opacity="1" fill-rule="nonzero"/><path fill="#000000" d="M 206.953125 719.554688 C 206.890625 719.554688 206.832031 719.554688 206.765625 719.539062 C 206.140625 719.433594 205.722656 718.847656 205.824219 718.222656 C 214.273438 667.457031 213.101562 614.269531 202.449219 564.414062 C 201.304688 559.078125 200.0625 553.78125 198.8125 548.484375 C 195.929688 536.25 192.949219 523.597656 191.398438 510.617188 C 188.847656 489.125 191.050781 469.738281 197.597656 456.027344 C 197.871094 455.457031 198.5625 455.214844 199.121094 455.488281 C 199.6875 455.757812 199.933594 456.445312 199.660156 457.011719 C 193.296875 470.339844 191.167969 489.28125 193.675781 510.34375 C 195.207031 523.199219 198.171875 535.785156 201.039062 547.957031 C 202.292969 553.269531 203.542969 558.578125 204.6875 563.933594 C 215.410156 614.066406 216.578125 667.550781 208.082031 718.597656 C 207.988281 719.152344 207.503906 719.554688 206.953125 719.554688 Z M 206.953125 719.554688 " fill-opacity="1" fill-rule="nonzero"/><path fill="#000000" d="M 304.832031 663.082031 C 304.789062 663.082031 304.742188 663.082031 304.699219 663.078125 C 304.074219 663.003906 303.625 662.4375 303.695312 661.808594 C 308.773438 617.898438 298.816406 573.492188 289.175781 530.546875 C 287.554688 523.328125 285.941406 516.121094 284.394531 508.925781 C 273.992188 460.488281 266.042969 404.371094 285.925781 355.40625 C 286.164062 354.824219 286.824219 354.539062 287.417969 354.777344 C 288 355.011719 288.28125 355.683594 288.046875 356.265625 C 268.394531 404.65625 276.304688 460.347656 286.632812 508.445312 C 288.179688 515.632812 289.792969 522.835938 291.410156 530.046875 C 301.082031 573.175781 311.089844 617.777344 305.976562 662.074219 C 305.902344 662.65625 305.414062 663.082031 304.835938 663.082031 Z M 304.832031 663.082031 " fill-opacity="1" fill-rule="nonzero"/><path fill="#fcc390" d="M 118.667969 185.246094 C 116.457031 186.53125 115.101562 187.351562 115.101562 187.351562 C 105.316406 194.753906 90.179688 199.984375 81.171875 212.785156 C 72.164062 225.585938 74.21875 237.269531 67.46875 249.9375 C 60.71875 262.601562 50.921875 281.128906 47.464844 299.492188 C 44.011719 317.855469 44.828125 350.714844 60.480469 365.652344 C 76.132812 380.589844 98.753906 375.132812 116.015625 382.707031 C 133.277344 390.28125 165.769531 401.929688 176.394531 401.054688 C 187.023438 400.179688 198.492188 390.632812 201.945312 372.265625 C 221.082031 377.007812 240.921875 366.726562 244.730469 342.886719 C 261.390625 340.285156 280.324219 326.425781 275.402344 304.710938 C 292.957031 305.691406 313.160156 294.023438 295.488281 260.371094 L 234.515625 204.8125 L 234.527344 204.746094 C 234.359375 204.703125 234.195312 204.679688 234.027344 204.636719 C 173.183594 163.179688 159.550781 166.949219 148.179688 170.59375 C 139.652344 173.324219 125.308594 181.386719 118.667969 185.246094 Z M 118.667969 185.246094 " fill-opacity="1" fill-rule="nonzero"/><path fill="#000000" d="M 175.214844 402.25 C 162.84375 402.25 130.691406 390.402344 115.5625 383.757812 C 108.949219 380.855469 101.613281 379.921875 93.851562 378.929688 C 81.867188 377.402344 69.484375 375.820312 59.699219 366.480469 C 43.527344 351.050781 42.855469 317.839844 46.347656 299.285156 C 49.859375 280.582031 59.851562 261.816406 66.460938 249.398438 C 69.375 243.929688 70.636719 238.507812 71.863281 233.269531 C 73.449219 226.476562 75.082031 219.457031 80.234375 212.128906 C 86.484375 203.242188 95.679688 197.886719 103.792969 193.164062 C 107.660156 190.910156 111.304688 188.78125 114.402344 186.4375 C 114.507812 186.371094 115.863281 185.554688 118.09375 184.257812 C 125.566406 179.914062 139.359375 172.210938 147.828125 169.5 C 158.925781 165.957031 172.722656 161.511719 234.484375 203.574219 L 234.796875 203.644531 C 235.109375 203.722656 235.359375 203.925781 235.515625 204.183594 L 296.261719 259.527344 C 296.359375 259.621094 296.4375 259.722656 296.5 259.84375 C 306.34375 278.589844 303.917969 289.507812 300.148438 295.359375 C 295.847656 302.050781 287.492188 305.917969 277.53125 305.917969 C 277.292969 305.917969 277.046875 305.917969 276.808594 305.914062 C 278.222656 313.730469 276.703125 321.191406 272.371094 327.570312 C 266.8125 335.757812 256.652344 341.960938 245.714844 343.886719 C 243.78125 354.839844 238.445312 363.476562 230.25 368.898438 C 222.484375 374.035156 212.550781 375.742188 202.820312 373.652344 C 198.921875 392.1875 186.875 401.347656 176.480469 402.199219 C 176.082031 402.230469 175.65625 402.246094 175.203125 402.246094 Z M 159.484375 169.640625 C 154.886719 169.640625 151.597656 170.691406 148.535156 171.679688 C 139.980469 174.417969 125.207031 182.769531 119.246094 186.238281 C 117.046875 187.523438 115.691406 188.332031 115.6875 188.332031 C 112.582031 190.691406 108.871094 192.851562 104.945312 195.140625 C 97.039062 199.746094 88.070312 204.96875 82.109375 213.445312 C 77.214844 220.40625 75.695312 226.902344 74.089844 233.789062 C 72.835938 239.175781 71.535156 244.742188 68.484375 250.476562 C 61.9375 262.769531 52.046875 281.347656 48.59375 299.707031 C 45.328125 317.085938 45.878906 350.128906 61.277344 364.824219 C 70.523438 373.644531 82.527344 375.179688 94.140625 376.660156 C 101.722656 377.628906 109.5625 378.625 116.480469 381.660156 C 135.125 389.84375 166.316406 400.757812 176.308594 399.914062 C 186.054688 399.117188 197.414062 390.1875 200.820312 372.054688 C 200.878906 371.742188 201.0625 371.472656 201.328125 371.300781 C 201.597656 371.128906 201.910156 371.074219 202.222656 371.152344 C 211.847656 373.53125 221.347656 372.046875 229 366.984375 C 236.847656 361.785156 241.902344 353.394531 243.613281 342.703125 C 243.691406 342.214844 244.074219 341.832031 244.566406 341.753906 C 255.207031 340.09375 265.144531 334.164062 270.496094 326.277344 C 274.789062 319.953125 276.0625 312.78125 274.289062 304.960938 C 274.210938 304.613281 274.300781 304.242188 274.535156 303.96875 C 274.769531 303.695312 275.074219 303.515625 275.476562 303.566406 C 283.261719 303.96875 293.335938 301.746094 298.238281 294.117188 C 303.144531 286.484375 301.878906 275.058594 294.578125 261.078125 L 233.757812 205.746094 C 233.632812 205.714844 233.503906 205.65625 233.394531 205.578125 C 190.019531 176.035156 170.796875 169.640625 159.484375 169.640625 Z M 118.667969 185.246094 L 118.699219 185.246094 Z M 118.667969 185.246094 " fill-opacity="1" fill-rule="nonzero"/><path fill="#000000" d="M 276.996094 304.652344 C 276.839844 304.652344 276.679688 304.621094 276.53125 304.554688 C 269.300781 301.351562 250.144531 285.003906 236.152344 273.066406 C 232.695312 270.121094 229.660156 267.535156 227.371094 265.628906 C 223.949219 262.777344 217.421875 258.257812 209.164062 252.527344 C 190.394531 239.511719 164.6875 221.683594 147.203125 204.304688 C 146.753906 203.863281 146.753906 203.132812 147.203125 202.6875 C 147.648438 202.238281 148.378906 202.234375 148.824219 202.6875 C 166.171875 219.921875 191.777344 237.679688 210.476562 250.648438 C 218.785156 256.410156 225.34375 260.957031 228.84375 263.878906 C 231.132812 265.78125 234.179688 268.378906 237.640625 271.328125 C 250.742188 282.5 270.53125 299.394531 277.457031 302.46875 C 278.035156 302.722656 278.296875 303.398438 278.042969 303.976562 C 277.847656 304.40625 277.433594 304.652344 276.996094 304.652344 Z M 276.996094 304.652344 " fill-opacity="1" fill-rule="nonzero"/><path fill="#000000" d="M 245.210938 342.851562 C 245.132812 342.851562 245.058594 342.84375 244.980469 342.828125 C 239.027344 341.613281 219.363281 330.507812 203.566406 321.582031 C 196.597656 317.648438 190.582031 314.25 187.667969 312.8125 L 184.722656 311.378906 C 169.457031 304 123.03125 281.527344 99.039062 258.59375 C 98.589844 258.164062 98.566406 257.433594 99.003906 256.976562 C 99.453125 256.519531 100.171875 256.503906 100.628906 256.941406 C 124.351562 279.617188 170.542969 301.96875 185.71875 309.3125 L 188.6875 310.753906 C 191.652344 312.21875 197.695312 315.628906 204.6875 319.578125 C 219.53125 327.957031 239.84375 339.425781 245.441406 340.574219 C 246.058594 340.699219 246.453125 341.308594 246.335938 341.925781 C 246.226562 342.464844 245.746094 342.839844 245.210938 342.839844 Z M 245.210938 342.851562 " fill-opacity="1" fill-rule="nonzero"/><path fill="#000000" d="M 202.003906 372.757812 C 201.882812 372.757812 201.753906 372.734375 201.628906 372.695312 C 201.238281 372.558594 162.105469 358.972656 150.367188 354.277344 C 139.972656 350.121094 76.015625 321.925781 72.558594 317.535156 C 72.167969 317.039062 72.25 316.320312 72.75 315.925781 C 73.25 315.535156 73.972656 315.625 74.359375 316.117188 C 77.117188 319.625 137.398438 346.621094 151.222656 352.148438 C 162.90625 356.824219 201.988281 370.390625 202.382812 370.527344 C 202.976562 370.738281 203.292969 371.386719 203.089844 371.984375 C 202.925781 372.460938 202.480469 372.75 202.007812 372.75 Z M 202.003906 372.757812 " fill-opacity="1" fill-rule="nonzero"/><path fill="#ffffff" d="M 152.449219 367.558594 C 148.976562 379.484375 155.355469 384.070312 161.457031 386.75 C 167.558594 389.429688 172.945312 390.867188 172.945312 390.867188 C 172.945312 390.867188 184.199219 380.234375 184.382812 369.789062 C 169.550781 363.46875 157.488281 360.511719 152.449219 367.558594 Z M 152.449219 367.558594 " fill-opacity="1" fill-rule="nonzero"/><path fill="#ffffff" d="M 189.78125 336.085938 C 186.226562 349.296875 194.074219 354.277344 199.597656 358.117188 C 205.125 361.957031 217.546875 365.535156 217.546875 365.535156 C 217.546875 365.535156 233.828125 355.71875 233.558594 343.058594 C 212.042969 332.328125 197.472656 325.027344 189.773438 336.085938 Z M 189.78125 336.085938 " fill-opacity="1" fill-rule="nonzero"/><path fill="#ffffff" d="M 228.609375 302.917969 C 225.273438 314.355469 235.730469 328.160156 245.355469 333.351562 C 263.320312 332.90625 271.925781 315.53125 270.835938 307.894531 C 249.960938 291.832031 235.808594 288.839844 228.617188 302.917969 Z M 228.609375 302.917969 " fill-opacity="1" fill-rule="nonzero"/><path fill="#ffffff" d="M 260.191406 269.382812 C 258.8125 281.339844 259.984375 284.800781 267.207031 290.140625 C 274.429688 295.480469 283.875 300.359375 283.875 300.359375 C 283.875 300.359375 303.320312 292.441406 297.117188 274.523438 C 273.726562 261.984375 265.984375 261.488281 260.1875 269.382812 Z M 260.191406 269.382812 " fill-opacity="1" fill-rule="nonzero"/><path fill="#ffffff" d="M 602.929688 556.246094 L 563.714844 779.714844 L 424.527344 757.15625 L 427.457031 748.691406 L 482.316406 591.019531 L 501.945312 534.652344 Z M 602.929688 556.246094 " fill-opacity="1" fill-rule="nonzero"/><path fill="#f7f4ef" d="M 525.464844 768.964844 C 492.84375 762.242188 460.128906 755.464844 427.457031 748.695312 L 482.316406 591.023438 C 488.128906 580.867188 493.9375 570.664062 499.75 560.503906 C 504.691406 586.308594 495.175781 612.480469 484.925781 636.640625 C 474.671875 660.796875 463.234375 685.644531 464.101562 711.863281 C 464.515625 724.121094 468.132812 737.027344 477.375 745.125 C 485.882812 752.582031 497.6875 754.777344 508.851562 756.703125 C 516.402344 757.984375 523.90625 759.3125 531.410156 760.589844 C 535.34375 761.230469 550.445312 761.460938 552.957031 764.4375 C 562.886719 775.828125 529.074219 769.746094 525.460938 768.964844 Z M 525.464844 768.964844 " fill-opacity="1" fill-rule="nonzero"/><path fill="#000000" d="M 563.710938 780.855469 C 563.648438 780.855469 563.589844 780.855469 563.527344 780.839844 L 424.347656 758.296875 C 424.011719 758.242188 423.722656 758.046875 423.550781 757.753906 C 423.378906 757.464844 423.34375 757.109375 423.445312 756.792969 L 500.878906 534.292969 C 501.066406 533.75 501.613281 533.410156 502.199219 533.550781 L 603.15625 555.113281 C 603.753906 555.238281 604.148438 555.820312 604.042969 556.429688 L 564.839844 779.90625 C 564.738281 780.460938 564.261719 780.855469 563.710938 780.855469 Z M 426.058594 756.25 L 562.777344 778.398438 L 601.597656 557.117188 L 502.707031 535.996094 Z M 426.058594 756.25 " fill-opacity="1" fill-rule="nonzero"/><path fill="#ffffff" d="M 743.621094 603.769531 C 743.621094 603.769531 731.371094 596.414062 723.527344 602.789062 C 715.6875 609.160156 721.566406 623.371094 726.46875 624.355469 C 731.371094 625.332031 744.109375 626.316406 744.109375 626.316406 C 744.109375 626.316406 758.320312 614.066406 743.621094 603.773438 Z M 743.621094 603.769531 " fill-opacity="1" fill-rule="nonzero"/><path fill="#ffffff" d="M 745.578125 663.5625 C 745.578125 663.5625 733.328125 656.207031 725.484375 662.582031 C 717.644531 668.957031 723.523438 683.164062 728.425781 684.148438 C 733.328125 685.125 746.066406 686.109375 746.066406 686.109375 C 746.066406 686.109375 760.277344 673.859375 745.578125 663.566406 Z M 745.578125 663.5625 " fill-opacity="1" fill-rule="nonzero"/><path fill="#ffffff" d="M 732.347656 725.796875 C 732.347656 725.796875 720.097656 718.445312 712.257812 724.820312 C 704.414062 731.1875 710.296875 745.402344 715.199219 746.382812 C 720.097656 747.363281 732.839844 748.347656 732.839844 748.347656 C 732.839844 748.347656 747.050781 736.097656 732.347656 725.804688 Z M 732.347656 725.796875 " fill-opacity="1" fill-rule="nonzero"/><path fill="#ffffff" d="M 670.449219 779.148438 C 670.449219 779.148438 659.4375 770.039062 650.734375 775.167969 C 642.027344 780.292969 645.710938 795.222656 650.40625 796.929688 C 655.105469 798.628906 667.554688 801.511719 667.554688 801.511719 C 667.554688 801.511719 683.445312 791.53125 670.449219 779.152344 Z M 670.449219 779.148438 " fill-opacity="1" fill-rule="nonzero"/></svg>