<svg xmlns="http://www.w3.org/2000/svg" xmlns:xlink="http://www.w3.org/1999/xlink" width="1080" zoomAndPan="magnify" viewBox="0 0 810 1012.49997" height="1350" preserveAspectRatio="xMidYMid meet" version="1.0"><defs><clipPath id="bafd29c92f"><path d="M 0.199219 0 L 809.800781 0 L 809.800781 1012 L 0.199219 1012 Z M 0.199219 0 " clip-rule="nonzero"/></clipPath><clipPath id="2b1f7256f8"><path d="M 241.632812 414.628906 L 809.800781 414.628906 L 809.800781 1011.316406 L 241.632812 1011.316406 Z M 241.632812 414.628906 " clip-rule="nonzero"/></clipPath><clipPath id="e97ee67941"><path d="M 429 210 L 517 210 L 517 362 L 429 362 Z M 429 210 " clip-rule="nonzero"/></clipPath><clipPath id="cdd5eaf182"><path d="M 491.632812 363.160156 L 405.003906 226.363281 L 447.4375 199.492188 L 534.066406 336.289062 Z M 491.632812 363.160156 " clip-rule="nonzero"/></clipPath><clipPath id="b3e310097a"><path d="M 405.003906 226.363281 L 491.632812 363.160156 L 534.066406 336.289062 L 447.4375 199.492188 Z M 405.003906 226.363281 " clip-rule="nonzero"/></clipPath><clipPath id="6ce19a75a0"><path d="M 405.003906 226.363281 L 491.632812 363.160156 L 534.066406 336.289062 L 447.4375 199.492188 Z M 405.003906 226.363281 " clip-rule="nonzero"/></clipPath><clipPath id="26b3a7ad0c"><path d="M 56 41.761719 L 381.28125 41.761719 L 381.28125 297.386719 L 56 297.386719 Z M 56 41.761719 " clip-rule="nonzero"/></clipPath></defs><g clip-path="url(#bafd29c92f)"><path fill="#ffffff" d="M 0.199219 0 L 809.800781 0 L 809.800781 1012 L 0.199219 1012 Z M 0.199219 0 " fill-opacity="1" fill-rule="nonzero"/><path fill="#f5f6f8" d="M 0.199219 0 L 809.800781 0 L 809.800781 1012 L 0.199219 1012 Z M 0.199219 0 " fill-opacity="1" fill-rule="nonzero"/></g><g clip-path="url(#2b1f7256f8)"><path fill="#ffb593" d="M 260.261719 624.597656 C 268.816406 638.078125 275.429688 651.148438 284.605469 664.0625 C 294.789062 678.382812 304.339844 690.367188 314.816406 704.488281 C 336.503906 733.714844 356.839844 759.847656 383.613281 784.863281 C 405.421875 805.238281 430.785156 822.015625 456.332031 837.171875 C 469.472656 844.972656 484.824219 851.511719 497.332031 859.679688 C 522.484375 876.078125 579.746094 949.554688 630.085938 1011.316406 L 809.839844 1011.316406 L 809.839844 938.996094 C 787.773438 922.105469 769.847656 908.847656 765.132812 906.066406 C 752.179688 898.433594 656.6875 827.851562 644.039062 816.476562 C 614.804688 790.167969 621.191406 775.753906 621.097656 739.027344 C 620.992188 698.148438 606.574219 653.246094 584.957031 618.363281 C 569.652344 593.667969 548.710938 573.277344 532.144531 549.363281 C 524.796875 538.753906 510.214844 506.378906 506.039062 507.246094 C 471.902344 514.328125 519.59375 590.632812 507.175781 617.332031 C 481.386719 580.6875 450.429688 542.089844 421.847656 507.609375 C 404.21875 486.328125 389.320312 470.582031 372.191406 448.789062 C 360.722656 434.199219 351.5625 422.382812 332.5625 418.210938 C 326.472656 439.058594 348.660156 473.445312 356.546875 487.355469 C 370.34375 511.699219 387.632812 542.347656 405.59375 563.5 C 389.894531 555 375.539062 528.589844 363.164062 515.480469 C 348.203125 499.625 337.457031 485.226562 323.582031 468.335938 C 305.019531 445.742188 286.394531 421.640625 256.796875 414.804688 C 254.945312 434.363281 268.796875 449.152344 278.660156 464.855469 C 290.789062 484.152344 303.808594 502.324219 314.847656 522.214844 C 329.542969 548.675781 348.109375 573.726562 364.320312 599.605469 C 350.652344 582.757812 336.171875 568.015625 323.765625 551.617188 C 311.574219 535.484375 298.148438 521.035156 284.378906 506.21875 C 272.59375 493.539062 260.015625 477.683594 243.105469 473.316406 C 233.019531 508.851562 277.320312 552.042969 293.992188 581.21875 C 311.316406 611.527344 322.96875 626.457031 340.648438 656.535156 C 327.671875 660.457031 279.183594 590.414062 249.828125 588.464844 C 249.828125 588.464844 244.769531 600.207031 260.261719 624.597656 " fill-opacity="1" fill-rule="nonzero"/></g><path fill="#cd856b" d="M 508.984375 617.007812 C 509.683594 617.328125 509.988281 618.15625 509.671875 618.855469 C 504.304688 630.539062 501.5625 646.316406 502.5 660.03125 C 503.195312 670.214844 507.175781 694.820312 514.464844 701.625 C 515.023438 702.148438 515.050781 703.027344 514.527344 703.589844 C 514.25 703.882812 513.886719 704.027344 513.507812 704.027344 C 513.171875 704.027344 512.832031 703.90625 512.558594 703.65625 C 503.816406 695.480469 500.210938 667.316406 499.722656 660.21875 C 498.742188 645.859375 501.515625 629.957031 507.144531 617.695312 C 507.460938 616.996094 508.285156 616.691406 508.984375 617.007812 " fill-opacity="1" fill-rule="nonzero"/><path fill="#cd856b" d="M 380.699219 681.425781 C 385.148438 664.09375 391.054688 648.226562 398.761719 632.914062 C 400.113281 630.234375 401.648438 627.523438 403.277344 624.65625 C 407.597656 617.042969 412.0625 609.175781 413.175781 601.398438 C 413.285156 600.644531 413.992188 600.117188 414.75 600.21875 C 415.511719 600.328125 416.039062 601.03125 415.929688 601.792969 C 414.746094 610.089844 410.144531 618.191406 405.695312 626.027344 C 404.085938 628.863281 402.566406 631.542969 401.246094 634.164062 C 393.628906 649.296875 387.792969 664.976562 383.394531 682.113281 C 381.027344 691.34375 376.550781 711.898438 376.550781 723.660156 C 376.550781 724.429688 375.929688 725.050781 375.160156 725.050781 C 374.394531 725.050781 373.769531 724.429688 373.769531 723.660156 C 373.769531 711.617188 378.304688 690.769531 380.699219 681.425781 " fill-opacity="1" fill-rule="nonzero"/><path fill="#cd856b" d="M 422.171875 645.0625 C 422.921875 645.238281 423.382812 645.984375 423.207031 646.738281 C 420.140625 659.707031 414.585938 734.96875 415.65625 739.3125 C 415.835938 740.058594 415.382812 740.808594 414.636719 740.992188 C 414.523438 741.023438 414.410156 741.035156 414.304688 741.035156 C 413.679688 741.035156 413.109375 740.609375 412.957031 739.972656 C 411.753906 735.105469 417.324219 659.535156 420.5 646.097656 C 420.675781 645.351562 421.421875 644.886719 422.171875 645.0625 " fill-opacity="1" fill-rule="nonzero"/><path fill="#f0dcf6" d="M 330.453125 445.453125 C 330.703125 446.25 330.957031 447.058594 331.222656 447.871094 C 331.453125 448.578125 332.769531 452.011719 335.230469 457.578125 C 335.582031 458.375 335.960938 459.214844 336.359375 460.105469 C 337.6875 463.035156 339.277344 466.429688 341.132812 470.214844 C 341.488281 470.953125 341.859375 471.707031 342.242188 472.472656 C 345.398438 478.828125 349.246094 486.1875 353.832031 494.285156 C 354.261719 495.039062 354.699219 495.804688 355.140625 496.574219 C 358.34375 502.183594 361.894531 508.121094 365.785156 514.296875 C 366.519531 515.464844 367.269531 516.644531 368.03125 517.828125 C 373.589844 526.480469 379.800781 535.574219 386.707031 544.882812 C 387.257812 545.621094 387.808594 546.367188 388.367188 547.109375 C 389.984375 549.257812 391.632812 551.421875 393.320312 553.589844 C 393.945312 554.386719 394.570312 555.191406 395.207031 555.996094 C 399.886719 561.933594 404.84375 567.921875 410.085938 573.910156 C 410.085938 573.910156 429.390625 557.484375 450.5625 552.515625 C 452.8125 551.988281 455.121094 551.546875 457.464844 551.203125 C 457.402344 550.949219 457.34375 550.703125 457.28125 550.441406 C 455.191406 542.09375 451.359375 532.292969 446.351562 521.9375 C 445.945312 521.101562 445.535156 520.265625 445.117188 519.421875 C 444.648438 518.484375 444.171875 517.53125 443.683594 516.578125 C 443.199219 515.636719 442.710938 514.699219 442.21875 513.753906 C 437.132812 504.113281 431.21875 494.21875 424.886719 484.71875 C 424.382812 483.960938 423.875 483.214844 423.371094 482.464844 C 417.921875 474.421875 412.195312 466.703125 406.453125 459.691406 C 405.882812 458.996094 405.320312 458.308594 404.746094 457.632812 C 403.421875 456.046875 402.09375 454.492188 400.761719 452.984375 C 400.082031 452.210938 399.394531 451.4375 398.714844 450.6875 C 393.097656 444.492188 387.5625 439.132812 382.34375 434.972656 C 381.339844 434.175781 380.265625 433.339844 379.148438 432.484375 C 378.292969 431.828125 377.40625 431.160156 376.496094 430.484375 C 374.636719 429.117188 372.679688 427.722656 370.648438 426.335938 C 369.917969 425.839844 369.167969 425.335938 368.417969 424.84375 C 354.523438 415.703125 338.238281 408.0625 329.949219 414.769531 C 324.640625 419.0625 325.90625 430.796875 330.453125 445.453125 " fill-opacity="1" fill-rule="nonzero"/><path fill="#ffffff" d="M 331.222656 447.871094 C 338.035156 444.65625 345 441.949219 351.890625 439.664062 C 346.226562 445.230469 340.667969 451.203125 335.230469 457.578125 C 335.582031 458.375 335.960938 459.214844 336.359375 460.105469 C 343.453125 451.753906 350.476562 444.410156 357.371094 437.933594 C 364.875 435.664062 372.234375 433.890625 379.148438 432.484375 C 378.292969 431.828125 377.40625 431.160156 376.496094 430.484375 C 371.335938 431.578125 366.335938 432.792969 361.503906 434.128906 C 364.589844 431.363281 367.636719 428.769531 370.648438 426.335938 C 369.917969 425.839844 369.167969 425.335938 368.417969 424.84375 C 367.835938 425.324219 367.242188 425.804688 366.65625 426.292969 C 363.054688 429.28125 359.496094 432.429688 355.984375 435.730469 C 346.828125 438.519531 338.300781 441.765625 330.453125 445.453125 C 330.703125 446.25 330.957031 447.058594 331.222656 447.871094 Z M 341.132812 470.214844 C 341.488281 470.953125 341.859375 471.707031 342.242188 472.472656 C 356.054688 464.917969 376.121094 456.414062 400.761719 452.984375 C 400.082031 452.210938 399.394531 451.4375 398.714844 450.6875 C 391.324219 451.785156 384.007812 453.378906 376.8125 455.460938 C 364.53125 459 352.539062 463.964844 341.132812 470.214844 Z M 353.832031 494.285156 C 354.261719 495.039062 354.699219 495.804688 355.140625 496.574219 C 371.6875 481.3125 386.242188 471.261719 397.011719 464.902344 C 400.402344 462.898438 403.558594 461.175781 406.453125 459.691406 C 405.882812 458.996094 405.320312 458.308594 404.746094 457.632812 C 401.941406 459.085938 398.890625 460.761719 395.632812 462.695312 C 384.867188 469.074219 370.339844 479.097656 353.832031 494.285156 Z M 365.785156 514.296875 C 366.519531 515.464844 367.269531 516.644531 368.03125 517.828125 C 368.667969 517.351562 369.300781 516.878906 369.945312 516.402344 C 387.824219 514.304688 412.921875 513.183594 443.683594 516.578125 C 443.199219 515.636719 442.710938 514.699219 442.21875 513.753906 C 414.542969 510.847656 391.496094 511.566406 374.226562 513.308594 L 374.300781 513.257812 C 391.390625 501.148438 409.074219 491.21875 424.886719 484.71875 C 424.382812 483.960938 423.875 483.214844 423.371094 482.464844 C 407.496094 489.046875 389.820312 499.003906 372.761719 511.105469 C 371.453125 512.035156 370.15625 512.972656 368.886719 513.902344 C 367.828125 514.03125 366.792969 514.164062 365.785156 514.296875 Z M 386.707031 544.882812 C 387.257812 545.621094 387.808594 546.367188 388.367188 547.109375 C 400.230469 539.472656 411.5 534.03125 420.941406 530.214844 C 430.730469 526.261719 439.484375 523.640625 446.351562 521.9375 C 445.945312 521.101562 445.535156 520.265625 445.117188 519.421875 C 438.207031 521.167969 429.484375 523.800781 419.785156 527.726562 C 408.179688 532.429688 397.089844 538.191406 386.707031 544.882812 Z M 393.320312 553.589844 C 393.945312 554.386719 394.570312 555.191406 395.207031 555.996094 C 419.15625 551.894531 437.296875 551.472656 450.5625 552.515625 C 452.8125 551.988281 455.121094 551.546875 457.464844 551.203125 C 457.402344 550.949219 457.34375 550.703125 457.28125 550.441406 C 456.175781 550.300781 455.039062 550.171875 453.855469 550.054688 C 441.011719 548.753906 421.195312 548.691406 393.320312 553.589844 " fill-opacity="1" fill-rule="nonzero"/><g clip-path="url(#e97ee67941)"><g clip-path="url(#cdd5eaf182)"><g clip-path="url(#b3e310097a)"><g clip-path="url(#6ce19a75a0)"><path fill="#000000" d="M 494.648438 360.90625 L 516.054688 337.191406 C 516.921875 336.238281 516.996094 334.820312 516.34375 333.792969 C 516.207031 333.574219 516.046875 333.375 515.839844 333.207031 C 514.675781 332.164062 512.894531 332.253906 511.84375 333.386719 L 498 348.726562 C 499.582031 341.992188 500.597656 334.945312 501.035156 327.929688 C 502.210938 309.046875 499.242188 290.746094 492.140625 273.515625 C 489.328125 266.648438 486.007812 260.402344 482.429688 254.753906 C 466.050781 228.886719 443.78125 215.464844 433.65625 210.34375 C 432.273438 209.640625 430.554688 210.195312 429.871094 211.597656 C 429.175781 212.980469 429.734375 214.703125 431.136719 215.390625 C 442.90625 221.3125 471.894531 239.066406 486.910156 275.652344 C 499.09375 305.289062 496.058594 332.523438 492.308594 348.238281 L 486.304688 327.9375 C 485.859375 326.441406 484.285156 325.59375 482.777344 326.011719 C 481.285156 326.453125 480.445312 328.027344 480.867188 329.535156 L 489.851562 359.820312 C 490.144531 360.808594 490.941406 361.542969 491.933594 361.789062 C 492.933594 361.992188 493.964844 361.671875 494.648438 360.90625 Z M 494.648438 360.90625 " fill-opacity="1" fill-rule="nonzero"/></g></g></g></g><g clip-path="url(#26b3a7ad0c)"><path fill="#8f8393" d="M 379.367188 238.902344 C 363.183594 236.144531 349.101562 226.699219 336.273438 216.9375 C 333.933594 215.144531 331.59375 213.308594 329.25 211.496094 C 318.40625 203.023438 307.1875 194.257812 294.339844 188.46875 C 291.675781 187.273438 289.007812 186.257812 286.414062 185.257812 C 281.324219 183.597656 276.550781 181.285156 272.09375 178.324219 C 273.945312 177.476562 275.710938 176.480469 277.390625 175.328125 C 279.070312 174.179688 280.640625 172.894531 282.101562 171.476562 C 283.5625 170.058594 284.894531 168.523438 286.089844 166.875 C 287.289062 165.230469 288.335938 163.492188 289.238281 161.667969 C 291.273438 157.40625 292.835938 152.980469 293.921875 148.386719 C 295.011719 143.792969 295.601562 139.132812 295.695312 134.414062 C 297.257812 107.8125 290.726562 82.394531 277.296875 62.828125 C 274.292969 58.375 270.765625 54.382812 266.710938 50.855469 C 262.660156 47.328125 258.222656 44.378906 253.402344 42.015625 C 252.945312 41.800781 252.46875 41.714844 251.96875 41.761719 C 225.441406 44.390625 198.660156 48.089844 172.386719 52.753906 C 167.015625 53.71875 161.664062 54.695312 156.289062 55.695312 L 114.746094 63.394531 C 111.492188 63.996094 108.03125 64.523438 104.695312 65.007812 C 95.042969 66.015625 85.691406 68.265625 76.640625 71.761719 C 65.265625 76.746094 59.585938 84.914062 57.601562 99.050781 C 57.097656 102.660156 56.730469 106.28125 56.5 109.917969 C 56.269531 113.554688 56.175781 117.195312 56.214844 120.839844 C 56.257812 124.484375 56.4375 128.121094 56.75 131.75 C 57.0625 135.382812 57.511719 138.996094 58.097656 142.59375 C 58.679688 146.191406 59.398438 149.761719 60.25 153.304688 C 61.101562 156.847656 62.085938 160.355469 63.199219 163.824219 C 64.3125 167.292969 65.554688 170.71875 66.925781 174.09375 C 68.292969 177.472656 69.789062 180.792969 71.40625 184.054688 C 73.027344 187.320312 74.765625 190.523438 76.625 193.65625 C 78.480469 196.792969 80.453125 199.851562 82.542969 202.839844 C 84.628906 205.828125 86.824219 208.730469 89.128906 211.554688 C 91.433594 214.378906 93.839844 217.109375 96.351562 219.753906 C 98.859375 222.394531 101.464844 224.941406 104.164062 227.390625 C 106.863281 229.835938 109.648438 232.179688 112.523438 234.421875 C 115.402344 236.660156 118.355469 238.789062 121.390625 240.804688 C 124.425781 242.824219 127.53125 244.726562 130.707031 246.511719 C 134.914062 248.871094 139.269531 251.027344 143.496094 253.132812 C 146.402344 254.585938 149.320312 256.039062 152.207031 257.5625 C 159.628906 261.480469 166.957031 265.945312 174.050781 270.261719 L 218.597656 297.378906 C 219.03125 297.644531 219.503906 297.777344 220.011719 297.777344 C 220.175781 297.773438 220.339844 297.761719 220.503906 297.742188 C 242.1875 293.964844 263.421875 288.449219 284.207031 281.203125 C 285.40625 280.769531 286.605469 280.332031 287.820312 279.894531 C 292.101562 278.335938 296.496094 276.738281 300.917969 275.449219 C 304.730469 274.324219 308.703125 273.402344 312.550781 272.511719 C 314.835938 271.96875 317.140625 271.425781 319.425781 270.859375 C 330.304688 268.167969 340.863281 264.554688 351.109375 260.023438 C 361.355469 255.488281 371.132812 250.101562 380.4375 243.859375 C 380.902344 243.550781 381.238281 243.136719 381.445312 242.621094 C 381.652344 242.105469 381.699219 241.574219 381.582031 241.03125 C 381.460938 240.484375 381.199219 240.019531 380.796875 239.632812 C 380.394531 239.242188 379.917969 239 379.367188 238.902344 Z M 379.367188 238.902344 " fill-opacity="1" fill-rule="nonzero"/><path fill="#8f8393" d="M 381.582031 241.015625 C 381.699219 241.558594 381.652344 242.089844 381.445312 242.605469 C 381.238281 243.121094 380.902344 243.535156 380.4375 243.84375 C 371.132812 250.085938 361.355469 255.472656 351.109375 260.007812 C 340.863281 264.539062 330.304688 268.152344 319.425781 270.84375 C 317.140625 271.421875 314.835938 271.949219 312.550781 272.496094 C 308.703125 273.382812 304.730469 274.308594 300.917969 275.433594 C 296.511719 276.722656 292.101562 278.320312 287.820312 279.882812 C 286.605469 280.316406 285.40625 280.75 284.207031 281.1875 C 263.421875 288.433594 242.1875 293.949219 220.503906 297.726562 C 220.339844 297.746094 220.175781 297.757812 220.011719 297.761719 C 219.503906 297.761719 219.03125 297.628906 218.597656 297.363281 L 174.050781 270.246094 C 166.957031 265.929688 159.628906 261.464844 152.207031 257.546875 C 149.320312 256.019531 146.402344 254.5625 143.496094 253.117188 C 139.269531 251.011719 134.914062 248.855469 130.707031 246.496094 C 127.53125 244.710938 124.425781 242.808594 121.390625 240.789062 C 118.355469 238.773438 115.402344 236.644531 112.527344 234.40625 C 109.652344 232.164062 106.867188 229.824219 104.164062 227.375 C 101.464844 224.925781 98.863281 222.382812 96.351562 219.738281 C 93.84375 217.097656 91.4375 214.363281 89.132812 211.542969 C 86.828125 208.71875 84.632812 205.816406 82.546875 202.828125 C 80.457031 199.839844 78.484375 196.78125 76.628906 193.644531 C 74.769531 190.511719 73.03125 187.3125 71.414062 184.046875 C 69.792969 180.78125 68.300781 177.460938 66.929688 174.085938 C 65.558594 170.710938 64.316406 167.285156 63.203125 163.816406 C 62.089844 160.347656 61.105469 156.839844 60.253906 153.296875 C 59.402344 149.753906 58.683594 146.1875 58.101562 142.589844 C 57.515625 138.992188 57.066406 135.378906 56.753906 131.75 C 56.4375 128.117188 56.261719 124.480469 56.21875 120.835938 C 56.175781 117.195312 56.269531 113.554688 56.5 109.917969 C 56.730469 106.28125 57.097656 102.660156 57.601562 99.050781 C 59.578125 84.914062 65.257812 76.75 76.632812 71.761719 C 85.683594 68.265625 95.035156 66.015625 104.683594 65.007812 C 108.023438 64.523438 111.464844 63.996094 114.738281 63.394531 L 156.304688 55.683594 C 161.675781 54.6875 167.027344 53.707031 172.402344 52.746094 C 198.675781 48.082031 225.453125 44.378906 251.984375 41.75 C 252.484375 41.703125 252.960938 41.789062 253.414062 42.003906 C 258.238281 44.371094 262.675781 47.316406 266.726562 50.84375 C 270.777344 54.371094 274.304688 58.363281 277.3125 62.816406 C 290.738281 82.394531 297.273438 107.8125 295.710938 134.402344 C 295.617188 139.125 295.027344 143.78125 293.9375 148.375 C 292.847656 152.96875 291.285156 157.394531 289.25 161.65625 C 288.351562 163.484375 287.300781 165.222656 286.101562 166.871094 C 284.902344 168.519531 283.574219 170.050781 282.113281 171.472656 C 280.648438 172.890625 279.078125 174.179688 277.394531 175.328125 C 275.714844 176.476562 273.945312 177.476562 272.09375 178.324219 C 276.546875 181.285156 281.320312 183.59375 286.40625 185.253906 C 289.003906 186.253906 291.671875 187.269531 294.335938 188.464844 C 307.183594 194.253906 318.394531 203.019531 329.246094 211.492188 C 331.589844 213.308594 333.929688 215.140625 336.269531 216.9375 C 349.097656 226.714844 363.175781 236.152344 379.363281 238.898438 C 379.910156 238.996094 380.386719 239.238281 380.792969 239.621094 C 381.195312 240.007812 381.457031 240.472656 381.582031 241.015625 Z M 365.214844 246.855469 C 367.515625 245.566406 369.785156 244.226562 372.019531 242.828125 C 357.269531 238.730469 344.113281 229.765625 332.972656 221.253906 C 330.613281 219.457031 328.253906 217.609375 325.894531 215.773438 C 315.300781 207.5 304.359375 198.960938 292.109375 193.4375 C 289.585938 192.292969 286.992188 191.296875 284.472656 190.351562 C 277.574219 187.722656 270.445312 185 264.765625 179.140625 C 264.636719 179.003906 264.527344 178.855469 264.441406 178.6875 C 263.003906 179.175781 261.589844 179.722656 260.140625 180.300781 C 259.121094 180.703125 258.089844 181.113281 257.054688 181.480469 C 259.8125 183.058594 261.953125 184.003906 263.421875 184.734375 C 265.59375 185.75 266.382812 186.222656 266.289062 186.53125 C 266.195312 186.835938 265.238281 186.839844 262.878906 186.167969 C 259.875 185.257812 257.027344 184 254.332031 182.394531 C 253.550781 182.628906 252.773438 182.828125 251.972656 182.992188 C 247.996094 183.792969 244.019531 184.605469 240.042969 185.433594 C 243.382812 187.515625 246.925781 189.160156 250.671875 190.363281 C 253.554688 191.308594 254.699219 191.652344 254.640625 191.992188 C 254.605469 192.261719 253.390625 192.464844 250.269531 191.863281 C 245.457031 190.835938 241.046875 188.886719 237.042969 186.027344 C 235.0625 186.441406 233.085938 186.824219 231.125 187.242188 C 228.769531 187.730469 226.410156 188.203125 224.03125 188.675781 C 222.34375 189 220.671875 189.328125 218.988281 189.671875 C 222.816406 191.742188 225.664062 192.902344 227.515625 193.738281 C 229.835938 194.757812 230.710938 195.246094 230.617188 195.554688 C 230.523438 195.859375 229.511719 195.863281 227.007812 195.195312 C 223.042969 194.058594 219.28125 192.449219 215.722656 190.363281 C 215.503906 190.417969 215.285156 190.453125 215.070312 190.511719 C 214.941406 190.582031 214.847656 190.671875 214.722656 190.746094 L 214.652344 190.601562 C 209.953125 191.597656 205.339844 192.910156 200.820312 194.539062 C 203.773438 196.058594 206.800781 197.402344 209.910156 198.566406 C 212.472656 199.546875 213.4375 200 213.359375 200.308594 C 213.285156 200.617188 212.195312 200.671875 209.457031 200.054688 C 205.46875 199.0625 201.679688 197.554688 198.097656 195.535156 C 193.34375 197.296875 188.355469 198.925781 182.984375 200.453125 C 185.472656 201.996094 187.378906 202.957031 188.644531 203.679688 C 190.425781 204.683594 191.085938 205.1875 190.96875 205.480469 C 190.855469 205.769531 190.027344 205.75 188.011719 205.097656 C 185.25 204.125 182.644531 202.84375 180.191406 201.25 C 174.148438 202.917969 167.597656 204.460938 160.449219 205.933594 C 163.75 207.765625 164.714844 208.671875 164.519531 209.089844 C 164.28125 209.578125 162.394531 209.125 157.152344 206.621094 C 151.617188 207.730469 146.03125 208.925781 140.609375 210.089844 C 143.984375 212.410156 146.46875 213.914062 148.121094 214.984375 C 150.261719 216.339844 151.023438 217 150.878906 217.273438 C 150.730469 217.542969 149.753906 217.378906 147.378906 216.347656 C 143.984375 214.761719 140.761719 212.878906 137.714844 210.703125 C 133.722656 211.554688 129.679688 212.40625 125.613281 213.242188 C 127.375 215.164062 128.714844 216.472656 129.589844 217.414062 C 130.769531 218.667969 131.128906 219.265625 130.945312 219.519531 C 130.761719 219.773438 130.074219 219.574219 128.605469 218.59375 C 126.609375 217.175781 124.789062 215.558594 123.144531 213.75 C 121.273438 214.132812 119.421875 214.511719 117.554688 214.875 C 113.507812 215.773438 109.414062 216.28125 105.269531 216.398438 C 104.34375 216.398438 103.4375 216.363281 102.511719 216.289062 C 101.804688 216.21875 101.113281 216.128906 100.425781 216 C 110.125 226.234375 121.113281 234.816406 133.394531 241.746094 C 137.476562 244.050781 141.777344 246.175781 145.953125 248.253906 C 148.890625 249.726562 151.847656 251.195312 154.769531 252.738281 C 162.335938 256.730469 169.738281 261.226562 176.90625 265.582031 L 220.5625 292.15625 C 223.378906 291.648438 226.136719 291.105469 228.875 290.558594 C 222.46875 286.53125 220.5625 284.882812 220.816406 284.445312 C 221.074219 284.007812 223.902344 285.136719 231.921875 289.925781 C 235.355469 289.214844 238.726562 288.480469 242.027344 287.710938 C 233.9375 283.882812 231.453125 282.265625 231.667969 281.816406 C 231.90625 281.308594 235.296875 282.339844 245.457031 286.914062 C 249.558594 285.933594 253.550781 284.882812 257.488281 283.808594 C 254.375 282.242188 251.40625 280.4375 248.578125 278.402344 C 246.074219 276.570312 245.296875 275.625 245.457031 275.390625 C 245.621094 275.15625 246.726562 275.625 249.394531 277.097656 C 251.734375 278.367188 255.253906 280.4375 260.644531 282.960938 C 264.714844 281.796875 268.703125 280.582031 272.601562 279.328125 C 265.90625 276.570312 263.835938 275.320312 264.019531 274.847656 C 264.199219 274.375 267.140625 274.992188 275.816406 278.296875 C 278.027344 277.550781 280.222656 276.804688 282.402344 276.027344 L 285.976562 274.738281 C 286.375 274.59375 286.789062 274.445312 287.191406 274.304688 C 284.832031 272.921875 283.070312 272 281.890625 271.289062 C 280.222656 270.3125 279.644531 269.804688 279.769531 269.511719 C 279.894531 269.21875 280.675781 269.257812 282.546875 269.894531 C 285.082031 270.816406 287.515625 271.964844 289.839844 273.339844 C 291.855469 272.632812 293.886719 271.925781 295.953125 271.253906 C 289.445312 268.390625 287.445312 267.082031 287.644531 266.628906 C 287.84375 266.121094 290.710938 266.828125 299.109375 270.273438 C 299.21875 270.238281 299.3125 270.21875 299.421875 270.183594 C 303.375 269.023438 307.421875 268.082031 311.351562 267.171875 C 311.585938 267.117188 311.84375 267.042969 312.078125 266.988281 C 307.050781 264.089844 303.347656 262.328125 300.902344 261.074219 C 297.746094 259.515625 296.582031 258.824219 296.691406 258.535156 C 296.800781 258.246094 298.160156 258.445312 301.519531 259.660156 C 306.246094 261.472656 310.777344 263.683594 315.117188 266.289062 C 316.117188 266.035156 317.113281 265.820312 318.101562 265.5625 C 320.878906 264.855469 323.628906 264.09375 326.359375 263.277344 C 320.640625 260.5 318.863281 259.25 319.0625 258.8125 C 319.265625 258.378906 321.855469 259.03125 329.332031 262.339844 C 332.5625 261.324219 335.757812 260.234375 338.878906 259.085938 C 337.027344 258.003906 335.117188 257.046875 333.140625 256.21875 C 331.109375 255.363281 330.3125 254.964844 330.382812 254.660156 C 330.457031 254.355469 331.367188 254.242188 333.613281 254.75 C 336.386719 255.449219 338.976562 256.574219 341.378906 258.125 C 345.246094 256.617188 349.074219 255.003906 352.792969 253.261719 C 349.765625 252.171875 346.6875 251.246094 343.558594 250.488281 C 340.910156 249.816406 339.894531 249.488281 339.929688 249.160156 C 339.964844 248.890625 341.035156 248.671875 343.832031 248.960938 C 347.839844 249.445312 351.714844 250.4375 355.460938 251.941406 C 357.992188 250.726562 360.480469 249.445312 362.917969 248.09375 C 359.238281 246.242188 356.566406 245.0625 354.828125 244.191406 C 352.558594 243.109375 351.742188 242.542969 351.84375 242.25 C 351.949219 241.960938 352.949219 242.015625 355.371094 242.761719 C 358.765625 243.855469 362.046875 245.21875 365.214844 246.855469 Z M 290.277344 134.105469 C 291.765625 108.703125 285.5625 84.480469 272.804688 65.898438 C 270.144531 61.949219 267.027344 58.394531 263.464844 55.238281 C 259.898438 52.078125 255.996094 49.414062 251.753906 47.25 C 251.335938 47.285156 250.917969 47.335938 250.5 47.375 C 251.660156 48.238281 252.746094 49.1875 253.757812 50.222656 C 255.351562 51.949219 255.699219 52.816406 255.496094 53.015625 C 255.296875 53.214844 254.519531 52.746094 252.71875 51.390625 C 250.984375 50.050781 249.167969 48.832031 247.273438 47.730469 C 244.898438 47.984375 242.519531 48.257812 240.125 48.511719 C 240.71875 48.949219 241.285156 49.414062 241.828125 49.910156 C 243.1875 51.160156 243.480469 51.832031 243.300781 52.050781 C 243.117188 52.269531 242.429688 52.03125 240.925781 51.140625 C 239.960938 50.617188 238.691406 49.785156 236.914062 48.875 C 234.472656 49.144531 232.03125 49.417969 229.59375 49.726562 C 231.859375 51.433594 232.511719 52.285156 232.304688 52.632812 C 232.03125 53.03125 230.488281 52.523438 226.585938 50.109375 C 222.851562 50.582031 219.125 51.058594 215.410156 51.539062 C 215.792969 51.902344 216.082031 52.25 216.335938 52.523438 C 217.222656 53.664062 217.296875 54.28125 217.082031 54.464844 C 216.863281 54.644531 216.335938 54.410156 215.265625 53.652344 C 214.382812 53.027344 213.46875 52.453125 212.523438 51.925781 C 210.21875 52.234375 207.933594 52.613281 205.628906 52.941406 C 207.878906 54.738281 208.535156 55.65625 208.277344 55.992188 C 207.988281 56.410156 206.519531 55.882812 202.726562 53.375 C 199.152344 53.902344 195.578125 54.414062 192.003906 54.972656 C 194.199219 56.714844 194.835938 57.570312 194.617188 57.894531 C 194.347656 58.277344 192.894531 57.769531 189.265625 55.453125 C 186.46875 55.890625 183.695312 56.378906 180.917969 56.851562 C 183.839844 58.777344 184.671875 59.71875 184.441406 60.105469 C 184.152344 60.574219 182.429688 60.066406 177.75 57.363281 C 176.296875 57.617188 174.828125 57.835938 173.375 58.089844 C 171.632812 58.398438 169.910156 58.722656 168.183594 59.050781 C 168.46875 59.351562 168.738281 59.664062 168.984375 59.996094 C 169.835938 61.175781 169.890625 61.773438 169.671875 61.953125 C 169.457031 62.136719 168.910156 61.882812 167.878906 61.0625 C 167.335938 60.664062 166.660156 60.121094 165.734375 59.484375 C 162.921875 60.011719 160.128906 60.503906 157.328125 61.027344 L 155.589844 61.355469 C 156.4375 62.035156 157.21875 62.785156 157.929688 63.605469 C 158.871094 64.730469 159.054688 65.328125 158.835938 65.546875 C 158.621094 65.761719 158.054688 65.546875 156.894531 64.75 C 155.96875 64.148438 154.664062 63.121094 152.722656 61.882812 L 142.976562 63.695312 C 143.238281 64 143.472656 64.320312 143.683594 64.65625 C 144.429688 65.945312 144.320312 66.582031 144.085938 66.691406 C 143.796875 66.835938 143.394531 66.453125 142.488281 65.621094 C 141.875 65.074219 141.222656 64.585938 140.527344 64.148438 L 131.355469 65.84375 C 131.964844 66.328125 132.539062 66.847656 133.082031 67.40625 C 134.027344 68.441406 134.226562 69.003906 134.027344 69.222656 C 133.824219 69.4375 133.261719 69.308594 132.101562 68.621094 C 131.269531 68.128906 130.140625 67.367188 128.511719 66.371094 L 120.917969 67.785156 C 121.496094 68.207031 122.054688 68.660156 122.585938 69.140625 C 123.910156 70.394531 124.210938 71.082031 124 71.3125 C 123.789062 71.539062 123.148438 71.277344 121.660156 70.386719 C 120.769531 69.878906 119.589844 69.132812 117.957031 68.335938 L 115.726562 68.753906 C 112.949219 69.261719 110.101562 69.714844 107.273438 70.132812 C 107.660156 70.464844 108.023438 70.828125 108.355469 71.214844 C 109.648438 72.777344 109.710938 73.628906 109.5 73.773438 C 109.210938 73.957031 108.6875 73.429688 107.289062 72.324219 C 106.410156 71.625 105.46875 71.03125 104.457031 70.542969 C 101.425781 71 98.378906 71.472656 95.367188 72.03125 C 97.042969 73.035156 98.617188 74.183594 100.082031 75.480469 C 102.042969 77.3125 102.523438 78.257812 102.335938 78.460938 C 102.144531 78.667969 101.261719 78.152344 99.125 76.703125 C 96.894531 75.1875 94.566406 73.847656 92.136719 72.679688 C 88.914062 73.335938 85.742188 74.203125 82.628906 75.273438 C 85.742188 75.464844 88.75 76.125 91.65625 77.25 C 94.566406 78.371094 97.234375 79.910156 99.667969 81.859375 C 105.144531 86.308594 109.53125 91.65625 112.824219 97.898438 C 123.941406 117.636719 126.976562 141.152344 129.660156 161.910156 C 131.035156 169.300781 131.101562 176.703125 129.859375 184.121094 C 128.285156 189.84375 125.902344 195.207031 122.710938 200.210938 C 121.375 202.773438 119.675781 205.066406 117.613281 207.089844 C 114.5625 209.464844 111.164062 211.128906 107.414062 212.082031 C 106.726562 212.316406 106.019531 212.535156 105.292969 212.769531 C 109.195312 212.632812 113.054688 212.144531 116.867188 211.300781 C 119.191406 210.863281 121.53125 210.375 123.871094 209.90625 C 125.246094 209.03125 126.445312 207.960938 127.464844 206.691406 C 128.355469 205.570312 129.101562 204.363281 129.699219 203.0625 C 130.566406 201.085938 130.804688 200.230469 131.148438 200.269531 C 131.402344 200.285156 131.730469 201.230469 131.148438 203.589844 C 130.710938 205.152344 130.015625 206.59375 129.0625 207.910156 C 128.808594 208.269531 128.5 208.652344 128.171875 209.03125 L 133.054688 208 C 134.859375 207.019531 136.410156 205.734375 137.714844 204.148438 C 138.636719 203.019531 139.40625 201.792969 140.019531 200.46875 C 140.910156 198.4375 141.128906 197.5625 141.472656 197.601562 C 141.707031 197.621094 142.070312 198.582031 141.472656 200.976562 C 141.023438 202.574219 140.300781 204.039062 139.300781 205.367188 C 138.902344 205.929688 138.460938 206.457031 137.980469 206.945312 C 138.269531 206.871094 138.558594 206.820312 138.847656 206.746094 C 140.101562 206.472656 141.40625 206.203125 142.679688 205.933594 L 142.640625 205.859375 C 144.722656 204.828125 146.503906 203.414062 147.976562 201.613281 C 148.933594 200.472656 149.714844 199.222656 150.316406 197.859375 C 151.222656 195.804688 151.421875 194.902344 151.769531 194.9375 C 152.023438 194.953125 152.386719 195.933594 151.785156 198.386719 C 151.324219 200.015625 150.582031 201.5 149.554688 202.847656 C 149.019531 203.5625 148.425781 204.230469 147.777344 204.84375 C 148.320312 204.320312 150.589844 204.265625 151.371094 204.117188 C 152.210938 204.035156 152.949219 203.714844 153.582031 203.15625 C 155.25 201.933594 156.796875 200.578125 158.226562 199.085938 C 159.207031 197.929688 160.011719 196.660156 160.640625 195.277344 C 161.546875 193.171875 161.746094 192.246094 162.09375 192.292969 C 162.328125 192.3125 162.710938 193.308594 162.09375 195.796875 C 161.640625 197.453125 160.882812 198.960938 159.828125 200.316406 C 159.140625 201.246094 158.359375 202.09375 157.488281 202.855469 C 158.886719 202.585938 160.300781 202.292969 161.699219 201.984375 C 163.152344 201.675781 163.003906 201.402344 163.914062 200.460938 C 164.507812 200 165.125 199.578125 165.765625 199.191406 C 166.765625 198.390625 167.683594 197.507812 168.523438 196.542969 C 169.539062 195.371094 170.363281 194.074219 170.992188 192.65625 C 171.894531 190.519531 172.074219 189.574219 172.421875 189.609375 C 172.675781 189.628906 173.074219 190.644531 172.441406 193.183594 C 171.964844 194.878906 171.179688 196.417969 170.082031 197.792969 C 169.230469 198.902344 168.265625 199.898438 167.179688 200.777344 C 168.199219 200.371094 169.257812 200.125 170.351562 200.035156 C 171.390625 199.796875 172.40625 199.5625 173.421875 199.289062 C 173.3125 198.707031 175.507812 197.074219 176.109375 196.578125 C 177.074219 195.796875 177.960938 194.9375 178.773438 194 C 179.816406 192.816406 180.664062 191.503906 181.3125 190.0625 C 182.238281 187.894531 182.398438 186.90625 182.75 186.941406 C 183 186.960938 183.402344 187.976562 182.765625 190.574219 C 182.28125 192.304688 181.46875 193.867188 180.324219 195.253906 C 179.464844 196.351562 178.496094 197.347656 177.421875 198.234375 C 178.585938 197.714844 179.800781 197.382812 181.066406 197.238281 C 182.054688 197.035156 182.976562 196.660156 183.824219 196.113281 C 185.75 194.769531 187.488281 193.214844 189.035156 191.453125 C 190.105469 190.257812 190.964844 188.925781 191.609375 187.457031 C 192.554688 185.226562 192.695312 184.226562 193.0625 184.265625 C 193.296875 184.28125 193.714844 185.316406 193.078125 187.96875 C 192.578125 189.722656 191.75 191.308594 190.59375 192.71875 C 189.925781 193.539062 189.199219 194.308594 188.425781 195.023438 C 190.492188 194.371094 192.523438 193.683594 194.484375 192.992188 C 196.269531 191.855469 197.863281 190.5 199.273438 188.925781 C 200.375 187.710938 201.257812 186.355469 201.921875 184.855469 C 202.867188 182.585938 203.007812 181.574219 203.355469 181.601562 C 203.609375 181.621094 204.027344 182.6875 203.390625 185.359375 C 202.882812 187.148438 202.03125 188.757812 200.835938 190.183594 C 200.652344 190.421875 200.417969 190.65625 200.21875 190.894531 C 202.488281 190.078125 204.789062 189.367188 207.113281 188.722656 C 207.980469 188 208.792969 187.21875 209.554688 186.382812 C 210.6875 185.160156 211.589844 183.789062 212.265625 182.265625 C 213.207031 179.960938 213.335938 178.90625 213.699219 178.941406 C 213.933594 178.960938 214.386719 180.027344 213.734375 182.769531 C 213.214844 184.597656 212.335938 186.230469 211.105469 187.671875 L 211.050781 187.726562 C 213.101562 187.234375 215.148438 186.78125 217.203125 186.347656 C 218.128906 185.570312 219 184.734375 219.8125 183.84375 C 220.976562 182.609375 221.902344 181.21875 222.589844 179.667969 C 223.535156 177.308594 223.675781 176.257812 224.023438 176.277344 C 224.257812 176.277344 224.714844 177.363281 224.042969 180.160156 C 223.515625 182.015625 222.621094 183.671875 221.355469 185.128906 C 221.230469 185.292969 221.085938 185.441406 220.9375 185.601562 C 221.738281 185.441406 222.535156 185.277344 223.332031 185.128906 C 224.441406 184.914062 225.53125 184.675781 226.617188 184.460938 C 227.851562 183.5 229 182.445312 230.0625 181.300781 C 231.25 180.046875 232.195312 178.632812 232.890625 177.054688 C 233.855469 174.675781 233.976562 173.605469 234.308594 173.605469 C 234.542969 173.605469 235.015625 174.710938 234.347656 177.5625 C 233.804688 179.449219 232.882812 181.132812 231.585938 182.605469 C 231.296875 182.949219 230.96875 183.292969 230.660156 183.640625 C 232.457031 183.257812 234.273438 182.894531 236.066406 182.53125 C 237.601562 181.410156 239.015625 180.152344 240.3125 178.761719 C 241.539062 177.503906 242.5 176.070312 243.199219 174.460938 C 244.179688 172.019531 244.269531 170.933594 244.632812 170.933594 C 244.871094 170.933594 245.359375 172.058594 244.667969 174.941406 C 244.117188 176.863281 243.175781 178.566406 241.847656 180.058594 C 241.414062 180.585938 240.925781 181.113281 240.398438 181.636719 L 245.460938 180.601562 C 247.324219 179.320312 249.035156 177.855469 250.59375 176.210938 C 251.84375 174.941406 252.820312 173.488281 253.535156 171.855469 C 254.515625 169.390625 254.605469 168.265625 254.949219 168.265625 C 255.183594 168.265625 255.695312 169.410156 255.003906 172.347656 C 254.433594 174.300781 253.46875 176.027344 252.101562 177.535156 C 251.503906 178.226562 250.8125 178.933594 250.050781 179.660156 C 250.449219 179.585938 250.847656 179.496094 251.246094 179.421875 C 251.773438 179.3125 252.285156 179.1875 252.789062 179.042969 L 252.863281 178.914062 C 252.898438 178.949219 252.941406 178.976562 252.992188 178.988281 C 253.878906 178.753906 254.765625 178.445312 255.640625 178.132812 C 257.527344 176.820312 259.261719 175.332031 260.847656 173.671875 C 262.128906 172.382812 263.132812 170.910156 263.859375 169.242188 C 264.839844 166.738281 264.910156 165.597656 265.273438 165.597656 C 265.511719 165.597656 266.019531 166.757812 265.328125 169.734375 C 264.746094 171.726562 263.753906 173.484375 262.347656 175.011719 C 262.109375 175.285156 261.820312 175.578125 261.566406 175.847656 C 263.476562 175.117188 265.4375 174.5625 267.445312 174.179688 L 267.988281 174.015625 C 269.089844 173.121094 270.132812 172.160156 271.117188 171.136719 C 272.425781 169.839844 273.445312 168.347656 274.183594 166.65625 C 275.160156 164.097656 275.234375 162.9375 275.597656 162.9375 C 275.816406 162.9375 276.359375 164.097656 275.632812 167.148438 C 275.195312 168.714844 274.472656 170.136719 273.464844 171.414062 C 275.789062 169.878906 277.882812 168.074219 279.738281 166 C 281.597656 163.921875 283.160156 161.644531 284.425781 159.164062 C 286.277344 155.242188 287.695312 151.167969 288.683594 146.945312 C 289.667969 142.722656 290.199219 138.441406 290.277344 134.105469 Z M 126.320312 183.3125 C 127.472656 176.324219 127.382812 169.351562 126.050781 162.394531 C 123.421875 141.960938 120.421875 118.808594 109.667969 99.6875 C 106.613281 93.871094 102.546875 88.878906 97.464844 84.714844 C 96.246094 83.71875 94.945312 82.839844 93.566406 82.078125 C 92.1875 81.320312 90.75 80.691406 89.253906 80.195312 C 87.761719 79.699219 86.234375 79.34375 84.671875 79.128906 C 83.113281 78.910156 81.546875 78.839844 79.972656 78.910156 C 78.132812 79.046875 76.347656 79.449219 74.625 80.117188 C 72.902344 80.785156 71.3125 81.6875 69.855469 82.828125 C 67.855469 85.226562 66.265625 87.875 65.097656 90.773438 C 63.925781 93.671875 63.222656 96.679688 62.996094 99.792969 C 62.046875 106.753906 61.617188 113.75 61.707031 120.773438 C 61.796875 127.796875 62.40625 134.777344 63.53125 141.710938 C 64.65625 148.644531 66.289062 155.457031 68.425781 162.148438 C 70.5625 168.84375 73.183594 175.339844 76.285156 181.644531 C 81.292969 191.695312 87.425781 201.003906 94.683594 209.574219 C 95.71875 210.035156 96.800781 210.289062 97.9375 210.335938 C 100.832031 210.261719 103.625 209.695312 106.320312 208.628906 C 109.578125 207.820312 112.539062 206.402344 115.210938 204.367188 C 116.984375 202.613281 118.441406 200.625 119.582031 198.402344 C 122.582031 193.707031 124.828125 188.679688 126.320312 183.3125 Z M 126.320312 183.3125 " fill-opacity="1" fill-rule="nonzero"/></g><path fill="#f0dcf6" d="M 372.019531 242.828125 C 369.789062 244.226562 367.519531 245.566406 365.214844 246.855469 C 362.050781 245.226562 358.769531 243.863281 355.378906 242.773438 C 352.941406 242.03125 351.933594 241.992188 351.855469 242.265625 C 351.777344 242.535156 352.5625 243.121094 354.839844 244.207031 C 356.578125 245.078125 359.246094 246.257812 362.929688 248.109375 C 360.480469 249.453125 357.996094 250.734375 355.472656 251.957031 C 351.726562 250.453125 347.851562 249.457031 343.84375 248.972656 C 341.046875 248.683594 339.976562 248.902344 339.941406 249.175781 C 339.90625 249.5 340.917969 249.828125 343.570312 250.5 C 346.695312 251.257812 349.777344 252.183594 352.804688 253.273438 C 349.085938 255.019531 345.253906 256.632812 341.390625 258.140625 C 338.988281 256.585938 336.398438 255.460938 333.625 254.761719 C 331.378906 254.257812 330.46875 254.398438 330.394531 254.671875 C 330.320312 254.949219 331.121094 255.378906 333.152344 256.234375 C 335.128906 257.0625 337.039062 258.019531 338.886719 259.097656 C 335.765625 260.261719 332.574219 261.351562 329.34375 262.351562 C 321.867188 259.03125 319.292969 258.34375 319.074219 258.828125 C 318.855469 259.3125 320.652344 260.515625 326.367188 263.292969 C 323.644531 264.109375 320.894531 264.871094 318.113281 265.578125 C 317.132812 265.832031 316.136719 266.050781 315.128906 266.304688 C 310.78125 263.703125 306.238281 261.503906 301.503906 259.699219 C 298.144531 258.484375 296.785156 258.300781 296.675781 258.574219 C 296.566406 258.84375 297.726562 259.550781 300.882812 261.113281 C 303.324219 262.367188 307.035156 264.125 312.0625 267.027344 C 311.824219 267.082031 311.570312 267.15625 311.335938 267.210938 C 307.417969 268.117188 303.371094 269.0625 299.402344 270.222656 C 299.296875 270.257812 299.203125 270.277344 299.09375 270.3125 C 290.6875 266.867188 287.828125 266.15625 287.628906 266.667969 C 287.429688 267.121094 289.425781 268.425781 295.9375 271.292969 C 293.871094 271.964844 291.839844 272.671875 289.824219 273.378906 C 287.5 272.003906 285.066406 270.855469 282.527344 269.933594 C 280.660156 269.296875 279.859375 269.277344 279.753906 269.550781 C 279.644531 269.820312 280.207031 270.363281 281.875 271.328125 C 283.054688 272.035156 284.816406 272.957031 287.175781 274.339844 C 286.777344 274.484375 286.359375 274.632812 285.960938 274.777344 L 282.394531 276.050781 C 280.226562 276.832031 278.023438 277.578125 275.808594 278.320312 C 267.132812 275.015625 264.214844 274.363281 264.015625 274.871094 C 263.8125 275.382812 265.914062 276.59375 272.597656 279.351562 C 268.695312 280.605469 264.734375 281.820312 260.640625 282.984375 C 255.25 280.460938 251.730469 278.394531 249.390625 277.121094 C 246.722656 275.652344 245.632812 275.164062 245.453125 275.414062 C 245.269531 275.667969 246.066406 276.59375 248.574219 278.429688 C 251.402344 280.460938 254.371094 282.265625 257.480469 283.835938 C 253.542969 284.917969 249.554688 285.957031 245.453125 286.9375 C 235.292969 282.363281 231.894531 281.332031 231.664062 281.839844 C 231.445312 282.292969 233.929688 283.90625 242.023438 287.738281 C 238.71875 288.5 235.351562 289.238281 231.917969 289.949219 C 223.898438 285.160156 221.101562 283.984375 220.8125 284.46875 C 220.523438 284.953125 222.464844 286.558594 228.867188 290.585938 C 226.128906 291.125 223.371094 291.667969 220.558594 292.179688 L 176.898438 265.605469 C 169.734375 261.253906 162.328125 256.753906 154.765625 252.761719 C 151.839844 251.21875 148.886719 249.75 145.945312 248.28125 C 141.773438 246.195312 137.472656 244.070312 133.386719 241.773438 C 121.109375 234.839844 110.121094 226.257812 100.417969 216.023438 C 101.109375 216.152344 101.796875 216.242188 102.503906 216.316406 C 103.433594 216.386719 104.339844 216.421875 105.265625 216.421875 C 109.410156 216.304688 113.503906 215.796875 117.550781 214.898438 C 119.417969 214.535156 121.265625 214.15625 123.136719 213.773438 C 124.785156 215.585938 126.605469 217.199219 128.597656 218.621094 C 130.070312 219.597656 130.769531 219.78125 130.941406 219.542969 C 131.109375 219.308594 130.777344 218.691406 129.582031 217.441406 C 128.710938 216.496094 127.367188 215.1875 125.609375 213.265625 C 129.675781 212.429688 133.71875 211.582031 137.710938 210.726562 C 140.761719 212.902344 143.984375 214.785156 147.382812 216.367188 C 149.757812 217.402344 150.757812 217.566406 150.882812 217.292969 C 151.011719 217.019531 150.269531 216.367188 148.125 215.007812 C 146.476562 213.921875 143.992188 212.429688 140.613281 210.109375 C 146.039062 208.945312 151.609375 207.75 157.15625 206.640625 C 162.398438 209.148438 164.289062 209.601562 164.523438 209.113281 C 164.722656 208.695312 163.757812 207.785156 160.457031 205.953125 C 167.605469 204.484375 174.15625 202.941406 180.195312 201.273438 C 182.648438 202.867188 185.257812 204.148438 188.015625 205.117188 C 190.03125 205.773438 190.863281 205.773438 190.976562 205.5 C 191.085938 205.230469 190.433594 204.703125 188.652344 203.703125 C 187.382812 202.980469 185.476562 202.015625 182.988281 200.472656 C 188.363281 198.949219 193.351562 197.316406 198.105469 195.558594 C 201.683594 197.570312 205.464844 199.070312 209.453125 200.0625 C 212.191406 200.679688 213.300781 200.585938 213.355469 200.316406 C 213.410156 200.042969 212.464844 199.554688 209.90625 198.574219 C 206.796875 197.410156 203.765625 196.066406 200.816406 194.546875 C 205.335938 192.917969 209.945312 191.605469 214.644531 190.609375 L 214.71875 190.753906 C 214.84375 190.679688 214.9375 190.589844 215.0625 190.519531 C 215.28125 190.460938 215.496094 190.425781 215.714844 190.371094 C 219.273438 192.460938 223.039062 194.078125 227.003906 195.21875 C 229.503906 195.886719 230.527344 195.851562 230.613281 195.578125 C 230.695312 195.304688 229.832031 194.78125 227.507812 193.765625 C 225.65625 192.914062 222.808594 191.753906 218.980469 189.695312 C 220.667969 189.351562 222.339844 189.023438 224.023438 188.699219 C 226.402344 188.226562 228.761719 187.753906 231.117188 187.265625 C 233.078125 186.847656 235.058594 186.46875 237.035156 186.050781 C 241.042969 188.902344 245.453125 190.835938 250.261719 191.855469 C 253.382812 192.453125 254.601562 192.253906 254.632812 191.984375 C 254.691406 191.65625 253.550781 191.308594 250.660156 190.355469 C 246.921875 189.148438 243.382812 187.503906 240.046875 185.421875 C 244.027344 184.605469 248.003906 183.792969 251.980469 182.980469 C 252.777344 182.816406 253.558594 182.617188 254.339844 182.382812 C 257.03125 183.988281 259.875 185.25 262.871094 186.164062 C 265.230469 186.832031 266.214844 186.796875 266.285156 186.523438 C 266.355469 186.25 265.585938 185.753906 263.414062 184.730469 C 261.945312 184.003906 259.804688 183.058594 257.046875 181.476562 C 258.082031 181.09375 259.113281 180.695312 260.132812 180.296875 C 261.582031 179.714844 262.996094 179.171875 264.433594 178.683594 C 264.519531 178.847656 264.628906 179 264.757812 179.136719 C 270.4375 184.996094 277.566406 187.71875 284.460938 190.347656 C 286.984375 191.292969 289.578125 192.289062 292.101562 193.433594 C 304.351562 198.949219 315.292969 207.496094 325.886719 215.769531 C 328.246094 217.601562 330.605469 219.453125 332.964844 221.25 C 344.113281 229.765625 357.269531 238.730469 372.019531 242.828125 Z M 372.019531 242.828125 " fill-opacity="1" fill-rule="nonzero"/><path fill="#f0dcf6" d="M 272.804688 65.898438 C 285.550781 84.480469 291.765625 108.703125 290.277344 134.105469 C 290.199219 138.441406 289.667969 142.722656 288.679688 146.945312 C 287.691406 151.167969 286.269531 155.242188 284.417969 159.164062 C 283.148438 161.644531 281.585938 163.925781 279.726562 166 C 277.867188 168.078125 275.777344 169.878906 273.449219 171.414062 C 274.457031 170.136719 275.179688 168.714844 275.617188 167.148438 C 276.34375 164.097656 275.800781 162.9375 275.582031 162.9375 C 275.21875 162.9375 275.144531 164.097656 274.167969 166.65625 C 273.433594 168.34375 272.417969 169.839844 271.117188 171.136719 C 270.132812 172.164062 269.09375 173.125 267.996094 174.023438 L 267.453125 174.1875 C 265.445312 174.570312 263.484375 175.125 261.574219 175.855469 C 261.824219 175.585938 262.117188 175.296875 262.351562 175.023438 C 263.753906 173.496094 264.746094 171.742188 265.328125 169.753906 C 266.019531 166.773438 265.511719 165.617188 265.273438 165.617188 C 264.910156 165.617188 264.839844 166.761719 263.859375 169.265625 C 263.132812 170.929688 262.128906 172.40625 260.847656 173.691406 C 259.261719 175.355469 257.527344 176.84375 255.640625 178.15625 C 254.765625 178.480469 253.878906 178.773438 252.992188 179.011719 C 252.941406 178.996094 252.898438 178.972656 252.863281 178.9375 L 252.789062 179.066406 C 252.285156 179.207031 251.773438 179.335938 251.246094 179.445312 C 250.847656 179.515625 250.449219 179.605469 250.050781 179.679688 C 250.8125 178.953125 251.503906 178.25 252.101562 177.558594 C 253.46875 176.050781 254.433594 174.320312 255.003906 172.371094 C 255.695312 169.429688 255.183594 168.285156 254.949219 168.285156 C 254.605469 168.285156 254.515625 169.410156 253.535156 171.878906 C 252.820312 173.511719 251.84375 174.964844 250.59375 176.234375 C 249.035156 177.871094 247.324219 179.324219 245.460938 180.601562 L 240.398438 181.636719 C 240.925781 181.109375 241.414062 180.582031 241.847656 180.058594 C 243.179688 178.566406 244.125 176.859375 244.679688 174.941406 C 245.367188 172.054688 244.878906 170.933594 244.644531 170.933594 C 244.28125 170.933594 244.1875 172.015625 243.210938 174.457031 C 242.511719 176.066406 241.550781 177.5 240.324219 178.757812 C 239.027344 180.148438 237.613281 181.40625 236.078125 182.53125 C 234.285156 182.894531 232.46875 183.257812 230.671875 183.640625 C 230.980469 183.292969 231.304688 182.949219 231.597656 182.601562 C 232.894531 181.128906 233.816406 179.449219 234.355469 177.558594 C 235.027344 174.710938 234.554688 173.601562 234.320312 173.601562 C 233.972656 173.601562 233.867188 174.675781 232.902344 177.050781 C 232.203125 178.632812 231.253906 180.046875 230.0625 181.300781 C 228.992188 182.445312 227.835938 183.5 226.597656 184.457031 C 225.511719 184.675781 224.425781 184.910156 223.3125 185.128906 C 222.515625 185.273438 221.714844 185.4375 220.917969 185.601562 C 221.0625 185.4375 221.207031 185.289062 221.335938 185.128906 C 222.597656 183.671875 223.492188 182.011719 224.019531 180.15625 C 224.691406 177.363281 224.238281 176.273438 224 176.273438 C 223.640625 176.253906 223.511719 177.308594 222.570312 179.667969 C 221.882812 181.214844 220.957031 182.605469 219.792969 183.839844 C 218.976562 184.734375 218.105469 185.566406 217.179688 186.34375 C 215.128906 186.78125 213.078125 187.230469 211.027344 187.722656 L 211.082031 187.667969 C 212.316406 186.226562 213.191406 184.59375 213.710938 182.769531 C 214.367188 180.03125 213.914062 178.957031 213.675781 178.941406 C 213.3125 178.90625 213.1875 179.957031 212.242188 182.261719 C 211.570312 183.785156 210.664062 185.160156 209.53125 186.378906 C 208.769531 187.214844 207.957031 187.996094 207.089844 188.722656 C 204.765625 189.375 202.464844 190.078125 200.195312 190.890625 C 200.394531 190.65625 200.632812 190.417969 200.8125 190.183594 C 202.007812 188.753906 202.859375 187.144531 203.371094 185.355469 C 204.003906 182.671875 203.585938 181.617188 203.335938 181.601562 C 202.992188 181.566406 202.84375 182.578125 201.902344 184.855469 C 201.234375 186.351562 200.351562 187.707031 199.25 188.921875 C 197.84375 190.5 196.246094 191.855469 194.460938 192.988281 C 192.503906 193.679688 190.472656 194.371094 188.402344 195.023438 C 189.179688 194.304688 189.902344 193.535156 190.570312 192.71875 C 191.730469 191.304688 192.558594 189.71875 193.058594 187.964844 C 193.691406 185.316406 193.273438 184.277344 193.039062 184.261719 C 192.675781 184.226562 192.53125 185.222656 191.589844 187.453125 C 190.941406 188.921875 190.085938 190.253906 189.011719 191.449219 C 187.464844 193.214844 185.726562 194.765625 183.804688 196.109375 C 182.953125 196.65625 182.035156 197.03125 181.046875 197.234375 C 179.777344 197.378906 178.5625 197.710938 177.398438 198.234375 C 178.472656 197.34375 179.441406 196.347656 180.300781 195.25 C 181.445312 193.863281 182.261719 192.304688 182.742188 190.570312 C 183.378906 187.976562 182.980469 186.957031 182.726562 186.9375 C 182.378906 186.902344 182.21875 187.882812 181.292969 190.058594 C 180.644531 191.5 179.796875 192.8125 178.75 193.996094 C 177.9375 194.933594 177.050781 195.792969 176.085938 196.574219 C 175.488281 197.066406 173.289062 198.695312 173.398438 199.285156 C 172.382812 199.558594 171.367188 199.796875 170.332031 200.03125 C 169.238281 200.121094 168.179688 200.371094 167.15625 200.773438 C 168.242188 199.894531 169.210938 198.902344 170.058594 197.792969 C 171.15625 196.414062 171.945312 194.878906 172.417969 193.179688 C 173.054688 190.640625 172.65625 189.625 172.402344 189.609375 C 172.054688 189.574219 171.875 190.515625 170.96875 192.65625 C 170.339844 194.074219 169.515625 195.367188 168.5 196.539062 C 167.664062 197.503906 166.742188 198.386719 165.742188 199.1875 C 165.101562 199.578125 164.484375 200 163.890625 200.457031 C 162.984375 201.402344 163.128906 201.675781 161.679688 201.984375 C 160.28125 202.289062 158.863281 202.582031 157.46875 202.855469 C 158.335938 202.089844 159.117188 201.242188 159.808594 200.3125 C 160.875 198.953125 161.636719 197.441406 162.097656 195.777344 C 162.710938 193.289062 162.332031 192.292969 162.097656 192.277344 C 161.75 192.238281 161.554688 193.164062 160.644531 195.257812 C 160.015625 196.640625 159.210938 197.910156 158.230469 199.070312 C 156.800781 200.558594 155.25 201.914062 153.585938 203.136719 C 152.949219 203.695312 152.214844 204.015625 151.371094 204.097656 C 150.589844 204.246094 148.324219 204.300781 147.777344 204.824219 C 148.429688 204.210938 149.019531 203.542969 149.558594 202.828125 C 150.582031 201.484375 151.328125 199.996094 151.789062 198.367188 C 152.390625 195.925781 152.023438 194.9375 151.769531 194.917969 C 151.425781 194.882812 151.226562 195.789062 150.320312 197.839844 C 149.714844 199.203125 148.9375 200.453125 147.980469 201.597656 C 146.507812 203.394531 144.726562 204.808594 142.644531 205.839844 L 142.679688 205.914062 C 141.410156 206.183594 140.105469 206.457031 138.851562 206.726562 C 138.5625 206.800781 138.273438 206.855469 137.980469 206.925781 C 138.464844 206.4375 138.90625 205.910156 139.304688 205.347656 C 140.304688 204.019531 141.027344 202.554688 141.472656 200.957031 C 142.074219 198.5625 141.710938 197.601562 141.472656 197.582031 C 141.128906 197.542969 140.914062 198.417969 140.023438 200.449219 C 139.410156 201.773438 138.640625 203 137.71875 204.132812 C 136.414062 205.714844 134.859375 207 133.058594 207.980469 L 128.175781 209.011719 C 128.5 208.632812 128.8125 208.25 129.066406 207.890625 C 130.015625 206.574219 130.710938 205.132812 131.152344 203.570312 C 131.730469 201.210938 131.40625 200.265625 131.152344 200.25 C 130.804688 200.214844 130.570312 201.0625 129.699219 203.042969 C 129.101562 204.34375 128.359375 205.554688 127.46875 206.671875 C 126.449219 207.953125 125.25 209.03125 123.871094 209.914062 C 121.53125 210.386719 119.191406 210.875 116.867188 211.3125 C 113.054688 212.152344 109.195312 212.644531 105.292969 212.78125 C 106.019531 212.546875 106.726562 212.328125 107.414062 212.09375 C 111.164062 211.140625 114.5625 209.476562 117.613281 207.101562 C 119.675781 205.078125 121.375 202.785156 122.710938 200.222656 C 125.902344 195.21875 128.285156 189.851562 129.859375 184.128906 C 131.101562 176.710938 131.035156 169.308594 129.660156 161.917969 C 126.976562 141.160156 123.925781 117.644531 112.824219 97.90625 C 109.53125 91.65625 105.148438 86.304688 99.667969 81.847656 C 97.234375 79.894531 94.566406 78.359375 91.65625 77.234375 C 88.75 76.113281 85.742188 75.453125 82.628906 75.257812 C 85.742188 74.1875 88.914062 73.324219 92.136719 72.664062 C 94.574219 73.832031 96.90625 75.175781 99.144531 76.695312 C 101.28125 78.144531 102.125 78.691406 102.351562 78.453125 C 102.582031 78.21875 102.0625 77.308594 100.101562 75.472656 C 98.636719 74.175781 97.0625 73.027344 95.382812 72.023438 C 98.398438 71.464844 101.445312 70.992188 104.476562 70.535156 C 105.488281 71.023438 106.429688 71.617188 107.308594 72.316406 C 108.703125 73.421875 109.230469 73.941406 109.519531 73.765625 C 109.738281 73.621094 109.667969 72.769531 108.375 71.207031 C 108.042969 70.820312 107.679688 70.457031 107.292969 70.125 C 110.121094 69.707031 112.96875 69.253906 115.746094 68.746094 L 117.976562 68.328125 C 119.605469 69.125 120.789062 69.871094 121.679688 70.378906 C 123.167969 71.269531 123.820312 71.539062 124.019531 71.304688 C 124.21875 71.066406 123.929688 70.398438 122.605469 69.132812 C 122.074219 68.652344 121.515625 68.199219 120.9375 67.777344 L 128.527344 66.363281 C 130.15625 67.359375 131.285156 68.121094 132.121094 68.613281 C 133.28125 69.300781 133.84375 69.449219 134.042969 69.210938 C 134.246094 68.976562 134.042969 68.433594 133.101562 67.398438 C 132.558594 66.839844 131.984375 66.320312 131.375 65.835938 L 140.503906 64.148438 C 141.199219 64.585938 141.851562 65.074219 142.464844 65.621094 C 143.371094 66.453125 143.769531 66.835938 144.0625 66.691406 C 144.296875 66.582031 144.40625 65.945312 143.660156 64.65625 C 143.449219 64.320312 143.210938 64 142.953125 63.695312 L 152.699219 61.882812 C 154.640625 63.132812 155.953125 64.148438 156.871094 64.75 C 158.03125 65.546875 158.59375 65.761719 158.8125 65.546875 C 159.03125 65.328125 158.847656 64.734375 157.902344 63.605469 C 157.191406 62.785156 156.414062 62.035156 155.5625 61.355469 L 157.304688 61.027344 C 160.121094 60.503906 162.914062 60.011719 165.710938 59.484375 C 166.636719 60.121094 167.308594 60.664062 167.851562 61.0625 C 168.886719 61.878906 169.394531 62.148438 169.648438 61.953125 C 169.902344 61.757812 169.8125 61.175781 168.960938 59.996094 C 168.710938 59.664062 168.445312 59.351562 168.160156 59.050781 C 169.882812 58.722656 171.609375 58.398438 173.351562 58.089844 C 174.804688 57.835938 176.273438 57.617188 177.722656 57.363281 C 182.402344 60.074219 184.128906 60.574219 184.417969 60.105469 C 184.65625 59.707031 183.820312 58.761719 180.894531 56.851562 C 183.671875 56.378906 186.445312 55.890625 189.238281 55.453125 C 192.867188 57.777344 194.320312 58.285156 194.59375 57.894531 C 194.808594 57.570312 194.175781 56.714844 191.980469 54.972656 C 195.554688 54.414062 199.128906 53.902344 202.703125 53.375 C 206.5 55.882812 207.964844 56.410156 208.253906 55.992188 C 208.507812 55.644531 207.855469 54.738281 205.605469 52.941406 C 207.910156 52.613281 210.195312 52.234375 212.5 51.925781 C 213.445312 52.453125 214.359375 53.027344 215.242188 53.652344 C 216.3125 54.414062 216.800781 54.664062 217.054688 54.464844 C 217.3125 54.261719 217.199219 53.664062 216.3125 52.523438 C 216.058594 52.25 215.769531 51.902344 215.386719 51.539062 C 219.105469 51.054688 222.832031 50.574219 226.5625 50.109375 C 230.464844 52.523438 232.003906 53.03125 232.28125 52.632812 C 232.496094 52.285156 231.84375 51.433594 229.566406 49.726562 C 232.007812 49.421875 234.449219 49.148438 236.890625 48.875 C 238.667969 49.800781 239.9375 50.617188 240.898438 51.140625 C 242.40625 52.03125 243.070312 52.304688 243.273438 52.050781 C 243.480469 51.796875 243.152344 51.160156 241.804688 49.910156 C 241.261719 49.414062 240.691406 48.949219 240.101562 48.511719 C 242.496094 48.257812 244.871094 47.984375 247.25 47.730469 C 249.144531 48.828125 250.957031 50.046875 252.691406 51.378906 C 254.492188 52.734375 255.234375 53.230469 255.46875 53.003906 C 255.707031 52.78125 255.324219 51.9375 253.730469 50.210938 C 252.71875 49.179688 251.632812 48.226562 250.476562 47.363281 C 250.890625 47.328125 251.308594 47.273438 251.726562 47.238281 C 255.972656 49.40625 259.882812 52.066406 263.453125 55.230469 C 267.023438 58.390625 270.140625 61.945312 272.804688 65.898438 Z M 272.804688 65.898438 " fill-opacity="1" fill-rule="nonzero"/><path fill="#ada1b0" d="M 126.050781 162.394531 C 127.382812 169.351562 127.472656 176.324219 126.320312 183.3125 C 124.824219 188.683594 122.574219 193.714844 119.574219 198.410156 C 118.433594 200.632812 116.972656 202.621094 115.199219 204.375 C 112.527344 206.410156 109.566406 207.828125 106.308594 208.636719 C 103.617188 209.703125 100.820312 210.269531 97.925781 210.34375 C 96.792969 210.296875 95.707031 210.042969 94.671875 209.582031 C 87.414062 201.011719 81.28125 191.703125 76.273438 181.652344 C 73.171875 175.347656 70.550781 168.847656 68.417969 162.15625 C 66.28125 155.464844 64.648438 148.648438 63.523438 141.714844 C 62.398438 134.777344 61.792969 127.800781 61.703125 120.773438 C 61.617188 113.75 62.046875 106.757812 62.996094 99.792969 C 63.222656 96.679688 63.925781 93.671875 65.097656 90.773438 C 66.265625 87.875 67.855469 85.226562 69.855469 82.828125 C 71.3125 81.691406 72.898438 80.789062 74.621094 80.121094 C 76.339844 79.457031 78.121094 79.054688 79.964844 78.914062 C 81.535156 78.84375 83.101562 78.917969 84.664062 79.132812 C 86.222656 79.347656 87.75 79.707031 89.246094 80.203125 C 90.738281 80.699219 92.175781 81.324219 93.554688 82.085938 C 94.9375 82.84375 96.234375 83.722656 97.453125 84.71875 C 102.535156 88.882812 106.601562 93.875 109.65625 99.691406 C 120.421875 118.808594 123.421875 141.960938 126.050781 162.394531 Z M 111.351562 166.820312 C 112.542969 161.703125 112.921875 156.527344 112.496094 151.289062 C 112.351562 150.273438 112.242188 149.273438 112.113281 148.277344 C 111.898438 144.851562 111.175781 141.535156 109.945312 138.332031 C 108.734375 135.375 107.714844 132.351562 106.894531 129.261719 C 105.632812 123.484375 103.300781 118.175781 99.910156 113.332031 C 99.53125 112.839844 99.132812 112.351562 98.714844 111.863281 C 95.285156 107.851562 89.894531 102.679688 82.65625 104.128906 C 77.558594 105.148438 73.800781 109.644531 71.132812 117.847656 C 69.171875 123.671875 68.335938 129.652344 68.628906 135.792969 C 68.773438 137.9375 69.035156 140.066406 69.410156 142.179688 C 70.503906 149.558594 72.675781 156.601562 75.917969 163.316406 C 77.558594 166.710938 79.605469 169.84375 82.050781 172.710938 C 84.496094 175.578125 87.265625 178.089844 90.359375 180.246094 C 92.4375 181.800781 94.765625 182.726562 97.34375 183.023438 C 97.546875 183.042969 97.742188 183.042969 97.945312 183.042969 C 98.898438 183 99.835938 182.847656 100.753906 182.582031 C 101.671875 182.316406 102.546875 181.949219 103.375 181.476562 C 104.207031 181 104.96875 180.4375 105.664062 179.78125 C 106.359375 179.125 106.96875 178.398438 107.488281 177.597656 C 109.515625 174.382812 110.78125 170.894531 111.289062 167.128906 Z M 111.351562 166.820312 " fill-opacity="1" fill-rule="nonzero"/><path fill="#8f8393" d="M 112.496094 151.289062 C 112.921875 156.527344 112.542969 161.703125 111.351562 166.820312 L 111.300781 167.128906 C 110.789062 170.894531 109.519531 174.382812 107.496094 177.597656 C 106.972656 178.398438 106.363281 179.125 105.667969 179.78125 C 104.972656 180.4375 104.210938 181 103.378906 181.476562 C 102.550781 181.949219 101.675781 182.316406 100.757812 182.582031 C 99.839844 182.847656 98.902344 183 97.949219 183.042969 C 97.75 183.042969 97.550781 183.042969 97.351562 183.023438 C 94.773438 182.726562 92.441406 181.800781 90.363281 180.246094 C 87.273438 178.089844 84.503906 175.578125 82.054688 172.710938 C 79.609375 169.84375 77.566406 166.710938 75.921875 163.316406 C 72.679688 156.601562 70.511719 149.558594 69.414062 142.179688 C 69.039062 140.066406 68.78125 137.9375 68.632812 135.792969 C 68.34375 129.652344 69.179688 123.671875 71.140625 117.847656 C 73.804688 109.644531 77.5625 105.148438 82.660156 104.128906 C 89.902344 102.679688 95.289062 107.851562 98.71875 111.863281 C 99.136719 112.351562 99.535156 112.839844 99.914062 113.332031 C 103.308594 118.175781 105.636719 123.484375 106.902344 129.261719 C 107.722656 132.351562 108.738281 135.375 109.953125 138.332031 C 111.183594 141.535156 111.90625 144.851562 112.121094 148.277344 C 112.242188 149.273438 112.351562 150.273438 112.496094 151.289062 Z M 108.664062 166.351562 C 109.796875 161.515625 110.171875 156.621094 109.792969 151.667969 C 109.648438 150.636719 109.539062 149.601562 109.410156 148.585938 C 109.222656 145.433594 108.566406 142.378906 107.449219 139.421875 C 106.199219 136.355469 105.148438 133.222656 104.292969 130.023438 C 103.136719 124.589844 100.964844 119.59375 97.785156 115.035156 C 97.425781 114.566406 97.042969 114.09375 96.644531 113.636719 L 96.644531 113.625 C 92.597656 108.886719 88.878906 106.621094 85.105469 106.621094 C 84.457031 106.617188 83.816406 106.679688 83.183594 106.800781 C 79.207031 107.597656 76.015625 111.609375 73.730469 118.683594 C 71.878906 124.179688 71.078125 129.824219 71.332031 135.617188 C 71.484375 137.671875 71.738281 139.714844 72.09375 141.746094 C 73.140625 148.847656 75.21875 155.636719 78.332031 162.105469 C 79.871094 165.285156 81.785156 168.222656 84.074219 170.917969 C 86.363281 173.609375 88.957031 175.96875 91.847656 178 C 93.527344 179.285156 95.414062 180.058594 97.511719 180.324219 C 98.28125 180.316406 99.042969 180.21875 99.789062 180.023438 C 100.535156 179.828125 101.246094 179.542969 101.921875 179.167969 C 102.597656 178.792969 103.214844 178.34375 103.777344 177.8125 C 104.339844 177.285156 104.828125 176.691406 105.242188 176.042969 C 107.050781 173.15625 108.167969 170.023438 108.59375 166.640625 Z M 108.664062 166.351562 " fill-opacity="1" fill-rule="nonzero"/><path fill="#f2f2f2" d="M 109.792969 151.667969 C 110.171875 156.621094 109.796875 161.515625 108.664062 166.351562 L 108.613281 166.640625 C 108.183594 170.019531 107.066406 173.152344 105.257812 176.039062 C 104.84375 176.691406 104.355469 177.28125 103.796875 177.8125 C 103.234375 178.34375 102.617188 178.796875 101.941406 179.171875 C 101.265625 179.546875 100.554688 179.832031 99.804688 180.027344 C 99.058594 180.226562 98.300781 180.324219 97.527344 180.332031 C 95.429688 180.066406 93.542969 179.292969 91.863281 178.011719 C 88.972656 175.976562 86.382812 173.617188 84.09375 170.925781 C 81.800781 168.230469 79.886719 165.296875 78.347656 162.113281 C 75.238281 155.644531 73.15625 148.855469 72.109375 141.753906 C 71.753906 139.722656 71.5 137.679688 71.347656 135.625 C 71.097656 129.832031 71.894531 124.1875 73.746094 118.691406 C 76.03125 111.617188 79.222656 107.605469 83.199219 106.808594 C 83.832031 106.6875 84.472656 106.625 85.121094 106.628906 C 88.894531 106.628906 92.617188 108.894531 96.660156 113.632812 L 96.660156 113.648438 C 97.058594 114.105469 97.441406 114.574219 97.804688 115.046875 C 100.984375 119.601562 103.152344 124.601562 104.3125 130.035156 C 105.164062 133.234375 106.214844 136.367188 107.46875 139.433594 C 108.585938 142.390625 109.238281 145.441406 109.429688 148.597656 C 109.539062 149.601562 109.648438 150.636719 109.792969 151.667969 Z M 107.324219 166.09375 C 108.441406 161.40625 108.816406 156.65625 108.449219 151.851562 C 108.304688 150.835938 108.195312 149.800781 108.070312 148.730469 C 107.882812 145.714844 107.257812 142.792969 106.199219 139.964844 C 104.929688 136.839844 103.859375 133.644531 102.988281 130.386719 C 101.871094 125.140625 99.792969 120.308594 96.75 115.886719 C 96.386719 115.417969 96.007812 114.964844 95.625 114.507812 C 91.199219 109.320312 87.492188 107.339844 83.46875 108.140625 C 80.003906 108.828125 77.171875 112.511719 75.035156 119.097656 C 73.234375 124.433594 72.460938 129.914062 72.710938 135.539062 C 72.851562 137.542969 73.101562 139.53125 73.457031 141.503906 C 74.472656 148.476562 76.507812 155.136719 79.566406 161.484375 C 81.046875 164.5625 82.898438 167.402344 85.109375 170.007812 C 87.324219 172.609375 89.828125 174.894531 92.625 176.855469 C 94.097656 177.996094 95.753906 178.699219 97.601562 178.957031 C 97.726562 178.957031 97.835938 178.976562 97.945312 178.976562 C 99.210938 178.875 100.390625 178.496094 101.480469 177.84375 C 102.570312 177.191406 103.460938 176.328125 104.148438 175.257812 C 105.820312 172.527344 106.859375 169.578125 107.269531 166.402344 Z M 107.324219 166.09375 " fill-opacity="1" fill-rule="nonzero"/><path fill="#8f8393" d="M 108.449219 151.859375 C 108.816406 156.664062 108.441406 161.414062 107.324219 166.101562 L 107.269531 166.410156 C 106.859375 169.585938 105.820312 172.535156 104.148438 175.265625 C 103.460938 176.332031 102.570312 177.195312 101.480469 177.847656 C 100.390625 178.496094 99.210938 178.875 97.945312 178.976562 C 97.835938 178.976562 97.726562 178.957031 97.601562 178.957031 C 95.753906 178.695312 94.097656 177.992188 92.625 176.851562 C 89.828125 174.890625 87.324219 172.609375 85.109375 170.007812 C 82.898438 167.402344 81.046875 164.5625 79.566406 161.484375 C 76.503906 155.136719 74.46875 148.480469 73.449219 141.507812 C 73.09375 139.53125 72.847656 137.542969 72.703125 135.542969 C 72.453125 129.917969 73.230469 124.4375 75.027344 119.101562 C 77.167969 112.515625 80 108.832031 83.464844 108.144531 C 87.492188 107.332031 91.195312 109.324219 95.621094 114.511719 C 96.003906 114.964844 96.382812 115.417969 96.746094 115.890625 C 99.785156 120.308594 101.863281 125.140625 102.980469 130.386719 C 103.851562 133.648438 104.921875 136.839844 106.191406 139.96875 C 107.253906 142.796875 107.875 145.71875 108.0625 148.730469 C 108.195312 149.800781 108.308594 150.835938 108.449219 151.859375 Z M 105.546875 165.777344 C 106.613281 161.28125 106.984375 156.726562 106.652344 152.113281 C 106.507812 151.082031 106.382812 150.027344 106.273438 148.992188 C 106.105469 146.144531 105.53125 143.378906 104.550781 140.699219 C 103.234375 137.511719 102.136719 134.246094 101.257812 130.910156 C 100.1875 125.894531 98.214844 121.261719 95.339844 117.015625 C 94.980469 116.578125 94.617188 116.125 94.257812 115.6875 C 90.808594 111.660156 87.925781 109.792969 85.148438 109.792969 C 84.703125 109.789062 84.257812 109.832031 83.820312 109.921875 C 81.109375 110.460938 78.652344 113.839844 76.773438 119.664062 C 75.050781 124.773438 74.304688 130.023438 74.539062 135.414062 C 74.652344 137.082031 74.867188 138.914062 75.246094 141.21875 C 76.242188 148.007812 78.234375 154.488281 81.214844 160.667969 C 82.621094 163.613281 84.378906 166.328125 86.488281 168.816406 C 88.59375 171.300781 90.988281 173.480469 93.660156 175.351562 C 94.863281 176.304688 96.226562 176.902344 97.742188 177.144531 L 97.734375 177.144531 L 97.933594 177.164062 C 98.902344 177.054688 99.804688 176.742188 100.628906 176.222656 C 101.457031 175.703125 102.132812 175.03125 102.652344 174.207031 C 104.171875 171.695312 105.117188 168.984375 105.484375 166.070312 Z M 105.546875 165.777344 " fill-opacity="1" fill-rule="nonzero"/><path fill="#e6e6e6" d="M 106.652344 152.105469 C 106.984375 156.714844 106.613281 161.269531 105.546875 165.769531 L 105.492188 166.074219 C 105.128906 168.988281 104.183594 171.699219 102.664062 174.210938 C 102.140625 175.039062 101.46875 175.710938 100.640625 176.230469 C 99.8125 176.746094 98.914062 177.0625 97.945312 177.167969 L 97.742188 177.148438 L 97.734375 177.148438 C 96.214844 176.90625 94.855469 176.308594 93.648438 175.355469 C 90.976562 173.484375 88.585938 171.308594 86.476562 168.820312 C 84.367188 166.332031 82.609375 163.617188 81.203125 160.675781 C 78.21875 154.492188 76.226562 148.007812 75.226562 141.21875 C 74.847656 138.914062 74.628906 137.082031 74.519531 135.414062 C 74.285156 130.023438 75.027344 124.773438 76.75 119.664062 C 78.648438 113.839844 81.089844 110.460938 83.800781 109.921875 C 84.238281 109.832031 84.679688 109.789062 85.125 109.792969 C 87.902344 109.792969 90.789062 111.660156 94.234375 115.6875 C 94.597656 116.125 94.960938 116.578125 95.320312 117.015625 C 98.203125 121.261719 100.183594 125.890625 101.257812 130.910156 C 102.140625 134.246094 103.242188 137.503906 104.558594 140.691406 C 105.542969 143.371094 106.117188 146.136719 106.28125 148.984375 C 106.378906 150.015625 106.507812 151.070312 106.652344 152.105469 Z M 106.652344 152.105469 " fill-opacity="1" fill-rule="nonzero"/></svg>