<svg xmlns="http://www.w3.org/2000/svg" xmlns:xlink="http://www.w3.org/1999/xlink" width="500" zoomAndPan="magnify" viewBox="0 0 375 374.999991" height="500" preserveAspectRatio="xMidYMid meet" version="1.0"><defs><filter x="0%" y="0%" width="100%" height="100%" id="beac063c6e"><feColorMatrix values="0 0 0 0 1 0 0 0 0 1 0 0 0 0 1 0 0 0 1 0" color-interpolation-filters="sRGB"/></filter><clipPath id="4e858299a6"><path d="M 26.160156 26.160156 L 348.660156 26.160156 L 348.660156 348.660156 L 26.160156 348.660156 Z M 26.160156 26.160156 " clip-rule="nonzero"/></clipPath><mask id="36ef32b54f"><g filter="url(#beac063c6e)"><rect x="-37.5" width="450" fill="#000000" y="-37.499999" height="449.999989" fill-opacity="0.3"/></g></mask><clipPath id="69baa91c8a"><rect x="0" width="141" y="0" height="140"/></clipPath><mask id="8f39767924"><g filter="url(#beac063c6e)"><rect x="-37.5" width="450" fill="#000000" y="-37.499999" height="449.999989" fill-opacity="0.3"/></g></mask><clipPath id="fdfd6752fc"><rect x="0" width="97" y="0" height="98"/></clipPath><mask id="db31c4c4df"><g filter="url(#beac063c6e)"><rect x="-37.5" width="450" fill="#000000" y="-37.499999" height="449.999989" fill-opacity="0.3"/></g></mask><clipPath id="b9e3f92fcc"><rect x="0" width="57" y="0" height="58"/></clipPath></defs><g clip-path="url(#4e858299a6)"><path fill="#f2e4e6" d="M 348.761719 187.460938 C 348.761719 190.101562 348.695312 192.738281 348.566406 195.375 C 348.4375 198.011719 348.242188 200.644531 347.984375 203.269531 C 347.726562 205.898438 347.402344 208.515625 347.015625 211.128906 C 346.628906 213.738281 346.175781 216.339844 345.660156 218.929688 C 345.144531 221.515625 344.566406 224.09375 343.925781 226.652344 C 343.285156 229.214844 342.582031 231.757812 341.816406 234.28125 C 341.046875 236.808594 340.222656 239.316406 339.332031 241.800781 C 338.441406 244.285156 337.492188 246.746094 336.480469 249.1875 C 335.472656 251.625 334.402344 254.039062 333.273438 256.425781 C 332.144531 258.8125 330.957031 261.167969 329.714844 263.496094 C 328.46875 265.824219 327.167969 268.121094 325.8125 270.386719 C 324.453125 272.648438 323.042969 274.878906 321.578125 277.074219 C 320.109375 279.269531 318.589844 281.425781 317.019531 283.546875 C 315.445312 285.667969 313.820312 287.746094 312.148438 289.789062 C 310.472656 291.828125 308.75 293.828125 306.976562 295.78125 C 305.203125 297.738281 303.382812 299.648438 301.515625 301.515625 C 299.648438 303.382812 297.738281 305.203125 295.78125 306.976562 C 293.828125 308.75 291.828125 310.472656 289.789062 312.148438 C 287.746094 313.820312 285.667969 315.445312 283.546875 317.019531 C 281.425781 318.589844 279.269531 320.109375 277.074219 321.578125 C 274.878906 323.042969 272.648438 324.453125 270.386719 325.8125 C 268.121094 327.167969 265.824219 328.46875 263.496094 329.714844 C 261.167969 330.957031 258.8125 332.144531 256.425781 333.273438 C 254.039062 334.402344 251.625 335.472656 249.1875 336.480469 C 246.746094 337.492188 244.285156 338.441406 241.800781 339.332031 C 239.316406 340.222656 236.808594 341.046875 234.28125 341.816406 C 231.757812 342.582031 229.214844 343.285156 226.652344 343.925781 C 224.09375 344.566406 221.515625 345.144531 218.929688 345.660156 C 216.339844 346.175781 213.738281 346.628906 211.128906 347.015625 C 208.515625 347.402344 205.898438 347.726562 203.269531 347.984375 C 200.644531 348.242188 198.011719 348.4375 195.375 348.566406 C 192.738281 348.695312 190.101562 348.761719 187.460938 348.761719 C 184.820312 348.761719 182.183594 348.695312 179.546875 348.566406 C 176.910156 348.4375 174.277344 348.242188 171.648438 347.984375 C 169.023438 347.726562 166.402344 347.402344 163.792969 347.015625 C 161.179688 346.628906 158.582031 346.175781 155.992188 345.660156 C 153.402344 345.144531 150.828125 344.566406 148.265625 343.925781 C 145.707031 343.285156 143.164062 342.582031 140.636719 341.816406 C 138.109375 341.046875 135.605469 340.222656 133.121094 339.332031 C 130.632812 338.441406 128.171875 337.492188 125.734375 336.480469 C 123.292969 335.472656 120.882812 334.402344 118.496094 333.273438 C 116.109375 332.144531 113.75 330.957031 111.421875 329.714844 C 109.09375 328.46875 106.800781 327.167969 104.535156 325.8125 C 102.269531 324.453125 100.039062 323.042969 97.847656 321.578125 C 95.652344 320.109375 93.492188 318.589844 91.375 317.019531 C 89.253906 315.445312 87.171875 313.820312 85.132812 312.148438 C 83.089844 310.472656 81.09375 308.75 79.136719 306.976562 C 77.179688 305.203125 75.269531 303.382812 73.402344 301.515625 C 71.535156 299.648438 69.714844 297.738281 67.945312 295.78125 C 66.171875 293.828125 64.449219 291.828125 62.773438 289.789062 C 61.097656 287.746094 59.472656 285.667969 57.902344 283.546875 C 56.328125 281.425781 54.808594 279.269531 53.34375 277.074219 C 51.875 274.878906 50.464844 272.648438 49.109375 270.386719 C 47.75 268.121094 46.449219 265.824219 45.207031 263.496094 C 43.960938 261.167969 42.773438 258.8125 41.644531 256.425781 C 40.515625 254.039062 39.449219 251.625 38.4375 249.1875 C 37.425781 246.746094 36.476562 244.285156 35.589844 241.800781 C 34.699219 239.316406 33.871094 236.808594 33.105469 234.28125 C 32.339844 231.757812 31.632812 229.214844 30.992188 226.652344 C 30.351562 224.09375 29.773438 221.515625 29.257812 218.929688 C 28.742188 216.339844 28.292969 213.738281 27.90625 211.128906 C 27.519531 208.515625 27.195312 205.898438 26.9375 203.269531 C 26.675781 200.644531 26.484375 198.011719 26.355469 195.375 C 26.222656 192.738281 26.160156 190.101562 26.160156 187.460938 C 26.160156 184.820312 26.222656 182.183594 26.355469 179.546875 C 26.484375 176.910156 26.675781 174.277344 26.9375 171.648438 C 27.195312 169.023438 27.519531 166.402344 27.90625 163.792969 C 28.292969 161.179688 28.742188 158.582031 29.257812 155.992188 C 29.773438 153.402344 30.351562 150.828125 30.992188 148.265625 C 31.632812 145.707031 32.339844 143.164062 33.105469 140.636719 C 33.871094 138.109375 34.699219 135.605469 35.589844 133.121094 C 36.476562 130.632812 37.425781 128.171875 38.4375 125.734375 C 39.449219 123.292969 40.515625 120.882812 41.644531 118.496094 C 42.773438 116.109375 43.960938 113.75 45.207031 111.421875 C 46.449219 109.09375 47.75 106.800781 49.109375 104.535156 C 50.464844 102.269531 51.875 100.039062 53.34375 97.847656 C 54.808594 95.652344 56.328125 93.492188 57.902344 91.375 C 59.472656 89.253906 61.097656 87.171875 62.773438 85.132812 C 64.449219 83.089844 66.171875 81.09375 67.945312 79.136719 C 69.714844 77.179688 71.535156 75.269531 73.402344 73.402344 C 75.269531 71.535156 77.179688 69.714844 79.136719 67.945312 C 81.09375 66.171875 83.089844 64.449219 85.132812 62.773438 C 87.171875 61.097656 89.253906 59.472656 91.375 57.902344 C 93.492188 56.328125 95.652344 54.808594 97.847656 53.34375 C 100.039062 51.875 102.269531 50.464844 104.535156 49.109375 C 106.800781 47.75 109.09375 46.449219 111.421875 45.207031 C 113.75 43.960938 116.109375 42.773438 118.496094 41.644531 C 120.882812 40.515625 123.292969 39.449219 125.734375 38.4375 C 128.171875 37.425781 130.632812 36.476562 133.121094 35.589844 C 135.605469 34.699219 138.109375 33.871094 140.636719 33.105469 C 143.164062 32.339844 145.707031 31.632812 148.265625 30.992188 C 150.828125 30.351562 153.402344 29.773438 155.992188 29.257812 C 158.582031 28.742188 161.179688 28.292969 163.792969 27.90625 C 166.402344 27.519531 169.023438 27.195312 171.648438 26.9375 C 174.277344 26.675781 176.910156 26.484375 179.546875 26.355469 C 182.183594 26.222656 184.820312 26.160156 187.460938 26.160156 C 190.101562 26.160156 192.738281 26.222656 195.375 26.355469 C 198.011719 26.484375 200.644531 26.675781 203.269531 26.9375 C 205.898438 27.195312 208.515625 27.519531 211.128906 27.90625 C 213.738281 28.292969 216.339844 28.742188 218.929688 29.257812 C 221.515625 29.773438 224.09375 30.351562 226.652344 30.992188 C 229.214844 31.632812 231.757812 32.339844 234.28125 33.105469 C 236.808594 33.871094 239.316406 34.699219 241.800781 35.589844 C 244.285156 36.476562 246.746094 37.425781 249.1875 38.4375 C 251.625 39.449219 254.039062 40.515625 256.425781 41.644531 C 258.8125 42.773438 261.167969 43.960938 263.496094 45.207031 C 265.824219 46.449219 268.121094 47.75 270.386719 49.109375 C 272.648438 50.464844 274.878906 51.875 277.074219 53.34375 C 279.269531 54.808594 281.425781 56.328125 283.546875 57.902344 C 285.667969 59.472656 287.746094 61.097656 289.789062 62.773438 C 291.828125 64.449219 293.828125 66.171875 295.78125 67.945312 C 297.738281 69.714844 299.648438 71.535156 301.515625 73.402344 C 303.382812 75.269531 305.203125 77.179688 306.976562 79.136719 C 308.75 81.09375 310.472656 83.089844 312.148438 85.132812 C 313.820312 87.171875 315.445312 89.253906 317.019531 91.375 C 318.589844 93.492188 320.109375 95.652344 321.578125 97.847656 C 323.042969 100.039062 324.453125 102.269531 325.8125 104.535156 C 327.167969 106.800781 328.46875 109.09375 329.714844 111.421875 C 330.957031 113.75 332.144531 116.109375 333.273438 118.496094 C 334.402344 120.882812 335.472656 123.292969 336.480469 125.734375 C 337.492188 128.171875 338.441406 130.632812 339.332031 133.121094 C 340.222656 135.605469 341.046875 138.109375 341.816406 140.636719 C 342.582031 143.164062 343.285156 145.707031 343.925781 148.265625 C 344.566406 150.828125 345.144531 153.402344 345.660156 155.992188 C 346.175781 158.582031 346.628906 161.179688 347.015625 163.792969 C 347.402344 166.402344 347.726562 169.023438 347.984375 171.648438 C 348.242188 174.277344 348.4375 176.910156 348.566406 179.546875 C 348.695312 182.183594 348.761719 184.820312 348.761719 187.460938 Z M 348.761719 187.460938 " fill-opacity="1" fill-rule="nonzero"/></g><path fill="#f2e4e6" d="M 339.097656 187.460938 C 339.097656 189.941406 339.035156 192.421875 338.914062 194.898438 C 338.792969 197.378906 338.609375 199.851562 338.367188 202.324219 C 338.125 204.792969 337.820312 207.253906 337.457031 209.710938 C 337.09375 212.164062 336.667969 214.609375 336.183594 217.042969 C 335.699219 219.476562 335.15625 221.898438 334.554688 224.304688 C 333.949219 226.710938 333.289062 229.101562 332.566406 231.476562 C 331.847656 233.851562 331.070312 236.207031 330.234375 238.546875 C 329.398438 240.882812 328.503906 243.195312 327.554688 245.488281 C 326.605469 247.78125 325.601562 250.050781 324.539062 252.292969 C 323.476562 254.535156 322.363281 256.753906 321.191406 258.941406 C 320.023438 261.128906 318.800781 263.289062 317.523438 265.417969 C 316.246094 267.546875 314.921875 269.640625 313.542969 271.707031 C 312.164062 273.769531 310.734375 275.796875 309.257812 277.789062 C 307.777344 279.785156 306.25 281.738281 304.675781 283.65625 C 303.101562 285.574219 301.484375 287.453125 299.816406 289.292969 C 298.148438 291.132812 296.4375 292.929688 294.683594 294.683594 C 292.929688 296.4375 291.132812 298.148438 289.292969 299.816406 C 287.453125 301.484375 285.574219 303.101562 283.65625 304.675781 C 281.738281 306.25 279.785156 307.777344 277.789062 309.257812 C 275.796875 310.734375 273.769531 312.164062 271.707031 313.542969 C 269.640625 314.921875 267.546875 316.246094 265.417969 317.523438 C 263.289062 318.800781 261.128906 320.023438 258.941406 321.191406 C 256.753906 322.363281 254.535156 323.476562 252.292969 324.539062 C 250.050781 325.601562 247.78125 326.605469 245.488281 327.554688 C 243.195312 328.503906 240.882812 329.398438 238.546875 330.234375 C 236.207031 331.070312 233.851562 331.847656 231.476562 332.566406 C 229.101562 333.289062 226.710938 333.949219 224.304688 334.554688 C 221.898438 335.15625 219.476562 335.699219 217.042969 336.183594 C 214.609375 336.667969 212.164062 337.09375 209.710938 337.457031 C 207.253906 337.820312 204.792969 338.125 202.324219 338.367188 C 199.851562 338.609375 197.378906 338.792969 194.898438 338.914062 C 192.421875 339.035156 189.941406 339.097656 187.460938 339.097656 C 184.976562 339.097656 182.496094 339.035156 180.019531 338.914062 C 177.539062 338.792969 175.066406 338.609375 172.597656 338.367188 C 170.128906 338.125 167.664062 337.820312 165.210938 337.457031 C 162.753906 337.09375 160.3125 336.667969 157.875 336.183594 C 155.441406 335.699219 153.023438 335.15625 150.613281 334.554688 C 148.207031 333.949219 145.816406 333.289062 143.441406 332.566406 C 141.066406 331.847656 138.710938 331.070312 136.375 330.234375 C 134.039062 329.398438 131.722656 328.503906 129.429688 327.554688 C 127.136719 326.605469 124.871094 325.601562 122.625 324.539062 C 120.382812 323.476562 118.167969 322.363281 115.976562 321.191406 C 113.789062 320.023438 111.632812 318.800781 109.503906 317.523438 C 107.375 316.246094 105.277344 314.921875 103.214844 313.542969 C 101.152344 312.164062 99.121094 310.734375 97.128906 309.257812 C 95.136719 307.777344 93.179688 306.25 91.261719 304.675781 C 89.34375 303.101562 87.464844 301.484375 85.625 299.816406 C 83.789062 298.148438 81.992188 296.4375 80.234375 294.683594 C 78.480469 292.929688 76.769531 291.132812 75.105469 289.292969 C 73.4375 287.453125 71.816406 285.574219 70.242188 283.65625 C 68.667969 281.738281 67.140625 279.785156 65.664062 277.789062 C 64.183594 275.796875 62.757812 273.769531 61.378906 271.707031 C 60 269.640625 58.671875 267.546875 57.394531 265.417969 C 56.121094 263.289062 54.898438 261.128906 53.726562 258.941406 C 52.558594 256.753906 51.441406 254.535156 50.382812 252.292969 C 49.320312 250.050781 48.316406 247.78125 47.363281 245.488281 C 46.414062 243.195312 45.523438 240.882812 44.6875 238.546875 C 43.851562 236.207031 43.070312 233.851562 42.351562 231.476562 C 41.632812 229.101562 40.96875 226.710938 40.367188 224.304688 C 39.761719 221.898438 39.21875 219.476562 38.734375 217.042969 C 38.25 214.609375 37.828125 212.164062 37.464844 209.710938 C 37.097656 207.253906 36.796875 204.792969 36.550781 202.324219 C 36.308594 199.851562 36.125 197.378906 36.003906 194.898438 C 35.882812 192.421875 35.820312 189.941406 35.820312 187.460938 C 35.820312 184.976562 35.882812 182.496094 36.003906 180.019531 C 36.125 177.539062 36.308594 175.066406 36.550781 172.597656 C 36.796875 170.128906 37.097656 167.664062 37.464844 165.210938 C 37.828125 162.753906 38.25 160.3125 38.734375 157.875 C 39.21875 155.441406 39.761719 153.023438 40.367188 150.613281 C 40.96875 148.207031 41.632812 145.816406 42.351562 143.441406 C 43.070312 141.066406 43.851562 138.710938 44.6875 136.375 C 45.523438 134.039062 46.414062 131.722656 47.363281 129.429688 C 48.316406 127.136719 49.320312 124.871094 50.382812 122.625 C 51.441406 120.382812 52.558594 118.167969 53.726562 115.976562 C 54.898438 113.789062 56.121094 111.632812 57.394531 109.503906 C 58.671875 107.375 60 105.277344 61.378906 103.214844 C 62.757812 101.152344 64.183594 99.121094 65.664062 97.128906 C 67.140625 95.136719 68.667969 93.179688 70.242188 91.261719 C 71.816406 89.34375 73.4375 87.464844 75.105469 85.625 C 76.769531 83.789062 78.480469 81.992188 80.234375 80.234375 C 81.992188 78.480469 83.789062 76.769531 85.625 75.105469 C 87.464844 73.4375 89.34375 71.816406 91.261719 70.242188 C 93.179688 68.667969 95.136719 67.140625 97.128906 65.664062 C 99.121094 64.183594 101.152344 62.757812 103.214844 61.378906 C 105.277344 60 107.375 58.671875 109.503906 57.394531 C 111.632812 56.121094 113.789062 54.898438 115.976562 53.726562 C 118.167969 52.558594 120.382812 51.441406 122.625 50.382812 C 124.871094 49.320312 127.136719 48.316406 129.429688 47.363281 C 131.722656 46.414062 134.039062 45.523438 136.375 44.6875 C 138.710938 43.851562 141.066406 43.070312 143.441406 42.351562 C 145.816406 41.632812 148.207031 40.96875 150.613281 40.367188 C 153.023438 39.761719 155.441406 39.21875 157.875 38.734375 C 160.3125 38.25 162.753906 37.828125 165.210938 37.464844 C 167.664062 37.097656 170.128906 36.796875 172.597656 36.550781 C 175.066406 36.308594 177.539062 36.125 180.019531 36.003906 C 182.496094 35.882812 184.976562 35.820312 187.460938 35.820312 C 189.941406 35.820312 192.421875 35.882812 194.898438 36.003906 C 197.378906 36.125 199.851562 36.308594 202.324219 36.550781 C 204.792969 36.796875 207.253906 37.097656 209.710938 37.464844 C 212.164062 37.828125 214.609375 38.25 217.042969 38.734375 C 219.476562 39.21875 221.898438 39.761719 224.304688 40.367188 C 226.710938 40.96875 229.101562 41.632812 231.476562 42.351562 C 233.851562 43.070312 236.207031 43.851562 238.546875 44.6875 C 240.882812 45.523438 243.195312 46.414062 245.488281 47.363281 C 247.78125 48.316406 250.050781 49.320312 252.292969 50.382812 C 254.535156 51.441406 256.753906 52.558594 258.941406 53.726562 C 261.128906 54.898438 263.289062 56.121094 265.417969 57.394531 C 267.546875 58.671875 269.640625 60 271.707031 61.378906 C 273.769531 62.757812 275.796875 64.183594 277.789062 65.664062 C 279.785156 67.140625 281.738281 68.667969 283.65625 70.242188 C 285.574219 71.816406 287.453125 73.4375 289.292969 75.105469 C 291.132812 76.769531 292.929688 78.480469 294.683594 80.234375 C 296.4375 81.992188 298.148438 83.789062 299.816406 85.625 C 301.484375 87.464844 303.101562 89.34375 304.675781 91.261719 C 306.25 93.179688 307.777344 95.136719 309.257812 97.128906 C 310.734375 99.121094 312.164062 101.152344 313.542969 103.214844 C 314.921875 105.277344 316.246094 107.375 317.523438 109.503906 C 318.800781 111.632812 320.023438 113.789062 321.191406 115.976562 C 322.363281 118.167969 323.476562 120.382812 324.539062 122.625 C 325.601562 124.871094 326.605469 127.136719 327.554688 129.429688 C 328.503906 131.722656 329.398438 134.039062 330.234375 136.375 C 331.070312 138.710938 331.847656 141.066406 332.566406 143.441406 C 333.289062 145.816406 333.949219 148.207031 334.554688 150.613281 C 335.15625 153.023438 335.699219 155.441406 336.183594 157.875 C 336.667969 160.3125 337.09375 162.753906 337.457031 165.210938 C 337.820312 167.664062 338.125 170.128906 338.367188 172.597656 C 338.609375 175.066406 338.792969 177.539062 338.914062 180.019531 C 339.035156 182.496094 339.097656 184.976562 339.097656 187.460938 Z M 339.097656 187.460938 " fill-opacity="1" fill-rule="nonzero"/><path fill="#fcc697" d="M 282.351562 209.664062 C 280.71875 208.648438 278.707031 208.484375 276.78125 208.449219 C 270.246094 208.332031 263.699219 209.453125 257.550781 211.667969 C 251.046875 214.011719 246.222656 218.058594 240.441406 221.496094 C 240.140625 217.042969 241.6875 211.769531 242.371094 207.324219 C 243.109375 202.492188 243.898438 197.667969 244.796875 192.863281 C 246.617188 183.085938 248.871094 173.378906 251.976562 163.925781 C 257.078125 148.382812 264.511719 133.324219 265.9375 117.027344 C 266.359375 112.234375 265.890625 106.65625 262.007812 103.816406 C 259.050781 101.65625 254.835938 101.839844 251.566406 103.492188 C 245.261719 106.675781 243.273438 112.636719 241.179688 118.839844 C 239.089844 125.035156 237.253906 131.3125 235.398438 137.578125 C 233.445312 144.171875 231.503906 150.773438 229.339844 157.296875 C 227.492188 162.859375 224.640625 168.242188 222.953125 173.800781 C 227.578125 158.554688 232.945312 130.503906 234.160156 114.621094 C 234.609375 108.753906 234.207031 101.65625 229.113281 98.703125 C 224.832031 96.21875 219.074219 98.214844 215.765625 101.898438 C 212.457031 105.582031 211.007812 110.527344 209.652344 115.292969 C 206.277344 127.171875 201.046875 158.417969 196.464844 170.375 C 197.324219 157.992188 202.046875 127.171875 204.027344 116.292969 C 204.492188 113.742188 204.265625 111.082031 203.453125 108.625 C 203.058594 107.433594 202.527344 106.246094 201.832031 105.195312 C 201.09375 104.074219 199.769531 103.34375 198.707031 102.53125 C 198.433594 102.328125 198.160156 102.117188 197.851562 101.964844 C 197.402344 101.742188 196.902344 101.648438 196.402344 101.59375 C 187.140625 100.554688 183.117188 110.285156 180.75 117.496094 C 177.855469 126.316406 176.691406 135.753906 175.574219 144.933594 C 174.957031 150 174.4375 155.082031 173.953125 160.160156 C 173.734375 162.484375 173.519531 164.808594 173.308594 167.136719 C 173.144531 168.96875 173.382812 171.574219 172.746094 173.296875 C 172.652344 173.558594 172.632812 173.726562 172.503906 173.953125 C 171.542969 171.066406 171.644531 167.34375 171.390625 164.296875 C 171.113281 160.96875 170.914062 157.632812 170.800781 154.296875 C 170.738281 152.542969 170.695312 150.769531 170.210938 149.085938 C 169.335938 146.070312 167.148438 143.65625 165.324219 141.101562 C 163.496094 138.550781 161.9375 135.445312 162.621094 132.378906 C 162.921875 131.011719 163.652344 129.773438 164.039062 128.429688 C 164.539062 126.671875 164.433594 124.800781 164.148438 122.996094 C 163.667969 119.953125 162.574219 116.847656 160.25 114.824219 C 155.046875 110.300781 145.78125 113.371094 141.914062 118.269531 C 136.773438 124.777344 134.589844 134.003906 137.859375 141.625 C 139.734375 145.992188 143.203125 149.554688 144.90625 153.992188 C 147.800781 161.550781 145.851562 170.546875 145.160156 178.339844 C 144.351562 187.5 143.546875 196.65625 142.738281 205.8125 C 141.351562 221.539062 139.96875 237.273438 139.632812 253.050781 C 139.101562 278.148438 135.664062 303.199219 129.597656 327.636719 C 149.90625 335.996094 171.785156 339.835938 193.613281 338.964844 C 199.027344 322.363281 205.769531 306.972656 215.964844 292.515625 C 220.613281 285.921875 225.78125 279.714844 231.007812 273.566406 C 246.191406 255.710938 266.984375 245.222656 281.296875 225.941406 C 284.960938 221.015625 287.570312 212.910156 282.351562 209.664062 Z M 282.351562 209.664062 " fill-opacity="1" fill-rule="nonzero"/><g mask="url(#36ef32b54f)"><g transform="matrix(1, 0, 0, 1, 86, 80)"><g clip-path="url(#69baa91c8a)"><path fill="#ed1c24" d="M 103.753906 36.289062 C 104.867188 37.386719 105.925781 38.535156 106.925781 39.738281 C 107.925781 40.941406 108.863281 42.1875 109.742188 43.480469 C 110.617188 44.777344 111.429688 46.109375 112.175781 47.484375 C 112.921875 48.859375 113.597656 50.265625 114.207031 51.707031 C 114.8125 53.148438 115.347656 54.617188 115.8125 56.113281 C 116.273438 57.605469 116.664062 59.121094 116.976562 60.652344 C 117.292969 62.183594 117.53125 63.730469 117.691406 65.285156 C 117.855469 66.84375 117.941406 68.40625 117.949219 69.96875 C 117.957031 71.535156 117.890625 73.097656 117.746094 74.660156 C 117.601562 76.21875 117.378906 77.765625 117.082031 79.304688 C 116.785156 80.84375 116.414062 82.363281 115.96875 83.867188 C 115.523438 85.367188 115.003906 86.84375 114.414062 88.296875 C 113.820312 89.75 113.160156 91.167969 112.429688 92.554688 C 111.699219 93.941406 110.90625 95.289062 110.042969 96.601562 C 109.179688 97.910156 108.253906 99.171875 107.269531 100.390625 C 106.28125 101.613281 105.238281 102.78125 104.136719 103.894531 C 103.039062 105.011719 101.882812 106.074219 100.679688 107.078125 C 99.476562 108.082031 98.222656 109.023438 96.925781 109.90625 C 95.628906 110.785156 94.292969 111.601562 92.917969 112.351562 C 91.539062 113.101562 90.132812 113.78125 88.6875 114.394531 C 87.246094 115.007812 85.777344 115.546875 84.28125 116.011719 C 82.785156 116.480469 81.269531 116.875 79.734375 117.191406 C 78.203125 117.511719 76.65625 117.753906 75.097656 117.921875 C 73.542969 118.089844 71.980469 118.179688 70.414062 118.191406 C 68.847656 118.207031 67.285156 118.144531 65.726562 118.003906 C 64.167969 117.863281 62.621094 117.648438 61.082031 117.355469 C 59.546875 117.0625 58.027344 116.695312 56.527344 116.253906 C 55.027344 115.8125 53.550781 115.300781 52.101562 114.714844 C 50.648438 114.128906 49.234375 113.46875 47.847656 112.746094 C 46.464844 112.019531 45.117188 111.226562 43.808594 110.367188 C 42.503906 109.507812 41.242188 108.589844 40.027344 107.605469 C 38.8125 106.625 37.644531 105.582031 36.53125 104.484375 C 35.417969 103.386719 34.363281 102.238281 33.363281 101.039062 C 32.363281 99.835938 31.425781 98.585938 30.546875 97.292969 C 29.667969 96 28.859375 94.664062 28.113281 93.289062 C 27.367188 91.917969 26.691406 90.507812 26.082031 89.066406 C 25.476562 87.625 24.941406 86.15625 24.476562 84.664062 C 24.015625 83.167969 23.625 81.65625 23.3125 80.121094 C 22.996094 78.589844 22.757812 77.046875 22.597656 75.488281 C 22.433594 73.929688 22.347656 72.371094 22.339844 70.804688 C 22.332031 69.238281 22.398438 67.675781 22.542969 66.117188 C 22.6875 64.558594 22.910156 63.007812 23.207031 61.46875 C 23.503906 59.933594 23.875 58.410156 24.320312 56.910156 C 24.765625 55.40625 25.285156 53.929688 25.875 52.480469 C 26.464844 51.027344 27.128906 49.609375 27.855469 48.21875 C 28.585938 46.832031 29.382812 45.484375 30.246094 44.175781 C 31.109375 42.867188 32.03125 41.601562 33.019531 40.382812 C 34.007812 39.164062 35.050781 37.996094 36.148438 36.878906 C 37.25 35.761719 38.402344 34.703125 39.609375 33.699219 C 40.8125 32.695312 42.0625 31.75 43.359375 30.871094 C 44.65625 29.988281 45.996094 29.175781 47.371094 28.421875 C 48.746094 27.671875 50.15625 26.992188 51.601562 26.382812 C 53.042969 25.769531 54.511719 25.230469 56.007812 24.761719 C 57.503906 24.292969 59.019531 23.902344 60.554688 23.582031 C 62.085938 23.261719 63.632812 23.019531 65.191406 22.851562 C 66.746094 22.6875 68.308594 22.597656 69.875 22.582031 C 71.441406 22.570312 73 22.632812 74.5625 22.773438 C 76.121094 22.910156 77.667969 23.128906 79.207031 23.417969 C 80.742188 23.710938 82.261719 24.078125 83.761719 24.519531 C 85.261719 24.960938 86.738281 25.476562 88.1875 26.0625 C 89.636719 26.648438 91.054688 27.304688 92.441406 28.03125 C 93.824219 28.757812 95.171875 29.546875 96.476562 30.40625 C 97.785156 31.265625 99.046875 32.1875 100.261719 33.167969 C 101.476562 34.152344 102.640625 35.191406 103.753906 36.289062 Z M 103.753906 36.289062 " fill-opacity="1" fill-rule="nonzero"/></g></g></g><g mask="url(#8f39767924)"><g transform="matrix(1, 0, 0, 1, 108, 101)"><g clip-path="url(#fdfd6752fc)"><path fill="#ed1c24" d="M 70.984375 26.21875 C 71.738281 26.964844 72.457031 27.746094 73.136719 28.5625 C 73.816406 29.378906 74.453125 30.226562 75.050781 31.105469 C 75.644531 31.984375 76.199219 32.890625 76.703125 33.824219 C 77.210938 34.757812 77.671875 35.714844 78.082031 36.695312 C 78.496094 37.675781 78.859375 38.671875 79.175781 39.6875 C 79.488281 40.703125 79.753906 41.730469 79.96875 42.773438 C 80.179688 43.8125 80.34375 44.863281 80.453125 45.921875 C 80.5625 46.980469 80.621094 48.039062 80.625 49.105469 C 80.632812 50.167969 80.585938 51.230469 80.488281 52.289062 C 80.390625 53.347656 80.242188 54.402344 80.039062 55.445312 C 79.835938 56.492188 79.585938 57.523438 79.28125 58.546875 C 78.980469 59.566406 78.625 60.570312 78.226562 61.558594 C 77.824219 62.542969 77.375 63.507812 76.878906 64.449219 C 76.382812 65.394531 75.839844 66.308594 75.253906 67.199219 C 74.667969 68.089844 74.039062 68.949219 73.371094 69.777344 C 72.699219 70.605469 71.992188 71.398438 71.242188 72.15625 C 70.496094 72.914062 69.710938 73.636719 68.894531 74.316406 C 68.074219 75 67.226562 75.640625 66.34375 76.238281 C 65.460938 76.839844 64.554688 77.390625 63.617188 77.902344 C 62.683594 78.410156 61.726562 78.875 60.746094 79.289062 C 59.765625 79.707031 58.765625 80.074219 57.75 80.390625 C 56.734375 80.707031 55.703125 80.976562 54.660156 81.191406 C 53.621094 81.40625 52.570312 81.574219 51.511719 81.6875 C 50.453125 81.800781 49.390625 81.863281 48.328125 81.871094 C 47.265625 81.878906 46.203125 81.835938 45.144531 81.742188 C 44.085938 81.648438 43.03125 81.5 41.988281 81.300781 C 40.941406 81.105469 39.910156 80.855469 38.890625 80.554688 C 37.871094 80.253906 36.867188 79.90625 35.882812 79.507812 C 34.898438 79.109375 33.933594 78.664062 32.996094 78.167969 C 32.054688 77.675781 31.136719 77.136719 30.25 76.554688 C 29.363281 75.96875 28.503906 75.34375 27.679688 74.675781 C 26.851562 74.007812 26.0625 73.304688 25.304688 72.558594 C 24.550781 71.8125 23.832031 71.03125 23.152344 70.214844 C 22.472656 69.398438 21.835938 68.550781 21.238281 67.671875 C 20.640625 66.789062 20.089844 65.882812 19.582031 64.949219 C 19.078125 64.015625 18.617188 63.058594 18.203125 62.082031 C 17.792969 61.101562 17.429688 60.101562 17.113281 59.089844 C 16.800781 58.074219 16.535156 57.042969 16.320312 56.003906 C 16.109375 54.960938 15.945312 53.910156 15.835938 52.851562 C 15.726562 51.796875 15.667969 50.734375 15.660156 49.671875 C 15.65625 48.605469 15.703125 47.546875 15.800781 46.484375 C 15.898438 45.425781 16.046875 44.375 16.25 43.328125 C 16.453125 42.28125 16.703125 41.25 17.007812 40.230469 C 17.308594 39.207031 17.664062 38.203125 18.0625 37.21875 C 18.464844 36.230469 18.914062 35.265625 19.410156 34.324219 C 19.90625 33.382812 20.449219 32.464844 21.035156 31.578125 C 21.621094 30.6875 22.246094 29.828125 22.917969 29 C 23.589844 28.171875 24.296875 27.378906 25.046875 26.617188 C 25.792969 25.859375 26.578125 25.140625 27.394531 24.457031 C 28.214844 23.773438 29.0625 23.136719 29.945312 22.535156 C 30.828125 21.9375 31.734375 21.382812 32.667969 20.875 C 33.605469 20.363281 34.5625 19.902344 35.542969 19.484375 C 36.523438 19.070312 37.523438 18.703125 38.539062 18.386719 C 39.554688 18.066406 40.585938 17.800781 41.625 17.582031 C 42.667969 17.367188 43.71875 17.203125 44.777344 17.089844 C 45.835938 16.976562 46.898438 16.914062 47.960938 16.902344 C 49.023438 16.894531 50.085938 16.9375 51.144531 17.03125 C 52.203125 17.128906 53.257812 17.273438 54.300781 17.472656 C 55.34375 17.671875 56.378906 17.921875 57.398438 18.222656 C 58.417969 18.519531 59.417969 18.871094 60.40625 19.269531 C 61.390625 19.667969 62.351562 20.113281 63.292969 20.605469 C 64.234375 21.097656 65.148438 21.636719 66.039062 22.222656 C 66.925781 22.804688 67.78125 23.429688 68.609375 24.097656 C 69.433594 24.765625 70.226562 25.472656 70.984375 26.21875 Z M 70.984375 26.21875 " fill-opacity="1" fill-rule="nonzero"/></g></g></g><g mask="url(#db31c4c4df)"><g transform="matrix(1, 0, 0, 1, 127, 122)"><g clip-path="url(#b9e3f92fcc)"><path fill="#ed1c24" d="M 42.164062 15.179688 C 42.597656 15.605469 43.003906 16.050781 43.394531 16.515625 C 43.78125 16.980469 44.144531 17.464844 44.484375 17.964844 C 44.824219 18.464844 45.136719 18.984375 45.425781 19.515625 C 45.714844 20.046875 45.976562 20.59375 46.214844 21.152344 C 46.449219 21.710938 46.65625 22.277344 46.835938 22.855469 C 47.015625 23.4375 47.164062 24.023438 47.285156 24.617188 C 47.40625 25.210938 47.5 25.808594 47.5625 26.410156 C 47.625 27.015625 47.660156 27.621094 47.664062 28.226562 C 47.667969 28.832031 47.640625 29.4375 47.582031 30.042969 C 47.527344 30.644531 47.441406 31.246094 47.328125 31.839844 C 47.210938 32.4375 47.070312 33.027344 46.894531 33.609375 C 46.722656 34.191406 46.523438 34.761719 46.292969 35.324219 C 46.0625 35.886719 45.808594 36.4375 45.523438 36.976562 C 45.242188 37.511719 44.933594 38.035156 44.601562 38.542969 C 44.265625 39.050781 43.90625 39.539062 43.527344 40.011719 C 43.144531 40.484375 42.738281 40.933594 42.3125 41.367188 C 41.886719 41.800781 41.441406 42.210938 40.972656 42.601562 C 40.507812 42.988281 40.023438 43.355469 39.519531 43.695312 C 39.015625 44.035156 38.5 44.351562 37.964844 44.644531 C 37.433594 44.933594 36.886719 45.199219 36.328125 45.433594 C 35.769531 45.671875 35.199219 45.882812 34.621094 46.0625 C 34.039062 46.242188 33.453125 46.394531 32.859375 46.519531 C 32.265625 46.640625 31.667969 46.738281 31.0625 46.800781 C 30.460938 46.867188 29.855469 46.902344 29.25 46.90625 C 28.640625 46.910156 28.039062 46.886719 27.433594 46.832031 C 26.828125 46.777344 26.230469 46.695312 25.632812 46.582031 C 25.039062 46.46875 24.449219 46.328125 23.867188 46.15625 C 23.289062 45.984375 22.714844 45.785156 22.152344 45.558594 C 21.59375 45.332031 21.042969 45.078125 20.507812 44.796875 C 19.96875 44.515625 19.449219 44.207031 18.941406 43.875 C 18.4375 43.542969 17.949219 43.1875 17.476562 42.804688 C 17.007812 42.425781 16.554688 42.023438 16.125 41.597656 C 15.691406 41.171875 15.28125 40.726562 14.894531 40.261719 C 14.507812 39.796875 14.144531 39.3125 13.804688 38.8125 C 13.464844 38.308594 13.152344 37.792969 12.863281 37.261719 C 12.574219 36.726562 12.3125 36.183594 12.074219 35.625 C 11.839844 35.066406 11.632812 34.496094 11.453125 33.917969 C 11.273438 33.339844 11.125 32.753906 11.003906 32.160156 C 10.878906 31.566406 10.789062 30.96875 10.726562 30.363281 C 10.664062 29.761719 10.628906 29.15625 10.625 28.550781 C 10.621094 27.941406 10.648438 27.335938 10.703125 26.734375 C 10.761719 26.128906 10.847656 25.53125 10.960938 24.933594 C 11.078125 24.335938 11.21875 23.75 11.394531 23.167969 C 11.566406 22.585938 11.765625 22.011719 11.996094 21.449219 C 12.222656 20.886719 12.480469 20.339844 12.761719 19.800781 C 13.046875 19.261719 13.355469 18.742188 13.6875 18.234375 C 14.023438 17.726562 14.382812 17.238281 14.761719 16.765625 C 15.144531 16.292969 15.550781 15.839844 15.976562 15.40625 C 16.402344 14.972656 16.847656 14.5625 17.316406 14.175781 C 17.78125 13.785156 18.265625 13.421875 18.769531 13.078125 C 19.269531 12.738281 19.789062 12.421875 20.324219 12.132812 C 20.855469 11.839844 21.402344 11.578125 21.960938 11.339844 C 22.519531 11.101562 23.089844 10.894531 23.667969 10.714844 C 24.246094 10.53125 24.835938 10.378906 25.429688 10.257812 C 26.023438 10.132812 26.621094 10.039062 27.226562 9.972656 C 27.828125 9.910156 28.433594 9.875 29.039062 9.867188 C 29.644531 9.863281 30.25 9.886719 30.855469 9.941406 C 31.460938 9.996094 32.058594 10.078125 32.65625 10.191406 C 33.25 10.304688 33.839844 10.449219 34.417969 10.621094 C 35 10.789062 35.574219 10.988281 36.132812 11.214844 C 36.695312 11.445312 37.246094 11.699219 37.78125 11.980469 C 38.316406 12.261719 38.839844 12.566406 39.34375 12.898438 C 39.851562 13.234375 40.339844 13.589844 40.8125 13.96875 C 41.28125 14.351562 41.734375 14.753906 42.164062 15.179688 Z M 42.164062 15.179688 " fill-opacity="1" fill-rule="nonzero"/></g></g></g><path fill="#f2e4e6" d="M 155.738281 158.667969 C 155.164062 160.0625 155.921875 161.679688 156.28125 163.046875 C 156.703125 164.65625 157.003906 166.292969 157.207031 167.949219 C 157.621094 171.273438 157.660156 174.636719 157.695312 177.984375 C 157.726562 180.570312 157.703125 182.789062 156.699219 185.171875 C 156.421875 185.828125 156.140625 186.511719 156.214844 187.21875 C 156.308594 188.132812 157.007812 188.90625 157.84375 189.292969 C 158.675781 189.675781 159.628906 189.726562 160.546875 189.664062 C 162.097656 189.550781 163.613281 189.128906 165.070312 188.59375 C 165.394531 188.476562 165.71875 188.351562 166.007812 188.164062 C 166.582031 187.789062 166.976562 187.191406 167.273438 186.574219 C 167.613281 185.863281 167.851562 185.082031 167.804688 184.296875 C 167.753906 183.511719 167.375 182.71875 166.703125 182.308594 C 166.171875 181.984375 165.617188 181.320312 165.222656 180.839844 C 164.6875 180.1875 164.535156 179.3125 164.40625 178.476562 C 163.878906 175.121094 163.351562 171.757812 162.980469 168.378906 C 162.808594 166.785156 162.304688 164.730469 162.554688 163.140625 C 162.75 161.90625 163.636719 160.960938 164.1875 159.835938 C 164.703125 158.769531 164.671875 156.53125 163.140625 156.160156 C 162.753906 156.066406 162.363281 156.222656 161.992188 156.367188 C 161.09375 156.710938 160.132812 156.980469 159.183594 156.867188 C 157.582031 156.667969 156.402344 157.058594 155.738281 158.667969 Z M 155.738281 158.667969 " fill-opacity="1" fill-rule="nonzero"/><path fill="#f2e4e6" d="M 149.363281 136.753906 C 148.378906 137.390625 147.351562 138.371094 147.546875 139.527344 C 147.730469 140.621094 148.886719 141.210938 149.746094 141.917969 C 150.792969 142.78125 151.5 143.980469 152.183594 145.15625 C 153.015625 146.597656 153.855469 148.039062 154.691406 149.480469 C 154.914062 149.863281 155.140625 150.261719 155.230469 150.699219 C 155.332031 151.226562 155.226562 151.773438 155.320312 152.296875 C 155.65625 154.226562 157.734375 154.261719 159.230469 153.984375 C 159.46875 153.9375 159.710938 153.894531 159.929688 153.792969 C 160.257812 153.636719 160.507812 153.367188 160.742188 153.097656 C 160.871094 152.953125 161 152.804688 161.105469 152.640625 C 161.890625 151.453125 162.351562 150.046875 161.296875 148.8125 C 160.84375 148.285156 160.234375 148.074219 159.71875 147.664062 C 159.089844 147.164062 158.707031 146.332031 158.273438 145.660156 C 157.234375 144.039062 156.1875 142.417969 155.148438 140.796875 C 154.734375 140.152344 154.316406 139.503906 154.058594 138.785156 C 153.703125 137.796875 153.632812 136.65625 152.925781 135.875 C 152.695312 135.621094 152.375 135.410156 152.027344 135.425781 C 151.824219 135.429688 151.636719 135.515625 151.449219 135.601562 C 150.726562 135.9375 150.03125 136.324219 149.363281 136.753906 Z M 149.363281 136.753906 " fill-opacity="1" fill-rule="nonzero"/><path fill="#f2e4e6" d="M 147.183594 129.269531 C 146.617188 130.441406 145.679688 130.941406 146.125 132.464844 C 146.34375 133.21875 146.882812 133.871094 147.582031 134.226562 C 147.90625 134.390625 148.257812 134.496094 148.613281 134.578125 C 148.945312 134.660156 149.285156 134.71875 149.625 134.707031 C 151.117188 134.640625 152.183594 133.128906 151.789062 131.695312 C 151.648438 131.183594 151.203125 130.835938 151.035156 130.34375 C 150.863281 129.832031 150.960938 129.144531 151.007812 128.617188 C 151.117188 127.355469 151.453125 126.125 151.558594 124.859375 C 151.585938 124.507812 151.597656 124.144531 151.476562 123.816406 C 151.355469 123.484375 151.074219 123.1875 150.726562 123.144531 C 150.519531 123.121094 150.3125 123.183594 150.121094 123.261719 C 149.34375 123.574219 148.6875 124.171875 148.300781 124.914062 C 147.589844 126.269531 147.84375 127.902344 147.183594 129.269531 Z M 147.183594 129.269531 " fill-opacity="1" fill-rule="nonzero"/><path fill="#ed1c24" d="M 71.332031 156.390625 C 71.785156 157.371094 72.769531 158.085938 73.820312 158.417969 C 75.066406 158.8125 76.40625 158.765625 77.714844 158.710938 C 80.996094 158.574219 84.082031 158.714844 87.351562 158.992188 C 90.558594 159.261719 93.773438 159.636719 96.980469 159.800781 C 98.074219 159.894531 99.3125 159.9375 100.109375 159.183594 C 101.867188 157.515625 99.757812 153.796875 101.746094 152.414062 C 107.605469 152.597656 113.449219 153.144531 119.242188 154.042969 C 119.882812 154.144531 120.507812 153.96875 121.140625 153.835938 C 121.242188 153.167969 120.527344 152.699219 119.910156 152.421875 C 112.644531 149.132812 104.996094 146.746094 97.15625 145.304688 C 96.589844 145.203125 96.015625 145.101562 95.449219 145.167969 C 94.878906 145.234375 94.304688 145.488281 93.984375 145.96875 C 93.777344 146.277344 93.695312 146.65625 93.617188 147.019531 C 93.371094 148.179688 93.375 150.199219 92.296875 150.925781 C 91.339844 151.566406 89.90625 151.28125 88.875 150.992188 C 86.027344 150.191406 83.113281 149.628906 80.175781 149.304688 C 78.738281 149.144531 77.289062 149.042969 75.84375 149 C 74.894531 148.972656 73.296875 148.730469 72.542969 149.445312 C 72.125 149.84375 71.914062 150.40625 71.746094 150.953125 C 71.402344 152.074219 71.183594 153.234375 71.09375 154.402344 C 71.054688 154.871094 71.039062 155.347656 71.140625 155.804688 C 71.179688 156.007812 71.246094 156.203125 71.332031 156.390625 Z M 71.332031 156.390625 " fill-opacity="1" fill-rule="nonzero"/><path fill="#ed1c24" d="M 84.148438 115.570312 C 84.125 115.832031 84.121094 116.097656 84.144531 116.355469 C 84.378906 118.765625 88.34375 119.921875 90.175781 120.933594 C 91.507812 121.667969 92.839844 122.40625 94.171875 123.144531 C 94.636719 123.398438 97.867188 124.789062 97.902344 125.207031 C 98.863281 125.738281 99.972656 126.285156 101.011719 125.921875 C 103.296875 125.117188 102.894531 120.863281 105.273438 120.410156 C 110.542969 122.976562 115.65625 125.867188 120.574219 129.054688 C 121.113281 129.40625 121.757812 129.503906 122.386719 129.640625 C 122.753906 129.074219 122.289062 128.351562 121.847656 127.847656 C 116.5625 121.871094 110.558594 116.566406 103.988281 112.046875 C 103.515625 111.71875 103.035156 111.394531 102.488281 111.222656 C 101.941406 111.050781 101.3125 111.050781 100.828125 111.355469 C 100.511719 111.554688 100.28125 111.863281 100.058594 112.164062 C 99.648438 112.726562 99.207031 113.351562 98.871094 113.957031 C 98.601562 114.449219 98.511719 114.960938 97.820312 115.015625 C 97.324219 115.058594 96.851562 114.828125 96.417969 114.589844 C 94.601562 113.578125 92.96875 112.261719 91.164062 111.222656 C 90.195312 110.667969 89.183594 110.191406 88.152344 109.769531 C 85.351562 108.621094 84.871094 112.335938 84.390625 114.273438 C 84.285156 114.703125 84.1875 115.136719 84.148438 115.570312 Z M 84.148438 115.570312 " fill-opacity="1" fill-rule="nonzero"/><path fill="#ed1c24" d="M 101.488281 203.742188 C 101.730469 203.839844 101.980469 203.917969 102.238281 203.972656 C 104.613281 204.445312 106.867188 200.984375 108.363281 199.527344 C 109.453125 198.464844 110.542969 197.402344 111.636719 196.339844 C 112.015625 195.96875 114.28125 193.28125 114.691406 193.367188 C 115.476562 192.601562 116.320312 191.695312 116.273438 190.601562 C 116.164062 188.179688 111.976562 187.335938 112.234375 184.925781 C 116.210938 180.621094 120.457031 176.5625 124.929688 172.78125 C 125.425781 172.363281 125.703125 171.777344 126.015625 171.210938 C 125.578125 170.695312 124.753906 170.929688 124.144531 171.210938 C 116.894531 174.542969 110.082031 178.757812 103.851562 183.734375 C 103.40625 184.089844 102.953125 184.460938 102.628906 184.933594 C 102.304688 185.402344 102.125 186.007812 102.277344 186.558594 C 102.375 186.921875 102.605469 187.230469 102.832031 187.53125 C 103.25 188.085938 103.722656 188.6875 104.203125 189.183594 C 104.59375 189.585938 105.058594 189.816406 104.914062 190.496094 C 104.808594 190.984375 104.453125 191.367188 104.097656 191.714844 C 102.605469 193.164062 100.871094 194.34375 99.355469 195.769531 C 98.542969 196.535156 97.792969 197.367188 97.089844 198.230469 C 95.179688 200.582031 98.597656 202.113281 100.316406 203.132812 C 100.695312 203.359375 101.082031 203.574219 101.488281 203.742188 Z M 101.488281 203.742188 " fill-opacity="1" fill-rule="nonzero"/></svg>