<svg xmlns="http://www.w3.org/2000/svg" xmlns:xlink="http://www.w3.org/1999/xlink" width="1080" zoomAndPan="magnify" viewBox="0 0 810 1012.49997" height="1350" preserveAspectRatio="xMidYMid meet" version="1.0"><defs><clipPath id="c0d3a231ab"><path d="M 0.199219 0 L 809.800781 0 L 809.800781 1012 L 0.199219 1012 Z M 0.199219 0 " clip-rule="nonzero"/></clipPath><clipPath id="319884134f"><path d="M 81.160156 79 L 384.761719 79 L 384.761719 416.886719 L 81.160156 416.886719 Z M 81.160156 79 " clip-rule="nonzero"/></clipPath><clipPath id="e9ac3afd80"><path d="M 452 506.441406 L 498 506.441406 L 498 537 L 452 537 Z M 452 506.441406 " clip-rule="nonzero"/></clipPath><clipPath id="1e795b7260"><path d="M 611 799 L 728 799 L 728 932.984375 L 611 932.984375 Z M 611 799 " clip-rule="nonzero"/></clipPath><clipPath id="4ac147ddd8"><path d="M 452 275 L 559 275 L 559 416 L 452 416 Z M 452 275 " clip-rule="nonzero"/></clipPath><clipPath id="fc1f72a044"><path d="M 538.128906 416.824219 L 430.773438 295.613281 L 468.371094 262.3125 L 575.726562 383.523438 Z M 538.128906 416.824219 " clip-rule="nonzero"/></clipPath><clipPath id="32de2a1461"><path d="M 430.773438 295.613281 L 538.128906 416.824219 L 575.726562 383.523438 L 468.371094 262.3125 Z M 430.773438 295.613281 " clip-rule="nonzero"/></clipPath><clipPath id="d36cdc50d2"><path d="M 430.773438 295.613281 L 538.128906 416.824219 L 575.726562 383.523438 L 468.371094 262.3125 Z M 430.773438 295.613281 " clip-rule="nonzero"/></clipPath></defs><g clip-path="url(#c0d3a231ab)"><path fill="#ffffff" d="M 0.199219 0 L 809.800781 0 L 809.800781 1012 L 0.199219 1012 Z M 0.199219 0 " fill-opacity="1" fill-rule="nonzero"/><path fill="#f5f6f8" d="M 0.199219 0 L 809.800781 0 L 809.800781 1012 L 0.199219 1012 Z M 0.199219 0 " fill-opacity="1" fill-rule="nonzero"/></g><g clip-path="url(#319884134f)"><path fill="#000000" d="M 383.644531 349.003906 C 383.5625 353.1875 383.074219 357.355469 383.003906 361.535156 C 382.921875 366.710938 380.292969 369.664062 375.472656 370.984375 C 366.144531 373.546875 356.9375 376.691406 347.472656 378.585938 C 310.8125 385.941406 274.105469 393.089844 237.347656 399.96875 C 210.96875 404.898438 184.492188 409.378906 158.03125 413.859375 C 150.894531 415.070312 143.625 415.492188 136.417969 416.335938 C 131.296875 416.9375 127.988281 414.417969 125.851562 410.140625 C 124.378906 407.199219 123.113281 404.121094 121.996094 401.03125 C 112.761719 375.507812 106.46875 349.195312 100.695312 322.734375 C 92.757812 286.332031 87.5 249.503906 83.984375 212.445312 C 82.40625 195.789062 82.230469 179.011719 81.4375 162.289062 C 81.398438 161.402344 81.425781 160.53125 81.464844 159.644531 C 82.148438 144.351562 82.71875 143.085938 96.84375 137.367188 C 155.636719 113.601562 216.6875 98.0625 278.875 86.539062 C 291.851562 84.128906 304.859375 81.921875 317.867188 79.6875 C 322.589844 78.871094 323.777344 79.265625 325.097656 83.953125 C 327.683594 93.035156 329.917969 102.242188 331.988281 111.460938 C 333.621094 118.75 334.78125 126.128906 336.210938 133.742188 C 345.605469 132.871094 354.335938 131.972656 363.066406 131.277344 C 372.683594 130.5 374.464844 131.835938 375.472656 141.136719 C 376.972656 154.933594 378.46875 168.730469 379.503906 182.566406 C 383.671875 237.96875 384.75 293.464844 383.644531 349.003906 Z M 383.644531 349.003906 " fill-opacity="1" fill-rule="nonzero"/></g><path fill="#dbcfaf" d="M 378.007812 359.777344 C 373.59375 360.351562 369.15625 360.828125 364.835938 361.699219 C 365.109375 361.304688 365.367188 360.867188 365.613281 360.363281 C 362.234375 360.746094 359.769531 360.839844 357.386719 361.332031 C 331.320312 366.695312 305.292969 372.265625 279.199219 377.511719 C 247.714844 383.828125 216.171875 389.875 184.65625 396.085938 C 183.40625 396.332031 182.261719 397.109375 181.0625 397.640625 C 181.074219 397.707031 181.089844 397.773438 181.101562 397.828125 L 156.847656 400.566406 C 157.296875 400.375 157.761719 400.183594 158.210938 400.007812 C 219.890625 375.792969 282.25 353.5 345.621094 334.078125 C 346.886719 333.699219 348.113281 333.195312 349.378906 332.851562 C 352.210938 332.117188 353.328125 330.238281 353.085938 327.460938 C 352.632812 322.203125 352.0625 316.945312 351.707031 311.675781 C 350.441406 292.773438 349.105469 273.867188 348.03125 254.953125 C 345.976562 218.644531 342.773438 182.445312 337.804688 146.410156 C 337.503906 144.257812 337.421875 142.078125 337.191406 139.40625 C 347.882812 136.765625 358.613281 136.738281 370.136719 135.308594 C 378.386719 210.269531 380.105469 284.898438 378.007812 359.777344 Z M 378.007812 359.777344 " fill-opacity="1" fill-rule="nonzero"/><path fill="#fdf2d5" d="M 131.269531 405.835938 C 131.1875 408.179688 131.855469 410.289062 133.027344 412.074219 C 131.449219 411.339844 130.316406 409.921875 129.542969 407.894531 C 127.8125 403.371094 126.015625 398.863281 124.503906 394.273438 C 113.226562 360.105469 105.640625 325.035156 99.402344 289.679688 C 94.035156 259.296875 89.976562 228.707031 88.015625 197.914062 C 87.078125 183.207031 87.457031 168.402344 87.226562 153.652344 C 87.132812 147.988281 89.242188 145.003906 95.222656 142.828125 C 123.535156 132.460938 151.902344 122.34375 180.964844 114.238281 C 217.464844 104.066406 254.507812 96.332031 291.675781 89.152344 C 300.9375 87.371094 310.171875 85.503906 319.988281 83.570312 C 321.023438 86.839844 322.183594 89.890625 322.957031 93.023438 C 328.597656 116.175781 332.371094 139.667969 334.792969 163.335938 C 337.597656 190.726562 340.050781 218.167969 342.214844 245.609375 C 343.671875 264.0625 344.285156 282.570312 345.472656 301.039062 C 345.839844 306.757812 346.382812 312.480469 346.957031 318.445312 C 342.53125 320.199219 338.238281 322.011719 333.785156 323.304688 C 332.613281 322.71875 331.988281 322.339844 331.417969 322.433594 C 329.25 322.761719 327.140625 323.429688 325.027344 324.042969 C 265.746094 340.957031 208.21875 362.773438 151.550781 386.921875 C 146.304688 389.152344 141.253906 391.878906 136.171875 394.507812 C 132.878906 396.207031 130.617188 398.878906 130.25 402.703125 C 130.113281 403.929688 130.234375 405.15625 131.269531 405.835938 Z M 131.269531 405.835938 " fill-opacity="1" fill-rule="nonzero"/><path fill="#dbd4c4" d="M 378.007812 359.777344 C 377.953125 361.617188 377.898438 363.441406 377.84375 365.28125 C 375.867188 365.972656 374.480469 366.640625 373.023438 366.953125 C 340.132812 374.105469 307.335938 381.675781 274.324219 388.199219 C 234.828125 396.003906 195.144531 402.9375 155.527344 410.128906 C 149.480469 411.230469 143.308594 411.667969 137.207031 412.539062 C 135.5625 412.769531 134.171875 412.605469 133.015625 412.0625 C 131.84375 410.277344 131.175781 408.167969 131.257812 405.824219 C 131.71875 406.136719 132.375 406.328125 133.273438 406.367188 C 133.886719 399.871094 138.980469 397.625 144.03125 395.308594 C 147.4375 393.757812 150.800781 392.121094 154.21875 390.625 C 190.363281 374.964844 227.285156 361.34375 264.480469 348.460938 C 284.417969 341.554688 304.546875 335.210938 324.566406 328.535156 C 327.808594 327.460938 330.914062 325.933594 335.40625 324.070312 C 334.765625 323.796875 334.234375 323.539062 333.773438 323.304688 C 338.226562 322 342.515625 320.199219 346.941406 318.445312 C 347.269531 321.847656 347.609375 325.335938 347.9375 328.957031 C 281.011719 349.632812 215.152344 372.363281 150.746094 399.191406 C 150.460938 399.3125 150.390625 399.941406 149.984375 400.867188 C 151.128906 401.207031 152.257812 401.914062 153.253906 401.75 C 154.476562 401.546875 155.675781 401.070312 156.859375 400.582031 L 181.117188 397.84375 C 181.210938 398.238281 181.292969 398.648438 181.390625 399.042969 C 182.777344 399.042969 184.195312 399.257812 185.527344 399 C 195.265625 397.1875 204.964844 395.242188 214.699219 393.429688 C 250.398438 386.785156 286.121094 380.289062 321.789062 373.492188 C 333.882812 371.191406 345.867188 368.289062 357.835938 365.375 C 360.03125 364.84375 362.792969 364.652344 364.851562 361.699219 C 369.15625 360.839844 373.59375 360.351562 378.007812 359.777344 Z M 378.007812 359.777344 " fill-opacity="1" fill-rule="nonzero"/><path fill="#fdf2d5" d="M 463.578125 526.992188 C 462.761719 524.054688 461.453125 521.351562 459.65625 518.890625 C 456.925781 515.417969 453.828125 511.449219 455.191406 509.835938 C 456.554688 508.222656 464.988281 507.976562 466.980469 509.835938 C 468.972656 511.695312 473.738281 528.664062 473.738281 528.664062 C 473.738281 528.664062 479.507812 519.753906 483.972656 516.15625 C 488.4375 512.558594 492.113281 510.699219 493.4375 511.9375 C 494.765625 513.179688 496.25 521.984375 494.636719 523.472656 C 493.027344 524.960938 482.238281 534.265625 482.238281 534.265625 Z M 463.578125 526.992188 " fill-opacity="1" fill-rule="nonzero"/><g clip-path="url(#e9ac3afd80)"><path fill="#000000" d="M 482.242188 536.171875 C 482.003906 536.171875 481.773438 536.128906 481.550781 536.042969 L 462.898438 528.765625 C 462.300781 528.527344 461.917969 528.09375 461.757812 527.46875 C 461.007812 524.789062 459.816406 522.320312 458.183594 520.066406 C 454.6875 515.617188 451.386719 511.414062 453.761719 508.605469 C 454.699219 507.5 456.722656 506.847656 459.773438 506.667969 C 461.234375 506.589844 466.175781 506.460938 468.296875 508.449219 C 470.007812 510.050781 472.699219 518.335938 474.464844 524.277344 C 476.863281 520.75 479.640625 517.550781 482.792969 514.679688 C 488.785156 509.84375 492.589844 508.535156 494.746094 510.558594 C 496.433594 512.140625 497.261719 517.773438 497.25 520.480469 C 497.34375 521.273438 497.277344 522.050781 497.050781 522.816406 C 496.820312 523.578125 496.449219 524.265625 495.933594 524.875 C 494.320312 526.371094 483.925781 535.335938 483.484375 535.714844 C 483.125 536.023438 482.714844 536.171875 482.242188 536.171875 Z M 475.429688 529.570312 L 481.867188 532.082031 C 484.402344 529.894531 491.714844 523.574219 493.261719 522.167969 C 493.601562 519.183594 493.246094 516.28125 492.195312 513.464844 C 491.476562 513.523438 489.289062 514.324219 485.171875 517.648438 C 481.28125 520.777344 476.152344 528.472656 475.429688 529.570312 Z M 465.148438 525.558594 L 471.601562 528.078125 C 469.46875 520.640625 466.691406 512.359375 465.660156 511.199219 C 464.625 510.25 458.503906 510.152344 456.78125 511.019531 C 456.972656 512.382812 459.78125 515.953125 461.15625 517.714844 C 462.933594 520.105469 464.261719 522.71875 465.148438 525.558594 Z M 465.148438 525.558594 " fill-opacity="1" fill-rule="nonzero"/></g><path fill="#fdf2d5" d="M 456.820312 535.667969 C 456.820312 535.667969 460.152344 528.058594 464.492188 526.582031 C 468.832031 525.101562 480.367188 531.789062 482.230469 534.269531 C 483.507812 536.050781 484.625 537.933594 485.578125 539.910156 Z M 456.820312 535.667969 " fill-opacity="1" fill-rule="nonzero"/><path fill="#ffffff" d="M 470.003906 527.15625 C 467.550781 528.5 465.296875 530.128906 463.253906 532.035156 C 461.269531 534.269531 461.386719 535.078125 461.386719 535.078125 L 456.824219 535.648438 C 456.824219 535.648438 460.839844 527.253906 464.808594 526.476562 C 468.78125 525.695312 470.003906 527.15625 470.003906 527.15625 Z M 470.003906 527.15625 " fill-opacity="1" fill-rule="nonzero"/><path fill="#000000" d="M 485.59375 541.816406 C 485.5 541.816406 485.40625 541.808594 485.3125 541.796875 L 456.558594 537.550781 C 456.414062 537.53125 456.273438 537.492188 456.136719 537.4375 C 456 537.386719 455.871094 537.316406 455.753906 537.234375 C 455.632812 537.152344 455.523438 537.054688 455.425781 536.945312 C 455.328125 536.835938 455.242188 536.71875 455.171875 536.589844 C 455.101562 536.464844 455.046875 536.328125 455.003906 536.1875 C 454.964844 536.046875 454.941406 535.902344 454.933594 535.757812 C 454.929688 535.613281 454.9375 535.46875 454.964844 535.324219 C 454.992188 535.179688 455.035156 535.039062 455.09375 534.90625 C 455.472656 534.050781 458.898438 526.492188 463.890625 524.78125 C 469.472656 522.867188 481.742188 530.433594 483.765625 533.132812 C 485.125 535.019531 486.304688 537.007812 487.3125 539.105469 C 487.382812 539.25 487.429688 539.398438 487.460938 539.558594 C 487.492188 539.714844 487.5 539.875 487.492188 540.03125 C 487.480469 540.191406 487.449219 540.347656 487.402344 540.5 C 487.351562 540.652344 487.285156 540.796875 487.199219 540.933594 C 487.113281 541.066406 487.011719 541.191406 486.894531 541.300781 C 486.777344 541.410156 486.648438 541.503906 486.507812 541.582031 C 486.367188 541.65625 486.21875 541.714844 486.066406 541.757812 C 485.910156 541.796875 485.753906 541.816406 485.59375 541.816406 Z M 459.742188 534.179688 L 482.105469 537.476562 C 481.6875 536.789062 481.214844 536.074219 480.722656 535.414062 C 479.042969 533.171875 468.238281 527.292969 465.128906 528.378906 C 463.070312 529.074219 461.03125 531.9375 459.742188 534.175781 Z M 459.742188 534.179688 " fill-opacity="1" fill-rule="nonzero"/><path fill="#000000" d="M 465.207031 539.136719 C 465.207031 539.136719 473.304688 539.601562 486.695312 555.972656 C 500.085938 572.347656 602.351562 810.359375 602.351562 810.359375 L 533.777344 847.84375 Z M 465.207031 539.136719 " fill-opacity="1" fill-rule="nonzero"/><path fill="#000000" d="M 533.789062 849.746094 C 533.515625 849.746094 533.253906 849.691406 533.003906 849.574219 C 532.429688 849.316406 532.070312 848.875 531.933594 848.257812 L 463.355469 539.550781 C 463.21875 538.933594 463.355469 538.386719 463.765625 537.90625 C 464.171875 537.417969 464.691406 537.195312 465.324219 537.238281 C 466.238281 537.292969 474.644531 538.230469 488.183594 554.773438 C 501.589844 571.160156 599.933594 799.878906 604.113281 809.605469 C 604.207031 809.824219 604.257812 810.050781 604.265625 810.285156 C 604.277344 810.523438 604.242188 810.753906 604.164062 810.976562 C 604.085938 811.199219 603.972656 811.402344 603.820312 811.582031 C 603.667969 811.761719 603.488281 811.910156 603.277344 812.023438 L 534.703125 849.515625 C 534.417969 849.671875 534.113281 849.75 533.789062 849.746094 Z M 467.78125 541.929688 L 535.105469 844.964844 L 599.941406 809.519531 C 590.980469 788.703125 497.746094 572.464844 485.242188 557.179688 C 477.105469 547.242188 471.042969 543.402344 467.78125 541.929688 Z M 467.78125 541.929688 " fill-opacity="1" fill-rule="nonzero"/><path fill="#a6543b" d="M 585.570312 763.03125 C 585.570312 763.03125 618.765625 749.652344 623.941406 747.296875 C 629.117188 744.945312 636.808594 743.421875 639.257812 745.214844 C 641.703125 747.011719 640.570312 759.992188 635.089844 768.609375 C 629.605469 777.222656 606.25 787.652344 606.25 787.652344 L 588.460938 788.34375 Z M 585.570312 763.03125 " fill-opacity="1" fill-rule="nonzero"/><path fill="#ffffff" d="M 639.136719 745.320312 C 636.6875 743.527344 628.996094 745.046875 623.820312 747.402344 C 620.902344 748.730469 609.070312 753.5625 599.308594 757.527344 C 599.320312 757.527344 631.046875 748.996094 634.109375 752.03125 C 637.171875 755.070312 634.964844 768.714844 634.964844 768.714844 C 640.449219 760.09375 641.582031 747.117188 639.136719 745.320312 Z M 639.136719 745.320312 " fill-opacity="1" fill-rule="nonzero"/><path fill="#000000" d="M 584.902344 762.609375 C 586.421875 763.003906 587.835938 763.640625 589.140625 764.515625 C 590.445312 765.394531 591.566406 766.460938 592.507812 767.71875 C 596.472656 772.328125 602.039062 779.496094 603.960938 781.03125 C 606.605469 782.5625 609.378906 783.804688 612.28125 784.753906 L 606.257812 787.65625 C 606.257812 787.65625 599.632812 788.839844 591.617188 779.699219 C 583.601562 770.558594 584.902344 762.609375 584.902344 762.609375 Z M 584.902344 762.609375 " fill-opacity="1" fill-rule="nonzero"/><path fill="#a6543b" d="M 649.734375 801.871094 C 649.734375 801.871094 704.8125 816.015625 709.300781 822.15625 C 713.785156 828.296875 707.914062 834.953125 705.21875 836.472656 C 702.527344 837.992188 656.964844 833.332031 656.964844 833.332031 L 657.003906 836.886719 C 657.003906 836.886719 720.601562 846.4375 723.542969 853.105469 C 726.484375 859.777344 725.117188 866.554688 721.070312 868.835938 C 717.023438 871.113281 653.179688 866.933594 653.179688 866.933594 L 652.203125 870.316406 C 652.203125 870.316406 705.449219 879.496094 708.839844 882.972656 C 712.226562 886.453125 708.839844 900.175781 701.683594 903.941406 C 694.527344 907.707031 638.441406 897.898438 638.441406 897.898438 L 636.011719 900.886719 C 636.011719 900.886719 673.085938 912.554688 673.425781 916.667969 C 673.761719 920.78125 670.421875 928.058594 661.84375 930.640625 C 653.265625 933.226562 613.527344 920.46875 613.527344 920.46875 Z M 649.734375 801.871094 " fill-opacity="1" fill-rule="nonzero"/><path fill="#000000" d="M 613.554688 920.441406 C 613.554688 920.441406 617.710938 921.773438 623.613281 923.484375 C 628.25 920.089844 632.335938 916.132812 635.871094 911.609375 C 640.152344 905.5 640.09375 902.167969 640.09375 902.167969 C 637.613281 901.351562 636.039062 900.855469 636.039062 900.855469 L 638.464844 897.867188 C 638.464844 897.867188 640.828125 898.28125 644.609375 898.898438 C 644.609375 898.898438 651.933594 891.003906 654.152344 885.007812 C 655.578125 880.441406 656.257812 875.769531 656.195312 870.984375 C 653.722656 870.546875 652.226562 870.289062 652.226562 870.289062 L 653.203125 866.902344 C 653.203125 866.902344 654.667969 867 657.136719 867.152344 C 659.46875 863.105469 660.890625 858.765625 661.402344 854.121094 C 662.242188 848.585938 662.203125 843.050781 661.289062 837.523438 C 658.617188 837.097656 657.03125 836.859375 657.03125 836.859375 L 656.988281 833.304688 C 656.988281 833.304688 659.148438 833.527344 662.554688 833.855469 C 662.554688 833.855469 662.527344 822.722656 660.742188 817.21875 C 658.8125 812.257812 656.492188 807.484375 653.78125 802.902344 C 651.269531 802.234375 649.753906 801.847656 649.753906 801.847656 Z M 613.554688 920.441406 " fill-opacity="1" fill-rule="nonzero"/><path fill="#000000" d="M 588.460938 790.25 C 588.226562 790.25 588 790.207031 587.785156 790.125 C 587.566406 790.039062 587.367188 789.921875 587.195312 789.765625 C 587.019531 789.609375 586.878906 789.429688 586.773438 789.222656 C 586.664062 789.015625 586.597656 788.792969 586.570312 788.5625 L 583.679688 763.246094 C 583.632812 762.820312 583.71875 762.421875 583.9375 762.054688 C 584.15625 761.6875 584.460938 761.425781 584.859375 761.265625 C 585.191406 761.128906 618.078125 747.878906 623.15625 745.566406 C 628.234375 743.257812 636.925781 741.144531 640.378906 743.683594 C 644.21875 746.5 642.152344 761.050781 636.695312 769.628906 C 630.96875 778.632812 608 788.957031 607.027344 789.390625 C 606.804688 789.492188 606.570312 789.546875 606.328125 789.554688 L 588.539062 790.246094 Z M 587.625 764.25 L 590.148438 786.378906 L 605.800781 785.769531 C 608.625 784.476562 628.710938 775.097656 633.484375 767.59375 C 638.664062 759.441406 639.242188 748.175781 638.046875 746.671875 C 636.714844 745.699219 630.113281 746.566406 624.722656 749.019531 C 620.109375 751.132812 593.96875 761.691406 587.625 764.25 Z M 587.625 764.25 " fill-opacity="1" fill-rule="nonzero"/><g clip-path="url(#1e795b7260)"><path fill="#000000" d="M 658.824219 932.855469 C 646.320312 932.855469 616.648438 923.457031 612.949219 922.273438 C 612.710938 922.195312 612.496094 922.078125 612.304688 921.914062 C 612.113281 921.753906 611.960938 921.5625 611.84375 921.34375 C 611.730469 921.121094 611.660156 920.886719 611.636719 920.636719 C 611.613281 920.386719 611.636719 920.144531 611.710938 919.90625 L 647.914062 801.316406 C 647.984375 801.082031 648.097656 800.871094 648.253906 800.679688 C 648.40625 800.488281 648.589844 800.332031 648.804688 800.214844 C 649.015625 800.09375 649.246094 800.019531 649.488281 799.984375 C 649.730469 799.953125 649.96875 799.96875 650.207031 800.03125 C 659.515625 802.417969 706.183594 814.671875 710.835938 821.035156 C 711.710938 822.195312 712.304688 823.488281 712.613281 824.914062 C 712.921875 826.335938 712.914062 827.757812 712.597656 829.179688 C 712.132812 831.027344 711.34375 832.722656 710.230469 834.269531 C 709.117188 835.816406 707.761719 837.101562 706.15625 838.128906 C 703.730469 839.5 682.164062 837.75 662.414062 835.792969 C 683.730469 839.125 722.488281 846.007812 725.28125 852.335938 C 728.515625 859.660156 727.074219 867.632812 722.011719 870.488281 C 718.019531 872.730469 673.351562 870.125 655.765625 869 C 671.074219 871.683594 706.921875 878.269531 710.203125 881.640625 C 712.46875 883.960938 712.1875 888.21875 711.820312 890.546875 C 710.941406 896.089844 707.738281 902.90625 702.566406 905.617188 C 695.53125 909.316406 651.773438 902.121094 639.621094 900.027344 C 663.039062 907.535156 675.046875 913.078125 675.332031 916.503906 C 675.730469 921.390625 671.988281 929.566406 662.398438 932.453125 C 661.226562 932.753906 660.035156 932.890625 658.824219 932.855469 Z M 615.898438 919.21875 C 631.726562 924.203125 655.621094 930.511719 661.300781 928.8125 C 668.589844 926.617188 671.671875 920.621094 671.546875 917.074219 C 669.453125 914.546875 651.347656 907.703125 635.445312 902.695312 C 635.296875 902.648438 635.160156 902.585938 635.027344 902.503906 C 634.894531 902.421875 634.773438 902.328125 634.664062 902.21875 C 634.554688 902.105469 634.460938 901.984375 634.378906 901.851562 C 634.300781 901.71875 634.238281 901.578125 634.195312 901.429688 C 634.148438 901.28125 634.125 901.128906 634.117188 900.972656 C 634.109375 900.816406 634.121094 900.664062 634.148438 900.511719 C 634.179688 900.359375 634.226562 900.214844 634.292969 900.074219 C 634.359375 899.933594 634.441406 899.800781 634.539062 899.679688 L 636.964844 896.695312 C 637.183594 896.429688 637.453125 896.234375 637.777344 896.113281 C 638.097656 895.992188 638.429688 895.960938 638.769531 896.019531 C 660.203125 899.769531 695.992188 904.769531 700.800781 902.257812 C 704.605469 900.253906 707.332031 894.550781 708.0625 889.957031 C 708.535156 886.945312 708.113281 884.945312 707.480469 884.296875 C 704.976562 882.296875 677.242188 876.558594 651.878906 872.1875 C 651.613281 872.140625 651.367188 872.042969 651.144531 871.894531 C 650.917969 871.742188 650.734375 871.550781 650.589844 871.324219 C 650.449219 871.09375 650.355469 870.84375 650.320312 870.578125 C 650.28125 870.308594 650.300781 870.046875 650.375 869.785156 L 651.351562 866.402344 C 651.484375 865.980469 651.730469 865.640625 652.09375 865.382812 C 652.457031 865.128906 652.859375 865.011719 653.304688 865.03125 C 677.242188 866.597656 716.578125 868.566406 720.21875 867.140625 C 723.039062 865.542969 724.5 859.992188 721.804688 853.875 C 719.542969 850.207031 686.933594 843.304688 656.722656 838.769531 C 656.5 838.734375 656.289062 838.664062 656.089844 838.554688 C 655.894531 838.445312 655.71875 838.308594 655.570312 838.136719 C 655.421875 837.964844 655.308594 837.773438 655.226562 837.5625 C 655.148438 837.351562 655.105469 837.132812 655.101562 836.910156 L 655.0625 833.355469 C 655.054688 832.785156 655.261719 832.3125 655.679688 831.925781 C 656.101562 831.550781 656.59375 831.386719 657.15625 831.4375 C 677.953125 833.566406 701.429688 835.433594 704.394531 834.75 C 705.496094 833.984375 706.433594 833.054688 707.203125 831.957031 C 707.972656 830.863281 708.53125 829.667969 708.878906 828.371094 C 709.085938 827.480469 709.09375 826.589844 708.898438 825.699219 C 708.703125 824.804688 708.324219 824 707.765625 823.277344 C 705.171875 819.726562 676.933594 810.890625 651.019531 804.167969 Z M 615.898438 919.21875 " fill-opacity="1" fill-rule="nonzero"/></g><path fill="#a6543b" d="M 215.179688 722.605469 L 556.945312 801.679688 L 544.1875 877.484375 L 207.070312 848.425781 C 207.070312 848.425781 178.675781 814.050781 186.394531 779.796875 C 188.871094 769.265625 192.542969 759.164062 197.40625 749.5 C 202.269531 739.832031 208.195312 730.867188 215.179688 722.605469 Z M 215.179688 722.605469 " fill-opacity="1" fill-rule="nonzero"/><path fill="#000000" d="M 256.253906 732.105469 C 256.253906 732.105469 240.410156 738.976562 221.925781 777.300781 C 203.441406 815.621094 212.191406 848.867188 212.191406 848.867188 L 242.757812 851.503906 L 264.417969 733.996094 Z M 256.253906 732.105469 " fill-opacity="1" fill-rule="nonzero"/><path fill="#000000" d="M 544.1875 879.386719 C 544.132812 879.386719 544.078125 879.386719 544.023438 879.386719 L 206.90625 850.320312 C 206.375 850.273438 205.941406 850.046875 205.601562 849.636719 C 200.289062 842.851562 195.792969 835.5625 192.121094 827.765625 C 186.394531 815.757812 180.429688 797.597656 184.539062 779.378906 C 187.027344 768.675781 190.742188 758.414062 195.6875 748.597656 C 200.628906 738.785156 206.660156 729.691406 213.777344 721.316406 C 214.011719 721.066406 214.289062 720.890625 214.617188 720.789062 C 214.945312 720.683594 215.273438 720.671875 215.609375 720.746094 L 557.375 799.820312 C 557.609375 799.875 557.828125 799.972656 558.027344 800.109375 C 558.226562 800.246094 558.394531 800.417969 558.527344 800.617188 C 558.664062 800.820312 558.757812 801.039062 558.808594 801.277344 C 558.855469 801.511719 558.863281 801.75 558.820312 801.992188 L 546.0625 877.796875 C 546.027344 878.019531 545.953125 878.226562 545.839844 878.421875 C 545.730469 878.617188 545.589844 878.789062 545.417969 878.933594 C 545.246094 879.078125 545.054688 879.191406 544.84375 879.269531 C 544.632812 879.347656 544.414062 879.386719 544.1875 879.386719 Z M 208.046875 846.601562 L 542.605469 875.441406 L 554.777344 803.128906 L 215.859375 724.714844 C 209.207031 732.792969 203.546875 741.515625 198.886719 750.886719 C 194.222656 760.257812 190.679688 770.035156 188.25 780.214844 C 181.378906 810.695312 204.375 841.871094 208.046875 846.601562 Z M 208.046875 846.601562 " fill-opacity="1" fill-rule="nonzero"/><path fill="#ffffff" d="M 276.707031 726.800781 C 256.765625 737.597656 241.796875 749.8125 235.765625 790.214844 C 229.734375 830.613281 233.347656 847.421875 253.742188 861.035156 C 269.132812 871.304688 503.171875 883.585938 527.246094 888.46875 C 551.320312 893.351562 601.03125 918.5625 609.464844 920.914062 C 617.898438 923.265625 647.433594 896.230469 654.265625 862.339844 C 661.097656 828.453125 653.683594 806.824219 648.207031 799.535156 C 642.730469 792.246094 610.496094 791.988281 601.535156 785.296875 C 592.574219 778.605469 594.53125 769.722656 585.5625 763.035156 C 576.59375 756.34375 547.773438 779.5625 529.953125 782.101562 C 512.132812 784.640625 295.988281 716.367188 276.707031 726.800781 Z M 276.707031 726.800781 " fill-opacity="1" fill-rule="nonzero"/><path fill="#ffffff" d="M 601.53125 785.285156 C 592.570312 778.59375 594.523438 769.710938 585.554688 763.019531 C 576.585938 756.328125 547.765625 779.546875 529.945312 782.085938 C 514.816406 784.242188 356.742188 735.367188 297.554688 726.9375 C 298.644531 727.289062 457.238281 778.675781 481.046875 788.457031 C 504.9375 798.269531 517.386719 821.167969 525.253906 833.46875 C 533.121094 845.773438 544.019531 810.953125 550.5 802.652344 C 556.976562 794.347656 581.191406 791.144531 588.449219 788.335938 C 595.710938 785.523438 607.78125 800.546875 621.199219 797.191406 C 634.617188 793.835938 648.195312 799.515625 648.195312 799.515625 C 642.722656 792.234375 610.496094 791.972656 601.53125 785.285156 Z M 601.53125 785.285156 " fill-opacity="1" fill-rule="nonzero"/><path fill="#000000" d="M 240.609375 850.597656 C 240.386719 850.597656 240.167969 850.558594 239.957031 850.484375 C 239.746094 850.40625 239.554688 850.292969 239.382812 850.148438 C 239.210938 850.003906 239.070312 849.835938 238.960938 849.640625 C 238.847656 849.445312 238.773438 849.234375 238.738281 849.015625 C 237.214844 840.050781 247.390625 807.632812 277.816406 773.324219 C 308.535156 738.679688 335.289062 733.035156 336.414062 732.820312 C 336.660156 732.773438 336.90625 732.777344 337.148438 732.828125 C 337.394531 732.878906 337.621094 732.972656 337.824219 733.113281 C 338.03125 733.253906 338.207031 733.429688 338.34375 733.636719 C 338.480469 733.84375 338.574219 734.070312 338.625 734.316406 C 338.671875 734.5625 338.675781 734.804688 338.625 735.050781 C 338.578125 735.296875 338.488281 735.523438 338.347656 735.730469 C 338.210938 735.941406 338.039062 736.117188 337.835938 736.257812 C 337.628906 736.398438 337.402344 736.496094 337.160156 736.546875 C 336.894531 736.601562 310.453125 742.253906 280.660156 775.851562 C 250.867188 809.453125 241.296875 841.339844 242.492188 848.375 C 242.535156 848.625 242.527344 848.871094 242.472656 849.117188 C 242.414062 849.363281 242.3125 849.589844 242.167969 849.796875 C 242.023438 850.003906 241.839844 850.171875 241.628906 850.304688 C 241.414062 850.441406 241.183594 850.527344 240.933594 850.570312 C 240.824219 850.589844 240.71875 850.597656 240.609375 850.597656 Z M 240.609375 850.597656 " fill-opacity="1" fill-rule="nonzero"/><path fill="#000000" d="M 299.625 870.875 C 299.308594 870.875 299.007812 870.800781 298.726562 870.652344 C 298.445312 870.5 298.21875 870.292969 298.042969 870.027344 C 297.640625 869.429688 288.1875 854.792969 289.5625 813.511719 C 290.921875 772.433594 299.957031 753.0625 300.34375 752.257812 C 300.460938 752.046875 300.613281 751.867188 300.800781 751.714844 C 300.988281 751.5625 301.199219 751.449219 301.429688 751.378906 C 301.65625 751.304688 301.894531 751.277344 302.132812 751.296875 C 302.375 751.3125 302.601562 751.371094 302.820312 751.476562 C 303.035156 751.582031 303.226562 751.722656 303.390625 751.898438 C 303.554688 752.074219 303.679688 752.273438 303.769531 752.5 C 303.859375 752.722656 303.902344 752.957031 303.902344 753.195312 C 303.898438 753.4375 303.855469 753.667969 303.765625 753.894531 C 303.675781 754.082031 294.6875 773.46875 293.351562 813.640625 C 292.019531 853.707031 301.101562 867.78125 301.195312 867.917969 C 301.386719 868.207031 301.496094 868.527344 301.511719 868.878906 C 301.53125 869.230469 301.457031 869.558594 301.289062 869.867188 C 301.125 870.179688 300.894531 870.421875 300.59375 870.605469 C 300.292969 870.785156 299.964844 870.875 299.613281 870.875 Z M 299.625 870.875 " fill-opacity="1" fill-rule="nonzero"/><path fill="#000000" d="M 320.101562 872.957031 C 319.730469 872.957031 319.390625 872.855469 319.078125 872.65625 C 318.765625 872.457031 318.53125 872.1875 318.378906 871.851562 C 317.964844 870.953125 308.390625 849.203125 323.203125 798.222656 C 338.109375 746.921875 361.898438 739.539062 362.902344 739.25 C 363.144531 739.179688 363.390625 739.160156 363.640625 739.1875 C 363.890625 739.214844 364.128906 739.289062 364.347656 739.410156 C 364.570312 739.53125 364.757812 739.691406 364.917969 739.886719 C 365.074219 740.085938 365.1875 740.304688 365.257812 740.546875 C 365.328125 740.789062 365.351562 741.035156 365.324219 741.285156 C 365.292969 741.535156 365.21875 741.773438 365.097656 741.992188 C 364.976562 742.214844 364.816406 742.402344 364.621094 742.5625 C 364.425781 742.71875 364.203125 742.832031 363.960938 742.902344 C 363.660156 742.996094 341.074219 750.351562 326.855469 799.285156 C 312.503906 848.667969 321.742188 870.058594 321.835938 870.269531 C 321.9375 870.5 321.996094 870.738281 322.003906 870.992188 C 322.011719 871.242188 321.96875 871.488281 321.878906 871.722656 C 321.792969 871.960938 321.660156 872.167969 321.488281 872.351562 C 321.316406 872.539062 321.113281 872.679688 320.882812 872.785156 C 320.636719 872.898438 320.375 872.957031 320.101562 872.957031 Z M 320.101562 872.957031 " fill-opacity="1" fill-rule="nonzero"/><path fill="#000000" d="M 317.152344 842.535156 C 317.066406 842.53125 316.980469 842.527344 316.890625 842.515625 C 316.640625 842.480469 316.410156 842.398438 316.191406 842.273438 C 315.972656 842.144531 315.789062 841.980469 315.636719 841.78125 C 315.484375 841.578125 315.375 841.359375 315.3125 841.113281 C 315.246094 840.871094 315.230469 840.625 315.265625 840.375 C 315.394531 839.441406 318.648438 817.148438 340.558594 788.378906 C 362.550781 759.503906 398.210938 749.125 399.71875 748.695312 C 399.960938 748.625 400.207031 748.605469 400.460938 748.636719 C 400.710938 748.664062 400.945312 748.738281 401.167969 748.863281 C 401.386719 748.984375 401.578125 749.144531 401.734375 749.34375 C 401.890625 749.542969 402.003906 749.761719 402.074219 750.003906 C 402.140625 750.246094 402.160156 750.496094 402.132812 750.746094 C 402.101562 750.996094 402.027344 751.230469 401.902344 751.453125 C 401.78125 751.671875 401.621094 751.859375 401.421875 752.019531 C 401.222656 752.175781 401.003906 752.285156 400.757812 752.355469 C 400.402344 752.457031 364.792969 762.84375 343.585938 790.683594 C 322.332031 818.585938 319.066406 840.671875 319.035156 840.890625 C 319.003906 841.117188 318.933594 841.332031 318.824219 841.535156 C 318.714844 841.734375 318.574219 841.914062 318.402344 842.0625 C 318.230469 842.214844 318.035156 842.332031 317.820312 842.414062 C 317.605469 842.492188 317.382812 842.535156 317.152344 842.535156 Z M 317.152344 842.535156 " fill-opacity="1" fill-rule="nonzero"/><path fill="#000000" d="M 354.074219 875.992188 C 353.640625 875.992188 353.253906 875.859375 352.910156 875.597656 C 352.570312 875.332031 352.34375 874.992188 352.234375 874.574219 C 351.8125 872.964844 342.25 834.777344 367.910156 794.527344 C 393.640625 754.171875 413.40625 752.410156 414.238281 752.351562 C 414.488281 752.339844 414.730469 752.375 414.96875 752.457031 C 415.207031 752.539062 415.421875 752.664062 415.609375 752.828125 C 415.800781 752.992188 415.949219 753.1875 416.0625 753.414062 C 416.175781 753.636719 416.242188 753.875 416.261719 754.125 C 416.277344 754.375 416.246094 754.621094 416.167969 754.859375 C 416.085938 755.09375 415.964844 755.308594 415.800781 755.5 C 415.636719 755.6875 415.441406 755.839844 415.214844 755.949219 C 414.992188 756.0625 414.753906 756.128906 414.503906 756.148438 C 414.242188 756.171875 395.574219 758.214844 371.113281 796.574219 C 346.390625 835.371094 355.816406 873.234375 355.914062 873.613281 C 355.976562 873.855469 355.992188 874.101562 355.957031 874.351562 C 355.921875 874.601562 355.839844 874.835938 355.714844 875.054688 C 355.585938 875.273438 355.421875 875.457031 355.21875 875.609375 C 355.019531 875.761719 354.796875 875.867188 354.550781 875.933594 C 354.394531 875.972656 354.234375 875.992188 354.074219 875.992188 Z M 354.074219 875.992188 " fill-opacity="1" fill-rule="nonzero"/><path fill="#000000" d="M 397 879.433594 C 396.480469 879.433594 396.035156 879.253906 395.667969 878.886719 C 395.144531 878.375 382.847656 865.875 379.792969 827.792969 C 376.75 789.859375 386.734375 770.511719 387.160156 769.707031 C 387.28125 769.484375 387.4375 769.292969 387.628906 769.132812 C 387.824219 768.96875 388.042969 768.851562 388.28125 768.777344 C 388.523438 768.703125 388.769531 768.679688 389.019531 768.703125 C 389.273438 768.726562 389.507812 768.796875 389.730469 768.914062 C 389.953125 769.03125 390.148438 769.1875 390.308594 769.382812 C 390.46875 769.578125 390.585938 769.792969 390.660156 770.035156 C 390.734375 770.277344 390.757812 770.523438 390.734375 770.773438 C 390.710938 771.023438 390.640625 771.261719 390.523438 771.484375 C 390.425781 771.675781 380.636719 790.777344 383.585938 827.488281 C 386.507812 863.929688 398.230469 876.066406 398.34375 876.183594 C 398.613281 876.457031 398.789062 876.78125 398.863281 877.160156 C 398.9375 877.539062 398.902344 877.902344 398.753906 878.257812 C 398.609375 878.617188 398.375 878.898438 398.054688 879.113281 C 397.734375 879.328125 397.378906 879.433594 396.996094 879.433594 Z M 397 879.433594 " fill-opacity="1" fill-rule="nonzero"/><path fill="#000000" d="M 384.570312 849.746094 L 384.496094 849.746094 C 384.242188 849.738281 384.003906 849.679688 383.773438 849.574219 C 383.546875 849.46875 383.34375 849.324219 383.175781 849.136719 C 383.003906 848.953125 382.875 848.742188 382.785156 848.507812 C 382.699219 848.269531 382.660156 848.027344 382.667969 847.773438 C 382.699219 846.953125 383.578125 827.398438 395.433594 803.898438 C 407.289062 780.398438 434.113281 759.488281 435.25 758.613281 C 435.449219 758.464844 435.667969 758.359375 435.910156 758.296875 C 436.152344 758.238281 436.394531 758.222656 436.640625 758.257812 C 436.890625 758.289062 437.121094 758.371094 437.335938 758.496094 C 437.550781 758.621094 437.734375 758.78125 437.886719 758.976562 C 438.039062 759.175781 438.148438 759.394531 438.214844 759.632812 C 438.28125 759.871094 438.300781 760.117188 438.269531 760.363281 C 438.242188 760.609375 438.167969 760.84375 438.046875 761.0625 C 437.925781 761.28125 437.769531 761.464844 437.574219 761.621094 C 437.304688 761.832031 410.289062 782.875 398.820312 805.609375 C 395.414062 812.195312 392.671875 819.050781 390.59375 826.167969 C 388.511719 833.285156 387.136719 840.535156 386.457031 847.921875 C 386.449219 848.164062 386.394531 848.398438 386.292969 848.621094 C 386.195312 848.84375 386.054688 849.042969 385.878906 849.210938 C 385.703125 849.382812 385.503906 849.511719 385.277344 849.605469 C 385.050781 849.699219 384.816406 849.746094 384.570312 849.746094 Z M 384.570312 849.746094 " fill-opacity="1" fill-rule="nonzero"/><path fill="#000000" d="M 425.15625 881.574219 C 424.785156 881.574219 424.445312 881.472656 424.132812 881.273438 C 423.820312 881.074219 423.585938 880.804688 423.429688 880.46875 C 422.796875 879.097656 408.125 846.457031 423.480469 812.066406 C 438.78125 777.796875 463.382812 766.488281 464.421875 766.023438 C 464.652344 765.925781 464.890625 765.875 465.140625 765.875 C 465.386719 765.871094 465.628906 765.914062 465.859375 766.007812 C 466.089844 766.097656 466.296875 766.226562 466.476562 766.398438 C 466.65625 766.570312 466.796875 766.769531 466.898438 767 C 467 767.226562 467.054688 767.460938 467.0625 767.710938 C 467.070312 767.960938 467.03125 768.199219 466.945312 768.433594 C 466.859375 768.667969 466.734375 768.875 466.566406 769.058594 C 466.398438 769.242188 466.203125 769.386719 465.976562 769.492188 C 465.734375 769.605469 441.636719 780.75 426.953125 813.613281 C 412.308594 846.390625 426.738281 878.554688 426.886719 878.878906 C 426.953125 879.023438 427 879.171875 427.027344 879.332031 C 427.054688 879.488281 427.066406 879.644531 427.054688 879.804688 C 427.042969 879.964844 427.011719 880.117188 426.960938 880.269531 C 426.910156 880.421875 426.84375 880.5625 426.757812 880.699219 C 426.671875 880.832031 426.570312 880.953125 426.453125 881.0625 C 426.335938 881.171875 426.207031 881.261719 426.070312 881.339844 C 425.929688 881.417969 425.78125 881.472656 425.628906 881.511719 C 425.472656 881.554688 425.316406 881.574219 425.15625 881.574219 Z M 425.15625 881.574219 " fill-opacity="1" fill-rule="nonzero"/><path fill="#000000" d="M 458.898438 884.113281 C 458.5625 884.113281 458.25 884.03125 457.957031 883.863281 C 457.664062 883.699219 457.429688 883.472656 457.257812 883.179688 C 456.535156 881.960938 439.503906 852.945312 436.910156 825.03125 C 434.308594 797.046875 438.105469 788.351562 438.269531 787.992188 C 438.371094 787.761719 438.515625 787.554688 438.699219 787.378906 C 438.882812 787.203125 439.09375 787.070312 439.332031 786.980469 C 439.570312 786.890625 439.816406 786.847656 440.074219 786.859375 C 440.328125 786.867188 440.570312 786.921875 440.800781 787.027344 C 441.035156 787.136719 441.234375 787.28125 441.410156 787.46875 C 441.582031 787.65625 441.710938 787.871094 441.796875 788.109375 C 441.886719 788.351562 441.921875 788.597656 441.910156 788.851562 C 441.898438 789.105469 441.835938 789.347656 441.726562 789.578125 C 441.699219 789.640625 438.222656 798.042969 440.699219 824.679688 C 443.21875 851.738281 460.367188 880.949219 460.539062 881.242188 C 460.710938 881.539062 460.800781 881.855469 460.804688 882.195312 C 460.804688 882.535156 460.722656 882.855469 460.554688 883.152344 C 460.386719 883.449219 460.152344 883.683594 459.859375 883.855469 C 459.5625 884.027344 459.246094 884.113281 458.90625 884.113281 Z M 458.898438 884.113281 " fill-opacity="1" fill-rule="nonzero"/><path fill="#000000" d="M 475.640625 885.398438 C 475.261719 885.398438 474.914062 885.292969 474.601562 885.085938 C 474.285156 884.878906 474.050781 884.605469 473.898438 884.257812 C 473.347656 883 460.378906 853.136719 462.375 819.496094 C 464.386719 785.457031 481.960938 771.664062 482.722656 771.097656 C 482.921875 770.945312 483.144531 770.835938 483.386719 770.773438 C 483.632812 770.707031 483.878906 770.691406 484.128906 770.726562 C 484.378906 770.757812 484.609375 770.839844 484.828125 770.964844 C 485.046875 771.089844 485.230469 771.253906 485.386719 771.453125 C 485.539062 771.65625 485.648438 771.875 485.710938 772.121094 C 485.777344 772.363281 485.792969 772.609375 485.757812 772.859375 C 485.726562 773.109375 485.648438 773.34375 485.519531 773.5625 C 485.394531 773.78125 485.230469 773.964844 485.03125 774.117188 C 484.863281 774.246094 468.078125 787.535156 466.175781 819.722656 C 464.238281 852.417969 477.253906 882.425781 477.394531 882.722656 C 477.457031 882.867188 477.503906 883.019531 477.527344 883.171875 C 477.554688 883.328125 477.5625 883.484375 477.546875 883.644531 C 477.535156 883.800781 477.503906 883.953125 477.449219 884.101562 C 477.398438 884.25 477.332031 884.390625 477.246094 884.523438 C 477.15625 884.65625 477.058594 884.777344 476.941406 884.882812 C 476.824219 884.988281 476.699219 885.082031 476.558594 885.15625 C 476.417969 885.230469 476.273438 885.289062 476.121094 885.328125 C 475.96875 885.367188 475.8125 885.386719 475.65625 885.386719 Z M 475.640625 885.398438 " fill-opacity="1" fill-rule="nonzero"/><path fill="#000000" d="M 473.003906 878.492188 C 472.578125 878.492188 472.195312 878.363281 471.855469 878.109375 C 471.519531 877.851562 471.289062 877.519531 471.175781 877.109375 C 470.949219 876.316406 465.792969 857.390625 476.878906 832.863281 C 487.839844 808.628906 516.816406 780.730469 518.039062 779.554688 C 518.222656 779.378906 518.429688 779.246094 518.664062 779.15625 C 518.898438 779.0625 519.144531 779.019531 519.394531 779.027344 C 519.648438 779.03125 519.890625 779.085938 520.121094 779.1875 C 520.351562 779.289062 520.554688 779.429688 520.726562 779.613281 C 520.902344 779.796875 521.035156 780.003906 521.128906 780.238281 C 521.21875 780.472656 521.261719 780.71875 521.253906 780.96875 C 521.25 781.222656 521.195312 781.464844 521.09375 781.695312 C 520.992188 781.925781 520.851562 782.128906 520.667969 782.300781 C 520.375 782.585938 491.003906 810.875 480.351562 834.429688 C 469.863281 857.632812 474.785156 875.886719 474.835938 876.078125 C 474.90625 876.320312 474.925781 876.566406 474.894531 876.820312 C 474.863281 877.070312 474.789062 877.304688 474.664062 877.523438 C 474.539062 877.742188 474.378906 877.933594 474.179688 878.085938 C 473.984375 878.242188 473.761719 878.355469 473.519531 878.421875 C 473.351562 878.472656 473.179688 878.496094 473.003906 878.492188 Z M 473.003906 878.492188 " fill-opacity="1" fill-rule="nonzero"/><path fill="#000000" d="M 515.410156 888.820312 C 515.054688 888.820312 514.722656 888.726562 514.417969 888.539062 C 514.113281 888.351562 513.878906 888.101562 513.714844 887.78125 C 513.445312 887.25 507.089844 874.414062 504.835938 841.152344 C 502.585938 807.925781 507.75 790.910156 507.96875 790.199219 C 508.042969 789.957031 508.160156 789.742188 508.320312 789.546875 C 508.484375 789.355469 508.675781 789.199219 508.898438 789.082031 C 509.121094 788.964844 509.359375 788.894531 509.609375 788.871094 C 509.863281 788.847656 510.109375 788.875 510.347656 788.949219 C 510.589844 789.023438 510.808594 789.140625 511 789.304688 C 511.195312 789.464844 511.351562 789.65625 511.46875 789.878906 C 511.585938 790.101562 511.65625 790.339844 511.679688 790.589844 C 511.699219 790.84375 511.675781 791.089844 511.601562 791.328125 C 511.546875 791.496094 506.4375 808.46875 508.632812 840.894531 C 510.820312 873.222656 517.046875 885.9375 517.109375 886.0625 C 517.183594 886.207031 517.234375 886.359375 517.269531 886.519531 C 517.304688 886.675781 517.316406 886.835938 517.3125 887 C 517.304688 887.160156 517.277344 887.320312 517.230469 887.476562 C 517.183594 887.628906 517.117188 887.777344 517.03125 887.914062 C 516.945312 888.054688 516.84375 888.179688 516.726562 888.292969 C 516.609375 888.402344 516.480469 888.5 516.339844 888.578125 C 516.195312 888.65625 516.046875 888.71875 515.890625 888.757812 C 515.734375 888.800781 515.574219 888.820312 515.410156 888.820312 Z M 515.410156 888.820312 " fill-opacity="1" fill-rule="nonzero"/><path fill="#000000" d="M 512.433594 880.25 C 512.371094 880.25 512.304688 880.246094 512.242188 880.238281 C 511.992188 880.214844 511.753906 880.140625 511.535156 880.019531 C 511.3125 879.898438 511.121094 879.742188 510.964844 879.542969 C 510.804688 879.347656 510.6875 879.128906 510.617188 878.886719 C 510.546875 878.644531 510.523438 878.398438 510.550781 878.148438 C 510.582031 877.835938 513.921875 846.90625 523.777344 820.363281 C 533.707031 793.625 561.109375 767.574219 562.269531 766.476562 C 562.453125 766.304688 562.660156 766.171875 562.898438 766.082031 C 563.132812 765.992188 563.375 765.953125 563.628906 765.960938 C 563.878906 765.96875 564.121094 766.023438 564.351562 766.125 C 564.582031 766.230469 564.785156 766.371094 564.957031 766.554688 C 565.128906 766.738281 565.261719 766.949219 565.351562 767.183594 C 565.441406 767.421875 565.480469 767.664062 565.476562 767.917969 C 565.46875 768.167969 565.414062 768.410156 565.308594 768.640625 C 565.207031 768.871094 565.0625 769.070312 564.878906 769.246094 C 564.601562 769.507812 536.960938 795.792969 527.34375 821.6875 C 517.65625 847.773438 514.363281 878.242188 514.332031 878.550781 C 514.304688 878.78125 514.238281 879.003906 514.132812 879.214844 C 514.027344 879.425781 513.882812 879.609375 513.710938 879.765625 C 513.535156 879.921875 513.335938 880.042969 513.117188 880.125 C 512.894531 880.210938 512.667969 880.25 512.433594 880.25 Z M 512.433594 880.25 " fill-opacity="1" fill-rule="nonzero"/><path fill="#000000" d="M 545.660156 895.90625 L 545.578125 895.90625 C 545.328125 895.894531 545.085938 895.835938 544.859375 895.730469 C 544.628906 895.625 544.429688 895.480469 544.257812 895.292969 C 544.085938 895.105469 543.960938 894.894531 543.871094 894.660156 C 543.785156 894.421875 543.746094 894.179688 543.757812 893.925781 C 543.839844 892.035156 545.96875 847.304688 568.300781 820.140625 C 590.632812 792.972656 610.757812 787.726562 611.601562 787.519531 C 611.847656 787.460938 612.089844 787.453125 612.335938 787.492188 C 612.582031 787.535156 612.8125 787.617188 613.023438 787.75 C 613.238281 787.878906 613.417969 788.042969 613.566406 788.246094 C 613.714844 788.445312 613.816406 788.667969 613.878906 788.910156 C 613.9375 789.152344 613.949219 789.394531 613.914062 789.644531 C 613.878906 789.890625 613.796875 790.121094 613.671875 790.335938 C 613.546875 790.550781 613.382812 790.734375 613.183594 790.882812 C 612.984375 791.035156 612.765625 791.144531 612.523438 791.207031 C 612.335938 791.257812 592.695312 796.457031 571.242188 822.550781 C 549.722656 848.726562 547.574219 893.636719 547.558594 894.085938 C 547.546875 894.332031 547.492188 894.566406 547.390625 894.789062 C 547.289062 895.011719 547.152344 895.207031 546.972656 895.375 C 546.796875 895.546875 546.59375 895.675781 546.367188 895.769531 C 546.140625 895.859375 545.90625 895.90625 545.660156 895.90625 Z M 545.660156 895.90625 " fill-opacity="1" fill-rule="nonzero"/><path fill="#000000" d="M 581.222656 910.628906 C 580.871094 910.628906 580.542969 910.539062 580.242188 910.359375 C 579.941406 910.175781 579.707031 909.929688 579.542969 909.621094 C 575.757812 901.855469 572.867188 893.773438 570.867188 885.375 C 568.871094 876.972656 567.8125 868.453125 567.699219 859.820312 C 567.75 851.179688 568.648438 842.628906 570.402344 834.171875 C 572.152344 825.710938 574.71875 817.507812 578.105469 809.558594 C 578.210938 809.328125 578.355469 809.128906 578.542969 808.960938 C 578.726562 808.789062 578.9375 808.660156 579.175781 808.574219 C 579.410156 808.488281 579.65625 808.449219 579.90625 808.460938 C 580.160156 808.46875 580.398438 808.527344 580.628906 808.632812 C 580.855469 808.738281 581.054688 808.886719 581.226562 809.070312 C 581.398438 809.257812 581.527344 809.46875 581.613281 809.703125 C 581.699219 809.941406 581.738281 810.183594 581.730469 810.4375 C 581.71875 810.6875 581.660156 810.929688 581.554688 811.15625 C 578.316406 818.863281 575.851562 826.804688 574.160156 834.992188 C 572.46875 843.175781 571.582031 851.445312 571.5 859.804688 C 571.648438 868.125 572.6875 876.335938 574.609375 884.4375 C 576.535156 892.535156 579.300781 900.335938 582.910156 907.835938 C 582.988281 907.980469 583.046875 908.132812 583.082031 908.292969 C 583.121094 908.453125 583.136719 908.617188 583.132812 908.78125 C 583.128906 908.941406 583.101562 909.105469 583.054688 909.261719 C 583.011719 909.417969 582.945312 909.566406 582.859375 909.707031 C 582.777344 909.847656 582.675781 909.976562 582.558594 910.089844 C 582.441406 910.203125 582.308594 910.300781 582.167969 910.382812 C 582.023438 910.464844 581.875 910.523438 581.714844 910.566406 C 581.558594 910.609375 581.394531 910.628906 581.230469 910.628906 Z M 581.222656 910.628906 " fill-opacity="1" fill-rule="nonzero"/><path fill="#000000" d="M 573.769531 890.796875 C 573.707031 890.800781 573.644531 890.800781 573.578125 890.796875 C 573.328125 890.773438 573.09375 890.699219 572.871094 890.582031 C 572.648438 890.464844 572.457031 890.308594 572.292969 890.113281 C 572.132812 889.917969 572.015625 889.703125 571.941406 889.460938 C 571.871094 889.21875 571.84375 888.972656 571.867188 888.722656 C 571.929688 888.0625 573.617188 872.152344 591.699219 842.9375 C 609.730469 813.804688 636.425781 793.324219 636.695312 793.113281 C 636.894531 792.960938 637.117188 792.851562 637.359375 792.789062 C 637.605469 792.726562 637.851562 792.710938 638.101562 792.746094 C 638.351562 792.777344 638.582031 792.859375 638.800781 792.984375 C 639.019531 793.113281 639.203125 793.277344 639.355469 793.476562 C 639.507812 793.675781 639.617188 793.898438 639.679688 794.140625 C 639.746094 794.386719 639.761719 794.632812 639.726562 794.882812 C 639.691406 795.132812 639.613281 795.363281 639.488281 795.582031 C 639.359375 795.800781 639.199219 795.984375 638.996094 796.140625 C 638.734375 796.328125 612.582031 816.417969 594.933594 844.933594 C 577.316406 873.394531 575.667969 888.921875 575.652344 889.078125 C 575.628906 889.3125 575.566406 889.535156 575.460938 889.746094 C 575.355469 889.957031 575.214844 890.140625 575.042969 890.296875 C 574.867188 890.457031 574.671875 890.578125 574.453125 890.664062 C 574.234375 890.75 574.003906 890.792969 573.769531 890.796875 Z M 573.769531 890.796875 " fill-opacity="1" fill-rule="nonzero"/><path fill="#000000" d="M 606.15625 921.625 C 605.933594 921.625 605.71875 921.585938 605.507812 921.511719 C 605.300781 921.4375 605.109375 921.328125 604.941406 921.183594 C 604.769531 921.042969 604.628906 920.875 604.515625 920.683594 C 604.402344 920.492188 604.328125 920.289062 604.285156 920.070312 C 603.972656 918.359375 596.679688 878.082031 604.800781 851.457031 C 612.789062 825.261719 617.21875 811.183594 617.261719 811.042969 C 617.339844 810.804688 617.457031 810.585938 617.617188 810.394531 C 617.78125 810.199219 617.972656 810.046875 618.199219 809.929688 C 618.421875 809.8125 618.660156 809.742188 618.910156 809.722656 C 619.160156 809.699219 619.40625 809.726562 619.648438 809.800781 C 619.886719 809.875 620.105469 809.996094 620.296875 810.15625 C 620.492188 810.320312 620.644531 810.511719 620.761719 810.734375 C 620.878906 810.960938 620.949219 811.195312 620.972656 811.449219 C 620.992188 811.699219 620.964844 811.945312 620.890625 812.1875 C 620.847656 812.324219 616.425781 826.390625 608.4375 852.570312 C 600.589844 878.300781 607.953125 918.972656 608.027344 919.378906 C 608.074219 919.625 608.070312 919.875 608.019531 920.121094 C 607.964844 920.367188 607.867188 920.59375 607.726562 920.800781 C 607.582031 921.007812 607.40625 921.183594 607.195312 921.320312 C 606.984375 921.457031 606.753906 921.546875 606.507812 921.59375 C 606.390625 921.617188 606.273438 921.625 606.15625 921.625 Z M 606.15625 921.625 " fill-opacity="1" fill-rule="nonzero"/><path fill="#000000" d="M 603.128906 893.582031 C 602.984375 893.578125 602.839844 893.5625 602.695312 893.53125 C 602.453125 893.472656 602.230469 893.371094 602.027344 893.226562 C 601.820312 893.082031 601.652344 892.902344 601.519531 892.691406 C 601.386719 892.480469 601.300781 892.25 601.257812 892.003906 C 601.214844 891.753906 601.21875 891.511719 601.273438 891.265625 C 601.355469 890.910156 603.4375 882.292969 619.945312 861.691406 C 630.246094 848.902344 642.203125 837.917969 655.820312 828.738281 C 656.035156 828.601562 656.265625 828.511719 656.511719 828.46875 C 656.761719 828.425781 657.007812 828.429688 657.253906 828.488281 C 657.5 828.542969 657.726562 828.640625 657.933594 828.785156 C 658.140625 828.933594 658.3125 829.109375 658.445312 829.324219 C 658.582031 829.539062 658.671875 829.769531 658.714844 830.015625 C 658.757812 830.265625 658.75 830.511719 658.695312 830.757812 C 658.640625 831.003906 658.542969 831.230469 658.394531 831.4375 C 658.25 831.644531 658.070312 831.816406 657.859375 831.949219 C 644.628906 840.9375 632.980469 851.640625 622.914062 864.066406 C 607.144531 883.753906 605 892.039062 604.980469 892.121094 C 604.878906 892.546875 604.65625 892.898438 604.308594 893.171875 C 603.960938 893.445312 603.570312 893.582031 603.128906 893.582031 Z M 603.128906 893.582031 " fill-opacity="1" fill-rule="nonzero"/><path fill="#000000" d="M 610.59375 922.957031 C 610.035156 922.960938 609.492188 922.890625 608.953125 922.746094 C 606.039062 921.933594 599.019531 918.785156 589.300781 914.421875 C 570.785156 906.117188 542.804688 893.5625 526.867188 890.332031 C 518.140625 888.5625 480.464844 885.734375 436.824219 882.457031 C 338.246094 875.058594 262.097656 868.894531 252.691406 862.621094 C 232.023438 848.828125 227.632812 831.84375 233.886719 789.929688 C 240.207031 747.566406 256.609375 735.519531 275.804688 725.128906 C 287.042969 719.042969 349.726562 735.046875 437.039062 758.320312 C 481.160156 770.082031 522.808594 781.179688 529.695312 780.214844 C 537.085938 779.160156 546.644531 774.300781 555.886719 769.601562 C 569.1875 762.84375 580.667969 757 586.710938 761.503906 C 588.664062 763.046875 590.371094 764.824219 591.828125 766.84375 C 593.285156 768.863281 594.4375 771.039062 595.289062 773.378906 C 596.011719 775.421875 597.003906 777.324219 598.257812 779.089844 C 599.511719 780.855469 600.984375 782.417969 602.675781 783.773438 C 606.554688 786.664062 615.878906 788.371094 624.898438 790.019531 C 635.953125 792.039062 646.390625 793.949219 649.726562 798.386719 C 655.398438 805.941406 663.128906 827.988281 656.128906 862.714844 C 650.679688 889.746094 630.96875 912.488281 618.714844 920 C 616.273438 921.71875 613.566406 922.703125 610.59375 922.957031 Z M 283.699219 727.539062 C 281.601562 727.390625 279.570312 727.703125 277.613281 728.476562 C 259.335938 738.363281 243.710938 749.867188 237.648438 790.492188 C 231.59375 831.066406 235.441406 846.535156 254.796875 859.457031 C 264.117188 865.675781 364.105469 873.183594 437.109375 878.664062 C 482.675781 882.085938 518.664062 884.785156 527.621094 886.601562 C 543.976562 889.917969 572.1875 902.578125 590.859375 910.953125 C 600.066406 915.085938 607.335938 918.34375 609.976562 919.082031 C 610.457031 919.210938 612.355469 919.4375 616.726562 916.757812 C 628.394531 909.605469 647.175781 887.875 652.402344 861.960938 C 659.148438 828.492188 651.613281 807.234375 646.695312 800.671875 C 644.253906 797.421875 633.613281 795.480469 624.226562 793.761719 C 614.335938 791.957031 605.003906 790.246094 600.410156 786.820312 C 598.453125 785.277344 596.746094 783.496094 595.289062 781.480469 C 593.832031 779.460938 592.679688 777.28125 591.828125 774.941406 C 591.105469 772.902344 590.113281 770.996094 588.859375 769.230469 C 587.605469 767.464844 586.132812 765.90625 584.441406 764.550781 C 580.304688 761.464844 568.769531 767.324219 557.625 772.992188 C 548.105469 777.832031 538.257812 782.839844 530.242188 783.980469 C 522.980469 785.019531 489.734375 776.296875 436.074219 761.996094 C 380.558594 747.203125 306.789062 727.539062 283.699219 727.539062 Z M 276.710938 726.800781 Z M 276.710938 726.800781 " fill-opacity="1" fill-rule="nonzero"/><path fill="#000000" d="M 343.792969 736.304688 C 343.792969 736.304688 321.367188 771.035156 306.359375 797.824219 C 291.347656 824.617188 277.488281 866.3125 277.488281 866.3125 L 285.273438 867.527344 C 285.273438 867.527344 338.0625 754.410156 343.792969 736.304688 Z M 343.792969 736.304688 " fill-opacity="1" fill-rule="nonzero"/><path fill="#fdf2d5" d="M 270.441406 865.214844 C 272.796875 867.660156 275.351562 869.871094 278.109375 871.851562 C 280.863281 873.832031 283.777344 875.550781 286.84375 877 C 289.910156 878.453125 293.085938 879.617188 296.363281 880.492188 C 299.644531 881.367188 302.976562 881.941406 306.359375 882.210938 C 328.683594 883.652344 497.605469 891.839844 523.28125 897.425781 C 548.953125 903.011719 561.371094 912.308594 573.769531 914.542969 C 580.980469 915.902344 588.222656 916.09375 595.5 915.113281 L 588.363281 911.914062 C 588.363281 911.914062 559.039062 883.449219 537.996094 794.621094 C 516.957031 705.792969 484.136719 542.144531 465.207031 539.136719 C 446.273438 536.128906 417.324219 626.316406 377.058594 680.496094 C 336.792969 734.675781 285.28125 867.527344 285.28125 867.527344 Z M 270.441406 865.214844 " fill-opacity="1" fill-rule="nonzero"/><path fill="#ffffff" d="M 307.335938 813.902344 C 307.375 813.851562 354.589844 734.585938 361.425781 719.9375 C 368.265625 705.285156 397.519531 660.882812 410.492188 635.207031 C 423.464844 609.535156 448.394531 562.042969 448.394531 562.042969 L 444.285156 559.714844 C 426.902344 589.089844 404.632812 643.109375 377.046875 680.230469 C 353.464844 711.964844 326.023438 770.691406 307.335938 813.902344 Z M 307.335938 813.902344 " fill-opacity="1" fill-rule="nonzero"/><path fill="#000000" d="M 493.429688 724.507812 C 493.195312 724.507812 492.96875 724.464844 492.75 724.378906 C 492.53125 724.296875 492.335938 724.175781 492.160156 724.019531 C 491.988281 723.863281 491.847656 723.683594 491.738281 723.472656 C 491.632812 723.265625 491.566406 723.046875 491.539062 722.8125 C 491.46875 722.164062 484.226562 657.460938 476.886719 617.324219 C 469.46875 576.792969 470.9375 567.117188 471.003906 566.738281 C 471.046875 566.488281 471.132812 566.257812 471.269531 566.042969 C 471.402344 565.832031 471.570312 565.652344 471.777344 565.503906 C 471.984375 565.359375 472.207031 565.257812 472.453125 565.203125 C 472.699219 565.144531 472.949219 565.136719 473.195312 565.179688 C 473.445312 565.222656 473.675781 565.308594 473.890625 565.445312 C 474.101562 565.578125 474.28125 565.75 474.429688 565.953125 C 474.574219 566.160156 474.675781 566.386719 474.734375 566.632812 C 474.789062 566.878906 474.796875 567.125 474.753906 567.371094 C 474.742188 567.449219 473.421875 577.234375 480.625 616.648438 C 487.992188 656.914062 495.25 721.75 495.320312 722.398438 C 495.347656 722.648438 495.328125 722.894531 495.257812 723.140625 C 495.1875 723.382812 495.074219 723.601562 494.917969 723.796875 C 494.757812 723.996094 494.570312 724.15625 494.347656 724.277344 C 494.125 724.398438 493.890625 724.472656 493.640625 724.5 C 493.570312 724.507812 493.5 724.507812 493.429688 724.507812 Z M 493.429688 724.507812 " fill-opacity="1" fill-rule="nonzero"/><path fill="#000000" d="M 414.363281 721.839844 C 414.199219 721.839844 414.039062 721.816406 413.882812 721.777344 C 413.722656 721.734375 413.574219 721.675781 413.429688 721.59375 C 413.289062 721.515625 413.160156 721.417969 413.042969 721.304688 C 412.925781 721.191406 412.824219 721.0625 412.738281 720.925781 C 412.652344 720.785156 412.589844 720.636719 412.542969 720.480469 C 412.496094 720.324219 412.46875 720.164062 412.460938 720.003906 C 412.457031 719.839844 412.472656 719.679688 412.507812 719.519531 C 412.542969 719.359375 412.597656 719.207031 412.671875 719.0625 C 412.878906 718.664062 433.265625 678.960938 443.21875 637.265625 C 453.167969 595.570312 454.398438 579.679688 454.410156 579.527344 C 454.4375 579.28125 454.507812 579.046875 454.621094 578.828125 C 454.738281 578.613281 454.890625 578.421875 455.078125 578.261719 C 455.269531 578.105469 455.480469 577.988281 455.714844 577.910156 C 455.953125 577.832031 456.191406 577.804688 456.4375 577.824219 C 456.6875 577.839844 456.917969 577.902344 457.140625 578.011719 C 457.363281 578.121094 457.558594 578.269531 457.722656 578.453125 C 457.886719 578.636719 458.011719 578.847656 458.09375 579.078125 C 458.175781 579.3125 458.214844 579.550781 458.203125 579.800781 C 458.160156 580.445312 456.960938 596.066406 446.917969 638.148438 C 436.859375 680.304688 416.261719 720.410156 416.054688 720.808594 C 415.890625 721.125 415.65625 721.375 415.351562 721.5625 C 415.046875 721.746094 414.71875 721.839844 414.363281 721.839844 Z M 414.363281 721.839844 " fill-opacity="1" fill-rule="nonzero"/><path fill="#000000" d="M 462.886719 655.832031 C 462.582031 655.832031 462.285156 655.789062 461.992188 655.703125 C 458.347656 654.644531 457.300781 646.851562 457 642.296875 C 456.984375 642.046875 457.015625 641.800781 457.09375 641.5625 C 457.175781 641.324219 457.300781 641.109375 457.464844 640.917969 C 457.632812 640.730469 457.828125 640.578125 458.054688 640.46875 C 458.28125 640.355469 458.519531 640.292969 458.769531 640.273438 C 459.019531 640.261719 459.265625 640.296875 459.5 640.378906 C 459.738281 640.460938 459.949219 640.585938 460.140625 640.75 C 460.328125 640.917969 460.480469 641.109375 460.59375 641.335938 C 460.707031 641.558594 460.773438 641.796875 460.796875 642.042969 C 461.078125 646.320312 462.074219 650.761719 462.957031 651.898438 C 463.222656 651.65625 463.460938 651.390625 463.664062 651.09375 C 467.085938 646.402344 464.578125 618.421875 462.1875 601.890625 C 462.15625 601.640625 462.171875 601.398438 462.238281 601.15625 C 462.300781 600.917969 462.410156 600.695312 462.558594 600.5 C 462.710938 600.300781 462.894531 600.136719 463.109375 600.011719 C 463.324219 599.882812 463.554688 599.800781 463.800781 599.765625 C 464.046875 599.730469 464.292969 599.742188 464.535156 599.804688 C 464.777344 599.863281 464.996094 599.96875 465.199219 600.117188 C 465.398438 600.261719 465.566406 600.441406 465.695312 600.65625 C 465.824219 600.867188 465.910156 601.097656 465.949219 601.34375 C 465.964844 601.453125 467.542969 612.421875 468.46875 624.117188 C 470.382812 648.355469 467.636719 652.105469 466.734375 653.34375 C 466.335938 654.050781 465.796875 654.621094 465.117188 655.0625 C 464.4375 655.503906 463.695312 655.761719 462.886719 655.832031 Z M 462.886719 655.832031 " fill-opacity="1" fill-rule="nonzero"/><path fill="#000000" d="M 394.042969 698.84375 C 393.703125 698.84375 393.375 698.789062 393.050781 698.691406 C 390.007812 697.773438 389.628906 693.277344 390.007812 686.3125 C 390.558594 675.914062 407.011719 662.433594 407.710938 661.867188 C 407.90625 661.707031 408.125 661.59375 408.367188 661.519531 C 408.609375 661.449219 408.855469 661.425781 409.105469 661.453125 C 409.355469 661.476562 409.59375 661.550781 409.8125 661.671875 C 410.035156 661.789062 410.226562 661.949219 410.386719 662.144531 C 410.542969 662.339844 410.660156 662.558594 410.730469 662.800781 C 410.804688 663.042969 410.828125 663.289062 410.800781 663.539062 C 410.773438 663.789062 410.703125 664.027344 410.582031 664.25 C 410.460938 664.46875 410.304688 664.660156 410.109375 664.820312 C 405.707031 668.402344 394.191406 679.273438 393.808594 686.511719 C 393.5 692.324219 393.914062 694.277344 394.222656 694.929688 C 395.027344 694.519531 397.714844 692.421875 404.035156 681.714844 C 417.664062 658.625 423.53125 648.824219 423.53125 648.824219 C 423.664062 648.617188 423.832031 648.4375 424.035156 648.296875 C 424.238281 648.152344 424.460938 648.050781 424.699219 647.996094 C 424.941406 647.9375 425.1875 647.929688 425.429688 647.96875 C 425.675781 648.007812 425.902344 648.089844 426.117188 648.21875 C 426.328125 648.34375 426.507812 648.507812 426.65625 648.707031 C 426.808594 648.90625 426.914062 649.125 426.976562 649.363281 C 427.039062 649.605469 427.054688 649.847656 427.023438 650.09375 C 426.988281 650.339844 426.914062 650.570312 426.789062 650.785156 C 426.789062 650.785156 420.921875 660.582031 407.304688 683.652344 C 400.195312 695.6875 396.660156 698.84375 394.042969 698.84375 Z M 394.042969 698.84375 " fill-opacity="1" fill-rule="nonzero"/><path fill="#000000" d="M 586.886719 917.609375 C 582.371094 917.605469 577.890625 917.207031 573.445312 916.40625 C 567.402344 915.023438 561.582031 913 555.980469 910.339844 C 545.324219 905.53125 534.292969 901.84375 522.890625 899.277344 C 502.226562 894.785156 387.75 888.574219 332.738281 885.585938 C 319.820312 884.886719 310.488281 884.378906 306.253906 884.105469 C 302.742188 883.835938 299.285156 883.25 295.882812 882.347656 C 292.476562 881.445312 289.183594 880.238281 286.003906 878.730469 C 282.820312 877.222656 279.804688 875.4375 276.949219 873.375 C 274.097656 871.3125 271.457031 869.007812 269.027344 866.460938 C 268.761719 866.160156 268.609375 865.808594 268.566406 865.410156 C 268.523438 865.015625 268.597656 864.640625 268.792969 864.289062 C 268.984375 863.941406 269.261719 863.675781 269.621094 863.5 C 269.980469 863.324219 270.355469 863.269531 270.75 863.328125 L 284.074219 865.40625 C 289.78125 850.882812 337.828125 730.101562 375.550781 679.355469 C 393.335938 655.421875 408.796875 624.625 422.441406 597.453125 C 440.542969 561.40625 453.574219 535.355469 465.519531 537.253906 C 481 539.714844 500.78125 622.101562 527.039062 738.226562 C 531.621094 758.488281 535.949219 777.625 539.871094 794.179688 C 559.546875 877.242188 586.773438 907.46875 589.492188 910.324219 L 596.296875 913.367188 C 596.679688 913.539062 596.976562 913.804688 597.183594 914.167969 C 597.390625 914.535156 597.46875 914.925781 597.414062 915.339844 C 597.363281 915.757812 597.195312 916.117188 596.90625 916.417969 C 596.613281 916.722656 596.265625 916.910156 595.851562 916.980469 C 592.878906 917.433594 589.890625 917.640625 586.886719 917.609375 Z M 276.3125 868.050781 C 278.4375 869.816406 280.6875 871.40625 283.058594 872.828125 C 285.429688 874.246094 287.894531 875.476562 290.457031 876.515625 C 293.015625 877.554688 295.640625 878.394531 298.332031 879.03125 C 301.019531 879.667969 303.742188 880.09375 306.496094 880.3125 C 310.714844 880.585938 320.039062 881.09375 332.941406 881.792969 C 388.058594 884.78125 502.734375 891.003906 523.699219 895.558594 C 535.339844 898.175781 546.597656 901.9375 557.46875 906.839844 C 562.808594 909.378906 568.359375 911.320312 574.121094 912.664062 C 578.679688 913.476562 583.273438 913.851562 587.902344 913.789062 L 587.597656 913.65625 C 587.394531 913.558594 587.214844 913.433594 587.054688 913.273438 C 585.839844 912.09375 557.089844 883.402344 536.164062 795.054688 C 532.234375 778.480469 527.90625 759.332031 523.324219 739.058594 C 513.433594 695.292969 502.214844 645.683594 491.652344 607.195312 C 476.195312 550.847656 468.261719 541.542969 464.917969 541.011719 C 455.75 539.570312 441.226562 568.511719 425.835938 599.164062 C 412.121094 626.476562 396.578125 657.429688 378.597656 681.628906 C 338.945312 734.980469 287.578125 866.886719 287.0625 868.214844 C 286.902344 868.628906 286.625 868.949219 286.238281 869.171875 C 285.851562 869.394531 285.4375 869.472656 284.996094 869.40625 Z M 276.3125 868.050781 " fill-opacity="1" fill-rule="nonzero"/><path fill="#fdf2d5" d="M 466.9375 535.449219 C 456.097656 533.675781 448 538.425781 446.136719 542.890625 C 444.273438 547.355469 441.019531 555.820312 443.347656 559.445312 C 445.675781 563.070312 463.8125 566.144531 470.507812 566.886719 C 477.203125 567.632812 490.042969 565.773438 492.648438 561.867188 C 495.253906 557.960938 490.972656 543.445312 485.578125 539.910156 C 480.179688 536.375 474.902344 536.75 466.9375 535.449219 Z M 466.9375 535.449219 " fill-opacity="1" fill-rule="nonzero"/><path fill="#ffffff" d="M 481.324219 537.847656 C 481.324219 537.847656 460.277344 534.765625 453.332031 539.910156 C 448.8125 543.488281 445.3125 547.882812 442.835938 553.085938 C 442.835938 553.085938 444.960938 539.625 452.277344 536.75 C 459.59375 533.871094 472.605469 534.847656 481.324219 537.847656 Z M 481.324219 537.847656 " fill-opacity="1" fill-rule="nonzero"/><path fill="#000000" d="M 451.109375 564.601562 C 450.976562 564.382812 450.894531 564.152344 450.855469 563.902344 C 450.816406 563.652344 450.828125 563.40625 450.890625 563.160156 C 450.949219 562.914062 451.054688 562.691406 451.207031 562.488281 C 451.355469 562.285156 451.539062 562.121094 451.753906 561.988281 C 457.351562 558.433594 462.261719 554.105469 466.492188 549 C 472.277344 541.652344 472.199219 536.125 472.199219 536.066406 C 472.167969 535.023438 475.953125 534.898438 476 535.917969 C 476.015625 536.195312 476.21875 542.800781 469.480469 551.351562 C 464.976562 556.832031 459.726562 561.464844 453.722656 565.246094 C 453.414062 565.429688 451.464844 565.191406 451.109375 564.601562 Z M 451.109375 564.601562 " fill-opacity="1" fill-rule="nonzero"/><path fill="#000000" d="M 473.671875 568.941406 C 472.550781 568.949219 471.429688 568.894531 470.3125 568.777344 C 470.0625 568.75 445.210938 565.855469 441.761719 560.472656 C 439.667969 557.210938 440.476562 551.5625 444.398438 542.15625 C 446.757812 536.484375 455.953125 531.730469 467.257812 533.570312 C 469.28125 533.902344 471.132812 534.121094 472.851562 534.332031 C 477.898438 534.933594 482.257812 535.457031 486.632812 538.324219 C 490.65625 540.960938 493.695312 548.078125 494.8125 553.582031 C 495.417969 556.542969 495.804688 560.570312 494.242188 562.925781 C 491.449219 567.109375 480.824219 568.941406 473.671875 568.941406 Z M 462.390625 536.972656 C 454.722656 536.972656 449.207031 540.496094 447.90625 543.628906 C 443.644531 553.855469 444.234375 557.289062 444.960938 558.425781 C 446.347656 560.582031 460.289062 563.847656 470.730469 565.003906 C 477.476562 565.746094 489.148438 563.71875 491.082031 560.820312 C 491.589844 560.0625 491.792969 557.757812 491.09375 554.355469 C 489.953125 548.726562 487.132812 543.210938 484.550781 541.519531 C 480.921875 539.140625 477.347656 538.714844 472.398438 538.121094 C 470.628906 537.910156 468.730469 537.683594 466.648438 537.34375 C 465.238281 537.105469 463.820312 536.980469 462.390625 536.972656 Z M 462.390625 536.972656 " fill-opacity="1" fill-rule="nonzero"/><path fill="#000000" d="M 573.769531 913.710938 C 580.980469 915.074219 588.222656 915.265625 595.5 914.28125 L 588.363281 911.085938 C 588.363281 911.085938 566.59375 889.90625 547.105469 827.21875 C 547.097656 827.269531 535.550781 880.578125 515.414062 876.691406 C 495.277344 872.808594 438.449219 873.511719 397.003906 876.691406 C 355.558594 879.875 313.054688 881.769531 313.054688 881.769531 C 351.480469 883.9375 499.382812 891.386719 523.273438 896.578125 C 548.953125 902.179688 561.371094 911.480469 573.769531 913.710938 Z M 573.769531 913.710938 " fill-opacity="1" fill-rule="nonzero"/><g clip-path="url(#4ac147ddd8)"><g clip-path="url(#fc1f72a044)"><g clip-path="url(#32de2a1461)"><g clip-path="url(#d36cdc50d2)"><path fill="#000000" d="M 540.746094 414.117188 L 558.09375 387.289062 C 558.796875 386.210938 558.640625 384.796875 557.832031 383.886719 C 557.664062 383.695312 557.472656 383.523438 557.242188 383.386719 C 555.929688 382.546875 554.183594 382.917969 553.328125 384.207031 L 542.109375 401.558594 C 542.597656 394.65625 542.476562 387.539062 541.785156 380.542969 C 539.933594 361.714844 534.078125 344.121094 524.320312 328.25 C 520.445312 321.917969 516.171875 316.28125 511.738281 311.277344 C 491.4375 288.355469 467.3125 278.660156 456.496094 275.222656 C 455.023438 274.75 453.414062 275.570312 452.964844 277.066406 C 452.496094 278.539062 453.324219 280.152344 454.816406 280.609375 C 467.382812 284.574219 498.832031 297.472656 519.496094 331.195312 C 536.253906 358.5 537.605469 385.871094 536.414062 401.988281 L 527.246094 382.902344 C 526.566406 381.5 524.878906 380.914062 523.457031 381.566406 C 522.054688 382.242188 521.476562 383.925781 522.132812 385.351562 L 535.839844 413.8125 C 536.285156 414.738281 537.191406 415.335938 538.207031 415.421875 C 539.226562 415.464844 540.195312 414.984375 540.746094 414.117188 Z M 540.746094 414.117188 " fill-opacity="1" fill-rule="nonzero"/></g></g></g></g></svg>