<svg xmlns="http://www.w3.org/2000/svg" xmlns:xlink="http://www.w3.org/1999/xlink" width="1080" zoomAndPan="magnify" viewBox="0 0 810 1012.49997" height="1350" preserveAspectRatio="xMidYMid meet" version="1.0"><defs><clipPath id="c7f8ef2764"><path d="M 0.199219 0 L 809.800781 0 L 809.800781 1012 L 0.199219 1012 Z M 0.199219 0 " clip-rule="nonzero"/></clipPath></defs><g clip-path="url(#c7f8ef2764)"><path fill="#ffffff" d="M 0.199219 0 L 809.800781 0 L 809.800781 1012 L 0.199219 1012 Z M 0.199219 0 " fill-opacity="1" fill-rule="nonzero"/><path fill="#f5f6f8" d="M 0.199219 0 L 809.800781 0 L 809.800781 1012 L 0.199219 1012 Z M 0.199219 0 " fill-opacity="1" fill-rule="nonzero"/></g><path fill="#ffffff" d="M 215.449219 844.644531 C 232.882812 850.929688 241.609375 854.0625 241.609375 854.0625 C 241.609375 854.0625 242.746094 843.117188 245.019531 821.246094 C 225.515625 813.453125 215.785156 809.554688 215.785156 809.554688 C 215.542969 832.9375 215.449219 844.644531 215.449219 844.644531 Z M 215.449219 844.644531 " fill-opacity="1" fill-rule="evenodd"/><path fill="#0f3635" d="M 268.773438 905.726562 C 265.4375 910.59375 241.832031 904.777344 197.976562 888.3125 C 193.875 886.132812 192.589844 883.464844 194.15625 880.332031 C 199.898438 871.570312 205.976562 855.515625 213.996094 836.574219 C 221.117188 840.691406 232.976562 846.492188 243.714844 847.667969 C 243.527344 865.660156 249.496094 879.644531 265.847656 891.574219 C 269.800781 895.097656 270.769531 899.816406 268.773438 905.726562 Z M 268.773438 905.726562 " fill-opacity="1" fill-rule="evenodd"/><path fill="#ffffff" d="M 291.632812 867.878906 C 276.25 871.234375 268.570312 872.910156 268.570312 872.910156 C 268.570312 872.910156 267.246094 862.414062 264.578125 841.402344 C 282.179688 841.511719 290.980469 841.570312 290.980469 841.570312 C 291.425781 859.09375 291.632812 867.878906 291.632812 867.878906 Z M 291.632812 867.878906 " fill-opacity="1" fill-rule="evenodd"/><path fill="#fcc390" d="M 292.546875 847.890625 C 282.308594 849.644531 272.558594 849.214844 263.3125 846.585938 C 259.394531 825.441406 255.984375 805.957031 253.074219 788.152344 C 251.078125 800.328125 248.953125 813.171875 246.734375 826.765625 C 233.328125 825.980469 222.328125 822.886719 213.753906 817.5 C 209.316406 718.382812 211.367188 660.878906 219.921875 644.957031 C 151.703125 556.914062 140.234375 480.414062 185.484375 415.492188 C 217.3125 414.355469 243.15625 417.320312 262.976562 424.421875 C 290.046875 554.660156 303.585938 619.785156 303.585938 619.785156 C 306.082031 639.324219 302.410156 715.359375 292.546875 847.890625 Z M 292.546875 847.890625 " fill-opacity="1" fill-rule="evenodd"/><path fill="#0f3635" d="M 337.050781 912.71875 C 335.300781 918.351562 311.023438 919.75 264.261719 916.953125 C 259.695312 916.074219 257.679688 913.914062 258.257812 910.445312 C 261.167969 900.375 263.644531 885.105469 265.734375 864.632812 C 273.753906 866.460938 283.054688 866.367188 293.683594 864.316406 C 298.8125 881.5625 310.929688 893.476562 330.078125 900.058594 C 334.890625 902.277344 337.203125 906.492188 337.050781 912.71875 Z M 337.050781 912.71875 " fill-opacity="1" fill-rule="evenodd"/><path fill="#fcc390" d="M 261.820312 888.964844 C 261.894531 888.5 262.339844 888.164062 262.808594 888.238281 C 263.273438 888.3125 263.609375 888.761719 263.535156 889.226562 C 263.066406 892.378906 262.527344 895.472656 261.929688 898.492188 C 261.351562 901.476562 260.699219 904.402344 259.992188 907.273438 C 259.878906 907.742188 259.414062 908.019531 258.949219 907.910156 C 258.480469 907.796875 258.203125 907.332031 258.3125 906.863281 C 259.003906 904.066406 259.636719 901.160156 260.234375 898.15625 C 260.8125 895.191406 261.335938 892.117188 261.820312 888.964844 Z M 261.820312 888.964844 " fill-opacity="1" fill-rule="nonzero"/><path fill="#eb7625" d="M 182.074219 420.972656 L 181.832031 420.972656 C 182.445312 420.023438 183.042969 419.089844 183.675781 418.140625 L 183.789062 418.140625 C 183.191406 419.089844 182.632812 420.042969 182.074219 420.972656 Z M 211.476562 727.292969 L 211.476562 730.128906 L 300.601562 730.128906 L 300.769531 727.292969 Z M 213.304688 807.394531 L 249.90625 807.394531 L 250.371094 804.558594 L 213.191406 804.558594 Z M 171.015625 514.757812 L 159.269531 514.757812 C 159.363281 515.691406 159.476562 516.640625 159.605469 517.59375 L 171.6875 517.59375 C 171.464844 516.640625 171.242188 515.691406 171.015625 514.757812 Z M 214.105469 669.324219 C 213.996094 670.238281 213.882812 671.191406 213.789062 672.160156 L 303.546875 672.160156 L 303.660156 669.324219 Z M 211.570312 746.609375 L 211.609375 749.445312 L 299.40625 749.445312 L 299.59375 746.609375 Z M 245.914062 826.710938 L 246.734375 826.710938 L 247.203125 823.875 L 228.519531 823.875 C 233.757812 825.347656 239.558594 826.300781 245.914062 826.710938 Z M 176.574219 534.074219 L 162.515625 534.074219 C 162.71875 535.007812 162.945312 535.957031 163.167969 536.910156 L 177.523438 536.910156 C 177.207031 535.957031 176.890625 535.023438 176.574219 534.074219 Z M 212.484375 688.640625 C 212.429688 689.574219 212.371094 690.507812 212.335938 691.476562 L 302.707031 691.476562 L 302.839844 688.640625 Z M 211.925781 765.925781 L 212 768.761719 L 298.140625 768.761719 L 298.328125 765.925781 Z M 211.71875 707.957031 L 211.664062 710.773438 L 301.699219 710.773438 L 301.851562 707.957031 Z M 212.484375 785.242188 L 212.578125 788.078125 L 296.835938 788.078125 L 297.019531 785.242188 Z M 251.65625 420.972656 C 247.351562 419.875 242.800781 418.921875 238.027344 418.140625 L 183.789062 418.140625 C 183.210938 419.070312 182.632812 420.023438 182.074219 420.972656 Z M 278.339844 498.257812 L 277.742188 495.441406 L 158.46875 495.441406 C 158.449219 496.375 158.433594 497.324219 158.433594 498.277344 L 278.339844 498.277344 Z M 194.585938 575.542969 L 294.410156 575.542969 L 293.8125 572.707031 L 175.53125 572.707031 C 175.941406 573.640625 176.367188 574.589844 176.796875 575.542969 Z M 243.304688 650.007812 L 217.855469 650.007812 C 217.574219 650.886719 217.292969 651.835938 217.035156 652.84375 L 304.179688 652.84375 L 304.238281 650.007812 Z M 256.300781 807.394531 L 295.492188 807.394531 L 295.699219 804.558594 L 255.816406 804.558594 Z M 266.292969 440.308594 L 265.699219 437.472656 L 172.566406 437.472656 C 172.117188 438.40625 171.671875 439.355469 171.222656 440.308594 Z M 282.347656 517.59375 L 281.769531 514.757812 L 171.015625 514.757812 C 171.242188 515.691406 171.464844 516.640625 171.6875 517.59375 Z M 298.417969 594.875 L 297.824219 592.042969 L 185 592.042969 C 185.503906 592.972656 186.027344 593.925781 186.550781 594.875 Z M 259.695312 826.710938 L 294.113281 826.710938 L 294.316406 823.875 L 259.171875 823.875 Z M 270.300781 459.625 L 269.726562 456.789062 L 164.847656 456.789062 C 164.546875 457.722656 164.269531 458.671875 163.988281 459.625 Z M 285.777344 534.074219 L 176.574219 534.074219 C 176.890625 535.007812 177.207031 535.957031 177.542969 536.910156 L 286.375 536.910156 Z M 302.429688 614.191406 L 301.832031 611.359375 L 196.28125 611.359375 C 196.878906 612.289062 197.476562 613.242188 198.070312 614.191406 Z M 263.199219 846.042969 L 292.675781 846.042969 L 292.882812 843.210938 L 262.675781 843.210938 Z M 274.328125 478.941406 L 273.753906 476.105469 L 160.222656 476.105469 C 160.074219 477.039062 159.921875 477.988281 159.792969 478.941406 Z M 290.382812 556.226562 L 289.785156 553.410156 L 167.976562 553.410156 C 168.296875 554.339844 168.632812 555.292969 168.949219 556.226562 Z M 304.3125 633.507812 C 304.292969 632.519531 304.273438 631.589844 304.253906 630.675781 L 209.277344 630.675781 C 209.949219 631.605469 210.621094 632.558594 211.308594 633.507812 Z M 304.3125 633.507812 " fill-opacity="0.549" fill-rule="nonzero"/><path fill="#eb7625" d="M 176.144531 430.539062 C 177.058594 428.878906 177.992188 427.238281 178.980469 425.617188 L 178.980469 580.183594 C 178.007812 578.152344 177.058594 576.117188 176.144531 574.105469 Z M 214.777344 818.132812 C 215.691406 818.671875 216.640625 819.195312 217.613281 819.679688 L 217.613281 650.773438 C 216.53125 654.355469 215.578125 658.828125 214.777344 664.253906 Z M 214.777344 638.207031 C 215.710938 639.457031 216.660156 640.707031 217.613281 641.953125 L 217.613281 614.210938 C 216.660156 612.773438 215.710938 611.339844 214.777344 609.902344 Z M 159.644531 517.851562 L 159.644531 480.078125 C 158.003906 492.347656 158.003906 504.933594 159.644531 517.851562 Z M 253.429688 790.296875 C 254.324219 795.738281 255.273438 801.351562 256.261719 807.113281 L 256.261719 422.242188 C 255.332031 421.960938 254.398438 421.699219 253.429688 421.4375 Z M 195.460938 577.199219 L 195.460938 610.035156 C 196.394531 611.527344 197.324219 613 198.296875 614.492188 L 198.296875 415.304688 L 195.460938 415.304688 Z M 272.746094 848.488281 C 273.675781 848.597656 274.628906 848.691406 275.578125 848.765625 L 275.578125 484.925781 L 272.746094 471.332031 Z M 214.777344 609.902344 C 215.710938 611.339844 216.640625 612.773438 217.613281 614.210938 L 217.613281 415.863281 C 216.679688 415.808594 215.726562 415.753906 214.777344 415.695312 Z M 292.0625 564.296875 L 292.0625 847.964844 L 292.546875 847.890625 C 293.367188 836.816406 294.148438 826.132812 294.894531 815.839844 L 294.894531 577.910156 Z M 234.09375 637.777344 L 234.09375 825.21875 C 235.027344 825.402344 235.957031 825.570312 236.929688 825.722656 L 236.929688 417.972656 C 235.996094 417.820312 235.042969 417.691406 234.09375 417.542969 Z M 234.09375 637.777344 " fill-opacity="0.549" fill-rule="nonzero"/><path fill="#0f3635" d="M 657.113281 909.4375 C 655.101562 912.214844 602.613281 910.648438 581.527344 909.550781 C 558.5 909.4375 521.84375 909.101562 520.484375 907.851562 C 518.507812 906.042969 517.292969 898.753906 522.832031 897.746094 C 559.542969 890.941406 583.09375 890.269531 593.515625 895.769531 C 622.675781 891.558594 640.984375 892.433594 648.351562 898.417969 L 654.222656 898.363281 C 658.308594 898.382812 659.445312 906.25 657.113281 909.4375 Z M 657.113281 909.4375 " fill-opacity="1" fill-rule="evenodd"/><path fill="#fcc390" d="M 640.464844 699.476562 C 648.910156 642.289062 653.140625 613.6875 653.140625 613.6875 C 629.964844 598.308594 606.304688 592.023438 582.160156 594.839844 C 582.199219 596.832031 582.234375 598.808594 582.273438 600.769531 C 564.839844 592.789062 547.125 589.824219 529.152344 591.929688 C 530.308594 661.960938 534.632812 705.386719 542.148438 722.222656 C 561 816.453125 570.414062 863.570312 570.414062 863.570312 C 568.902344 868.867188 563.886719 873.808594 555.367188 878.410156 C 542.839844 885.199219 532.769531 885.3125 522.292969 890.007812 C 516.753906 892.488281 518.636719 899.070312 522.160156 899.703125 C 540.171875 900.542969 556.859375 900.675781 572.296875 900.097656 C 572.875 901.402344 573.917969 902.390625 575.1875 902.632812 C 605.316406 904.050781 631.851562 903.472656 654.78125 900.917969 C 652.84375 890.886719 649.824219 881.246094 645.683594 872 C 661.625 784.105469 659.890625 726.585938 640.464844 699.476562 Z M 588.480469 698.09375 C 588.125 697.574219 587.792969 697.050781 587.4375 696.546875 C 587.585938 695.578125 587.714844 694.644531 587.847656 693.714844 C 588.070312 695.207031 588.277344 696.679688 588.480469 698.09375 Z M 608.375 881.339844 C 604.980469 883.183594 601.773438 884.507812 598.679688 885.589844 C 597.019531 879.960938 595.042969 874.441406 592.640625 869.070312 C 600.023438 828.386719 603.621094 794.210938 603.414062 766.558594 C 616.726562 833.160156 623.402344 866.480469 623.402344 866.480469 C 621.894531 871.773438 616.878906 876.734375 608.375 881.339844 Z M 608.375 881.339844 " fill-opacity="1" fill-rule="evenodd"/><path fill="#ffffff" d="M 379.75 358.324219 C 400.257812 355.566406 412.789062 352.808594 417.355469 350.046875 C 419.6875 342.683594 416.40625 337.441406 407.53125 334.367188 C 396.996094 340.277344 387.375 343.390625 378.6875 343.707031 C 379.414062 353.441406 379.75 358.324219 379.75 358.324219 Z M 379.75 358.324219 " fill-opacity="1" fill-rule="evenodd"/><path fill="#0f3635" d="M 660.878906 629.78125 C 631.960938 639.625 604.664062 642.550781 578.992188 638.5625 C 578.992188 638.5625 578.933594 636.828125 578.839844 633.339844 C 552.066406 634.273438 531.296875 632.015625 516.605469 626.535156 C 516.605469 626.535156 522.535156 575.617188 534.390625 473.777344 C 534.390625 473.777344 548.019531 474.355469 575.222656 475.492188 C 591.089844 474.484375 613.652344 473.050781 642.90625 471.183594 C 659.796875 489.980469 665.785156 542.855469 660.878906 629.78125 Z M 625.714844 113.644531 C 604.871094 92.445312 544.238281 102.683594 544.070312 128.675781 C 565.082031 169.785156 585.722656 200.550781 605.96875 220.949219 C 632.277344 197.976562 652.527344 140.90625 625.714844 113.644531 Z M 625.714844 113.644531 " fill-opacity="1" fill-rule="evenodd"/><path fill="#fcc390" d="M 616.28125 229.171875 C 608.617188 248.226562 597.414062 265.492188 582.644531 281.003906 C 562.863281 280.203125 555.347656 267.542969 560.066406 242.988281 C 563.421875 234.148438 564.933594 224.359375 564.617188 213.582031 C 564.617188 213.582031 579.457031 204 609.140625 184.832031 C 605.578125 208.980469 607.945312 223.765625 616.28125 229.171875 Z M 616.28125 229.171875 " fill-opacity="1" fill-rule="evenodd"/><path fill="#0f3635" d="M 559.769531 244.703125 C 559.859375 244.144531 559.972656 243.566406 560.085938 242.988281 C 563.441406 234.148438 564.949219 224.359375 564.632812 213.582031 C 564.632812 213.582031 579.476562 204 609.160156 184.832031 C 607.535156 195.851562 607.144531 204.933594 607.984375 212.054688 C 587.457031 236.648438 571.382812 247.535156 559.769531 244.703125 Z M 559.769531 244.703125 " fill-opacity="0.349" fill-rule="evenodd"/><path fill="#ffffff" d="M 329.835938 154.21875 C 279.53125 156.566406 257.101562 176.105469 262.566406 212.839844 C 262.566406 212.839844 259.453125 221.472656 253.222656 238.753906 C 253.222656 238.753906 266.257812 241.476562 292.304688 246.921875 C 292.304688 246.921875 294.558594 242.261719 299.054688 232.957031 C 304.367188 237.730469 325.195312 248.765625 332.054688 245.597656 C 339.085938 242.335938 337.722656 226.375 338.339844 219.570312 C 342.402344 218.65625 344.847656 217.015625 344.996094 214.085938 C 340.707031 210.246094 339.679688 203.105469 340.242188 196.167969 C 341.230469 177.710938 337.761719 163.746094 329.835938 154.21875 Z M 329.835938 154.21875 " fill-opacity="1" fill-rule="evenodd"/><path fill="#922b09" d="M 342.402344 182.410156 C 342.105469 182.78125 341.546875 182.839844 341.191406 182.519531 C 339.363281 181.011719 337.21875 180.191406 334.738281 180.058594 C 332.203125 179.910156 329.3125 180.488281 326.050781 181.773438 C 325.605469 181.941406 325.101562 181.738281 324.933594 181.289062 C 324.765625 180.84375 324.96875 180.339844 325.417969 180.171875 C 328.902344 178.792969 332.035156 178.195312 334.832031 178.34375 C 337.6875 178.511719 340.183594 179.464844 342.292969 181.214844 C 342.664062 181.496094 342.703125 182.054688 342.402344 182.410156 Z M 330.5625 230.160156 C 329.183594 230.699219 327.859375 230.589844 326.59375 229.824219 C 325.210938 228.984375 323.886719 227.382812 322.582031 225.011719 C 322.359375 224.601562 321.820312 224.433594 321.410156 224.679688 C 321 224.902344 320.832031 225.441406 321.074219 225.851562 C 322.507812 228.480469 324.054688 230.289062 325.695312 231.296875 C 327.449219 232.359375 329.296875 232.527344 331.214844 231.761719 C 331.664062 231.59375 331.886719 231.089844 331.699219 230.644531 C 331.515625 230.214844 331.011719 229.992188 330.5625 230.160156 Z M 330.5625 230.160156 " fill-opacity="1" fill-rule="nonzero"/><path fill="#0f3635" d="M 383.460938 357.078125 C 326.105469 357.449219 300.675781 341.078125 300.675781 341.078125 C 297.28125 353.738281 287.941406 361.457031 277.613281 361.867188 C 271.496094 372.457031 263.589844 405.328125 262.992188 424.421875 C 235.714844 430.257812 209.890625 427.292969 185.503906 415.492188 C 195.628906 383.03125 198.480469 370.089844 204.242188 338.078125 C 212.765625 290.589844 226.320312 260.027344 244.890625 246.4375 C 245.617188 243.398438 246.753906 238.625 248.320312 232.078125 C 266.648438 234.839844 283.054688 239.070312 297.542969 244.757812 C 292.136719 255.910156 289.414062 261.484375 289.414062 261.484375 C 289.414062 261.484375 284.921875 260.402344 276.027344 258.238281 C 284.527344 263.851562 291.613281 271.195312 297.28125 280.332031 C 314.996094 318.78125 323.851562 338.003906 323.851562 338.003906 C 323.851562 338.003906 343.1875 339.4375 381.855469 342.308594 C 382.488281 347.175781 383.03125 352.097656 383.460938 357.078125 Z M 383.460938 357.078125 " fill-opacity="1" fill-rule="evenodd"/><path fill="#fcc390" d="M 605 193.988281 C 604.085938 197.847656 603.003906 201.371094 598.867188 204.859375 C 583.113281 218.132812 549.980469 228.351562 542.519531 219.605469 C 540.058594 216.714844 538.566406 212.074219 538.066406 205.695312 C 536.070312 160.742188 538.417969 133.167969 545.132812 123.007812 C 559.507812 133.113281 576.378906 136.410156 595.734375 132.90625 C 591.949219 150.058594 593.738281 163.113281 601.105469 172.0625 C 604.871094 159.234375 616.226562 160.742188 619.171875 167.175781 C 622.433594 174.335938 619.933594 187.59375 605 193.988281 Z M 509.875 303.082031 C 490.816406 345.535156 481.273438 366.773438 481.273438 366.773438 C 473.03125 349.097656 436.597656 328.417969 418.71875 302.277344 C 421.253906 278.320312 420.601562 265.175781 416.761719 262.808594 C 412.023438 261.519531 408.386719 265.957031 405.871094 276.121094 C 388.941406 261.203125 372.199219 254.210938 370.296875 258.089844 C 369.234375 260.140625 376.300781 267.582031 387.039062 279.101562 C 388.570312 280.742188 390.152344 282.457031 391.8125 284.25 C 389.707031 283.128906 387.914062 283.839844 385.863281 282.8125 C 373.035156 276.4375 361.625 270.46875 360.710938 272.390625 C 358.71875 273.695312 365.113281 281.75 380.847656 292.863281 C 367.703125 286.859375 358.234375 282.179688 357.300781 284.417969 C 356.03125 286.804688 361.609375 291.835938 374.023438 299.519531 C 364.421875 296.609375 355.847656 294.933594 355.34375 296.925781 C 355.269531 300.097656 388.417969 316.636719 395.953125 322.433594 C 428.804688 386.628906 455.933594 421.234375 477.335938 426.25 C 492.199219 427.519531 513.210938 401.210938 540.375 347.289062 C 536.796875 330.65625 526.617188 315.925781 509.875 303.082031 Z M 509.875 303.082031 " fill-opacity="1" fill-rule="evenodd"/><path fill="#ffffff" d="M 468.277344 350.699219 C 461.863281 364.90625 447.152344 380.421875 434.511719 387.878906 C 427.257812 380.679688 413.945312 358.960938 394.535156 322.730469 C 386.367188 318.460938 377.808594 313.019531 368.878906 306.417969 C 367.035156 306.753906 374.902344 293.21875 392.445312 265.789062 C 398.171875 268.53125 402.644531 271.960938 405.871094 276.121094 C 409.488281 282.328125 414.167969 286.242188 419.929688 287.882812 C 420.265625 292.230469 420.152344 296.945312 419.613281 302.035156 C 452.019531 333.230469 468.277344 350.699219 468.277344 350.699219 Z M 468.277344 350.699219 " fill-opacity="1" fill-rule="evenodd"/><path fill="#0f3635" d="M 414.652344 322.398438 C 409.75 325.863281 404.734375 329.089844 399.605469 332.054688 C 399.195312 332.296875 398.65625 332.148438 398.433594 331.738281 C 398.207031 331.328125 398.339844 330.785156 398.75 330.5625 C 403.839844 327.617188 408.796875 324.429688 413.664062 320.980469 C 418.53125 317.550781 423.285156 313.855469 427.929688 309.921875 C 428.300781 309.625 428.84375 309.660156 429.140625 310.015625 C 429.4375 310.390625 429.402344 310.929688 429.046875 311.226562 C 424.347656 315.21875 419.554688 318.929688 414.652344 322.398438 Z M 420.246094 302.652344 C 420.582031 302.316406 420.601562 301.773438 420.265625 301.441406 C 419.929688 301.105469 419.390625 301.085938 419.054688 301.421875 C 414.335938 305.988281 409.917969 310.089844 405.816406 313.746094 C 402.160156 316.988281 398.765625 319.84375 395.671875 322.304688 C 398.320312 315.890625 400.59375 308.992188 402.496094 301.589844 C 404.472656 293.90625 406.058594 285.722656 407.230469 277.03125 C 407.289062 276.660156 407.082031 276.304688 406.765625 276.136719 C 406.765625 275.800781 406.597656 275.484375 406.261719 275.335938 C 405.832031 275.132812 405.3125 275.316406 405.105469 275.765625 C 399.605469 287.640625 393.640625 297.113281 387.261719 304.160156 C 388.308594 301.347656 389.277344 298.324219 390.210938 295.117188 C 390.992188 292.378906 391.738281 289.488281 392.445312 286.46875 L 392.445312 286.449219 C 393.789062 280.613281 394.980469 274.238281 396.027344 267.320312 C 396.101562 266.851562 395.765625 266.40625 395.300781 266.332031 C 394.832031 266.257812 394.386719 266.59375 394.3125 267.058594 C 393.304688 273.828125 392.128906 280.074219 390.824219 285.816406 C 386.3125 290.402344 382.171875 294.335938 378.425781 297.617188 C 374.621094 300.9375 371.210938 303.582031 368.207031 305.578125 C 367.816406 305.839844 367.703125 306.378906 367.964844 306.773438 C 368.226562 307.164062 368.765625 307.277344 369.160156 307.015625 C 372.253906 304.980469 375.722656 302.277344 379.5625 298.921875 C 382.789062 296.105469 386.292969 292.808594 390.058594 289.039062 C 389.574219 290.980469 389.070312 292.84375 388.570312 294.632812 C 386.292969 302.558594 383.664062 309.234375 380.679688 314.660156 C 380.457031 315.070312 380.605469 315.609375 381.015625 315.832031 C 381.425781 316.058594 381.96875 315.90625 382.191406 315.496094 C 383.386719 313.316406 384.542969 310.929688 385.621094 308.375 C 392.632812 301.570312 399.140625 292.042969 405.125 279.828125 C 404.007812 287.363281 402.589844 294.464844 400.855469 301.179688 C 398.898438 308.765625 396.546875 315.851562 393.789062 322.433594 C 393.601562 322.882812 393.808594 323.386719 394.253906 323.570312 L 394.347656 323.609375 C 394.273438 323.871094 394.3125 324.167969 394.496094 324.390625 C 394.796875 324.765625 395.335938 324.839844 395.710938 324.539062 C 399.160156 321.855469 402.925781 318.703125 407.007812 315.070312 C 411.015625 311.414062 415.453125 307.292969 420.246094 302.652344 Z M 463.933594 344.902344 C 463.558594 344.621094 463.019531 344.675781 462.71875 345.070312 C 458.207031 350.941406 452.78125 356.347656 446.441406 361.289062 C 440.085938 366.25 432.8125 370.726562 424.628906 374.734375 C 424.199219 374.9375 424.03125 375.460938 424.238281 375.890625 C 424.441406 376.316406 424.964844 376.484375 425.390625 376.28125 C 433.691406 372.214844 441.054688 367.667969 447.503906 362.652344 C 453.957031 357.617188 459.496094 352.097656 464.082031 346.113281 C 464.378906 345.722656 464.304688 345.179688 463.933594 344.902344 Z M 453.75 335.484375 C 454.03125 335.09375 453.957031 334.554688 453.566406 334.273438 C 453.171875 333.992188 452.632812 334.070312 452.351562 334.460938 C 447.878906 340.574219 443.179688 346.785156 438.238281 353.085938 C 433.28125 359.40625 428.078125 365.839844 422.632812 372.347656 C 422.335938 372.71875 422.371094 373.261719 422.746094 373.558594 C 423.117188 373.855469 423.660156 373.820312 423.957031 373.445312 C 429.417969 366.882812 434.640625 360.453125 439.582031 354.148438 C 444.578125 347.808594 449.296875 341.582031 453.75 335.484375 Z M 435.722656 316.578125 C 435.273438 316.410156 434.769531 316.636719 434.601562 317.0625 C 429.308594 330.46875 422.109375 342.960938 412.992188 354.558594 C 412.695312 354.933594 412.769531 355.472656 413.144531 355.769531 C 413.515625 356.070312 414.054688 355.996094 414.355469 355.621094 C 423.582031 343.894531 430.855469 331.253906 436.207031 317.699219 C 436.394531 317.25 436.167969 316.746094 435.722656 316.578125 Z M 405.648438 341.304688 L 403.09375 336.679688 C 402.871094 336.269531 402.328125 336.101562 401.917969 336.34375 C 401.507812 336.566406 401.339844 337.109375 401.582031 337.519531 L 406.1875 345.796875 C 406.429688 346.207031 406.953125 346.355469 407.363281 346.132812 C 407.773438 345.890625 407.921875 345.367188 407.699219 344.957031 Z M 405.648438 341.304688 " fill-opacity="1" fill-rule="nonzero"/><path fill="#ffffff" d="M 389.425781 350.027344 C 386.535156 356.347656 387.46875 363.003906 392.1875 370.015625 C 392.1875 370.015625 397.855469 368.207031 409.171875 364.570312 C 429.625 370.109375 426.660156 359.835938 439.46875 357.671875 C 444.207031 356.871094 453.136719 358.363281 456.101562 355.695312 C 460.5 351.742188 447.992188 343.707031 438.109375 340.128906 C 433.578125 338.488281 430.835938 338.132812 427.351562 338.65625 C 415.117188 340.445312 405.179688 348.035156 389.425781 350.027344 Z M 389.425781 350.027344 " fill-opacity="1" fill-rule="evenodd"/><path fill="#0f3635" d="M 244.871094 246.4375 C 240.136719 256.785156 241.777344 269.070312 249.832031 283.335938 C 249.832031 283.335938 268.941406 318.703125 307.183594 389.425781 C 308.46875 391.773438 310.242188 393.378906 312.515625 394.21875 C 315.011719 395.132812 318.109375 395.132812 321.800781 394.21875 C 321.800781 394.21875 347.121094 386.257812 397.761719 370.332031 C 398.5625 360.339844 396.585938 352.917969 391.832031 348.070312 C 391.832031 348.070312 371.171875 347.921875 326.441406 347.605469 C 315.535156 299.949219 303.265625 270.320312 291.894531 258.722656 C 283.617188 250.316406 256.320312 245.316406 244.871094 246.4375 Z M 244.871094 246.4375 " fill-opacity="1" fill-rule="evenodd"/><path fill="#eb7625" d="M 668.917969 295.695312 C 651.59375 412.675781 642.925781 471.148438 642.925781 471.148438 C 605.785156 484.125 569.613281 484.980469 534.390625 473.738281 C 534.390625 473.738281 533.738281 431.769531 532.414062 347.921875 C 520.59375 341.714844 509.386719 332.371094 500.511719 319.730469 C 513.25 283.113281 516.0625 267.207031 531.410156 252.867188 C 539.929688 244.90625 550.203125 239.371094 562.230469 236.292969 C 562.824219 251.472656 565.25 263.253906 569.519531 271.644531 C 587.027344 256.46875 602.632812 242.296875 616.316406 229.152344 C 625.769531 234.375 658.101562 250.613281 664.328125 262.265625 C 668.824219 270.695312 670.015625 282.441406 668.917969 295.695312 Z M 668.917969 295.695312 " fill-opacity="1" fill-rule="evenodd"/><path fill="#ffffff" d="M 249.066406 283.746094 C 248.84375 283.316406 248.992188 282.792969 249.421875 282.570312 C 249.847656 282.347656 250.371094 282.496094 250.59375 282.925781 L 290.699219 357.113281 C 290.925781 357.542969 290.773438 358.066406 290.347656 358.289062 C 289.917969 358.511719 289.394531 358.363281 289.171875 357.933594 Z M 382.546875 347.140625 C 383.03125 347.140625 383.402344 347.53125 383.402344 347.996094 C 383.402344 348.480469 383.011719 348.855469 382.546875 348.855469 L 325.734375 348.445312 L 324.464844 343.019531 L 323.3125 338.207031 C 323.199219 337.742188 323.476562 337.277344 323.945312 337.164062 C 324.410156 337.050781 324.875 337.332031 324.988281 337.796875 L 326.144531 342.625 L 327.09375 346.730469 Z M 382.546875 347.140625 " fill-opacity="1" fill-rule="nonzero"/><path fill="#ffffff" d="M 552.609375 516.546875 C 552.441406 516.101562 552.683594 515.597656 553.128906 515.449219 C 553.578125 515.28125 554.082031 515.523438 554.230469 515.96875 C 556.671875 522.8125 559.824219 529.375 563.664062 535.679688 C 567.523438 541.980469 572.074219 548.019531 577.351562 553.800781 L 577.574219 554.042969 L 579.847656 638.523438 C 579.867188 639.007812 579.476562 639.402344 579.007812 639.402344 C 578.523438 639.417969 578.132812 639.027344 578.132812 638.5625 L 575.878906 554.734375 C 570.617188 548.953125 566.070312 542.894531 562.210938 536.574219 C 558.292969 530.175781 555.085938 523.503906 552.609375 516.546875 Z M 552.609375 516.546875 " fill-opacity="1" fill-rule="nonzero"/><path fill="#eb7625" d="M 323.570312 164.269531 C 324.300781 179.222656 315.011719 186.605469 295.714844 186.4375 C 295.660156 180.582031 291.820312 176.460938 287.996094 175.882812 C 277.257812 174.222656 276.101562 201.558594 288.628906 201.96875 C 286.804688 215.449219 278.953125 223.464844 268.980469 220.164062 C 263.964844 223.074219 259.152344 219.699219 261.484375 215.878906 C 253.597656 218.152344 250 211.53125 255.816406 207.824219 C 243.976562 208.753906 239.296875 199.84375 245.671875 195.480469 C 230.886719 195.589844 227.457031 181.328125 238.046875 175.585938 C 224.753906 171.652344 229.582031 155.242188 243.492188 151.941406 C 234.800781 144.933594 244.496094 134.210938 253.074219 135.367188 C 250.539062 124.238281 268.289062 118.753906 276.792969 123.265625 C 284.753906 114.148438 301.289062 119.707031 302.296875 129.4375 C 316.820312 123.398438 336.792969 133.839844 335.355469 147.152344 C 345.273438 150.46875 340.6875 165.40625 323.570312 164.269531 Z M 299.59375 232.265625 C 298.175781 231.089844 297.003906 229.636719 296.070312 227.902344 C 295.136719 226.152344 294.429688 224.101562 294 221.75 C 293.90625 221.285156 293.460938 220.96875 292.992188 221.0625 C 292.527344 221.152344 292.210938 221.601562 292.304688 222.066406 C 292.789062 224.585938 293.535156 226.804688 294.558594 228.703125 C 295.605469 230.644531 296.910156 232.265625 298.492188 233.589844 C 298.867188 233.886719 299.40625 233.851562 299.707031 233.476562 C 300.023438 233.125 299.96875 232.582031 299.59375 232.265625 Z M 452.074219 346.410156 C 448.25 343.652344 443.03125 341.003906 438.386719 339.328125 C 436.058594 338.488281 434.175781 337.964844 432.441406 337.742188 C 430.667969 337.5 429.027344 337.535156 427.21875 337.816406 C 421.53125 338.65625 416.3125 340.726562 410.773438 342.90625 C 405.347656 345.050781 399.605469 347.324219 392.875 348.628906 C 392.410156 348.722656 392.09375 349.171875 392.1875 349.636719 C 392.277344 350.101562 392.726562 350.421875 393.191406 350.328125 C 400.074219 349.003906 405.890625 346.710938 411.410156 344.511719 C 416.835938 342.367188 421.941406 340.332031 427.460938 339.511719 C 429.121094 339.269531 430.613281 339.234375 432.199219 339.4375 C 433.820312 339.660156 435.589844 340.148438 437.792969 340.929688 C 442.304688 342.550781 447.355469 345.125 451.046875 347.792969 C 452.914062 349.132812 454.40625 350.496094 455.300781 351.742188 C 456.046875 352.808594 456.324219 353.757812 455.933594 354.484375 C 455.839844 354.671875 455.691406 354.859375 455.484375 355.027344 C 453.828125 356.515625 449.59375 356.515625 445.621094 356.5 C 443.292969 356.5 441.035156 356.5 439.300781 356.777344 C 434.324219 357.617188 431.5625 359.632812 428.972656 361.496094 C 426.304688 363.433594 423.828125 365.242188 419.054688 365.28125 C 418.570312 365.28125 418.195312 365.671875 418.195312 366.15625 C 418.195312 366.640625 418.585938 367.015625 419.070312 367.015625 C 424.40625 366.957031 427.109375 365 429.996094 362.894531 C 432.421875 361.121094 435.011719 359.238281 439.582031 358.476562 C 441.203125 358.195312 443.386719 358.214844 445.621094 358.214844 C 449.929688 358.214844 454.496094 358.234375 456.640625 356.292969 C 456.996094 355.976562 457.257812 355.640625 457.445312 355.285156 C 458.1875 353.90625 457.835938 352.339844 456.699219 350.738281 C 455.726562 349.359375 454.085938 347.867188 452.074219 346.410156 Z M 596.554688 727.777344 C 596.125 725.652344 595.527344 723.976562 594.894531 722.203125 C 594.578125 721.347656 594.261719 720.433594 593.925781 719.371094 C 591.632812 712.042969 589.675781 701.65625 588.070312 688.289062 C 586.46875 674.84375 585.199219 658.417969 584.324219 639.121094 C 584.304688 638.636719 583.894531 638.28125 583.429688 638.300781 C 582.945312 638.320312 582.589844 638.730469 582.609375 639.195312 C 583.503906 658.550781 584.753906 675.011719 586.355469 688.472656 C 587.960938 701.9375 589.933594 712.433594 592.285156 719.855469 C 592.601562 720.84375 592.9375 721.8125 593.273438 722.761719 C 593.886719 724.460938 594.449219 726.0625 594.859375 728.09375 L 603.25 770.046875 C 603.339844 770.511719 603.808594 770.8125 604.273438 770.738281 C 604.738281 770.644531 605.039062 770.175781 604.964844 769.710938 Z M 596.554688 727.777344 " fill-opacity="1" fill-rule="nonzero"/><path fill="#ffffff" d="M 532.15625 331.515625 L 532.210938 334.890625 C 530.308594 338.097656 528.539062 341.394531 526.914062 344.808594 C 526.394531 344.492188 525.890625 344.15625 525.386719 343.839844 C 527.417969 339.570312 529.675781 335.449219 532.15625 331.515625 Z M 525.386719 343.839844 Z M 516.34375 337.109375 Z M 531.894531 315.347656 L 531.855469 312.476562 C 525.890625 319.972656 520.6875 328.234375 516.34375 337.109375 C 516.808594 337.519531 517.292969 337.910156 517.777344 338.300781 C 521.75 330.078125 526.503906 322.398438 531.894531 315.347656 Z M 531.613281 297.636719 L 531.578125 295.042969 C 530.644531 296.015625 529.730469 297.019531 528.835938 298.007812 C 520.648438 307.164062 513.546875 317.53125 507.785156 328.847656 C 508.214844 329.332031 508.660156 329.796875 509.089844 330.265625 C 514.851562 318.855469 521.957031 308.414062 530.179688 299.222656 C 530.664062 298.679688 531.128906 298.15625 531.613281 297.636719 Z M 520.519531 288.703125 C 514.011719 295.976562 508.140625 303.957031 502.992188 312.535156 C 502.210938 314.84375 501.390625 317.25 500.511719 319.75 L 500.757812 320.101562 C 506.683594 309.085938 513.769531 298.941406 521.863281 289.898438 C 527.847656 283.203125 534.375 277.109375 541.363281 271.71875 L 543.734375 267.691406 C 535.34375 273.789062 527.566406 280.835938 520.519531 288.703125 Z M 515.375 277.015625 C 514.738281 278.523438 514.125 280.109375 513.492188 281.75 L 514.03125 281.152344 C 525.910156 267.878906 539.742188 256.820312 555.011719 248.542969 L 556.765625 245.578125 C 541.421875 253.484375 527.457031 264.167969 515.375 277.015625 Z M 515.375 277.015625 " fill-opacity="0.459" fill-rule="nonzero"/><path fill="#ffffff" d="M 620.71875 377.941406 C 615.085938 377.941406 609.996094 380.496094 606.304688 384.597656 C 602.652344 388.679688 600.375 394.328125 600.375 400.558594 C 600.375 406.785156 602.632812 412.414062 606.304688 416.515625 C 609.996094 420.636719 615.085938 423.171875 620.71875 423.171875 C 626.347656 423.171875 631.441406 420.617188 635.132812 416.515625 C 638.785156 412.433594 641.058594 406.785156 641.058594 400.558594 C 641.058594 394.328125 638.804688 388.699219 635.132812 384.597656 C 631.441406 380.496094 626.347656 377.941406 620.71875 377.941406 Z M 633.789062 415.324219 C 630.433594 419.070312 625.828125 421.382812 620.71875 421.382812 C 615.628906 421.382812 611.003906 419.070312 607.648438 415.324219 C 604.273438 411.558594 602.183594 406.335938 602.183594 400.574219 C 602.183594 394.8125 604.273438 389.59375 607.648438 385.828125 C 610.984375 382.078125 615.609375 379.769531 620.71875 379.769531 C 625.808594 379.769531 630.433594 382.078125 633.789062 385.828125 C 637.164062 389.59375 639.25 394.8125 639.25 400.574219 C 639.234375 406.335938 637.164062 411.558594 633.789062 415.324219 Z M 620.71875 363.882812 C 611.621094 363.882812 603.378906 368.003906 597.414062 374.660156 C 591.484375 381.296875 587.808594 390.453125 587.808594 400.558594 C 587.808594 410.664062 591.484375 419.816406 597.414062 426.453125 C 603.378906 433.109375 611.621094 437.230469 620.71875 437.230469 C 629.816406 437.230469 638.058594 433.109375 644.023438 426.453125 C 647.214844 422.894531 649.75 418.605469 651.410156 413.851562 L 653.609375 399.007812 C 653.253906 389.519531 649.65625 380.960938 644.023438 374.660156 C 638.078125 368.003906 629.835938 363.882812 620.71875 363.882812 Z M 642.683594 425.261719 C 637.050781 431.546875 629.296875 435.441406 620.71875 435.441406 C 612.140625 435.441406 604.386719 431.546875 598.753906 425.261719 C 593.105469 418.941406 589.617188 410.214844 589.617188 400.558594 C 589.617188 390.898438 593.105469 382.171875 598.753906 375.851562 C 604.386719 369.570312 612.140625 365.671875 620.71875 365.671875 C 629.296875 365.671875 637.050781 369.570312 642.683594 375.851562 C 648.332031 382.171875 651.820312 390.898438 651.820312 400.558594 C 651.820312 410.214844 648.332031 418.960938 642.683594 425.261719 Z M 651.761719 366.007812 C 653.851562 368.339844 655.734375 370.910156 657.355469 373.671875 L 656.925781 376.597656 C 655.117188 373.167969 652.917969 370.015625 650.421875 367.21875 C 642.8125 358.71875 632.316406 353.460938 620.71875 353.460938 C 609.121094 353.460938 598.625 358.71875 591.015625 367.21875 C 583.390625 375.742188 578.675781 387.542969 578.675781 400.558594 C 578.675781 413.589844 583.390625 425.375 591.015625 433.894531 C 598.625 442.398438 609.121094 447.65625 620.71875 447.65625 C 631.160156 447.65625 640.726562 443.382812 648.070312 436.316406 L 647.660156 439.152344 C 640.222656 445.621094 630.878906 449.464844 620.71875 449.464844 C 608.597656 449.464844 597.617188 443.980469 589.675781 435.085938 C 581.75 426.230469 576.867188 414.019531 576.867188 400.539062 C 576.867188 387.058594 581.769531 374.84375 589.675781 365.988281 C 597.617188 357.113281 608.597656 351.613281 620.71875 351.613281 C 632.855469 351.652344 643.820312 357.132812 651.761719 366.007812 Z M 658.847656 358.101562 C 659.089844 358.363281 659.3125 358.644531 659.554688 358.902344 L 659.203125 361.289062 C 658.644531 360.617188 658.082031 359.949219 657.503906 359.296875 C 648.089844 348.78125 635.09375 342.253906 620.738281 342.253906 C 606.378906 342.253906 593.386719 348.761719 583.96875 359.296875 C 574.535156 369.847656 568.699219 384.429688 568.699219 400.558594 C 568.699219 416.683594 574.535156 431.265625 583.96875 441.820312 C 593.386719 452.335938 606.378906 458.859375 620.738281 458.859375 C 629.835938 458.859375 638.375 456.25 645.832031 451.664062 L 645.496094 453.976562 C 638.097656 458.261719 629.667969 460.6875 620.753906 460.6875 C 605.859375 460.6875 592.398438 453.9375 582.625 443.050781 C 572.894531 432.179688 566.890625 417.167969 566.890625 400.59375 C 566.890625 384.019531 572.914062 369.007812 582.625 358.140625 C 592.378906 347.230469 605.859375 340.5 620.753906 340.5 C 635.617188 340.464844 649.097656 347.214844 658.847656 358.101562 Z M 620.71875 329.296875 C 636.230469 329.296875 650.4375 335.46875 661.496094 345.722656 L 661.179688 347.902344 C 650.308594 337.441406 636.175781 331.105469 620.71875 331.105469 C 603.601562 331.105469 588.089844 338.859375 576.867188 351.410156 C 565.621094 363.976562 558.667969 381.371094 558.667969 400.574219 C 558.667969 419.78125 565.621094 437.15625 576.867188 449.742188 C 588.089844 462.289062 603.601562 470.046875 620.71875 470.046875 C 628.886719 470.046875 636.679688 468.277344 643.820312 465.070312 L 643.503906 467.175781 C 636.417969 470.195312 628.734375 471.855469 620.71875 471.855469 C 603.0625 471.855469 587.082031 463.855469 575.523438 450.9375 C 563.980469 438.035156 556.839844 420.226562 556.839844 400.574219 C 556.839844 380.921875 563.980469 363.097656 575.523438 350.214844 C 587.101562 337.277344 603.082031 329.296875 620.71875 329.296875 Z M 620.71875 317.699219 C 636.605469 317.699219 651.332031 323.273438 663.414062 332.78125 L 663.117188 334.851562 C 651.203125 325.210938 636.546875 319.523438 620.71875 319.523438 C 600.730469 319.523438 582.644531 328.585938 569.539062 343.222656 C 556.410156 357.898438 548.300781 378.164062 548.300781 400.574219 C 548.300781 422.988281 556.410156 443.253906 569.539062 457.929688 C 579.4375 469.003906 592.191406 476.871094 606.453125 480.058594 C 604.8125 480.285156 603.191406 480.488281 601.550781 480.65625 C 588.742188 476.851562 577.277344 469.300781 568.175781 459.140625 C 554.769531 444.148438 546.472656 423.453125 546.472656 400.59375 C 546.472656 377.734375 554.769531 357.039062 568.175781 342.03125 C 581.636719 327.003906 600.207031 317.699219 620.71875 317.699219 Z M 620.71875 305.410156 Z M 620.71875 305.410156 C 637.089844 305.410156 652.398438 310.574219 665.375 319.507812 L 665.074219 321.5 C 652.230469 312.457031 637.015625 307.21875 620.699219 307.21875 C 597.691406 307.21875 576.847656 317.660156 561.761719 334.515625 C 546.640625 351.410156 537.300781 374.753906 537.300781 400.558594 C 537.300781 422 543.75 441.742188 554.621094 457.5 C 561.296875 467.175781 569.632812 475.359375 579.160156 481.496094 C 578.003906 481.457031 576.847656 481.421875 575.691406 481.347656 C 567.003906 475.304688 559.359375 467.546875 553.128906 458.523438 C 542.074219 442.472656 535.492188 422.371094 535.492188 400.558594 C 535.492188 374.304688 545.019531 350.53125 560.421875 333.324219 C 575.859375 316.074219 597.167969 305.410156 620.71875 305.410156 Z M 538.046875 452.296875 C 543.136719 462.457031 549.699219 471.59375 557.382812 479.351562 C 556.375 479.183594 555.347656 478.996094 554.34375 478.808594 C 547.277344 471.332031 541.214844 462.664062 536.425781 453.097656 C 535.566406 451.402344 534.746094 449.667969 533.980469 447.898438 L 533.90625 442.992188 C 535.15625 446.199219 536.535156 449.296875 538.046875 452.296875 Z M 620.71875 292.769531 C 637.628906 292.769531 653.535156 297.636719 667.351562 306.175781 L 667.070312 308.132812 C 653.367188 299.519531 637.554688 294.597656 620.71875 294.597656 C 594.578125 294.597656 570.917969 306.4375 553.78125 325.605469 C 544.683594 335.765625 537.429688 347.976562 532.621094 361.589844 L 532.546875 356.667969 C 537.394531 344.566406 544.160156 333.660156 552.441406 324.410156 C 569.910156 304.851562 594.054688 292.769531 620.71875 292.769531 Z M 534.335938 469.675781 C 535.453125 471.425781 536.609375 473.125 537.804688 474.800781 C 536.871094 474.523438 535.921875 474.242188 534.988281 473.945312 L 534.375 473.050781 Z M 669.121094 292.695312 C 669.082031 293.367188 669.046875 294.019531 668.992188 294.691406 C 654.503906 286.410156 638.097656 281.730469 620.71875 281.730469 C 591.410156 281.730469 564.859375 295.007812 545.652344 316.484375 C 540.636719 322.078125 536.125 328.234375 532.210938 334.871094 L 532.15625 331.496094 C 535.789062 325.695312 539.855469 320.289062 544.3125 315.292969 C 563.871094 293.441406 590.886719 279.921875 620.71875 279.921875 C 638.132812 279.941406 654.558594 284.527344 669.121094 292.695312 Z M 538.007812 307.964844 C 535.882812 310.332031 533.851562 312.792969 531.894531 315.347656 L 531.855469 312.476562 C 533.402344 310.519531 535.027344 308.617188 536.667969 306.773438 C 558.164062 282.738281 587.882812 267.859375 620.71875 267.859375 C 637.890625 267.859375 654.207031 271.925781 668.933594 279.25 C 669.007812 279.941406 669.066406 280.648438 669.101562 281.359375 C 654.355469 273.863281 637.964844 269.667969 620.699219 269.667969 C 588.425781 269.667969 559.191406 284.304688 538.007812 307.964844 Z M 620.71875 257.289062 C 604.757812 257.289062 589.488281 260.550781 575.390625 266.515625 C 576.753906 265.324219 578.113281 264.128906 579.457031 262.957031 C 592.414062 258.109375 606.304688 255.480469 620.738281 255.480469 C 636.378906 255.480469 651.390625 258.574219 665.28125 264.242188 C 665.617188 265.007812 665.953125 265.789062 666.25 266.609375 C 652.078125 260.570312 636.753906 257.289062 620.71875 257.289062 Z M 531.613281 297.636719 L 531.578125 295.042969 C 542.148438 283.894531 554.378906 274.722656 567.839844 268.007812 C 568.066406 268.585938 568.308594 269.128906 568.550781 269.667969 C 554.789062 276.546875 542.296875 286.058594 531.613281 297.636719 Z M 564.617188 257.230469 C 556.429688 261.242188 548.636719 266.125 541.363281 271.738281 L 543.734375 267.710938 C 550.222656 263.011719 557.082031 258.890625 564.242188 255.40625 C 564.375 256.019531 564.484375 256.636719 564.617188 257.230469 Z M 620.71875 244.125 C 613.035156 244.125 605.484375 244.8125 598.140625 246.15625 L 600.601562 243.902344 C 607.183594 242.855469 613.894531 242.316406 620.71875 242.316406 C 628.308594 242.316406 635.765625 242.988281 643.035156 244.273438 C 644.433594 245.148438 645.816406 246.027344 647.15625 246.921875 C 638.597656 245.09375 629.761719 244.125 620.71875 244.125 Z M 620.71875 231.746094 C 618.257812 231.746094 615.816406 231.820312 613.371094 231.949219 L 615.367188 230.046875 C 616.167969 230.011719 616.953125 229.992188 617.753906 229.972656 C 618.722656 230.496094 619.824219 231.089844 621.054688 231.746094 Z M 562.75 244.648438 C 560.140625 245.859375 557.550781 247.164062 555.011719 248.542969 L 556.765625 245.578125 C 558.6875 244.589844 560.625 243.640625 562.582031 242.746094 C 562.640625 243.378906 562.695312 244.011719 562.75 244.648438 Z M 562.75 244.648438 " fill-opacity="0.349" fill-rule="nonzero"/><path fill="#fcc390" d="M 593.925781 325.511719 C 629.238281 336.34375 646.894531 341.75 646.894531 341.75 C 636.269531 371.878906 620.34375 400.371094 599.128906 427.199219 C 591.242188 437.566406 477.429688 435.199219 468.070312 431.9375 C 455.691406 427.628906 442.675781 415.191406 444.054688 401.769531 C 444.988281 392.671875 448.308594 387.542969 453.082031 389.6875 C 454.085938 390.132812 455.988281 392.578125 457.816406 394.964844 C 460.78125 398.839844 463.28125 402.011719 467.550781 404.660156 C 469.207031 405.683594 470.941406 406.484375 472.75 407.0625 C 470.308594 400.761719 472.65625 393.957031 475.195312 394.070312 C 475.847656 394.085938 479.089844 401.675781 481.011719 404.527344 C 483.15625 407.714844 485.28125 410.140625 487.367188 411.78125 C 491.582031 413.589844 501.109375 411.96875 515.96875 406.914062 C 541.8125 396.175781 562.0625 389.949219 576.734375 388.234375 C 588.203125 346.429688 593.925781 325.511719 593.925781 325.511719 Z M 593.925781 325.511719 " fill-opacity="1" fill-rule="evenodd"/><path fill="#eb7625" d="M 661.625 291.519531 C 662.128906 307.628906 656.144531 328.644531 643.671875 354.558594 C 622.769531 352.152344 604.851562 345.21875 589.898438 333.769531 C 593.777344 318.519531 598.566406 287.324219 611.75 270.675781 C 618.816406 261.746094 628.308594 256.988281 641.339844 261.128906 C 652.730469 264.726562 661.121094 275.671875 661.625 291.519531 Z M 661.625 291.519531 " fill-opacity="1" fill-rule="evenodd"/><path fill="#ffffff" d="M 620.71875 340.464844 C 630.171875 340.464844 639.046875 343.1875 646.746094 347.941406 L 645.984375 349.601562 C 638.507812 344.9375 629.875 342.273438 620.699219 342.273438 C 615.964844 342.273438 611.378906 342.980469 607.015625 344.304688 C 606.230469 343.933594 605.46875 343.539062 604.703125 343.148438 C 609.773438 341.414062 615.164062 340.464844 620.71875 340.464844 Z M 593.21875 336.210938 C 593.777344 336.605469 594.335938 336.996094 594.914062 337.367188 C 602.78125 333.339844 611.507812 331.085938 620.71875 331.085938 C 631.457031 331.085938 641.582031 334.144531 650.402344 339.53125 L 651.089844 337.835938 C 642.066406 332.371094 631.71875 329.277344 620.71875 329.277344 C 610.875 329.296875 601.550781 331.773438 593.21875 336.210938 Z M 620.71875 317.699219 C 610.59375 317.699219 600.9375 319.972656 592.136719 324.074219 L 591.632812 326.3125 C 600.527344 321.929688 610.371094 319.507812 620.71875 319.507812 C 632.914062 319.507812 644.398438 322.882812 654.484375 328.828125 C 654.691406 328.25 654.894531 327.65625 655.082031 327.078125 C 644.808594 321.089844 633.117188 317.699219 620.71875 317.699219 Z M 620.71875 305.410156 C 611.9375 305.410156 603.453125 306.902344 595.492188 309.644531 C 595.304688 310.351562 595.136719 311.042969 594.96875 311.75 C 603.082031 308.804688 611.730469 307.21875 620.71875 307.21875 C 634.160156 307.21875 646.878906 310.78125 658.121094 317.121094 C 658.289062 316.503906 658.4375 315.90625 658.585938 315.3125 C 647.195312 308.972656 634.328125 305.410156 620.71875 305.410156 Z M 620.71875 292.789062 C 613.445312 292.789062 606.378906 293.683594 599.574219 295.378906 C 599.351562 296.050781 599.128906 296.742188 598.921875 297.414062 C 605.914062 295.566406 613.222656 294.597656 620.71875 294.597656 C 635.039062 294.597656 648.613281 298.15625 660.785156 304.515625 C 660.878906 303.882812 660.972656 303.25 661.046875 302.613281 C 648.78125 296.292969 635.113281 292.769531 620.71875 292.789062 Z M 661.589844 290.867188 C 661.550781 290.179688 661.515625 289.488281 661.4375 288.796875 C 648.871094 283.074219 635.113281 279.921875 620.71875 279.921875 C 615.480469 279.921875 610.316406 280.332031 605.261719 281.152344 C 604.945312 281.804688 604.628906 282.476562 604.3125 283.148438 C 609.660156 282.214844 615.125 281.730469 620.71875 281.730469 C 635.207031 281.75 649.023438 284.996094 661.589844 290.867188 Z M 620.71875 267.859375 Z M 658.308594 276.566406 C 657.933594 275.746094 657.523438 274.964844 657.09375 274.199219 C 645.628906 270.078125 633.414062 267.859375 620.71875 267.859375 C 618.460938 267.859375 616.226562 267.933594 614.007812 268.066406 C 613.429688 268.679688 612.851562 269.332031 612.289062 270.003906 C 615.070312 269.78125 617.882812 269.667969 620.71875 269.667969 C 633.863281 269.667969 646.503906 272.09375 658.308594 276.566406 Z M 658.308594 276.566406 " fill-opacity="0.349" fill-rule="nonzero"/><path fill="#0f3635" d="M 658.34375 319.601562 C 655.34375 330.152344 650.699219 341.917969 644.433594 354.933594 L 644.175781 355.492188 L 643.558594 355.417969 C 633.042969 354.207031 623.253906 351.855469 614.230469 348.351562 C 605.1875 344.863281 596.910156 340.222656 589.359375 334.441406 L 588.910156 334.085938 L 589.058594 333.527344 C 589.785156 330.65625 590.53125 327.355469 591.332031 323.703125 C 595.007812 307.238281 600.207031 283.839844 611.078125 270.097656 C 611.378906 269.722656 611.917969 269.667969 612.289062 269.949219 C 612.664062 270.246094 612.71875 270.785156 612.441406 271.160156 C 601.8125 284.585938 596.648438 307.742188 593.03125 324.054688 C 592.246094 327.542969 591.539062 330.75 590.886719 333.378906 C 598.175781 338.898438 606.175781 343.335938 614.863281 346.691406 C 623.570312 350.066406 633.003906 352.359375 643.167969 353.570312 C 649.246094 340.894531 653.757812 329.386719 656.683594 319.058594 C 659.648438 308.636719 661.011719 299.445312 660.769531 291.484375 C 660.75 291 661.121094 290.605469 661.605469 290.589844 C 662.09375 290.570312 662.484375 290.941406 662.503906 291.425781 C 662.746094 299.648438 661.363281 309.007812 658.34375 319.601562 Z M 244.589844 651.015625 L 244.796875 650.550781 L 244.480469 650.140625 C 216.304688 613.652344 195.871094 580.015625 183.175781 549.25 C 170.496094 518.542969 165.535156 490.667969 168.277344 465.648438 C 168.332031 465.179688 167.976562 464.75 167.511719 464.695312 C 167.046875 464.640625 166.617188 464.996094 166.5625 465.460938 C 163.785156 490.761719 168.796875 518.914062 181.589844 549.902344 C 194.304688 580.722656 214.722656 614.339844 242.820312 650.792969 C 239.707031 658.34375 238.921875 673.464844 240.46875 696.15625 C 242.035156 719.203125 245.988281 750.171875 252.347656 789.027344 C 252.421875 789.492188 252.871094 789.8125 253.335938 789.734375 C 253.800781 789.660156 254.117188 789.214844 254.042969 788.746094 C 247.703125 749.964844 243.753906 719.050781 242.1875 696.042969 C 240.636719 673.148438 241.441406 658.121094 244.589844 651.015625 Z M 330.824219 197.976562 C 329.539062 198.332031 328.828125 199.824219 329.238281 201.296875 C 329.648438 202.769531 331.03125 203.664062 332.316406 203.292969 C 333.601562 202.9375 334.3125 201.445312 333.902344 199.972656 C 333.492188 198.519531 332.109375 197.625 330.824219 197.976562 Z M 541.160156 160.574219 C 542.445312 160.222656 543.15625 158.730469 542.746094 157.257812 C 542.335938 155.785156 540.953125 154.890625 539.667969 155.261719 C 538.382812 155.617188 537.671875 157.109375 538.082031 158.582031 C 538.492188 160.035156 539.875 160.929688 541.160156 160.574219 Z M 540.003906 140.027344 C 542.296875 139.542969 544.890625 140.289062 547.742188 142.246094 C 548.132812 142.527344 548.675781 142.414062 548.933594 142.023438 C 549.214844 141.632812 549.101562 141.089844 548.710938 140.832031 C 545.449219 138.59375 542.429688 137.753906 539.648438 138.332031 C 539.183594 138.425781 538.886719 138.890625 538.976562 139.359375 C 539.070312 139.84375 539.539062 140.140625 540.003906 140.027344 Z M 549.066406 192.625 C 549.007812 193.09375 549.34375 193.539062 549.8125 193.597656 C 551.339844 193.78125 552.757812 194.378906 554.023438 195.367188 C 555.332031 196.394531 556.503906 197.847656 557.53125 199.730469 C 557.753906 200.140625 558.292969 200.308594 558.703125 200.066406 C 559.113281 199.84375 559.28125 199.300781 559.039062 198.890625 C 557.882812 196.804688 556.578125 195.179688 555.085938 194.007812 C 553.558594 192.8125 551.878906 192.105469 550.015625 191.882812 C 549.570312 191.804688 549.140625 192.140625 549.066406 192.625 Z M 544.496094 175.15625 C 545.242188 176.292969 546.0625 177.300781 546.957031 178.121094 C 547.855469 178.960938 548.839844 179.648438 549.886719 180.171875 C 550.316406 180.378906 550.835938 180.210938 551.042969 179.78125 C 551.246094 179.351562 551.078125 178.828125 550.648438 178.625 C 549.753906 178.175781 548.917969 177.597656 548.132812 176.871094 C 547.425781 176.21875 546.773438 175.4375 546.175781 174.542969 L 552.738281 151.367188 C 552.867188 150.898438 552.609375 150.433594 552.140625 150.300781 C 551.675781 150.171875 551.210938 150.433594 551.078125 150.898438 L 544.3125 174.820312 Z M 564.296875 899.910156 C 548.972656 897.914062 538.828125 893.214844 533.90625 885.832031 C 533.644531 885.441406 533.105469 885.328125 532.714844 885.589844 C 532.320312 885.851562 532.210938 886.390625 532.472656 886.785156 C 537.691406 894.613281 548.226562 899.574219 564.09375 901.625 C 564.558594 901.679688 565.007812 901.34375 565.0625 900.878906 C 565.101562 900.394531 564.765625 899.964844 564.296875 899.910156 Z M 570.375 163.597656 C 569.089844 163.949219 568.382812 165.441406 568.792969 166.914062 C 569.203125 168.386719 570.582031 169.28125 571.867188 168.910156 C 573.15625 168.554688 573.863281 167.0625 573.453125 165.589844 C 573.042969 164.117188 571.664062 163.222656 570.375 163.597656 Z M 576.566406 148.066406 C 573.75 147.207031 570.488281 147.171875 566.835938 147.933594 C 566.367188 148.027344 566.070312 148.492188 566.164062 148.960938 C 566.257812 149.425781 566.722656 149.722656 567.1875 149.632812 C 570.582031 148.921875 573.546875 148.941406 576.082031 149.722656 C 578.582031 150.488281 580.707031 151.980469 582.421875 154.199219 C 582.71875 154.570312 583.261719 154.648438 583.632812 154.347656 C 584.007812 154.050781 584.082031 153.507812 583.78125 153.136719 C 581.824219 150.621094 579.417969 148.921875 576.566406 148.066406 Z M 623.386719 904.050781 C 618.6875 903.730469 613.371094 902.203125 607.425781 899.480469 C 601.441406 896.722656 594.820312 892.75 587.605469 887.566406 C 587.214844 887.285156 586.671875 887.378906 586.394531 887.773438 C 586.113281 888.164062 586.207031 888.703125 586.597656 888.984375 C 593.925781 894.242188 600.621094 898.269531 606.714844 901.066406 C 612.851562 903.882812 618.371094 905.464844 623.273438 905.800781 C 623.757812 905.839844 624.167969 905.464844 624.1875 905 C 624.222656 904.476562 623.851562 904.066406 623.386719 904.050781 Z M 533.496094 362.242188 L 532.582031 304.421875 C 532.582031 303.9375 532.191406 303.566406 531.707031 303.566406 C 531.222656 303.566406 530.847656 303.957031 530.847656 304.441406 L 531.761719 362.261719 C 531.761719 362.746094 532.15625 363.117188 532.640625 363.117188 C 533.125 363.117188 533.515625 362.726562 533.496094 362.242188 Z M 501.667969 410.214844 C 498.6875 410.886719 495.574219 411.410156 492.90625 411.539062 C 490.816406 411.632812 489.027344 411.5 487.796875 411.015625 C 486.828125 410.253906 485.839844 409.300781 484.851562 408.164062 C 483.808594 406.988281 482.761719 405.609375 481.71875 404.042969 C 480.863281 402.757812 479.6875 400.445312 478.644531 398.320312 C 477.300781 395.632812 476.105469 393.246094 475.230469 393.191406 C 474.914062 393.171875 474.578125 393.230469 474.28125 393.359375 C 473.347656 393.734375 472.488281 394.703125 471.894531 396.082031 C 471.335938 397.332031 470.960938 398.972656 470.886719 400.761719 C 470.8125 402.289062 470.960938 403.96875 471.410156 405.628906 L 470.476562 405.21875 C 469.636719 404.828125 468.816406 404.398438 468.015625 403.894531 C 465.945312 402.625 464.304688 401.210938 462.832031 399.660156 C 461.339844 398.097656 459.980469 396.34375 458.523438 394.421875 C 457.609375 393.210938 456.660156 392 455.820312 391.011719 C 454.925781 389.964844 454.085938 389.164062 453.453125 388.867188 C 452.875 388.605469 452.316406 388.457031 451.777344 388.363281 C 450.359375 388.175781 449.070312 388.566406 447.953125 389.464844 C 446.910156 390.300781 445.996094 391.570312 445.269531 393.210938 C 444.410156 395.113281 443.777344 397.554688 443.386719 400.371094 C 443.328125 400.835938 443.644531 401.285156 444.132812 401.339844 C 444.597656 401.394531 445.042969 401.078125 445.101562 400.59375 C 445.472656 397.929688 446.050781 395.671875 446.851562 393.902344 C 447.46875 392.519531 448.214844 391.457031 449.054688 390.804688 C 449.800781 390.207031 450.65625 389.949219 451.570312 390.078125 C 451.941406 390.132812 452.351562 390.246094 452.761719 390.433594 C 453.136719 390.601562 453.769531 391.234375 454.515625 392.109375 C 455.316406 393.0625 456.25 394.253906 457.164062 395.449219 C 458.65625 397.40625 460.035156 399.195312 461.601562 400.816406 C 463.1875 402.476562 464.921875 403.96875 467.140625 405.328125 C 467.996094 405.851562 468.871094 406.335938 469.769531 406.746094 C 470.664062 407.15625 471.578125 407.511719 472.527344 407.808594 L 474.242188 408.351562 L 473.589844 406.671875 C 472.808594 404.675781 472.546875 402.609375 472.640625 400.761719 C 472.714844 399.175781 473.03125 397.761719 473.515625 396.699219 C 473.945312 395.746094 474.449219 395.09375 474.933594 394.890625 C 475.027344 394.851562 475.101562 394.832031 475.195312 394.851562 L 475.210938 394.851562 C 475.378906 394.851562 476.03125 396.808594 477.132812 399.027344 C 478.214844 401.191406 479.40625 403.558594 480.320312 404.9375 C 481.421875 406.5625 482.503906 407.996094 483.582031 409.226562 C 484.683594 410.476562 485.785156 411.519531 486.867188 412.378906 L 486.957031 412.453125 L 487.050781 412.488281 C 488.523438 413.125 490.632812 413.308594 493.019531 413.179688 C 495.796875 413.050781 499.023438 412.488281 502.078125 411.820312 C 502.546875 411.707031 502.84375 411.257812 502.734375 410.792969 C 502.601562 410.421875 502.136719 410.121094 501.667969 410.214844 Z M 341.136719 190.667969 C 343.839844 193.371094 345.515625 197.121094 345.515625 201.242188 C 345.515625 205.378906 343.839844 209.109375 341.136719 211.8125 C 338.433594 214.515625 334.683594 216.195312 330.5625 216.195312 C 326.425781 216.195312 322.695312 214.515625 319.992188 211.8125 C 317.289062 209.109375 315.609375 205.363281 315.609375 201.242188 C 315.609375 199.28125 316 197.4375 316.671875 195.722656 L 295.417969 187.238281 C 294.96875 187.070312 294.765625 186.566406 294.933594 186.121094 C 295.101562 185.671875 295.605469 185.46875 296.050781 185.636719 L 317.398438 194.15625 C 318.089844 192.871094 318.964844 191.695312 319.992188 190.667969 C 322.695312 187.964844 326.441406 186.289062 330.5625 186.289062 C 334.683594 186.289062 338.433594 187.964844 341.136719 190.667969 Z M 343.78125 201.242188 C 343.78125 197.585938 342.292969 194.285156 339.90625 191.882812 C 337.519531 189.496094 334.199219 188.003906 330.546875 188.003906 C 326.890625 188.003906 323.589844 189.496094 321.183594 191.882812 C 320.140625 192.925781 319.285156 194.15625 318.628906 195.5 C 318.628906 195.515625 318.628906 195.554688 318.613281 195.574219 C 318.59375 195.628906 318.554688 195.664062 318.519531 195.703125 C 317.734375 197.382812 317.289062 199.246094 317.289062 201.222656 C 317.289062 204.875 318.78125 208.175781 321.167969 210.582031 C 323.554688 212.988281 326.871094 214.460938 330.527344 214.460938 C 334.179688 214.460938 337.480469 212.96875 339.886719 210.582031 C 342.292969 208.214844 343.78125 204.894531 343.78125 201.242188 Z M 343.78125 201.242188 " fill-opacity="1" fill-rule="nonzero"/></svg>